<svg width="27" height="27" viewBox="0 0 27 27" fill="none" xmlns="http://www.w3.org/2000/svg">
<path d="M5.38732 18.8873C7.37324 21.8028 10.0775 23.2606 13.5 23.2606C16.9225 23.2606 19.6268 21.8028 21.6127 18.8873C21.5704 17.7042 20.6197 16.7113 18.7606 15.9085C16.9014 15.1056 15.1479 14.7042 13.5 14.7042C11.8521 14.7042 10.0986 15.1056 8.23944 15.9085C6.38028 16.669 5.42958 17.662 5.38732 18.8873ZM16.3521 5.26056C15.5493 4.45775 14.5986 4.05634 13.5 4.05634C12.4014 4.05634 11.4507 4.45775 10.6479 5.26056C9.84507 6.06338 9.44366 7.01408 9.44366 8.11268C9.44366 9.21127 9.84507 10.162 10.6479 10.9648C11.4507 11.7676 12.4014 12.169 13.5 12.169C14.5986 12.169 15.5493 11.7676 16.3521 10.9648C17.1549 10.162 17.5563 9.21127 17.5563 8.11268C17.5563 7.01408 17.1549 6.06338 16.3521 5.26056ZM3.92958 3.99296C6.59155 1.33099 9.78169 0 13.5 0C17.2183 0 20.3873 1.33099 23.007 3.99296C25.669 6.61268 27 9.78169 27 13.5C27 17.2183 25.669 20.4085 23.007 23.0704C20.3873 25.6901 17.2183 27 13.5 27C9.78169 27 6.59155 25.6901 3.92958 23.0704C1.30986 20.4085 0 17.2183 0 13.5C0 9.78169 1.30986 6.61268 3.92958 3.99296Z" fill="black"/>
</svg>
