<svg width="48" height="48" viewBox="0 0 48 48" fill="none" xmlns="http://www.w3.org/2000/svg">
<path d="M45.9999 38.7676C45.9999 39.8177 45.5827 40.8249 44.8401 41.5674C44.0976 42.31 43.0904 42.7272 42.0403 42.7272H6.40393C5.35378 42.7272 4.34664 42.31 3.60407 41.5674C2.86151 40.8249 2.44434 39.8177 2.44434 38.7676V16.9898C2.44434 15.9397 2.86151 14.9325 3.60407 14.19C4.34664 13.4474 5.35378 13.0302 6.40393 13.0302H14.3231L18.2827 7.09082H30.1615L34.1211 13.0302H42.0403C43.0904 13.0302 44.0976 13.4474 44.8401 14.19C45.5827 14.9325 45.9999 15.9397 45.9999 16.9898V38.7676Z" stroke="black" stroke-width="3" stroke-linecap="round" stroke-linejoin="round"/>
<path d="M24.2219 34.8081C28.5956 34.8081 32.1411 31.2626 32.1411 26.8889C32.1411 22.5153 28.5956 18.9697 24.2219 18.9697C19.8483 18.9697 16.3027 22.5153 16.3027 26.8889C16.3027 31.2626 19.8483 34.8081 24.2219 34.8081Z" stroke="black" stroke-width="3" stroke-linecap="round" stroke-linejoin="round"/>
</svg>
