<svg width="332" height="247" viewBox="0 0 332 247" fill="none" xmlns="http://www.w3.org/2000/svg">
<rect opacity="0.4" x="12" y="203.635" width="308" height="35.9078" fill="url(#paint0_radial)"/>
<g filter="url(#filter0_i)">
<g filter="url(#filter1_d)">
<rect x="12" y="12" width="308" height="208" rx="20" fill="#989999"/>
</g>
<mask id="mask0" mask-type="alpha" maskUnits="userSpaceOnUse" x="12" y="12" width="308" height="208">
<rect x="12" y="12" width="308" height="208" rx="20" fill="#C4C4C4"/>
</mask>
<g mask="url(#mask0)">
<path d="M149.487 299.444C261.169 208.237 295.272 30.5004 298.364 -46.9671L286.12 -93.8771C286.12 -93.8771 237.148 -224.503 224.905 -57.7926C222.398 -1.15107 184.713 39.6371 171.091 74.111C152.778 120.458 104.909 238.299 114.093 238.299C110.175 242.629 149.487 299.444 149.487 299.444Z" fill="black"/>
<path d="M115.091 299.444C260.213 208.17 292.612 30.1042 296.629 -47.4204L467.636 96.5L299.175 375.802L115.091 299.444Z" fill="#C1A6B0"/>
<path d="M225.389 -90.5562L-50.3639 -48.411L-59.2729 163.666L62.9089 294.388C99.1249 272.119 140.798 206.999 185.727 115.999C230.656 24.9994 228.567 -37.1609 225.389 -90.5562Z" fill="#161618"/>
</g>
</g>
<path opacity="0.72" d="M151.477 166.598H154.175V174H155.743V166.598H158.44V165.273H151.477V166.598ZM159.923 176.455C161.125 176.455 161.82 175.837 162.19 174.793L164.82 167.463L163.17 167.455L161.658 172.398H161.589L160.081 167.455H158.445L160.818 174.136L160.686 174.49C160.401 175.236 159.949 175.287 159.276 175.091L158.918 176.293C159.126 176.378 159.501 176.455 159.923 176.455ZM165.89 176.455H167.433V172.969H167.497C167.74 173.446 168.247 174.115 169.372 174.115C170.914 174.115 172.069 172.892 172.069 170.736C172.069 168.554 170.88 167.369 169.368 167.369C168.213 167.369 167.731 168.064 167.497 168.537H167.407V167.455H165.89V176.455ZM167.403 170.727C167.403 169.457 167.949 168.635 168.941 168.635C169.968 168.635 170.497 169.509 170.497 170.727C170.497 171.955 169.96 172.849 168.941 172.849C167.957 172.849 167.403 171.997 167.403 170.727ZM176.288 174.128C177.814 174.128 178.862 173.382 179.135 172.244L177.694 172.082C177.485 172.636 176.974 172.926 176.309 172.926C175.312 172.926 174.652 172.27 174.639 171.149H179.199V170.676C179.199 168.379 177.818 167.369 176.207 167.369C174.332 167.369 173.109 168.746 173.109 170.766C173.109 172.82 174.315 174.128 176.288 174.128ZM174.643 170.109C174.69 169.274 175.308 168.571 176.228 168.571C177.115 168.571 177.711 169.219 177.72 170.109H174.643Z" fill="white"/>
<path opacity="0.72" d="M240.604 167.672H242.125C242.095 166.197 240.838 165.153 238.98 165.153C237.148 165.153 235.771 166.185 235.776 167.727C235.776 168.98 236.666 169.7 238.102 170.071L239.095 170.327C240.037 170.565 240.659 170.859 240.663 171.537C240.659 172.283 239.952 172.781 238.92 172.781C237.932 172.781 237.165 172.338 237.101 171.422H235.545C235.609 173.156 236.901 174.132 238.933 174.132C241.026 174.132 242.24 173.088 242.244 171.55C242.24 170.037 240.991 169.347 239.679 169.036L238.861 168.831C238.145 168.661 237.369 168.358 237.378 167.629C237.382 166.973 237.97 166.491 238.959 166.491C239.901 166.491 240.523 166.93 240.604 167.672ZM246.854 167.455H245.563V165.886H244.02V167.455H243.091V168.648H244.02V172.287C244.012 173.518 244.907 174.124 246.066 174.089C246.505 174.077 246.807 173.991 246.973 173.936L246.713 172.73C246.628 172.751 246.453 172.79 246.262 172.79C245.874 172.79 245.563 172.653 245.563 172.031V168.648H246.854V167.455ZM250.028 174.132C251.055 174.132 251.668 173.651 251.95 173.101H252.001V174H253.484V169.619C253.484 167.889 252.073 167.369 250.825 167.369C249.448 167.369 248.391 167.983 248.05 169.176L249.491 169.381C249.644 168.933 250.079 168.55 250.833 168.55C251.549 168.55 251.941 168.916 251.941 169.56V169.585C251.941 170.028 251.477 170.05 250.322 170.173C249.052 170.31 247.837 170.689 247.837 172.163C247.837 173.45 248.779 174.132 250.028 174.132ZM250.428 172.999C249.785 172.999 249.325 172.705 249.325 172.138C249.325 171.545 249.84 171.298 250.531 171.2C250.935 171.145 251.745 171.043 251.945 170.881V171.652C251.945 172.381 251.357 172.999 250.428 172.999ZM258.303 167.455H257.012V165.886H255.469V167.455H254.54V168.648H255.469V172.287C255.461 173.518 256.356 174.124 257.515 174.089C257.954 174.077 258.256 173.991 258.423 173.936L258.163 172.73C258.077 172.751 257.903 172.79 257.711 172.79C257.323 172.79 257.012 172.653 257.012 172.031V168.648H258.303V167.455ZM263.765 171.247C263.765 172.244 263.054 172.739 262.372 172.739C261.63 172.739 261.136 172.214 261.136 171.384V167.455H259.593V171.622C259.593 173.195 260.488 174.085 261.775 174.085C262.755 174.085 263.446 173.57 263.744 172.837H263.812V174H265.308V167.455H263.765V171.247ZM272.067 169.185C271.854 168.077 270.968 167.369 269.434 167.369C267.857 167.369 266.783 168.145 266.788 169.355C266.783 170.31 267.371 170.94 268.629 171.2L269.745 171.435C270.346 171.567 270.627 171.81 270.627 172.18C270.627 172.628 270.141 172.964 269.408 172.964C268.701 172.964 268.241 172.658 268.109 172.07L266.604 172.214C266.796 173.416 267.806 174.128 269.413 174.128C271.049 174.128 272.204 173.28 272.208 172.04C272.204 171.107 271.603 170.536 270.367 170.267L269.251 170.028C268.586 169.879 268.322 169.649 268.326 169.27C268.322 168.827 268.812 168.52 269.455 168.52C270.167 168.52 270.542 168.908 270.661 169.338L272.067 169.185Z" fill="white"/>
<path opacity="0.72" d="M38.0284 165.273H36.294L39.3665 174H41.3182L44.3949 165.273H42.6562L40.3892 172.142H40.2997L38.0284 165.273ZM46.6683 174.132C47.6953 174.132 48.3089 173.651 48.5902 173.101H48.6413V174H50.1243V169.619C50.1243 167.889 48.7138 167.369 47.4652 167.369C46.0888 167.369 45.032 167.983 44.6911 169.176L46.1314 169.381C46.2848 168.933 46.7195 168.55 47.4737 168.55C48.1896 168.55 48.5817 168.916 48.5817 169.56V169.585C48.5817 170.028 48.1172 170.05 46.9624 170.173C45.6925 170.31 44.478 170.689 44.478 172.163C44.478 173.45 45.4197 174.132 46.6683 174.132ZM47.0689 172.999C46.4254 172.999 45.9652 172.705 45.9652 172.138C45.9652 171.545 46.4808 171.298 47.1712 171.2C47.576 171.145 48.3857 171.043 48.5859 170.881V171.652C48.5859 172.381 47.9979 172.999 47.0689 172.999ZM53.218 165.273H51.6754V174H53.218V165.273ZM54.8043 174H56.3469V167.455H54.8043V174ZM55.5799 166.526C56.07 166.526 56.4705 166.151 56.4705 165.69C56.4705 165.226 56.07 164.851 55.5799 164.851C55.0856 164.851 54.685 165.226 54.685 165.69C54.685 166.151 55.0856 166.526 55.5799 166.526ZM60.3622 174.115C61.4872 174.115 61.9943 173.446 62.2372 172.969H62.331V174H63.848V165.273H62.3011V168.537H62.2372C62.0028 168.064 61.5213 167.369 60.3665 167.369C58.8537 167.369 57.6648 168.554 57.6648 170.736C57.6648 172.892 58.8196 174.115 60.3622 174.115ZM60.7926 172.849C59.7741 172.849 59.2372 171.955 59.2372 170.727C59.2372 169.509 59.7656 168.635 60.7926 168.635C61.7855 168.635 62.331 169.457 62.331 170.727C62.331 171.997 61.777 172.849 60.7926 172.849ZM68.1531 166.598H70.8505V174H72.4187V166.598H75.1161V165.273H68.1531V166.598ZM77.9329 170.165C77.9329 169.219 78.521 168.673 79.3477 168.673C80.1573 168.673 80.6346 169.189 80.6346 170.071V174H82.1772V169.832C82.1772 168.251 81.2823 167.369 79.9229 167.369C78.9173 167.369 78.2781 167.825 77.9755 168.567H77.8988V165.273H76.3903V174H77.9329V170.165ZM83.7496 174H85.2923V170.152C85.2923 169.321 85.9187 168.733 86.7667 168.733C87.0266 168.733 87.3505 168.78 87.4826 168.822V167.403C87.342 167.378 87.0991 167.361 86.9286 167.361C86.1786 167.361 85.5522 167.787 85.3136 168.545H85.2454V167.455H83.7496V174ZM92.6793 171.247C92.6793 172.244 91.9677 172.739 91.2859 172.739C90.5444 172.739 90.0501 172.214 90.0501 171.384V167.455H88.5075V171.622C88.5075 173.195 89.4023 174.085 90.6893 174.085C91.6694 174.085 92.3597 173.57 92.658 172.837H92.7262V174H94.2219V167.455H92.6793V171.247Z" fill="white"/>
<path d="M36.8608 47H40.3935C42.392 47 43.3722 45.9815 43.3722 44.6222C43.3722 43.3011 42.4347 42.5256 41.5057 42.4787V42.3935C42.358 42.1932 43.0312 41.5966 43.0312 40.5355C43.0312 39.2358 42.0938 38.2727 40.2017 38.2727H36.8608V47ZM38.4418 45.679V43.1222H40.1847C41.1605 43.1222 41.7656 43.7188 41.7656 44.4986C41.7656 45.1932 41.2884 45.679 40.142 45.679H38.4418ZM38.4418 41.9844V39.5767H40.0398C40.9688 39.5767 41.4503 40.0668 41.4503 40.7401C41.4503 41.5071 40.8281 41.9844 40.0057 41.9844H38.4418ZM47.5344 47.1278C49.4521 47.1278 50.6708 45.777 50.6708 43.7528C50.6708 41.7244 49.4521 40.3693 47.5344 40.3693C45.6168 40.3693 44.3981 41.7244 44.3981 43.7528C44.3981 45.777 45.6168 47.1278 47.5344 47.1278ZM47.543 45.892C46.4819 45.892 45.962 44.946 45.962 43.7486C45.962 42.5511 46.4819 41.5923 47.543 41.5923C48.587 41.5923 49.1069 42.5511 49.1069 43.7486C49.1069 44.946 48.587 45.892 47.543 45.892ZM55.0249 47H56.6058V44.0511H58.2763C60.2919 44.0511 61.3743 42.8409 61.3743 41.1619C61.3743 39.4957 60.3047 38.2727 58.2976 38.2727H55.0249V47ZM56.6058 42.7514V39.5938H58.0547C59.2393 39.5938 59.7635 40.233 59.7635 41.1619C59.7635 42.0909 59.2393 42.7514 58.0632 42.7514H56.6058ZM64.4457 47.1321C65.4727 47.1321 66.0863 46.6506 66.3675 46.1009H66.4187V47H67.9016V42.6193C67.9016 40.8892 66.4911 40.3693 65.2425 40.3693C63.8661 40.3693 62.8093 40.983 62.4684 42.1761L63.9087 42.3807C64.0621 41.9332 64.4968 41.5497 65.2511 41.5497C65.967 41.5497 66.359 41.9162 66.359 42.5597V42.5852C66.359 43.0284 65.8945 43.0497 64.7397 43.1733C63.4698 43.3097 62.2553 43.6889 62.2553 45.1634C62.2553 46.4503 63.1971 47.1321 64.4457 47.1321ZM64.8462 45.9986C64.2028 45.9986 63.7425 45.7045 63.7425 45.1378C63.7425 44.5455 64.2582 44.2983 64.9485 44.2003C65.3533 44.1449 66.163 44.0426 66.3633 43.8807V44.652C66.3633 45.3807 65.7752 45.9986 64.8462 45.9986ZM70.1772 49.4545C71.3789 49.4545 72.0735 48.8366 72.4442 47.7926L75.0735 40.4631L73.4244 40.4545L71.9116 45.3977H71.8434L70.3349 40.4545H68.6985L71.0721 47.1364L70.94 47.4901C70.6545 48.2358 70.2028 48.2869 69.5295 48.0909L69.1715 49.2926C69.3803 49.3778 69.7553 49.4545 70.1772 49.4545ZM76.1442 47H77.6868V43.0199C77.6868 42.2145 78.2237 41.669 78.8885 41.669C79.5405 41.669 79.9879 42.108 79.9879 42.7812V47H81.5007V42.9176C81.5007 42.1804 81.9396 41.669 82.6854 41.669C83.3075 41.669 83.8018 42.0355 83.8018 42.8452V47H85.3487V42.6065C85.3487 41.1449 84.505 40.3693 83.3033 40.3693C82.353 40.3693 81.6286 40.8381 81.3388 41.5668H81.2706C81.0192 40.8253 80.3842 40.3693 79.5021 40.3693C78.6243 40.3693 77.968 40.821 77.6953 41.5668H77.6186V40.4545H76.1442V47ZM89.8114 47.1278C91.337 47.1278 92.3853 46.3821 92.658 45.2443L91.2177 45.0824C91.0089 45.6364 90.4975 45.9261 89.8327 45.9261C88.8356 45.9261 88.1751 45.2699 88.1623 44.1491H92.7219V43.6761C92.7219 41.3793 91.3413 40.3693 89.7305 40.3693C87.8555 40.3693 86.6325 41.7457 86.6325 43.7656C86.6325 45.8196 87.8384 47.1278 89.8114 47.1278ZM88.1665 43.1094C88.2134 42.2741 88.8313 41.571 89.7518 41.571C90.6381 41.571 91.2347 42.2188 91.2433 43.1094H88.1665ZM95.5696 43.1648C95.5696 42.2188 96.1406 41.6733 96.9545 41.6733C97.7514 41.6733 98.2287 42.1974 98.2287 43.071V47H99.7713V42.8324C99.7756 41.2642 98.8807 40.3693 97.5298 40.3693C96.5497 40.3693 95.8764 40.8381 95.5781 41.5668H95.5014V40.4545H94.027V47H95.5696V43.1648ZM104.608 40.4545H103.317V38.8864H101.774V40.4545H100.845V41.6477H101.774V45.2869C101.766 46.5185 102.661 47.1236 103.82 47.0895C104.259 47.0767 104.561 46.9915 104.727 46.9361L104.467 45.7301C104.382 45.7514 104.207 45.7898 104.016 45.7898C103.628 45.7898 103.317 45.6534 103.317 45.0312V41.6477H104.608V40.4545ZM110.978 42.1847C110.765 41.0767 109.878 40.3693 108.344 40.3693C106.767 40.3693 105.694 41.1449 105.698 42.3551C105.694 43.3097 106.282 43.9403 107.539 44.2003L108.655 44.4347C109.256 44.5668 109.537 44.8097 109.537 45.1804C109.537 45.6278 109.051 45.9645 108.319 45.9645C107.611 45.9645 107.151 45.6577 107.019 45.0696L105.515 45.2145C105.706 46.4162 106.716 47.1278 108.323 47.1278C109.959 47.1278 111.114 46.2798 111.118 45.0398C111.114 44.1065 110.513 43.5355 109.277 43.267L108.161 43.0284C107.496 42.8793 107.232 42.6491 107.236 42.2699C107.232 41.8267 107.722 41.5199 108.365 41.5199C109.077 41.5199 109.452 41.9077 109.571 42.3381L110.978 42.1847Z" fill="white"/>
<path d="M40.5241 194.169C42.8757 194.169 44.2528 192.25 44.2528 188.914C44.2528 185.603 42.8558 183.679 40.5241 183.679C38.1875 183.679 36.7955 185.598 36.7905 188.914C36.7905 192.245 38.1676 194.164 40.5241 194.169ZM40.5241 192.842C39.147 192.842 38.3168 191.46 38.3168 188.914C38.3217 186.379 39.152 184.982 40.5241 184.982C41.8913 184.982 42.7266 186.379 42.7266 188.914C42.7266 191.46 41.8963 192.842 40.5241 192.842ZM49.5712 194.139C51.699 194.159 53.111 192.628 53.106 190.674C53.111 188.725 51.6941 187.328 49.9292 187.328C48.8553 187.328 47.9256 187.845 47.4036 188.705H47.329C47.334 186.393 48.209 185.021 49.7005 185.021C50.6799 185.021 51.2963 185.618 51.5051 186.463H53.0215C52.7878 184.852 51.5201 183.679 49.7005 183.679C47.334 183.679 45.8574 185.712 45.8574 189.252C45.8525 193.001 47.7615 194.124 49.5712 194.139ZM49.5662 192.847C48.383 192.847 47.5179 191.852 47.5179 190.709C47.5229 189.57 48.4277 188.576 49.601 188.576C50.7644 188.576 51.6195 189.516 51.6145 190.694C51.6195 191.897 50.7296 192.847 49.5662 192.847ZM58.8146 183.341H57.4872L54.206 195.531H55.5334L58.8146 183.341ZM60.0575 194H66.7592V192.683H62.1754V192.608L64.1989 190.49C66.0632 188.606 66.5952 187.706 66.5952 186.567C66.5952 184.932 65.2628 183.679 63.3438 183.679C61.4396 183.679 60.0476 184.912 60.0476 186.771H61.5142C61.5092 185.678 62.2152 184.962 63.3139 184.962C64.348 184.962 65.1335 185.598 65.1335 186.612C65.1335 187.512 64.5966 188.158 63.5028 189.317L60.0575 192.886V194ZM72.1882 194.139C74.2663 194.139 75.7926 192.896 75.7876 191.206C75.7926 189.918 75.0121 188.994 73.6598 188.785V188.705C74.7237 188.432 75.4148 187.597 75.4098 186.453C75.4148 184.957 74.1868 183.679 72.228 183.679C70.3587 183.679 68.8572 184.808 68.8075 186.463H70.294C70.3288 185.528 71.2088 184.962 72.2081 184.962C73.2472 184.962 73.9283 185.593 73.9233 186.533C73.9283 187.517 73.1378 188.163 72.0092 188.163H71.1491V189.416H72.0092C73.4212 189.416 74.2365 190.132 74.2365 191.156C74.2365 192.146 73.3764 192.817 72.1783 192.817C71.0746 192.817 70.2145 192.25 70.1548 191.345H68.5938C68.6584 193.006 70.13 194.139 72.1882 194.139Z" fill="white"/>
<path d="M153.009 183.818H151.348L155.012 194H156.787L160.451 183.818H158.79L155.957 192.111H155.842L153.009 183.818ZM161.802 194H163.289V186.364H161.802V194ZM162.553 185.185C163.065 185.185 163.492 184.788 163.492 184.3C163.492 183.813 163.065 183.411 162.553 183.411C162.036 183.411 161.613 183.813 161.613 184.3C161.613 184.788 162.036 185.185 162.553 185.185ZM165.288 194H166.775V189.337C166.775 188.337 167.545 187.616 168.599 187.616C168.908 187.616 169.256 187.671 169.375 187.706V186.284C169.226 186.264 168.933 186.249 168.744 186.249C167.849 186.249 167.083 186.756 166.805 187.577H166.725V186.364H165.288V194ZM174.677 186.364H173.111V184.534H171.625V186.364H170.506V187.557H171.625V192.066C171.62 193.453 172.679 194.124 173.852 194.099C174.324 194.094 174.642 194.005 174.816 193.94L174.548 192.712C174.449 192.732 174.265 192.777 174.026 192.777C173.544 192.777 173.111 192.618 173.111 191.758V187.557H174.677V186.364ZM181.159 190.833C181.164 192.131 180.199 192.747 179.364 192.747C178.444 192.747 177.808 192.081 177.808 191.042V186.364H176.322V191.221C176.322 193.115 177.361 194.099 178.827 194.099C179.976 194.099 180.756 193.493 181.109 192.678H181.189V194H182.65V186.364H181.159V190.833ZM186.87 194.169C188.133 194.169 188.844 193.528 189.127 192.956H189.187V194H190.638V188.929C190.638 186.707 188.888 186.264 187.675 186.264C186.293 186.264 185.021 186.821 184.523 188.213L185.92 188.531C186.139 187.989 186.696 187.467 187.695 187.467C188.655 187.467 189.147 187.969 189.147 188.835V188.869C189.147 189.411 188.59 189.401 187.218 189.56C185.771 189.729 184.29 190.107 184.29 191.842C184.29 193.344 185.418 194.169 186.87 194.169ZM187.193 192.976C186.353 192.976 185.746 192.598 185.746 191.862C185.746 191.067 186.452 190.783 187.312 190.669C187.795 190.604 188.938 190.475 189.152 190.261V191.246C189.152 192.151 188.431 192.976 187.193 192.976ZM194.105 183.818H192.618V194H194.105V183.818Z" fill="white"/>
<path d="M254.979 194L255.913 191.305H259.891L260.82 194H262.451L258.787 183.818H257.012L253.348 194H254.979ZM256.361 190.013L257.862 185.668H257.942L259.443 190.013H256.361ZM266.896 194.154C268.7 194.154 269.869 193.07 270.033 191.584H268.586C268.397 192.409 267.756 192.896 266.906 192.896C265.648 192.896 264.837 191.847 264.837 190.182C264.837 188.546 265.663 187.517 266.906 187.517C267.85 187.517 268.427 188.114 268.586 188.83H270.033C269.874 187.288 268.616 186.264 266.881 186.264C264.728 186.264 263.336 187.885 263.336 190.217C263.336 192.518 264.678 194.154 266.896 194.154ZM275.187 186.364H273.621V184.534H272.134V186.364H271.016V187.557H272.134V192.066C272.129 193.453 273.188 194.124 274.362 194.099C274.834 194.094 275.152 194.005 275.326 193.94L275.058 192.712C274.958 192.732 274.774 192.777 274.536 192.777C274.053 192.777 273.621 192.618 273.621 191.758V187.557H275.187V186.364ZM276.831 194H278.318V186.364H276.831V194ZM277.582 185.185C278.094 185.185 278.522 184.788 278.522 184.3C278.522 183.813 278.094 183.411 277.582 183.411C277.065 183.411 276.642 183.813 276.642 184.3C276.642 184.788 277.065 185.185 277.582 185.185ZM286.85 186.364H285.254L283.325 192.24H283.246L281.312 186.364H279.716L282.49 194H284.081L286.85 186.364ZM291.265 194.154C292.931 194.154 294.109 193.334 294.447 192.091L293.04 191.837C292.771 192.558 292.125 192.926 291.28 192.926C290.007 192.926 289.152 192.101 289.112 190.629H294.541V190.102C294.541 187.343 292.891 186.264 291.161 186.264C289.033 186.264 287.631 187.885 287.631 190.232C287.631 192.603 289.013 194.154 291.265 194.154ZM289.117 189.516C289.177 188.432 289.963 187.492 291.171 187.492C292.324 187.492 293.08 188.347 293.085 189.516H289.117Z" fill="white"/>
<path d="M36.736 123.8V130.008H39.504C39.68 129.656 40.096 129.24 40.912 129.24C41.92 129.24 42.656 129.928 42.656 131.112C42.656 132.472 41.856 133.336 40.544 133.336C39.2 133.336 38.464 132.472 38.464 131.192V131.032H36.352V131.32C36.352 133.688 38.08 135.224 40.608 135.224C43.088 135.224 44.768 133.544 44.768 131.016C44.768 128.776 43.2 127.448 41.456 127.448C39.952 127.448 39.344 128.2 39.04 128.632H38.848V125.72H44.352V123.8H36.736ZM45.0796 123.8V125.72H50.9996L46.7116 135H49.0476L53.3996 125.656V123.8H45.0796ZM64.2773 128.008H65.5253V126.824H64.2773L63.1253 127.032C63.1093 126.968 63.0773 126.888 63.0453 126.824L64.0053 126.168L64.8853 125.272L64.0533 124.44L63.1573 125.32L62.5013 126.28C62.4373 126.248 62.3573 126.216 62.2933 126.2L62.5013 125.048V123.8H61.3173V125.048L61.5253 126.2C61.4613 126.216 61.3813 126.248 61.3173 126.28L60.6613 125.32L59.7653 124.44L58.9333 125.272L59.8133 126.168L60.7733 126.824C60.7413 126.888 60.7093 126.968 60.6933 127.032L59.5413 126.824H58.2933V128.008H59.5413L60.6933 127.8C60.7093 127.864 60.7413 127.944 60.7733 128.008L59.8133 128.664L58.9333 129.56L59.7653 130.392L60.6613 129.512L61.3173 128.552C61.3813 128.584 61.4613 128.616 61.5253 128.632L61.3173 129.784V131.032H62.5013V129.784L62.2933 128.632C62.3573 128.616 62.4373 128.584 62.5013 128.552L63.1573 129.512L64.0533 130.392L64.8853 129.56L64.0053 128.664L63.0453 128.008C63.0773 127.944 63.1093 127.864 63.1253 127.8L64.2773 128.008ZM72.5273 128.008H73.7753V126.824H72.5273L71.3753 127.032C71.3593 126.968 71.3273 126.888 71.2953 126.824L72.2553 126.168L73.1353 125.272L72.3033 124.44L71.4073 125.32L70.7513 126.28C70.6873 126.248 70.6073 126.216 70.5433 126.2L70.7513 125.048V123.8H69.5673V125.048L69.7753 126.2C69.7113 126.216 69.6313 126.248 69.5673 126.28L68.9113 125.32L68.0153 124.44L67.1833 125.272L68.0633 126.168L69.0233 126.824C68.9913 126.888 68.9593 126.968 68.9433 127.032L67.7913 126.824H66.5433V128.008H67.7913L68.9433 127.8C68.9593 127.864 68.9913 127.944 69.0233 128.008L68.0633 128.664L67.1833 129.56L68.0153 130.392L68.9113 129.512L69.5673 128.552C69.6313 128.584 69.7113 128.616 69.7753 128.632L69.5673 129.784V131.032H70.7513V129.784L70.5433 128.632C70.6073 128.616 70.6873 128.584 70.7513 128.552L71.4073 129.512L72.3033 130.392L73.1353 129.56L72.2553 128.664L71.2953 128.008C71.3273 127.944 71.3593 127.864 71.3753 127.8L72.5273 128.008Z" fill="white"/>
<path d="M209.357 128.008H210.605V126.824H209.357L208.205 127.032C208.189 126.968 208.157 126.888 208.125 126.824L209.085 126.168L209.965 125.272L209.133 124.44L208.237 125.32L207.581 126.28C207.517 126.248 207.437 126.216 207.373 126.2L207.581 125.048V123.8H206.397V125.048L206.605 126.2C206.541 126.216 206.461 126.248 206.397 126.28L205.741 125.32L204.845 124.44L204.013 125.272L204.893 126.168L205.853 126.824C205.821 126.888 205.789 126.968 205.773 127.032L204.621 126.824H203.373V128.008H204.621L205.773 127.8C205.789 127.864 205.821 127.944 205.853 128.008L204.893 128.664L204.013 129.56L204.845 130.392L205.741 129.512L206.397 128.552C206.461 128.584 206.541 128.616 206.605 128.632L206.397 129.784V131.032H207.581V129.784L207.373 128.632C207.437 128.616 207.517 128.584 207.581 128.552L208.237 129.512L209.133 130.392L209.965 129.56L209.085 128.664L208.125 128.008C208.157 127.944 208.189 127.864 208.205 127.8L209.357 128.008ZM221.92 128.008H223.168V126.824H221.92L220.768 127.032C220.752 126.968 220.72 126.888 220.688 126.824L221.648 126.168L222.528 125.272L221.696 124.44L220.8 125.32L220.144 126.28C220.08 126.248 220 126.216 219.936 126.2L220.144 125.048V123.8H218.96V125.048L219.168 126.2C219.104 126.216 219.024 126.248 218.96 126.28L218.304 125.32L217.408 124.44L216.576 125.272L217.456 126.168L218.416 126.824C218.384 126.888 218.352 126.968 218.336 127.032L217.184 126.824H215.936V128.008H217.184L218.336 127.8C218.352 127.864 218.384 127.944 218.416 128.008L217.456 128.664L216.576 129.56L217.408 130.392L218.304 129.512L218.96 128.552C219.024 128.584 219.104 128.616 219.168 128.632L218.96 129.784V131.032H220.144V129.784L219.936 128.632C220 128.616 220.08 128.584 220.144 128.552L220.8 129.512L221.696 130.392L222.528 129.56L221.648 128.664L220.688 128.008C220.72 127.944 220.752 127.864 220.768 127.8L221.92 128.008ZM228.594 123.8V125.72H233.666L230.898 127.992V129.88H232.85C233.922 129.88 234.674 130.408 234.674 131.48C234.674 132.552 233.89 133.336 232.562 133.336C231.138 133.336 230.386 132.44 230.386 131.352V130.968H228.274V131.416C228.274 133.64 229.89 135.224 232.562 135.224C235.058 135.224 236.786 133.752 236.786 131.48C236.786 129.448 235.394 128.376 233.842 128.376H233.426V128.184L236.53 125.656V123.8H228.594ZM237.655 126.632C237.655 127.992 238.503 128.728 239.447 129.128V129.32C238.519 129.592 237.495 130.472 237.495 131.976C237.495 133.928 239.255 135.224 241.687 135.224C244.119 135.224 245.879 133.928 245.879 131.976C245.879 130.472 244.855 129.592 243.927 129.32V129.128C244.871 128.728 245.719 127.992 245.719 126.632C245.719 124.872 244.087 123.576 241.687 123.576C239.287 123.576 237.655 124.872 237.655 126.632ZM239.767 126.888C239.767 125.992 240.551 125.464 241.687 125.464C242.823 125.464 243.607 125.992 243.607 126.888C243.607 127.784 242.823 128.312 241.687 128.312C240.551 128.312 239.767 127.784 239.767 126.888ZM239.607 131.768C239.607 130.84 240.343 130.2 241.687 130.2C243.031 130.2 243.767 130.84 243.767 131.768C243.767 132.696 243.031 133.336 241.687 133.336C240.343 133.336 239.607 132.696 239.607 131.768Z" fill="white"/>
<path d="M93.455 128.008H94.703V126.824H93.455L92.303 127.032C92.287 126.968 92.255 126.888 92.223 126.824L93.183 126.168L94.063 125.272L93.231 124.44L92.335 125.32L91.679 126.28C91.615 126.248 91.535 126.216 91.471 126.2L91.679 125.048V123.8H90.495V125.048L90.703 126.2C90.639 126.216 90.559 126.248 90.495 126.28L89.839 125.32L88.943 124.44L88.111 125.272L88.991 126.168L89.951 126.824C89.919 126.888 89.887 126.968 89.871 127.032L88.719 126.824H87.471V128.008H88.719L89.871 127.8C89.887 127.864 89.919 127.944 89.951 128.008L88.991 128.664L88.111 129.56L88.943 130.392L89.839 129.512L90.495 128.552C90.559 128.584 90.639 128.616 90.703 128.632L90.495 129.784V131.032H91.679V129.784L91.471 128.632C91.535 128.616 91.615 128.584 91.679 128.552L92.335 129.512L93.231 130.392L94.063 129.56L93.183 128.664L92.223 128.008C92.255 127.944 92.287 127.864 92.303 127.8L93.455 128.008ZM106.017 128.008H107.265V126.824H106.017L104.865 127.032C104.849 126.968 104.817 126.888 104.785 126.824L105.745 126.168L106.625 125.272L105.793 124.44L104.897 125.32L104.241 126.28C104.177 126.248 104.097 126.216 104.033 126.2L104.241 125.048V123.8H103.057V125.048L103.265 126.2C103.201 126.216 103.121 126.248 103.057 126.28L102.401 125.32L101.505 124.44L100.673 125.272L101.553 126.168L102.513 126.824C102.481 126.888 102.449 126.968 102.433 127.032L101.281 126.824H100.033V128.008H101.281L102.433 127.8C102.449 127.864 102.481 127.944 102.513 128.008L101.553 128.664L100.673 129.56L101.505 130.392L102.401 129.512L103.057 128.552C103.121 128.584 103.201 128.616 103.265 128.632L103.057 129.784V131.032H104.241V129.784L104.033 128.632C104.097 128.616 104.177 128.584 104.241 128.552L104.897 129.512L105.793 130.392L106.625 129.56L105.745 128.664L104.785 128.008C104.817 127.944 104.849 127.864 104.865 127.8L106.017 128.008ZM118.58 128.008H119.828V126.824H118.58L117.428 127.032C117.412 126.968 117.38 126.888 117.348 126.824L118.308 126.168L119.188 125.272L118.356 124.44L117.46 125.32L116.804 126.28C116.74 126.248 116.66 126.216 116.596 126.2L116.804 125.048V123.8H115.62V125.048L115.828 126.2C115.764 126.216 115.684 126.248 115.62 126.28L114.964 125.32L114.068 124.44L113.236 125.272L114.116 126.168L115.076 126.824C115.044 126.888 115.012 126.968 114.996 127.032L113.844 126.824H112.596V128.008H113.844L114.996 127.8C115.012 127.864 115.044 127.944 115.076 128.008L114.116 128.664L113.236 129.56L114.068 130.392L114.964 129.512L115.62 128.552C115.684 128.584 115.764 128.616 115.828 128.632L115.62 129.784V131.032H116.804V129.784L116.596 128.632C116.66 128.616 116.74 128.584 116.804 128.552L117.46 129.512L118.356 130.392L119.188 129.56L118.308 128.664L117.348 128.008C117.38 127.944 117.412 127.864 117.428 127.8L118.58 128.008ZM131.142 128.008H132.39V126.824H131.142L129.99 127.032C129.974 126.968 129.942 126.888 129.91 126.824L130.87 126.168L131.75 125.272L130.918 124.44L130.022 125.32L129.366 126.28C129.302 126.248 129.222 126.216 129.158 126.2L129.366 125.048V123.8H128.182V125.048L128.39 126.2C128.326 126.216 128.246 126.248 128.182 126.28L127.526 125.32L126.63 124.44L125.798 125.272L126.678 126.168L127.638 126.824C127.606 126.888 127.574 126.968 127.558 127.032L126.406 126.824H125.158V128.008H126.406L127.558 127.8C127.574 127.864 127.606 127.944 127.638 128.008L126.678 128.664L125.798 129.56L126.63 130.392L127.526 129.512L128.182 128.552C128.246 128.584 128.326 128.616 128.39 128.632L128.182 129.784V131.032H129.366V129.784L129.158 128.632C129.222 128.616 129.302 128.584 129.366 128.552L130.022 129.512L130.918 130.392L131.75 129.56L130.87 128.664L129.91 128.008C129.942 127.944 129.974 127.864 129.99 127.8L131.142 128.008Z" fill="white"/>
<path d="M151.406 128.008H152.654V126.824H151.406L150.254 127.032C150.238 126.968 150.206 126.888 150.174 126.824L151.134 126.168L152.014 125.272L151.182 124.44L150.286 125.32L149.63 126.28C149.566 126.248 149.486 126.216 149.422 126.2L149.63 125.048V123.8H148.446V125.048L148.654 126.2C148.59 126.216 148.51 126.248 148.446 126.28L147.79 125.32L146.894 124.44L146.062 125.272L146.942 126.168L147.902 126.824C147.87 126.888 147.838 126.968 147.822 127.032L146.67 126.824H145.422V128.008H146.67L147.822 127.8C147.838 127.864 147.87 127.944 147.902 128.008L146.942 128.664L146.062 129.56L146.894 130.392L147.79 129.512L148.446 128.552C148.51 128.584 148.59 128.616 148.654 128.632L148.446 129.784V131.032H149.63V129.784L149.422 128.632C149.486 128.616 149.566 128.584 149.63 128.552L150.286 129.512L151.182 130.392L152.014 129.56L151.134 128.664L150.174 128.008C150.206 127.944 150.238 127.864 150.254 127.8L151.406 128.008ZM163.969 128.008H165.217V126.824H163.969L162.817 127.032C162.801 126.968 162.769 126.888 162.737 126.824L163.697 126.168L164.577 125.272L163.745 124.44L162.849 125.32L162.193 126.28C162.129 126.248 162.049 126.216 161.985 126.2L162.193 125.048V123.8H161.009V125.048L161.217 126.2C161.153 126.216 161.073 126.248 161.009 126.28L160.353 125.32L159.457 124.44L158.625 125.272L159.505 126.168L160.465 126.824C160.433 126.888 160.401 126.968 160.385 127.032L159.233 126.824H157.985V128.008H159.233L160.385 127.8C160.401 127.864 160.433 127.944 160.465 128.008L159.505 128.664L158.625 129.56L159.457 130.392L160.353 129.512L161.009 128.552C161.073 128.584 161.153 128.616 161.217 128.632L161.009 129.784V131.032H162.193V129.784L161.985 128.632C162.049 128.616 162.129 128.584 162.193 128.552L162.849 129.512L163.745 130.392L164.577 129.56L163.697 128.664L162.737 128.008C162.769 127.944 162.801 127.864 162.817 127.8L163.969 128.008ZM176.531 128.008H177.779V126.824H176.531L175.379 127.032C175.363 126.968 175.331 126.888 175.299 126.824L176.259 126.168L177.139 125.272L176.307 124.44L175.411 125.32L174.755 126.28C174.691 126.248 174.611 126.216 174.547 126.2L174.755 125.048V123.8H173.571V125.048L173.779 126.2C173.715 126.216 173.635 126.248 173.571 126.28L172.915 125.32L172.019 124.44L171.187 125.272L172.067 126.168L173.027 126.824C172.995 126.888 172.963 126.968 172.947 127.032L171.795 126.824H170.547V128.008H171.795L172.947 127.8C172.963 127.864 172.995 127.944 173.027 128.008L172.067 128.664L171.187 129.56L172.019 130.392L172.915 129.512L173.571 128.552C173.635 128.584 173.715 128.616 173.779 128.632L173.571 129.784V131.032H174.755V129.784L174.547 128.632C174.611 128.616 174.691 128.584 174.755 128.552L175.411 129.512L176.307 130.392L177.139 129.56L176.259 128.664L175.299 128.008C175.331 127.944 175.363 127.864 175.379 127.8L176.531 128.008ZM189.094 128.008H190.342V126.824H189.094L187.942 127.032C187.926 126.968 187.894 126.888 187.862 126.824L188.822 126.168L189.702 125.272L188.87 124.44L187.974 125.32L187.318 126.28C187.254 126.248 187.174 126.216 187.11 126.2L187.318 125.048V123.8H186.134V125.048L186.342 126.2C186.278 126.216 186.198 126.248 186.134 126.28L185.478 125.32L184.582 124.44L183.75 125.272L184.63 126.168L185.59 126.824C185.558 126.888 185.526 126.968 185.51 127.032L184.358 126.824H183.11V128.008H184.358L185.51 127.8C185.526 127.864 185.558 127.944 185.59 128.008L184.63 128.664L183.75 129.56L184.582 130.392L185.478 129.512L186.134 128.552C186.198 128.584 186.278 128.616 186.342 128.632L186.134 129.784V131.032H187.318V129.784L187.11 128.632C187.174 128.616 187.254 128.584 187.318 128.552L187.974 129.512L188.87 130.392L189.702 129.56L188.822 128.664L187.862 128.008C187.894 127.944 187.926 127.864 187.942 127.8L189.094 128.008Z" fill="white"/>
<circle cx="271.5" cy="129.5" r="13.5" fill="#161618"/>
<path d="M269.282 124.18C269.845 124.059 270.422 123.999 271 124C276.727 124 280 130 280 130C279.503 130.852 278.911 131.654 278.233 132.393M272.735 131.59C272.51 131.811 272.239 131.988 271.938 132.111C271.637 132.234 271.312 132.3 270.982 132.306C270.653 132.311 270.325 132.256 270.019 132.142C269.714 132.029 269.436 131.861 269.203 131.647C268.97 131.433 268.786 131.179 268.663 130.899C268.539 130.619 268.479 130.319 268.485 130.016C268.49 129.714 268.563 129.416 268.697 129.14C268.831 128.864 269.024 128.616 269.265 128.41M275.86 134.455C274.461 135.432 272.758 135.974 271 136C265.273 136 262 130 262 130C263.018 128.261 264.429 126.742 266.14 125.545L275.86 134.455Z" stroke="white" stroke-width="1.5" stroke-linecap="round" stroke-linejoin="round"/>
<path d="M262 121L280 139" stroke="white" stroke-width="1.5" stroke-linecap="round" stroke-linejoin="round"/>
<path d="M45.1932 87.9091H47.875L47.8977 85.2841C52.8182 84.9091 55.6705 82.2955 55.6818 78.3523C55.6705 74.4773 52.75 72.4205 48.7045 71.5114L48.0341 71.3523L48.0795 65.6705C49.5909 66.0227 50.5114 66.9886 50.6477 68.4205H55.3636C55.3068 64.6591 52.5 61.9659 48.125 61.4886L48.1477 58.8182H45.4659L45.4432 61.4659C41 61.8977 37.8636 64.5795 37.8864 68.4545C37.875 71.8864 40.2955 73.8523 44.2273 74.7955L45.3182 75.0682L45.2614 81.0795C43.4091 80.7273 42.1591 79.5909 42.0341 77.6932H37.2727C37.3864 82.2841 40.3977 84.8523 45.2159 85.2727L45.1932 87.9091ZM47.9432 81.0795L47.9886 75.7727C49.75 76.3295 50.7045 77.0455 50.7159 78.3409C50.7045 79.7159 49.6591 80.7386 47.9432 81.0795ZM45.3523 70.6591C43.9318 70.1705 42.9091 69.4318 42.9318 68.125C42.9318 66.9091 43.7955 65.9659 45.3977 65.6364L45.3523 70.6591ZM58.8551 85H75.446V80.9773H65.6733V80.8182L69.071 77.4886C73.8551 73.125 75.1392 70.9432 75.1392 68.2955C75.1392 64.2614 71.8438 61.4091 66.8551 61.4091C61.9688 61.4091 58.6165 64.3295 58.6278 68.8977H63.2983C63.2869 66.6705 64.696 65.3068 66.821 65.3068C68.8665 65.3068 70.3892 66.5795 70.3892 68.625C70.3892 70.4773 69.2528 71.75 67.1392 73.7841L58.8551 81.4545V85ZM87.6932 85.3182C92.9432 85.3182 96.7159 82.5114 96.7273 78.7386C96.7159 75.8295 94.4773 73.4545 91.6818 72.9886V72.8295C94.1136 72.3295 95.8523 70.2273 95.8636 67.6705C95.8523 64.0682 92.3977 61.4091 87.6932 61.4091C82.9773 61.4091 79.5227 64.0682 79.5341 67.6705C79.5227 70.2159 81.2386 72.3295 83.7159 72.8295V72.9886C80.875 73.4545 78.6591 75.8295 78.6705 78.7386C78.6591 82.5114 82.4432 85.3182 87.6932 85.3182ZM87.6932 81.7045C85.3523 81.7045 83.7841 80.3182 83.7841 78.3523C83.7841 76.3409 85.4318 74.8864 87.6932 74.8864C89.9432 74.8864 91.6023 76.3409 91.6023 78.3523C91.6023 80.3295 90.0227 81.7045 87.6932 81.7045ZM87.6932 71.3068C85.7273 71.3068 84.3295 70.0227 84.3295 68.1818C84.3295 66.3636 85.7045 65.1136 87.6932 65.1136C89.6705 65.1136 91.0568 66.375 91.0568 68.1818C91.0568 70.0227 89.6477 71.3068 87.6932 71.3068ZM108.668 85.3182C113.849 85.3182 117.372 81.9432 117.361 77.2386C117.372 72.7841 114.259 69.5795 110.065 69.5795C108.02 69.5795 106.259 70.4318 105.44 71.5795H105.304L105.906 65.75H116.077V61.7273H101.849L100.747 74L105.122 74.7841C105.838 73.8182 107.224 73.2159 108.599 73.2159C110.94 73.2273 112.622 74.9205 112.622 77.3636C112.622 79.7841 110.974 81.4545 108.668 81.4545C106.713 81.4545 105.134 80.2273 105.02 78.4205H100.247C100.338 82.4432 103.849 85.3182 108.668 85.3182ZM130.918 61.7273H126.293L120.531 65.375V69.7386L125.861 66.3977H125.997V85H130.918V61.7273ZM145.574 85.5114C151.426 85.5114 154.96 81.0568 154.972 73.3864C154.983 65.7727 151.403 61.4091 145.574 61.4091C139.733 61.4091 136.188 65.7614 136.176 73.3864C136.153 81.0341 139.71 85.5 145.574 85.5114ZM145.574 81.4318C142.903 81.4318 141.176 78.75 141.188 73.3864C141.199 68.1023 142.915 65.4432 145.574 65.4432C148.222 65.4432 149.949 68.1023 149.949 73.3864C149.96 78.75 148.233 81.4318 145.574 81.4318ZM167.605 85.5114C173.457 85.5114 176.991 81.0568 177.003 73.3864C177.014 65.7727 173.435 61.4091 167.605 61.4091C161.764 61.4091 158.219 65.7614 158.207 73.3864C158.185 81.0341 161.741 85.5 167.605 85.5114ZM167.605 81.4318C164.935 81.4318 163.207 78.75 163.219 73.3864C163.23 68.1023 164.946 65.4432 167.605 65.4432C170.253 65.4432 171.98 68.1023 171.98 73.3864C171.991 78.75 170.264 81.4318 167.605 81.4318Z" fill="white"/>
<path d="M243 195C246.314 195 249 192.314 249 189C249 185.686 246.314 183 243 183C239.686 183 237 185.686 237 189C237 192.314 239.686 195 243 195Z" stroke="white" stroke-linecap="round" stroke-linejoin="round"/>
<path d="M246 187L241.875 191L240 189.182" stroke="white" stroke-linecap="round" stroke-linejoin="round"/>
<path d="M296.875 42.2021C296.875 45.1228 295.937 47.7305 294.166 50.0254C293.228 51.2771 292.186 52.3202 290.936 53.259C290.415 53.6762 289.79 53.5719 289.477 53.0504C289.165 52.5288 289.165 51.903 289.685 51.59C290.519 50.9642 291.353 50.234 291.978 49.3995C293.124 48.0435 294.062 46.4788 294.479 44.7056C295.104 42.0978 294.791 39.5944 293.437 37.1952C292.499 35.4219 291.144 34.0659 289.581 32.9185C289.269 32.6056 289.06 32.2926 289.165 31.8754C289.269 31.4582 289.581 31.1452 289.998 31.0409C290.311 30.9366 290.623 31.0409 290.832 31.2495C293.541 33.2314 295.521 35.8392 296.458 39.0728C296.667 40.1159 296.875 41.159 296.875 42.2021Z" fill="white"/>
<path d="M292.082 42.3069C292.082 45.0189 291.04 47.3137 289.165 49.1913C288.644 49.7129 288.123 50.2344 287.497 50.6517C286.768 51.1732 285.934 50.8603 285.726 50.0258C285.622 49.6086 285.83 49.2956 286.143 48.9827C286.976 48.3568 287.81 47.5224 288.435 46.6879C289.686 44.8103 290.207 42.8284 289.686 40.6379C289.269 38.8646 288.331 37.5086 287.081 36.2569C286.872 36.0482 286.56 35.7353 286.247 35.5267C285.726 35.1095 285.622 34.4836 286.039 34.0664C286.351 33.5448 286.976 33.4405 287.497 33.8577C289.581 35.4224 291.04 37.3 291.77 39.8034C291.978 40.6379 292.082 41.3681 292.082 42.3069Z" fill="white"/>
<path d="M287.288 42.4109C287.288 44.2885 286.455 45.9575 285.1 47.3135C284.788 47.6264 284.475 47.9393 284.058 48.148C283.746 48.3566 283.329 48.4609 282.912 48.148C282.495 47.9393 282.287 47.4178 282.391 47.0006C282.495 46.7919 282.599 46.5833 282.808 46.3747C283.85 45.5402 284.683 44.6014 284.996 43.3497C285.413 41.6807 284.996 40.3247 283.954 38.9687C283.641 38.7601 283.329 38.3428 282.912 38.0299C282.391 37.6126 282.287 36.9868 282.704 36.4652C283.12 35.9437 283.746 35.9437 284.267 36.3609C285.413 37.404 286.351 38.5514 286.976 40.0118C287.184 40.8463 287.288 41.5764 287.288 42.4109Z" fill="white"/>
<path d="M282.6 42.2019C282.6 43.6623 281.87 44.8097 280.724 45.6442C280.307 45.9571 279.682 45.8528 279.37 45.4356C279.057 45.0183 279.057 44.3925 279.474 43.9752C279.682 43.8709 279.786 43.6623 279.995 43.558C280.724 42.7235 280.724 41.7847 279.995 40.9502C279.786 40.8459 279.578 40.6373 279.37 40.533C278.953 40.1157 278.849 39.5942 279.265 39.0726C279.578 38.6554 280.203 38.5511 280.62 38.864C281.87 39.6985 282.495 40.8459 282.6 42.2019Z" fill="white"/>
<defs>
<filter id="filter0_i" x="12" y="12" width="308" height="212" filterUnits="userSpaceOnUse" color-interpolation-filters="sRGB">
<feFlood flood-opacity="0" result="BackgroundImageFix"/>
<feBlend mode="normal" in="SourceGraphic" in2="BackgroundImageFix" result="shape"/>
<feColorMatrix in="SourceAlpha" type="matrix" values="0 0 0 0 0 0 0 0 0 0 0 0 0 0 0 0 0 0 127 0" result="hardAlpha"/>
<feOffset dy="4"/>
<feGaussianBlur stdDeviation="8.5"/>
<feComposite in2="hardAlpha" operator="arithmetic" k2="-1" k3="1"/>
<feColorMatrix type="matrix" values="0 0 0 0 0.321106 0 0 0 0 0.215492 0 0 0 0 0.254608 0 0 0 0.36 0"/>
<feBlend mode="multiply" in2="shape" result="effect1_innerShadow"/>
</filter>
<filter id="filter1_d" x="0" y="0" width="332" height="232" filterUnits="userSpaceOnUse" color-interpolation-filters="sRGB">
<feFlood flood-opacity="0" result="BackgroundImageFix"/>
<feColorMatrix in="SourceAlpha" type="matrix" values="0 0 0 0 0 0 0 0 0 0 0 0 0 0 0 0 0 0 127 0"/>
<feOffset/>
<feGaussianBlur stdDeviation="6"/>
<feColorMatrix type="matrix" values="0 0 0 0 0.756863 0 0 0 0 0.65098 0 0 0 0 0.690196 0 0 0 0.72 0"/>
<feBlend mode="normal" in2="BackgroundImageFix" result="effect1_dropShadow"/>
<feBlend mode="normal" in="SourceGraphic" in2="effect1_dropShadow" result="shape"/>
</filter>
<radialGradient id="paint0_radial" cx="0" cy="0" r="1" gradientUnits="userSpaceOnUse" gradientTransform="translate(166 221.589) rotate(90) scale(17.9539 154)">
<stop stop-color="#C1A6B0"/>
<stop offset="0.8125" stop-color="#E2BECC" stop-opacity="0"/>
</radialGradient>
</defs>
</svg>
