<svg width="150" height="150" viewBox="0 0 150 150" fill="none" xmlns="http://www.w3.org/2000/svg">
<path d="M59.6896 76.1591C58.8411 76.1591 58.0855 76.0133 57.4226 75.7216C56.7635 75.4261 56.2427 75.0208 55.8601 74.5057C55.4813 73.9867 55.2862 73.3883 55.2749 72.7102H57.7521C57.7673 72.9943 57.8601 73.2443 58.0305 73.4602C58.2048 73.6723 58.4358 73.8371 58.7237 73.9545C59.0116 74.072 59.3355 74.1307 59.6953 74.1307C60.0703 74.1307 60.4018 74.0644 60.6896 73.9318C60.9775 73.7992 61.2029 73.6155 61.3658 73.3807C61.5286 73.1458 61.6101 72.875 61.6101 72.5682C61.6101 72.2576 61.523 71.983 61.3487 71.7443C61.1783 71.5019 60.9321 71.3125 60.6101 71.1761C60.2919 71.0398 59.9131 70.9716 59.4737 70.9716H58.3885V69.1648H59.4737C59.8449 69.1648 60.1726 69.1004 60.4567 68.9716C60.7446 68.8428 60.968 68.6648 61.1271 68.4375C61.2862 68.2064 61.3658 67.9375 61.3658 67.6307C61.3658 67.339 61.2957 67.0833 61.1555 66.8636C61.0192 66.6402 60.826 66.4659 60.576 66.3409C60.3298 66.2159 60.0419 66.1534 59.7124 66.1534C59.379 66.1534 59.0741 66.214 58.7976 66.3352C58.5211 66.4527 58.2995 66.6212 58.1328 66.8409C57.9661 67.0606 57.8771 67.3182 57.8658 67.6136H55.5078C55.5192 66.9432 55.7105 66.3523 56.0817 65.8409C56.4529 65.3295 56.9529 64.9299 57.5817 64.642C58.2143 64.3504 58.9283 64.2045 59.7237 64.2045C60.5268 64.2045 61.2294 64.3504 61.8317 64.642C62.4339 64.9337 62.9018 65.3277 63.2351 65.8239C63.5722 66.3163 63.7389 66.8693 63.7351 67.483C63.7389 68.1345 63.5362 68.678 63.1271 69.1136C62.7218 69.5492 62.1934 69.8258 61.5419 69.9432V70.0341C62.398 70.1439 63.0495 70.4413 63.4964 70.9261C63.9472 71.4072 64.1707 72.0095 64.1669 72.733C64.1707 73.3958 63.9794 73.9848 63.593 74.5C63.2105 75.0152 62.6821 75.4205 62.0078 75.7159C61.3336 76.0114 60.5608 76.1591 59.6896 76.1591ZM70.9979 64.3636V76H68.5376V66.6989H68.4695L65.8047 68.3693V66.1875L68.6854 64.3636H70.9979ZM78.326 76.2557C77.3487 76.2519 76.5078 76.0114 75.8033 75.5341C75.1025 75.0568 74.5627 74.3655 74.1839 73.4602C73.8089 72.5549 73.6233 71.4659 73.6271 70.1932C73.6271 68.9242 73.8146 67.8428 74.1896 66.9489C74.5684 66.0549 75.1082 65.375 75.8089 64.9091C76.5135 64.4394 77.3525 64.2045 78.326 64.2045C79.2995 64.2045 80.1366 64.4394 80.8374 64.9091C81.5419 65.3788 82.0836 66.0606 82.4624 66.9545C82.8411 67.8447 83.0286 68.9242 83.0249 70.1932C83.0249 71.4697 82.8355 72.5606 82.4567 73.4659C82.0817 74.3712 81.5438 75.0625 80.843 75.5398C80.1423 76.017 79.3033 76.2557 78.326 76.2557ZM78.326 74.2159C78.9927 74.2159 79.5249 73.8807 79.9226 73.2102C80.3203 72.5398 80.5173 71.5341 80.5135 70.1932C80.5135 69.3106 80.4226 68.5758 80.2408 67.9886C80.0627 67.4015 79.8089 66.9602 79.4794 66.6648C79.1536 66.3693 78.7692 66.2216 78.326 66.2216C77.6631 66.2216 77.1328 66.553 76.7351 67.2159C76.3374 67.8788 76.1366 68.8712 76.1328 70.1932C76.1328 71.0871 76.2218 71.8333 76.3999 72.4318C76.5817 73.0265 76.8374 73.4735 77.1669 73.7727C77.4964 74.0682 77.8828 74.2159 78.326 74.2159ZM89.3416 76.2557C88.3643 76.2519 87.5234 76.0114 86.8189 75.5341C86.1181 75.0568 85.5784 74.3655 85.1996 73.4602C84.8246 72.5549 84.639 71.4659 84.6428 70.1932C84.6428 68.9242 84.8303 67.8428 85.2053 66.9489C85.584 66.0549 86.1238 65.375 86.8246 64.9091C87.5291 64.4394 88.3681 64.2045 89.3416 64.2045C90.3151 64.2045 91.1522 64.4394 91.853 64.9091C92.5575 65.3788 93.0992 66.0606 93.478 66.9545C93.8568 67.8447 94.0443 68.9242 94.0405 70.1932C94.0405 71.4697 93.8511 72.5606 93.4723 73.4659C93.0973 74.3712 92.5594 75.0625 91.8587 75.5398C91.1579 76.017 90.3189 76.2557 89.3416 76.2557ZM89.3416 74.2159C90.0083 74.2159 90.5405 73.8807 90.9382 73.2102C91.3359 72.5398 91.5329 71.5341 91.5291 70.1932C91.5291 69.3106 91.4382 68.5758 91.2564 67.9886C91.0784 67.4015 90.8246 66.9602 90.495 66.6648C90.1693 66.3693 89.7848 66.2216 89.3416 66.2216C88.6787 66.2216 88.1484 66.553 87.7507 67.2159C87.353 67.8788 87.1522 68.8712 87.1484 70.1932C87.1484 71.0871 87.2375 71.8333 87.4155 72.4318C87.5973 73.0265 87.853 73.4735 88.1825 73.7727C88.5121 74.0682 88.8984 74.2159 89.3416 74.2159Z" fill="black"/>
<path d="M41.014 81.2727V90H39.4331V81.2727H41.014ZM47.8311 85.1847L46.4249 85.3381C46.3851 85.196 46.3155 85.0625 46.2161 84.9375C46.1195 84.8125 45.9888 84.7116 45.824 84.6349C45.6593 84.5582 45.4576 84.5199 45.2189 84.5199C44.8979 84.5199 44.628 84.5895 44.4093 84.7287C44.1934 84.8679 44.0868 85.0483 44.0897 85.2699C44.0868 85.4602 44.1564 85.6151 44.2985 85.7344C44.4434 85.8537 44.682 85.9517 45.0144 86.0284L46.1309 86.267C46.7502 86.4006 47.2104 86.6122 47.5115 86.902C47.8155 87.1918 47.9689 87.571 47.9718 88.0398C47.9689 88.4517 47.8482 88.8153 47.6096 89.1307C47.3738 89.4432 47.0456 89.6875 46.6252 89.8636C46.2047 90.0398 45.7218 90.1278 45.1763 90.1278C44.3752 90.1278 43.7303 89.9602 43.2417 89.625C42.753 89.2869 42.4618 88.8168 42.3681 88.2145L43.8723 88.0696C43.9405 88.3651 44.0854 88.5881 44.307 88.7386C44.5286 88.8892 44.8169 88.9645 45.1721 88.9645C45.5385 88.9645 45.8326 88.8892 46.0542 88.7386C46.2786 88.5881 46.3908 88.402 46.3908 88.1804C46.3908 87.9929 46.3184 87.8381 46.1735 87.7159C46.0314 87.5937 45.8098 87.5 45.5087 87.4347L44.3922 87.2003C43.7644 87.0696 43.2999 86.8494 42.9988 86.5398C42.6976 86.2273 42.5485 85.8324 42.5513 85.3551C42.5485 84.9517 42.6578 84.6023 42.8794 84.3068C43.1039 84.0085 43.415 83.7784 43.8127 83.6165C44.2132 83.4517 44.6749 83.3693 45.1976 83.3693C45.9647 83.3693 46.5684 83.5327 47.0087 83.8594C47.4519 84.1861 47.726 84.6278 47.8311 85.1847ZM54.4171 85.1847L53.0108 85.3381C52.9711 85.196 52.9015 85.0625 52.802 84.9375C52.7054 84.8125 52.5748 84.7116 52.41 84.6349C52.2452 84.5582 52.0435 84.5199 51.8049 84.5199C51.4838 84.5199 51.214 84.5895 50.9952 84.7287C50.7793 84.8679 50.6728 85.0483 50.6756 85.2699C50.6728 85.4602 50.7424 85.6151 50.8844 85.7344C51.0293 85.8537 51.2679 85.9517 51.6003 86.0284L52.7168 86.267C53.3361 86.4006 53.7963 86.6122 54.0975 86.902C54.4015 87.1918 54.5549 87.571 54.5577 88.0398C54.5549 88.4517 54.4341 88.8153 54.1955 89.1307C53.9597 89.4432 53.6316 89.6875 53.2111 89.8636C52.7907 90.0398 52.3077 90.1278 51.7623 90.1278C50.9611 90.1278 50.3162 89.9602 49.8276 89.625C49.339 89.2869 49.0478 88.8168 48.954 88.2145L50.4583 88.0696C50.5265 88.3651 50.6713 88.5881 50.8929 88.7386C51.1145 88.8892 51.4029 88.9645 51.758 88.9645C52.1245 88.9645 52.4185 88.8892 52.6401 88.7386C52.8645 88.5881 52.9767 88.402 52.9767 88.1804C52.9767 87.9929 52.9043 87.8381 52.7594 87.7159C52.6174 87.5937 52.3958 87.5 52.0946 87.4347L50.9782 87.2003C50.3503 87.0696 49.8858 86.8494 49.5847 86.5398C49.2836 86.2273 49.1344 85.8324 49.1373 85.3551C49.1344 84.9517 49.2438 84.6023 49.4654 84.3068C49.6898 84.0085 50.0009 83.7784 50.3986 83.6165C50.7992 83.4517 51.2608 83.3693 51.7836 83.3693C52.5506 83.3693 53.1543 83.5327 53.5946 83.8594C54.0378 84.1861 54.312 84.6278 54.4171 85.1847ZM60.0016 87.2472V83.4545H61.5442V90H60.0485V88.8366H59.9803C59.8326 89.2031 59.5897 89.5028 59.2516 89.7358C58.9164 89.9687 58.503 90.0852 58.0115 90.0852C57.5826 90.0852 57.2033 89.9901 56.8738 89.7997C56.5471 89.6065 56.2914 89.3267 56.1067 88.9602C55.9221 88.5909 55.8297 88.1449 55.8297 87.6222V83.4545H57.3723V87.3835C57.3723 87.7983 57.486 88.1278 57.7132 88.3722C57.9405 88.6165 58.2388 88.7386 58.6081 88.7386C58.8354 88.7386 59.0556 88.6832 59.2686 88.5724C59.4817 88.4616 59.6564 88.2969 59.7928 88.0781C59.932 87.8565 60.0016 87.5795 60.0016 87.2472ZM66.0282 90.1278C65.372 90.1278 64.8052 89.9915 64.3279 89.7188C63.8535 89.4432 63.4885 89.054 63.2328 88.5511C62.9771 88.0455 62.8493 87.4503 62.8493 86.7656C62.8493 86.0923 62.9771 85.5014 63.2328 84.9929C63.4913 84.4815 63.8521 84.0838 64.3152 83.7997C64.7782 83.5128 65.3223 83.3693 65.9473 83.3693C66.3507 83.3693 66.7314 83.4347 67.0893 83.5653C67.4501 83.6932 67.7683 83.892 68.0439 84.1619C68.3223 84.4318 68.541 84.7756 68.7001 85.1932C68.8592 85.608 68.9387 86.1023 68.9387 86.6761V87.1491H63.5737V86.1094H67.46C67.4572 85.8139 67.3933 85.5511 67.2683 85.321C67.1433 85.0881 66.9686 84.9048 66.7441 84.7713C66.5225 84.6378 66.264 84.571 65.9686 84.571C65.6532 84.571 65.3762 84.6477 65.1376 84.8011C64.899 84.9517 64.7129 85.1506 64.5794 85.3977C64.4487 85.642 64.3819 85.9105 64.3791 86.2031V87.1108C64.3791 87.4915 64.4487 87.8182 64.5879 88.0909C64.7271 88.3608 64.9217 88.5682 65.1717 88.7131C65.4217 88.8551 65.7143 88.9261 66.0495 88.9261C66.274 88.9261 66.4771 88.8949 66.6589 88.8324C66.8407 88.767 66.9984 88.6719 67.1319 88.5469C67.2654 88.4219 67.3663 88.267 67.4345 88.0824L68.8748 88.2443C68.7839 88.625 68.6106 88.9574 68.3549 89.2415C68.1021 89.5227 67.7782 89.7415 67.3833 89.8977C66.9885 90.0511 66.5368 90.1278 66.0282 90.1278ZM72.6728 90.1151C72.1586 90.1151 71.6983 89.983 71.2921 89.7188C70.8858 89.4545 70.5648 89.071 70.329 88.5682C70.0932 88.0653 69.9753 87.4545 69.9753 86.7358C69.9753 86.0085 70.0946 85.3949 70.3333 84.8949C70.5748 84.392 70.9 84.0128 71.3091 83.7571C71.7182 83.4986 72.1742 83.3693 72.677 83.3693C73.0605 83.3693 73.3759 83.4347 73.623 83.5653C73.8702 83.6932 74.0662 83.848 74.2111 84.0298C74.356 84.2088 74.4682 84.3778 74.5478 84.5369H74.6117V81.2727H76.1586V90H74.6415V88.9688H74.5478C74.4682 89.1278 74.3532 89.2969 74.2026 89.4759C74.052 89.652 73.8532 89.8026 73.606 89.9276C73.3588 90.0526 73.0478 90.1151 72.6728 90.1151ZM73.1032 88.8494C73.4299 88.8494 73.7083 88.7614 73.9384 88.5852C74.1685 88.4062 74.3432 88.1577 74.4625 87.8395C74.5819 87.5213 74.6415 87.1506 74.6415 86.7273C74.6415 86.304 74.5819 85.9361 74.4625 85.6236C74.3461 85.3111 74.1728 85.0682 73.9426 84.8949C73.7154 84.7216 73.4355 84.6349 73.1032 84.6349C72.7594 84.6349 72.4725 84.7244 72.2424 84.9034C72.0123 85.0824 71.839 85.3295 71.7225 85.6449C71.606 85.9602 71.5478 86.321 71.5478 86.7273C71.5478 87.1364 71.606 87.5014 71.7225 87.8224C71.8418 88.1406 72.0165 88.392 72.2466 88.5767C72.4796 88.7585 72.7651 88.8494 73.1032 88.8494ZM88.3173 84.2173H86.7235C86.6781 83.956 86.5943 83.7244 86.4721 83.5227C86.35 83.3182 86.198 83.1449 86.0162 83.0028C85.8343 82.8608 85.627 82.7543 85.394 82.6832C85.1639 82.6094 84.9153 82.5724 84.6483 82.5724C84.1738 82.5724 83.7534 82.6918 83.3869 82.9304C83.0204 83.1662 82.7335 83.5128 82.5261 83.9702C82.3187 84.4247 82.215 84.9801 82.215 85.6364C82.215 86.304 82.3187 86.8665 82.5261 87.3239C82.7363 87.7784 83.0233 88.1222 83.3869 88.3551C83.7534 88.5852 84.1724 88.7003 84.644 88.7003C84.9054 88.7003 85.1497 88.6662 85.377 88.598C85.6071 88.527 85.813 88.4233 85.9949 88.2869C86.1795 88.1506 86.3343 87.983 86.4593 87.7841C86.5872 87.5852 86.6752 87.358 86.7235 87.1023L88.3173 87.1108C88.2576 87.5256 88.1284 87.9148 87.9295 88.2784C87.7335 88.642 87.4764 88.9631 87.1582 89.2415C86.84 89.517 86.4679 89.733 86.0417 89.8892C85.6156 90.0426 85.1426 90.1193 84.6227 90.1193C83.8556 90.1193 83.171 89.9418 82.5687 89.5866C81.9664 89.2315 81.492 88.7188 81.1454 88.0483C80.7988 87.3778 80.6255 86.5739 80.6255 85.6364C80.6255 84.696 80.8002 83.892 81.1497 83.2244C81.4991 82.554 81.975 82.0412 82.5772 81.6861C83.1795 81.331 83.8613 81.1534 84.6227 81.1534C85.1085 81.1534 85.5602 81.2216 85.9778 81.358C86.3954 81.4943 86.7676 81.6946 87.0943 81.9588C87.421 82.2202 87.6895 82.5412 87.8997 82.9219C88.1127 83.2997 88.252 83.7315 88.3173 84.2173ZM91.5804 90.1321C91.1657 90.1321 90.7921 90.0582 90.4597 89.9105C90.1301 89.7599 89.8688 89.5384 89.6756 89.2457C89.4853 88.9531 89.3901 88.5923 89.3901 88.1634C89.3901 87.794 89.4583 87.4886 89.5946 87.2472C89.731 87.0057 89.9171 86.8125 90.1529 86.6676C90.3887 86.5227 90.6543 86.4134 90.9498 86.3395C91.248 86.2628 91.5563 86.2074 91.8745 86.1733C92.258 86.1335 92.5691 86.098 92.8077 86.0668C93.0463 86.0327 93.2196 85.9815 93.3276 85.9134C93.4384 85.8423 93.4938 85.733 93.4938 85.5852V85.5597C93.4938 85.2386 93.3986 84.9901 93.2083 84.8139C93.0179 84.6378 92.7438 84.5497 92.3858 84.5497C92.008 84.5497 91.7083 84.6321 91.4867 84.7969C91.2679 84.9616 91.1202 85.1562 91.0435 85.3807L89.6032 85.1761C89.7168 84.7784 89.9043 84.446 90.1657 84.179C90.427 83.9091 90.7466 83.7074 91.1245 83.5739C91.5023 83.4375 91.9199 83.3693 92.3773 83.3693C92.6926 83.3693 93.0066 83.4062 93.3191 83.4801C93.6316 83.554 93.9171 83.6761 94.1756 83.8466C94.4341 84.0142 94.6415 84.2429 94.7978 84.5327C94.9569 84.8224 95.0364 85.1847 95.0364 85.6193V90H93.5534V89.1009H93.5023C93.4086 89.2827 93.2765 89.4531 93.106 89.6122C92.9384 89.7685 92.7267 89.8949 92.4711 89.9915C92.2182 90.0852 91.9213 90.1321 91.5804 90.1321ZM91.981 88.9986C92.2907 88.9986 92.5591 88.9375 92.7864 88.8153C93.0137 88.6903 93.1884 88.5256 93.3105 88.321C93.4355 88.1165 93.498 87.8935 93.498 87.652V86.8807C93.4498 86.9205 93.3674 86.9574 93.2509 86.9915C93.1373 87.0256 93.0094 87.0554 92.8674 87.081C92.7253 87.1065 92.5847 87.1293 92.4455 87.1491C92.3063 87.169 92.1855 87.1861 92.0833 87.2003C91.8532 87.2315 91.6472 87.2827 91.4654 87.3537C91.2836 87.4247 91.1401 87.5241 91.035 87.652C90.9299 87.777 90.8773 87.9389 90.8773 88.1378C90.8773 88.4219 90.981 88.6364 91.1884 88.7812C91.3958 88.9261 91.66 88.9986 91.981 88.9986ZM96.5875 90V83.4545H98.0833V84.5455H98.1515C98.2708 84.1676 98.4753 83.8764 98.7651 83.6719C99.0577 83.4645 99.3915 83.3608 99.7665 83.3608C99.8517 83.3608 99.9469 83.3651 100.052 83.3736C100.16 83.3793 100.249 83.3892 100.32 83.4034V84.8224C100.255 84.7997 100.151 84.7798 100.009 84.7628C99.8702 84.7429 99.7353 84.733 99.6046 84.733C99.3233 84.733 99.0705 84.794 98.8461 84.9162C98.6245 85.0355 98.4498 85.2017 98.3219 85.4148C98.1941 85.6278 98.1301 85.8736 98.1301 86.152V90H96.5875ZM103.505 90.1151C102.991 90.1151 102.53 89.983 102.124 89.7188C101.718 89.4545 101.397 89.071 101.161 88.5682C100.925 88.0653 100.807 87.4545 100.807 86.7358C100.807 86.0085 100.927 85.3949 101.165 84.8949C101.407 84.392 101.732 84.0128 102.141 83.7571C102.55 83.4986 103.006 83.3693 103.509 83.3693C103.893 83.3693 104.208 83.4347 104.455 83.5653C104.702 83.6932 104.898 83.848 105.043 84.0298C105.188 84.2088 105.3 84.3778 105.38 84.5369H105.444V81.2727H106.991V90H105.474V88.9688H105.38C105.3 89.1278 105.185 89.2969 105.035 89.4759C104.884 89.652 104.685 89.8026 104.438 89.9276C104.191 90.0526 103.88 90.1151 103.505 90.1151ZM103.935 88.8494C104.262 88.8494 104.54 88.7614 104.77 88.5852C105.001 88.4062 105.175 88.1577 105.295 87.8395C105.414 87.5213 105.474 87.1506 105.474 86.7273C105.474 86.304 105.414 85.9361 105.295 85.6236C105.178 85.3111 105.005 85.0682 104.775 84.8949C104.547 84.7216 104.268 84.6349 103.935 84.6349C103.591 84.6349 103.305 84.7244 103.074 84.9034C102.844 85.0824 102.671 85.3295 102.555 85.6449C102.438 85.9602 102.38 86.321 102.38 86.7273C102.38 87.1364 102.438 87.5014 102.555 87.8224C102.674 88.1406 102.849 88.392 103.079 88.5767C103.312 88.7585 103.597 88.8494 103.935 88.8494ZM113.808 85.1847L112.401 85.3381C112.362 85.196 112.292 85.0625 112.193 84.9375C112.096 84.8125 111.965 84.7116 111.801 84.6349C111.636 84.5582 111.434 84.5199 111.195 84.5199C110.874 84.5199 110.605 84.5895 110.386 84.7287C110.17 84.8679 110.063 85.0483 110.066 85.2699C110.063 85.4602 110.133 85.6151 110.275 85.7344C110.42 85.8537 110.659 85.9517 110.991 86.0284L112.107 86.267C112.727 86.4006 113.187 86.6122 113.488 86.902C113.792 87.1918 113.945 87.571 113.948 88.0398C113.945 88.4517 113.825 88.8153 113.586 89.1307C113.35 89.4432 113.022 89.6875 112.602 89.8636C112.181 90.0398 111.698 90.1278 111.153 90.1278C110.352 90.1278 109.707 89.9602 109.218 89.625C108.73 89.2869 108.438 88.8168 108.345 88.2145L109.849 88.0696C109.917 88.3651 110.062 88.5881 110.284 88.7386C110.505 88.8892 110.794 88.9645 111.149 88.9645C111.515 88.9645 111.809 88.8892 112.031 88.7386C112.255 88.5881 112.367 88.402 112.367 88.1804C112.367 87.9929 112.295 87.8381 112.15 87.7159C112.008 87.5937 111.786 87.5 111.485 87.4347L110.369 87.2003C109.741 87.0696 109.276 86.8494 108.975 86.5398C108.674 86.2273 108.525 85.8324 108.528 85.3551C108.525 84.9517 108.634 84.6023 108.856 84.3068C109.08 84.0085 109.392 83.7784 109.789 83.6165C110.19 83.4517 110.651 83.3693 111.174 83.3693C111.941 83.3693 112.545 83.5327 112.985 83.8594C113.428 84.1861 113.703 84.6278 113.808 85.1847Z" fill="#989999"/>
<circle cx="75.5" cy="75.5" r="59.5" stroke="#E0DCDC" stroke-width="24" stroke-linecap="round" stroke-linejoin="round"/>
<path d="M102.523 22.4902C109.828 26.2146 116.286 31.4089 121.489 37.7473C126.692 44.0856 130.529 51.4311 132.759 59.3226C134.988 67.2142 135.562 75.4814 134.445 83.6055C133.328 91.7295 130.544 99.5349 126.267 106.532C121.99 113.529 116.313 119.566 109.592 124.265C102.871 128.963 95.2516 132.222 87.2115 133.836C79.1715 135.45 70.8846 135.385 62.8709 133.644C54.8573 131.904 47.29 128.525 40.644 123.721" stroke="#89455E" stroke-width="24" stroke-linecap="round" stroke-linejoin="round"/>
<g filter="url(#filter0_d)">
<path fill-rule="evenodd" clip-rule="evenodd" d="M73 2C71.8954 2 71 2.89543 71 4V19.0864C71 20.191 71.8954 21.0864 73 21.0864H96.4998L101.272 25.091C101.458 25.247 101.729 25.247 101.915 25.091L106.687 21.0864H128.387C129.491 21.0864 130.387 20.191 130.387 19.0864V4C130.387 2.89543 129.491 2 128.387 2H73Z" fill="white"/>
</g>
<path d="M84.4172 14.9492H82.7297L85.8022 6.22195H87.7539L90.8306 14.9492H89.1431L86.8121 8.01172H86.7439L84.4172 14.9492ZM84.4726 11.5273H89.0749V12.7972H84.4726V11.5273ZM94.5678 15.0771C93.9144 15.0771 93.3533 14.9336 92.8846 14.6467C92.4187 14.3597 92.0593 13.9634 91.8064 13.4577C91.5564 12.9492 91.4314 12.364 91.4314 11.7021C91.4314 11.0373 91.5593 10.4506 91.815 9.94212C92.0706 9.43075 92.4314 9.03303 92.8973 8.74893C93.3661 8.462 93.9201 8.31854 94.5593 8.31854C95.0905 8.31854 95.5607 8.41655 95.9698 8.61257C96.3817 8.80575 96.7098 9.0799 96.9542 9.43501C97.1985 9.78729 97.3377 10.1992 97.3718 10.6708H95.8973C95.8377 10.3555 95.6956 10.0927 95.4712 9.88246C95.2496 9.66939 94.9527 9.56285 94.5806 9.56285C94.2652 9.56285 93.9883 9.64808 93.7496 9.81854C93.511 9.98615 93.3249 10.2276 93.1914 10.543C93.0607 10.8583 92.9954 11.2362 92.9954 11.6765C92.9954 12.1225 93.0607 12.506 93.1914 12.8271C93.3221 13.1452 93.5053 13.391 93.7411 13.5643C93.9797 13.7347 94.2596 13.82 94.5806 13.82C94.8079 13.82 95.011 13.7773 95.19 13.6921C95.3718 13.604 95.5238 13.4776 95.6459 13.3129C95.7681 13.1481 95.8519 12.9478 95.8973 12.712H97.3718C97.3348 13.1751 97.1985 13.5856 96.9627 13.9435C96.7269 14.2987 96.4059 14.5771 95.9996 14.7788C95.5934 14.9776 95.1161 15.0771 94.5678 15.0771ZM101.907 8.40376V9.59695H98.1442V8.40376H101.907ZM99.0731 6.83558H100.616V12.9805C100.616 13.1879 100.647 13.3469 100.709 13.4577C100.775 13.5657 100.86 13.6396 100.965 13.6793C101.07 13.7191 101.187 13.739 101.315 13.739C101.411 13.739 101.499 13.7319 101.579 13.7177C101.661 13.7035 101.724 13.6907 101.766 13.6793L102.026 14.8853C101.944 14.9137 101.826 14.945 101.673 14.979C101.522 15.0131 101.337 15.033 101.119 15.0387C100.732 15.0501 100.384 14.9918 100.075 14.864C99.7649 14.7333 99.5192 14.5316 99.3373 14.2589C99.1584 13.9862 99.0703 13.6452 99.0731 13.2362V6.83558ZM103.197 14.9492V8.40376H104.74V14.9492H103.197ZM103.973 7.47479C103.725 7.47479 103.514 7.39382 103.338 7.23189C103.164 7.06712 103.078 6.86967 103.078 6.63956C103.078 6.4066 103.166 6.20916 103.342 6.04723C103.518 5.88246 103.728 5.80007 103.973 5.80007C104.217 5.80007 104.426 5.88246 104.599 6.04723C104.775 6.20916 104.863 6.4066 104.863 6.63956C104.863 6.86967 104.775 7.06712 104.599 7.23189C104.426 7.39382 104.217 7.47479 103.973 7.47479ZM112.173 8.40376L109.842 14.9492H108.137L105.806 8.40376H107.451L108.955 13.266H109.023L110.532 8.40376H112.173ZM115.915 15.0771C115.259 15.0771 114.692 14.9407 114.215 14.668C113.74 14.3924 113.375 14.0032 113.12 13.5004C112.864 12.9947 112.736 12.3995 112.736 11.7148C112.736 11.0415 112.864 10.4506 113.12 9.94212C113.378 9.43075 113.739 9.03303 114.202 8.74893C114.665 8.462 115.209 8.31854 115.834 8.31854C116.238 8.31854 116.618 8.38388 116.976 8.51456C117.337 8.6424 117.655 8.84126 117.931 9.11115C118.209 9.38104 118.428 9.72479 118.587 10.1424C118.746 10.5572 118.826 11.0515 118.826 11.6254V12.0984H113.461V11.0586H117.347C117.344 10.7631 117.28 10.5004 117.155 10.2702C117.03 10.0373 116.855 9.85405 116.631 9.72053C116.409 9.587 116.151 9.52024 115.855 9.52024C115.54 9.52024 115.263 9.59695 115.024 9.75035C114.786 9.90092 114.6 10.0998 114.466 10.3469C114.336 10.5913 114.269 10.8597 114.266 11.1523V12.06C114.266 12.4407 114.336 12.7674 114.475 13.0401C114.614 13.31 114.809 13.5174 115.059 13.6623C115.309 13.8043 115.601 13.8754 115.936 13.8754C116.161 13.8754 116.364 13.8441 116.546 13.7816C116.728 13.7163 116.885 13.6211 117.019 13.4961C117.152 13.3711 117.253 13.2163 117.321 13.0316L118.762 13.1935C118.671 13.5742 118.497 13.9066 118.242 14.1907C117.989 14.4719 117.665 14.6907 117.27 14.8469C116.875 15.0004 116.424 15.0771 115.915 15.0771Z" fill="#161618"/>
<defs>
<filter id="filter0_d" x="69" y="1" width="69.3869" height="33.208" filterUnits="userSpaceOnUse" color-interpolation-filters="sRGB">
<feFlood flood-opacity="0" result="BackgroundImageFix"/>
<feColorMatrix in="SourceAlpha" type="matrix" values="0 0 0 0 0 0 0 0 0 0 0 0 0 0 0 0 0 0 127 0"/>
<feOffset dx="3" dy="4"/>
<feGaussianBlur stdDeviation="2.5"/>
<feColorMatrix type="matrix" values="0 0 0 0 0.239216 0 0 0 0 0.25098 0 0 0 0 0.356863 0 0 0 0.1 0"/>
<feBlend mode="normal" in2="BackgroundImageFix" result="effect1_dropShadow"/>
<feBlend mode="normal" in="SourceGraphic" in2="effect1_dropShadow" result="shape"/>
</filter>
</defs>
</svg>
