<svg width="24" height="24" viewBox="0 0 24 24" fill="none" xmlns="http://www.w3.org/2000/svg">
<path fill-rule="evenodd" clip-rule="evenodd" d="M17.7095 5.01432C17.8787 4.84508 18.1082 4.75 18.3476 4.75C18.5869 4.75 18.8165 4.84508 18.9857 5.01432C19.1549 5.18356 19.25 5.41309 19.25 5.65243C19.25 5.89177 19.1549 6.12131 18.9857 6.29055L11.7324 13.5438L10.0308 13.9692L10.4562 12.2676L17.7095 5.01432ZM18.3476 3.25C17.7104 3.25 17.0993 3.50311 16.6488 3.95366L9.24865 11.3538C9.15253 11.4499 9.08434 11.5704 9.05137 11.7022L8.27241 14.8181C8.20851 15.0737 8.2834 15.344 8.46969 15.5303C8.65597 15.7166 8.92634 15.7915 9.18192 15.7276L12.2978 14.9486C12.4296 14.9157 12.5501 14.8475 12.6462 14.7514L20.0464 7.35121C20.4969 6.90067 20.75 6.2896 20.75 5.65243C20.75 5.01527 20.4969 4.4042 20.0464 3.95366C19.5958 3.50311 18.9847 3.25 18.3476 3.25ZM5.55556 5.25C4.94408 5.25 4.35766 5.49291 3.92528 5.92528C3.49291 6.35766 3.25 6.94408 3.25 7.55556V18.4444C3.25 19.0559 3.49291 19.6423 3.92528 20.0747C4.35766 20.5071 4.94408 20.75 5.55556 20.75H16.4444C17.0559 20.75 17.6423 20.5071 18.0747 20.0747C18.5071 19.6423 18.75 19.0559 18.75 18.4444V13C18.75 12.5858 18.4142 12.25 18 12.25C17.5858 12.25 17.25 12.5858 17.25 13V18.4444C17.25 18.6581 17.1651 18.863 17.0141 19.0141C16.863 19.1651 16.6581 19.25 16.4444 19.25H5.55556C5.34191 19.25 5.13701 19.1651 4.98594 19.0141C4.83487 18.863 4.75 18.6581 4.75 18.4444V7.55556C4.75 7.34191 4.83487 7.13701 4.98594 6.98594C5.13701 6.83487 5.34191 6.75 5.55556 6.75H11C11.4142 6.75 11.75 6.41421 11.75 6C11.75 5.58579 11.4142 5.25 11 5.25H5.55556Z" fill="#FE9900"/>
</svg>
