<svg width="32" height="32" viewBox="0 0 32 32" fill="none" xmlns="http://www.w3.org/2000/svg">
<path d="M15.5488 4C15.5297 4.08787 15.5972 4.13966 15.6318 4.20255C17.3847 7.37912 19.1393 10.5543 20.8921 13.7309C20.9343 13.8072 21.0013 13.8742 21 14C20.9307 13.9686 20.8735 13.944 20.8175 13.9163C19.1126 13.0765 17.4073 12.2385 15.7055 11.3918C15.5617 11.3201 15.4547 11.3303 15.3189 11.3978C13.63 12.2371 11.9393 13.0714 10.2486 13.9061C10.178 13.9408 10.1127 13.9977 10 13.9843C10.2233 13.5806 10.4372 13.193 10.6516 12.8055C12.2704 9.87773 13.8892 6.95043 15.5075 4.02266C15.5102 4.01757 15.5053 4.00786 15.5044 4C15.5191 4 15.5342 4 15.5488 4Z" fill="#DEE2E6"/>
<path d="M22 16.0448C19.8413 20.0192 17.6822 23.9936 15.5063 28C13.3285 23.9911 11.1661 20.0108 9 16.0231C9.10691 15.9897 9.16619 16.0556 9.23248 16.089C11.2558 17.1011 13.279 18.1131 15.2995 19.1311C15.4461 19.2048 15.5609 19.2073 15.7094 19.132C17.7154 18.1195 19.7246 17.1143 21.733 16.1072C21.8077 16.0698 21.8838 16.0359 21.9589 16C21.9725 16.0152 21.986 16.03 22 16.0448Z" fill="#DEE2E6"/>
<path d="M10 15.4942C11.3786 14.8613 12.7384 14.2373 14.0987 13.6133C14.5113 13.4243 14.9248 13.2376 15.3359 13.0453C15.4339 12.9996 15.5145 12.9786 15.6255 13.0299C17.3834 13.8378 19.1437 14.6401 20.9035 15.4443C20.932 15.4573 20.9566 15.4779 21 15.5063C20.1189 15.9096 19.2518 16.3058 18.3846 16.703C17.4799 17.1175 16.5751 17.5324 15.6718 17.9491C15.568 17.9972 15.4807 18.0248 15.3596 17.9692C13.6031 17.159 11.8433 16.3548 10.0844 15.5488C10.0627 15.5395 10.0444 15.5236 10 15.4942Z" fill="#7B7979"/>
</svg>
