<svg width="24" height="24" viewBox="0 0 24 24" fill="none" xmlns="http://www.w3.org/2000/svg">
<path fill-rule="evenodd" clip-rule="evenodd" d="M2.25 3.82258C2.25 3.00015 2.88654 2.25 3.77143 2.25H20.2286C21.1135 2.25 21.75 3.00015 21.75 3.82258V19.1774C21.75 19.9998 21.1135 20.75 20.2286 20.75H3.77143C2.88654 20.75 2.25 19.9998 2.25 19.1774V3.82258ZM3.77301 3.75398C3.76307 3.76457 3.75 3.78706 3.75 3.82258V16.4212L6.2677 12.4854C6.71197 11.7909 7.62805 11.5722 8.33642 12.0056L12.6346 14.6354L20.25 7.18415V3.82258C20.25 3.78706 20.2369 3.76457 20.227 3.75398C20.2253 3.75219 20.2239 3.7509 20.2228 3.75H3.77723C3.77612 3.7509 3.77469 3.75219 3.77301 3.75398ZM3.77301 19.246C3.76553 19.238 3.75626 19.2233 3.75214 19.2013L3.75591 19.1955L7.53128 13.2937C7.53441 13.2888 7.53687 13.2868 7.53823 13.2859C7.53997 13.2846 7.54199 13.2837 7.5441 13.2832C7.54621 13.2827 7.54774 13.2828 7.54855 13.2829L7.54859 13.2829C7.54898 13.283 7.55043 13.2832 7.55357 13.2851L12.3501 16.2198C12.6431 16.3991 13.0205 16.3564 13.266 16.1161L20.25 9.28273V19.1774C20.25 19.2129 20.2369 19.2354 20.227 19.246C20.2253 19.2478 20.2239 19.2491 20.2228 19.25H3.77722C3.77612 19.2491 3.77469 19.2478 3.77301 19.246ZM14 10.25C15.3807 10.25 16.5 9.13071 16.5 7.75C16.5 6.36929 15.3807 5.25 14 5.25C12.6193 5.25 11.5 6.36929 11.5 7.75C11.5 9.13071 12.6193 10.25 14 10.25ZM15 7.75C15 8.30228 14.5523 8.75 14 8.75C13.4477 8.75 13 8.30228 13 7.75C13 7.19772 13.4477 6.75 14 6.75C14.5523 6.75 15 7.19772 15 7.75Z" fill="#797C7F"/>
</svg>
