<svg width="56" height="50" viewBox="0 0 56 50" fill="none" xmlns="http://www.w3.org/2000/svg">
<g clip-path="url(#clip0_453_2225)">
<path d="M23.4 2.6L0.7 41.1C0.3 41.9 0 42.9 0 43.8C0 44.8 0.2 45.7 0.7 46.5C1.2 47.3 1.8 48 2.6 48.5C3.4 49 4.3 49.2 5.3 49.3H50.7C51.6 49.3 52.6 49 53.4 48.5C54.2 48 54.9 47.3 55.3 46.5C55.8 45.7 56 44.7 56 43.8C56 42.8 55.7 41.9 55.3 41.1L32.6 2.6C32.1 1.8 31.4 1.1 30.6 0.7C29.8 0.3 28.9 0 28 0C27.1 0 26.2 0.2 25.4 0.7C24.6 1.2 23.9 1.8 23.4 2.6Z" fill="#FE9900"/>
<path fill-rule="evenodd" clip-rule="evenodd" d="M47.6 49.3H50.7C51.6 49.3 52.6 49 53.4 48.5C54.2 48 54.9 47.3 55.3 46.5C55.8 45.7 56 44.7 56 43.8C56 42.8 55.7 41.9 55.3 41.1L32.6 2.6C32.1 1.8 31.4 1.1 30.6 0.7C29.8 0.2 28.9 0 28 0C27.5 0 27 0.1 26.5 0.2C26.9 0.3 27.2 0.5 27.6 0.7C28.4 1.2 29.1 1.8 29.6 2.6L52.3 41.1C52.8 41.9 53 42.9 53 43.8C53 44.8 52.8 45.7 52.3 46.5C51.8 47.3 51.2 48 50.4 48.5C49.5 49 48.5 49.3 47.6 49.3Z" fill="#FFAF36"/>
<path d="M27 35.6001H29V37.6001H27V35.6001Z" fill="white"/>
<path d="M27 15.6001H29V32.6001H27V15.6001Z" fill="white"/>
</g>
<defs>
<clipPath id="clip0_453_2225">
<rect width="56" height="49.3" fill="white"/>
</clipPath>
</defs>
</svg>
