<svg width="381" height="380" viewBox="0 0 381 380" fill="none" xmlns="http://www.w3.org/2000/svg">
<mask id="mask0" mask-type="alpha" maskUnits="userSpaceOnUse" x="0" y="0" width="381" height="380">
<rect width="381" height="380" fill="#C4C4C4"/>
</mask>
<g mask="url(#mask0)">
<path fill-rule="evenodd" clip-rule="evenodd" d="M83.2454 40H0V376.22V376.407H0.00127244C0.380752 404.353 85.5909 426.98 190.657 426.98C295.958 426.98 381.314 404.252 381.314 376.22C381.332 350.494 309.431 329.236 216.213 325.912C223.192 312.557 227.042 297.333 227.042 281.585C227.042 256.863 217.96 233.167 202.817 218.028C191.722 206.935 181.614 201.902 158.919 196.849C172.048 188.776 177.586 184.246 183.144 176.677C190.696 164.577 195.75 146.922 195.75 128.763C195.75 101.021 184.151 74.8081 165.484 60.1724C148.327 46.5628 122.089 40 83.2454 40ZM95.331 376.407H113.53C150.711 376.407 177.386 368.4 197.037 350.895C246.712 351.769 285.985 362.774 285.985 376.22C286.005 390.236 243.307 401.6 190.657 401.6C138.241 401.6 95.7095 390.337 95.331 376.407ZM135.218 136.332C135.218 165.081 118.062 180.22 84.2523 180.22V180.2H65.5855V92.9478H85.2786C118.062 92.9478 135.218 108.087 135.218 136.332ZM139.749 314.38C129.157 320.943 115.021 323.459 93.8374 323.459H65.5855V230.147H90.3132C117.558 230.147 128.15 232.161 139.749 239.73C152.355 247.3 159.423 261.413 159.423 277.055C159.423 292.697 151.852 307.314 139.749 314.38Z" fill="url(#paint0_linear)"/>
</g>
<defs>
<linearGradient id="paint0_linear" x1="17.5" y1="404.5" x2="154" y2="59.5" gradientUnits="userSpaceOnUse">
<stop stop-color="white"/>
<stop offset="1" stop-color="white" stop-opacity="0"/>
</linearGradient>
</defs>
</svg>
