<svg width="130" height="34" viewBox="0 0 130 34" fill="none" xmlns="http://www.w3.org/2000/svg">
<path d="M37.6103 11.8785H40.4667L40.7662 13.2079H40.8897C41.5429 12.091 42.5295 11.666 43.7292 11.666C46.1981 11.666 47.6618 13.2776 47.6618 16.5739C47.6618 19.8328 46.1981 21.4461 43.7292 21.4461C42.7241 21.4461 41.79 21.1265 41.2434 20.3836H41.1199V24.7237H37.6103V11.8785ZM44.1523 17.0159V16.0775C44.1523 14.9793 43.7292 14.2704 42.6361 14.2704C41.5429 14.2704 41.0843 15.1561 41.0843 16.2543V16.8391C41.0843 17.9373 41.5429 18.8417 42.6361 18.8417C43.7292 18.8417 44.1523 18.1158 44.1523 17.0159Z" fill="black"/>
<path d="M48.8261 18.8228C48.8261 16.0229 51.1884 15.4925 55.2632 15.4925V15.0318C55.2632 14.2702 54.6641 13.9149 53.906 13.9149C53.2884 13.9149 52.5658 14.1104 52.5658 14.7292V14.8006H49.1087C49.0918 14.7122 49.0918 14.6408 49.0918 14.5524C49.0918 12.8337 50.767 11.6641 53.9585 11.6641C56.5154 11.6641 58.7727 12.4087 58.7727 14.7105V18.3604C58.7727 18.7497 58.9487 19.0506 59.3362 19.0506H59.9708V21.0889C59.6882 21.2487 59.0012 21.4425 58.1365 21.4425C56.7252 21.4425 55.8267 20.9818 55.5965 20.2729H55.473C54.7149 20.9461 53.6742 21.4425 52.1056 21.4425C50.1663 21.4459 48.8261 20.7727 48.8261 18.8228ZM55.2632 17.9558V17.1585C53.1818 17.1585 52.3357 17.6719 52.3357 18.3638C52.3357 19.0897 52.9347 19.2495 53.5354 19.2495C54.434 19.2478 55.2632 18.7174 55.2632 17.9558Z" fill="black"/>
<path d="M60.783 24.636V22.528H62.1943C63.4279 22.528 63.675 21.695 63.763 21.2343L60.0605 11.8809H63.834L64.9272 15.6719C65.1556 16.4335 65.6142 18.0995 65.6142 18.0995H65.7377C65.7377 18.0995 66.1608 16.5219 66.3723 15.6906L67.3775 11.8809H70.8346L67.5196 20.9521C66.6735 23.2726 65.5262 24.9556 62.812 24.9556C61.9642 24.9539 61.223 24.7941 60.783 24.636Z" fill="black"/>
<path d="M71.8921 11.8785H74.7671L74.9955 13.2776H75.1191C75.7722 12.2151 77.0058 11.666 78.2411 11.666C79.6693 11.666 80.6034 12.2508 81.062 13.2776H81.1855C81.8556 12.2151 83.0368 11.666 84.2534 11.666C86.4042 11.666 87.428 12.9597 87.428 15.1731V21.2319H83.9184V15.5998C83.9184 14.8195 83.5309 14.2704 82.8066 14.2704C81.9605 14.2704 81.414 14.9436 81.414 15.7409V21.2336H77.9044V15.5998C77.9044 14.8195 77.5169 14.2704 76.7926 14.2704C75.9465 14.2704 75.4 14.9436 75.4 15.7409V21.2336H71.8904V11.8785H71.8921Z" fill="#989998"/>
<path d="M89.105 16.5572C89.105 13.2796 91.1678 11.668 94.3423 11.668C97.6929 11.668 99.5965 13.1912 99.5965 16.5572V17.159H92.6129C92.6129 18.4527 93.1426 19.1956 94.4828 19.1956C95.735 19.1956 96.1936 18.5938 96.1936 17.8322H99.5965C99.5965 20.0643 97.9044 21.4464 94.5539 21.4464C91.2033 21.4464 89.105 19.9215 89.105 16.5572ZM96.0531 15.493C96.0531 14.5189 95.471 13.9154 94.4828 13.9154C93.3016 13.9154 92.7551 14.5172 92.6315 15.493H96.0531Z" fill="#989998"/>
<path d="M101.29 11.8785H104.165L104.394 13.2963H104.517C105.24 12.1981 106.423 11.666 107.709 11.666C109.914 11.666 110.953 12.9597 110.953 15.1731V21.2319H107.443V15.5998C107.443 14.8195 107.037 14.2704 106.262 14.2704C105.38 14.2704 104.798 14.9436 104.798 15.7409V21.2336H101.289V11.8785H101.29Z" fill="#989998"/>
<path d="M113.775 18.9474V14.2707H112.471V11.8788H113.917L114.675 9.04492H117.285V11.8788H119.26V14.2707H117.285V17.8322C117.285 18.6295 117.479 19.0545 118.273 19.0545H119.261V21.1268C118.679 21.3223 117.622 21.4464 117.004 21.4464C115.099 21.4464 113.775 20.8616 113.775 18.9474Z" fill="#989998"/>
<path d="M120.424 18.434C120.424 18.3626 120.424 18.2742 120.441 18.1858H123.703C123.686 18.2572 123.686 18.3269 123.686 18.3813C123.703 19.0375 124.373 19.3384 125.186 19.3384C125.68 19.3384 126.649 19.3027 126.649 18.6482C126.649 17.2491 120.635 18.5241 120.635 14.8385C120.635 12.3769 122.857 11.668 125.309 11.668C127.426 11.668 129.753 12.4126 129.753 14.4322C129.753 14.5206 129.736 14.592 129.736 14.6804H126.507V14.5393C126.455 14.0259 125.854 13.7777 125.255 13.7777C124.956 13.7777 123.986 13.7777 123.986 14.3795C123.986 15.7259 130 14.3268 130 18.1348C130 20.7035 127.743 21.4481 125.186 21.4481C122.945 21.4464 120.424 20.5964 120.424 18.434Z" fill="#989998"/>
<path d="M16.9178 26.8438C11.5039 26.8438 7.12329 28.0528 7.12329 29.528C7.12329 31.0143 11.5039 32.2122 16.9178 32.2122C22.3317 32.2122 26.7123 31.0032 26.7123 29.528C26.7123 28.0528 22.3317 26.8438 16.9178 26.8438Z" fill="#C2A6B0"/>
<path d="M16.6612 25.0859C7.45913 25.0859 0 27.0817 0 29.5433C0 32.0049 7.45913 34.0007 16.6612 34.0007C25.8633 34.0007 33.3224 32.0049 33.3224 29.5433C33.3241 27.0817 25.8633 25.0859 16.6612 25.0859ZM16.6612 31.772C12.0602 31.772 8.3306 30.7741 8.3306 29.5433C8.3306 28.3125 12.0602 27.3146 16.6612 27.3146C21.2622 27.3146 24.9918 28.3125 24.9918 29.5433C24.9935 30.7741 21.2622 31.772 16.6612 31.772Z" fill="#989998"/>
<path d="M0 0H7.27468C10.6692 0 12.9621 0.5763 14.4614 1.7714C16.0926 3.0566 17.1062 5.3584 17.1062 7.7945C17.1062 9.3891 16.6646 10.9395 16.0046 12.002C15.519 12.6667 15.035 13.0645 13.8877 13.7734C15.871 14.2171 16.7543 14.6591 17.7239 15.6332C19.0472 16.9626 19.8408 19.0434 19.8408 21.2143C19.8408 23.562 18.8712 25.7771 17.2399 27.2816C15.5207 28.832 13.1838 29.5409 9.92125 29.5409H0V0ZM7.36267 12.3131C10.3172 12.3131 11.8165 10.9837 11.8165 8.4592C11.8165 5.9789 10.3172 4.6495 7.45236 4.6495H5.73141V12.3114H7.36267V12.3131ZM8.2003 24.8914C10.0515 24.8914 11.2868 24.6704 12.2125 24.0941C13.2701 23.4736 13.9317 22.1901 13.9317 20.8165C13.9317 19.4429 13.3141 18.2036 12.2125 17.5389C11.1988 16.8742 10.2732 16.6974 7.89233 16.6974H5.73141V24.8914H8.2003Z" fill="black"/>
</svg>
