<svg width="32" height="32" viewBox="0 0 32 32" fill="none" xmlns="http://www.w3.org/2000/svg">
<path fill-rule="evenodd" clip-rule="evenodd" d="M16 22.0481C14.623 23.2363 12.837 23.9536 10.8853 23.9536C6.53035 23.9536 3 20.3822 3 15.9768C3 11.5713 6.53035 8 10.8853 8C12.837 8 14.623 8.7173 16 9.90551C17.3769 8.7173 19.163 8 21.1147 8C25.4696 8 28.9999 11.5713 28.9999 15.9768C28.9999 20.3822 25.4696 23.9536 21.1147 23.9536C19.163 23.9536 17.3769 23.2363 16 22.0481Z" fill="#ED0006"/>
<path fill-rule="evenodd" clip-rule="evenodd" d="M16 22.0481C17.6955 20.585 18.7705 18.4079 18.7705 15.9768C18.7705 13.5457 17.6955 11.3686 16 9.90551C17.3769 8.7173 19.163 8 21.1147 8C25.4696 8 29 11.5713 29 15.9768C29 20.3822 25.4696 23.9536 21.1147 23.9536C19.163 23.9536 17.3769 23.2363 16 22.0481Z" fill="#F9A000"/>
<path fill-rule="evenodd" clip-rule="evenodd" d="M15.9999 22.0482C17.6953 20.5851 18.7704 18.408 18.7704 15.977C18.7704 13.5459 17.6953 11.3689 15.9999 9.90576C14.3045 11.3689 13.2295 13.5459 13.2295 15.977C13.2295 18.408 14.3045 20.5851 15.9999 22.0482Z" fill="#FF5E00"/>
</svg>
