<svg width="14" height="16" viewBox="0 0 14 16" fill="none" xmlns="http://www.w3.org/2000/svg">
<path fill-rule="evenodd" clip-rule="evenodd" d="M6.98613 0.641602C4.06955 0.641602 1.43915 2.74611 1.43915 5.81958V9.18019C1.43915 9.7281 1.27697 10.2638 0.973044 10.7196L0.242104 11.8161C-0.155564 12.4126 0.272042 13.2115 0.988952 13.2115H4.39338C4.40057 14.6386 5.55962 15.7932 6.98834 15.7932C8.41706 15.7932 9.57611 14.6386 9.5833 13.2115H12.9833C13.7002 13.2115 14.1278 12.4125 13.7302 11.8161L12.9992 10.7196C12.6953 10.2638 12.5331 9.7281 12.5331 9.18019V5.81958C12.5331 2.74611 9.9027 0.641602 6.98613 0.641602ZM5.89343 13.2115H8.08325C8.0761 13.8101 7.58863 14.2932 6.98834 14.2932C6.38805 14.2932 5.90058 13.8101 5.89343 13.2115ZM9.17117 11.7115H11.8577L11.7511 11.5517C11.2829 10.8494 11.0331 10.0242 11.0331 9.18019V5.81958C11.0331 3.72708 9.23553 2.1416 6.98613 2.1416C4.73673 2.1416 2.93915 3.72707 2.93915 5.81958V9.18019C2.93915 10.0242 2.68931 10.8494 2.22112 11.5517L2.11455 11.7115H4.80551L4.8061 11.7102H5.29687H8.67981H9.17059L9.17117 11.7115Z" fill="black"/>
</svg>
