<svg width="429" height="493" viewBox="0 0 429 493" fill="none" xmlns="http://www.w3.org/2000/svg">
<g opacity="0.0547">
<path opacity="0.0547" d="M-14.3292 225.732L149.183 157.339L-30.7952 186.736L-14.3292 225.732ZM139.673 160.047L-13.7123 224.207L-29.1503 187.61L139.673 160.047Z" fill="#89455E"/>
</g>
<g opacity="0.341">
<path opacity="0.7" d="M116.834 464.286L251.903 399.253L164.158 383.054L116.834 464.286ZM248.202 399.733L119.712 461.595L164.724 384.323L248.202 399.733Z" fill="#89455E"/>
</g>
<g opacity="0.4395">
<path opacity="0.4395" d="M290.404 502.511L317.973 381.1L249.282 399.098L290.404 502.511ZM316.431 382.694L290.113 498.62L250.841 399.887L316.431 382.694Z" fill="#89455E"/>
</g>
<g opacity="0.3403">
<path opacity="0.3403" d="M289.736 507.945L366.258 507.945L393.415 461.681L289.685 500.146L289.736 507.945ZM365.589 506.797L290.884 506.797L290.85 500.969L390.777 463.91L365.589 506.797Z" fill="#89455E"/>
</g>
<g opacity="0.1984">
<path opacity="0.1984" d="M87.0381 507.944L126.892 507.944L118.582 461.44L87.0381 507.944ZM125.522 506.796L89.2313 506.796L117.965 464.44L125.522 506.796Z" fill="#89455E"/>
</g>
<g opacity="0.2669">
<path opacity="0.2669" d="M162.856 507.945L282.933 507.945L291.466 500.231L116.44 461.955L162.856 507.945ZM282.505 506.796L163.353 506.796L120.106 463.943L289.05 500.9L282.505 506.796Z" fill="#89455E"/>
</g>
<g opacity="0.3556">
<path d="M167.089 322.768L144.9 157.853L-15.3736 224.892L167.089 322.768ZM143.958 159.516L165.65 320.694L-12.6664 225.046L143.958 159.516Z" fill="#89455E"/>
</g>
<g opacity="0.0587">
<path opacity="0.0587" d="M-33.553 405.972L165.016 384.203L166.986 320.832L-33.553 405.972ZM163.885 383.175L-25.8768 403.967L165.753 322.615L163.885 383.175Z" fill="#89455E"/>
</g>
<g opacity="0.5176">
<path opacity="0.5176" d="M414.473 381.22L414.85 380.791L469.2 319.135L328.887 309.107L414.473 381.22ZM466.784 320.129L414.353 379.609L332.348 310.512L466.784 320.129Z" fill="#89455E"/>
</g>
<g opacity="0.7235">
<path opacity="0.7235" d="M412.725 381.151L454.704 377.5L468.308 331.733L412.725 381.151ZM453.813 376.42L416.1 379.694L466.047 335.299L453.813 376.42Z" fill="#89455E"/>
</g>
<g opacity="0.3334">
<path opacity="0.3334" d="M482.01 452.018L393.777 369.345L389.428 477.305L482.01 452.018ZM394.838 371.933L479.716 451.444L390.652 475.772L394.838 371.933Z" fill="#89455E"/>
</g>
<g opacity="0.8014">
<path opacity="0.8014" d="M163.833 384.923L184.583 368.176L165.89 318.809L163.833 384.923ZM183.212 367.816L165.067 382.454L166.866 324.654L183.212 367.816Z" fill="#89455E"/>
</g>
<g opacity="0.38">
<path opacity="0.38" d="M254.267 400.864L183.811 367.319L163.096 384.031L254.267 400.864ZM183.983 368.673L245.855 398.122L165.803 383.346L183.983 368.673Z" fill="#89455E"/>
</g>
<path d="M19.5836 381.142C20.4575 380.028 20.2518 378.417 19.1381 377.543C18.0244 376.669 16.4137 376.874 15.5399 377.988C14.666 379.103 14.8716 380.714 16.0025 381.588C17.0991 382.462 18.7098 382.256 19.5836 381.142Z" fill="#C1A6B0"/>
<path d="M26.8787 281.407C27.7526 280.293 27.5469 278.682 26.4332 277.807C25.3195 276.933 23.6917 277.139 22.835 278.253C21.9612 279.367 22.1668 280.978 23.2805 281.853C24.3942 282.727 26.0049 282.521 26.8787 281.407Z" fill="#89455E"/>
<path d="M145.582 160.135C146.455 159.021 146.25 157.41 145.136 156.535C144.022 155.678 142.412 155.867 141.538 156.981C140.664 158.095 140.87 159.707 142.001 160.581C143.097 161.455 144.708 161.249 145.582 160.135Z" fill="#C1A6B0"/>
<path d="M167.226 258.472C168.1 257.358 167.894 255.747 166.781 254.872C165.667 253.998 164.056 254.204 163.182 255.318C162.309 256.432 162.514 258.043 163.628 258.918C164.742 259.792 166.352 259.586 167.226 258.472Z" fill="#89455E"/>
<path d="M39.7126 311.816C40.5865 310.702 40.3809 309.09 39.2671 308.216C38.1534 307.342 36.5428 307.548 35.6689 308.662C34.7951 309.793 35.0007 311.404 36.1144 312.261C37.2281 313.136 38.8388 312.93 39.7126 311.816Z" fill="#89455E"/>
<path d="M26.8787 281.407C27.7526 280.293 27.5469 278.682 26.4332 277.807C25.3195 276.933 23.6917 277.139 22.835 278.253C21.9612 279.367 22.1668 280.978 23.2805 281.853C24.3942 282.727 26.0049 282.521 26.8787 281.407Z" fill="#C1A6B0"/>
<path d="M252.229 452.253C253.103 451.139 252.897 449.528 251.783 448.654C250.67 447.779 249.059 447.985 248.185 449.099C247.311 450.213 247.517 451.825 248.631 452.699C249.744 453.573 251.355 453.367 252.229 452.253Z" fill="#89455E"/>
<path d="M183.332 439.534C184.206 438.42 184 436.809 182.886 435.935C181.773 435.061 180.162 435.266 179.288 436.38C178.414 437.495 178.62 439.106 179.751 439.98C180.847 440.854 182.458 440.666 183.332 439.534Z" fill="#C1A6B0"/>
<path d="M252.229 452.253C253.103 451.139 252.897 449.528 251.783 448.654C250.67 447.779 249.059 447.985 248.185 449.099C247.311 450.213 247.517 451.825 248.631 452.699C249.744 453.573 251.355 453.367 252.229 452.253Z" fill="#C1A6B0"/>
<path d="M306.253 438.095C307.127 436.981 306.922 435.369 305.808 434.495C304.694 433.621 303.084 433.827 302.21 434.958C301.353 436.072 301.559 437.683 302.672 438.558C303.769 439.415 305.38 439.209 306.253 438.095Z" fill="#C1A6B0"/>
<path d="M167.226 258.472C168.1 257.358 167.894 255.747 166.781 254.872C165.667 253.998 164.056 254.204 163.182 255.318C162.309 256.432 162.514 258.043 163.628 258.918C164.742 259.792 166.352 259.586 167.226 258.472Z" fill="#89455E"/>
<path d="M184.874 389.688C185.748 388.574 185.543 386.962 184.429 386.088C183.315 385.214 181.705 385.42 180.831 386.534C179.957 387.648 180.162 389.259 181.293 390.133C182.39 391.008 184.001 390.802 184.874 389.688Z" fill="#89455E"/>
<path d="M167.586 323.142C168.459 322.028 168.254 320.417 167.14 319.543C166.026 318.669 164.416 318.874 163.542 319.988C162.668 321.103 162.874 322.714 163.987 323.588C165.101 324.462 166.712 324.257 167.586 323.142Z" fill="#89455E"/>
<path d="M39.7126 311.816C40.5865 310.702 40.3809 309.09 39.2671 308.216C38.1534 307.342 36.5428 307.548 35.6689 308.662C34.7951 309.793 35.0007 311.404 36.1144 312.261C37.2281 313.136 38.8388 312.93 39.7126 311.816Z" fill="#89455E"/>
<path d="M184.874 389.688C185.748 388.574 185.543 386.962 184.429 386.088C183.315 385.214 181.705 385.42 180.831 386.534C179.957 387.648 180.162 389.259 181.293 390.133C182.39 391.008 184.001 390.802 184.874 389.688Z" fill="#89455E"/>
<path d="M183.332 439.534C184.206 438.42 184 436.809 182.886 435.935C181.773 435.061 180.162 435.266 179.288 436.38C178.414 437.495 178.62 439.106 179.751 439.98C180.847 440.854 182.458 440.666 183.332 439.534Z" fill="#89455E"/>
<path d="M27.0851 456.659C27.959 455.544 27.7534 453.933 26.6396 453.059C25.5259 452.185 23.9153 452.39 23.0414 453.505C22.1676 454.619 22.3732 456.23 23.5041 457.104C24.6007 457.978 26.2113 457.79 27.0851 456.659Z" fill="#89455E"/>
<path d="M408.582 388.142C409.455 387.028 409.25 385.417 408.136 384.543C407.022 383.669 405.412 383.874 404.538 384.988C403.664 386.103 403.87 387.731 404.983 388.588C406.097 389.462 407.708 389.257 408.582 388.142Z" fill="#C1A6B0"/>
<path d="M384.472 436.912C385.346 435.798 385.14 434.186 384.026 433.312C382.912 432.438 381.302 432.644 380.428 433.758C379.554 434.872 379.76 436.483 380.873 437.358C381.987 438.232 383.598 438.026 384.472 436.912Z" fill="#89455E"/>
<path d="M317.048 380.089C317.922 378.975 317.716 377.363 316.602 376.489C315.489 375.615 313.861 375.82 313.004 376.935C312.13 378.049 312.336 379.66 313.45 380.534C314.563 381.409 316.174 381.22 317.048 380.089Z" fill="#89455E"/>
<path d="M419.582 403.141C420.455 402.027 420.25 400.416 419.136 399.541C418.022 398.667 416.395 398.873 415.538 400.004C414.664 401.118 414.87 402.73 415.983 403.604C417.097 404.461 418.708 404.255 419.582 403.141Z" fill="#89455E"/>
<path d="M416.547 434.117C417.421 433.003 417.215 431.392 416.101 430.518C414.988 429.644 413.377 429.849 412.503 430.963C411.646 432.078 411.835 433.689 412.966 434.563C414.062 435.437 415.673 435.232 416.547 434.117Z" fill="#C1A6B0"/>
<path d="M384.472 436.912C385.346 435.798 385.14 434.186 384.026 433.312C382.912 432.438 381.302 432.644 380.428 433.758C379.554 434.872 379.76 436.483 380.873 437.358C381.987 438.232 383.598 438.026 384.472 436.912Z" fill="#89455E"/>
<path d="M394.573 463.142C395.447 462.028 395.241 460.417 394.127 459.543C393.014 458.669 391.403 458.874 390.529 459.988C389.672 461.103 389.861 462.714 390.992 463.588C392.088 464.462 393.699 464.257 394.573 463.142Z" fill="#C1A6B0"/>
<path d="M198.975 426.902C199.849 425.787 199.643 424.176 198.53 423.302C197.416 422.428 195.805 422.633 194.932 423.748C194.058 424.862 194.263 426.473 195.377 427.347C196.491 428.222 198.101 428.033 198.975 426.902Z" fill="#C1A6B0"/>
<path d="M183.332 439.534C184.206 438.42 184 436.809 182.886 435.935C181.773 435.061 180.162 435.266 179.288 436.38C178.414 437.495 178.62 439.106 179.751 439.98C180.847 440.854 182.458 440.666 183.332 439.534Z" fill="#C1A6B0"/>
<path d="M184.874 389.688C185.748 388.574 185.543 386.962 184.429 386.088C183.315 385.214 181.705 385.42 180.831 386.534C179.957 387.648 180.162 389.259 181.293 390.133C182.39 391.008 184.001 390.802 184.874 389.688Z" fill="#C1A6B0"/>
<path d="M252.229 452.253C253.103 451.139 252.897 449.528 251.783 448.654C250.67 447.779 249.059 447.985 248.185 449.099C247.311 450.213 247.517 451.825 248.631 452.699C249.744 453.573 251.355 453.367 252.229 452.253Z" fill="#89455E"/>
<path d="M183.332 439.534C184.206 438.42 184 436.809 182.886 435.935C181.773 435.061 180.162 435.266 179.288 436.38C178.414 437.495 178.62 439.106 179.751 439.98C180.847 440.854 182.458 440.666 183.332 439.534Z" fill="#89455E"/>
<g opacity="0.2443">
<path opacity="0.2443" d="M39.3867 394.042L2.92499 342.31L-12.2731 388.951L39.3867 394.042ZM3.30194 344.864L36.9707 392.653L-10.7482 387.939L3.30194 344.864Z" fill="#89455E"/>
</g>
<g opacity="0.5761">
<path opacity="0.5761" d="M-19.8118 183.188L17.6436 160.853L17.1125 159.825L-16.4535 174.48L-19.8118 183.188ZM9.17929 164.556L-17.5158 180.48L-15.5283 175.355L9.17929 164.556Z" fill="#89455E"/>
</g>
<g opacity="0.6975">
<path opacity="0.6975" d="M247.843 392.07L278.496 381.837L244.741 341.864L247.843 392.07ZM276.508 381.271L248.888 390.493L246.095 345.275L276.508 381.271Z" fill="#89455E"/>
</g>
<g opacity="0.6378">
<path opacity="0.6378" d="M256.666 397.539L280.843 379.849L247.071 391.128L256.666 397.539ZM274.177 383.277L256.632 396.116L249.675 391.454L274.177 383.277Z" fill="#89455E"/>
</g>
<path opacity="0.6534" d="M235.849 507.945L274.007 507.945L260.556 432.455L235.849 507.945ZM272.636 506.796L237.459 506.796L260.248 437.186L272.636 506.796Z" fill="#89455E"/>
<g opacity="0.4075">
<path opacity="0.4075" d="M259.271 417.919L257.197 396.493L247.054 389.705L259.271 417.919ZM256.101 397.161L257.403 410.737L249.675 392.876L256.101 397.161Z" fill="#89455E"/>
</g>
<g opacity="0.1929">
<path opacity="0.1929" d="M84.4672 361.714L154.752 360.445L105.08 291.778L84.4672 361.714ZM152.507 359.331L86.0093 360.531L105.508 294.366L152.507 359.331Z" fill="#89455E"/>
</g>
<path opacity="0.4956" d="M272.841 507.945L275.891 507.945L279.164 439.963L259.682 433.98L272.841 507.945ZM274.777 506.796L273.801 506.796L261.139 435.66L277.964 440.82L274.777 506.796Z" fill="#89455E"/>
<g opacity="0.6271">
<path opacity="0.6271" d="M42.1279 199.198L68.5833 141.689L16.4608 160.064L42.1279 199.198ZM66.39 143.694L41.9566 196.815L18.2428 160.664L66.39 143.694Z" fill="#89455E"/>
</g>
<g opacity="0.7557">
<path opacity="0.7557" d="M-20.9428 225.955L43.8076 197.878L-19.2122 181.08L-20.9428 225.955ZM40.295 198.135L-19.7091 224.155L-18.0985 182.571L40.295 198.135Z" fill="#89455E"/>
</g>
<g opacity="0.5999">
<path opacity="0.5999" d="M60.651 365.81L86.7294 361.457L41.7348 329.848L60.651 365.81ZM83.748 360.788L61.2679 364.542L44.9732 333.568L83.748 360.788Z" fill="#89455E"/>
</g>
<g opacity="0.7881">
<path opacity="0.7881" d="M86.0259 362.382L77.4588 308.798L42.3165 331.682L86.0259 362.382ZM76.6021 310.752L84.4496 359.879L44.3897 331.733L76.6021 310.752Z" fill="#89455E"/>
</g>
<g opacity="0.397">
<path opacity="0.397" d="M63.769 369.29L43.7219 331.167L29.1236 329.539L63.769 369.29ZM42.9852 332.247L58.1318 361.062L31.9336 331.013L42.9852 332.247Z" fill="#89455E"/>
</g>
<g opacity="0.1352">
<path opacity="0.1352" d="M43.7219 332.333L67.1959 275.818L29.5005 330.739L43.7219 332.333ZM61.8843 285.623L43.0023 331.082L31.5738 329.796L61.8843 285.623Z" fill="#89455E"/>
</g>
<g opacity="0.5835">
<path opacity="0.5835" d="M335.827 502.545L369.496 484.187L318.161 467.954L335.827 502.545ZM366.566 484.478L336.324 500.968L320.474 469.908L366.566 484.478Z" fill="#89455E"/>
</g>
<g opacity="0.7245">
<path opacity="0.7245" d="M249.025 392.327L245.94 342.361L212.734 371.175L249.025 392.327ZM244.929 344.778L247.739 390.236L214.722 370.987L244.929 344.778Z" fill="#89455E"/>
</g>
<g opacity="0.6437">
<path opacity="0.6437" d="M212.7 372.735L247.551 342.515L218.886 348.892L212.7 372.735ZM243.319 344.641L214.739 369.427L219.811 349.869L243.319 344.641Z" fill="#89455E"/>
</g>
<g opacity="0.4081">
<path opacity="0.4081" d="M136.777 507.945L160.902 507.945L151.581 442.037L116.49 485.421L136.777 507.945ZM159.566 506.797L137.291 506.797L118.015 485.387L150.81 444.848L159.566 506.797Z" fill="#89455E"/>
</g>
<g opacity="0.9412">
<path opacity="0.9412" d="M19.0491 507.945L45.0075 507.945L64.8489 479.679L5.80426 455.527L19.0491 507.945ZM44.4078 506.797L19.9572 506.797L7.48344 457.481L63.067 480.211L44.4078 506.797Z" fill="#89455E"/>
</g>
<g opacity="0.2255">
<path opacity="0.2255" d="M261.053 435.575L258.826 413.48L227.059 427.553L261.053 435.575ZM257.849 415.177L259.751 434.067L230.674 427.21L257.849 415.177Z" fill="#89455E"/>
</g>
<g opacity="0.1251">
<path opacity="0.1251" d="M227.555 428.598L259.1 414.628L248.442 389.962L227.555 428.598ZM257.575 414.028L230.177 426.164L248.305 392.602L257.575 414.028Z" fill="#89455E"/>
</g>
<g opacity="0.2913">
<path opacity="0.2913" d="M228.686 428.942L249.144 391.077L212.785 369.89L228.686 428.942ZM247.602 391.505L229.046 425.839L214.636 372.29L247.602 391.505Z" fill="#89455E"/>
</g>
<g opacity="0.7893">
<path opacity="0.7893" d="M150.812 444.111L232.456 427.227L141.748 416.257L150.812 444.111ZM225.294 427.536L151.6 442.774L143.41 417.628L225.294 427.536Z" fill="#89455E"/>
</g>
<g opacity="0.769">
<path opacity="0.769" d="M319.909 470.063L319.378 419.496L277.433 440.305L319.909 470.063ZM318.23 421.347L318.726 467.817L279.695 440.477L318.23 421.347Z" fill="#89455E"/>
</g>
<g opacity="0.7914">
<path opacity="0.7914" d="M318.401 420.833L319.206 420.01L278.975 378.717L276.73 381.614L318.401 420.833ZM279.078 380.466L299.793 401.721L278.29 381.477L279.078 380.466Z" fill="#89455E"/>
</g>
<g opacity="0.7235">
<path opacity="0.7235" d="M218.954 350.383L232.011 340.63L213.094 321.432L218.954 350.383ZM230.263 340.493L219.725 348.36L214.996 324.997L230.263 340.493Z" fill="#89455E"/>
</g>
<g opacity="0.3504">
<path opacity="0.3504" d="M-11.4679 168.155L18.6713 160.63L-26.7859 127.187L-11.4679 168.155ZM16.0155 160.099L-10.7482 166.784L-24.3357 130.41L16.0155 160.099Z" fill="#89455E"/>
</g>
<g opacity="0.9285">
<path opacity="0.9285" d="M73.0566 368.844L88.2718 360.034L58.1327 365.056L73.0566 368.844ZM82.1891 362.228L72.8853 367.61L63.7698 365.296L82.1891 362.228Z" fill="#89455E"/>
</g>
<g opacity="0.9356">
<path opacity="0.9356" d="M142.227 417.422L142.963 416.531L85.3239 360.411L71.8906 368.193L142.227 417.422ZM85.1525 361.851L137.035 412.383L74.0495 368.278L85.1525 361.851Z" fill="#89455E"/>
</g>
<path d="M0.269087 345.652C-0.159269 346.217 -0.056508 347.006 0.491788 347.435C1.04008 347.863 1.84541 347.76 2.27376 347.212C2.70212 346.663 2.59931 345.858 2.05101 345.429C1.50271 344.983 0.714577 345.086 0.269087 345.652Z" fill="#E0DCDC"/>
<path d="M295.989 436.26C295.56 436.808 295.646 437.614 296.212 438.042C296.76 438.471 297.565 438.368 297.993 437.82C298.422 437.271 298.319 436.465 297.771 436.037C297.205 435.591 296.417 435.694 295.989 436.26Z" fill="#E0DCDC"/>
<path d="M265.712 418.862C265.284 419.41 265.387 420.216 265.935 420.645C266.483 421.073 267.289 420.97 267.717 420.422C268.145 419.873 268.042 419.068 267.494 418.639C266.946 418.211 266.141 418.313 265.712 418.862Z" fill="#E0DCDC"/>
<path d="M326.179 397.847C325.751 398.395 325.854 399.201 326.402 399.629C326.95 400.058 327.756 399.955 328.184 399.407C328.612 398.858 328.51 398.053 327.961 397.624C327.413 397.195 326.608 397.298 326.179 397.847Z" fill="#E0DCDC"/>
<path d="M169.418 343.988C168.99 344.537 169.092 345.343 169.641 345.771C170.189 346.2 170.994 346.097 171.423 345.548C171.851 345 171.748 344.194 171.2 343.766C170.652 343.337 169.846 343.44 169.418 343.988Z" fill="#E0DCDC"/>
<path d="M192.874 336.155C192.446 336.704 192.549 337.51 193.097 337.938C193.645 338.367 194.451 338.264 194.879 337.715C195.307 337.167 195.205 336.361 194.656 335.933C194.091 335.504 193.303 335.607 192.874 336.155Z" fill="#E0DCDC"/>
<path d="M176.083 348.446C175.655 348.994 175.74 349.8 176.306 350.229C176.854 350.657 177.659 350.554 178.088 350.006C178.516 349.457 178.413 348.652 177.865 348.223C177.317 347.795 176.511 347.897 176.083 348.446Z" fill="#E0DCDC"/>
<path d="M169.418 343.988C168.99 344.537 169.092 345.343 169.641 345.771C170.189 346.2 170.994 346.097 171.423 345.548C171.851 345 171.748 344.194 171.2 343.766C170.652 343.337 169.846 343.44 169.418 343.988Z" fill="#E0DCDC"/>
<path d="M192.874 336.155C192.446 336.704 192.549 337.51 193.097 337.938C193.645 338.367 194.451 338.264 194.879 337.715C195.307 337.167 195.205 336.361 194.656 335.933C194.091 335.504 193.303 335.607 192.874 336.155Z" fill="#E0DCDC"/>
<path d="M155.403 451.43C154.975 451.978 155.077 452.784 155.626 453.213C156.174 453.641 156.979 453.538 157.408 452.99C157.836 452.441 157.733 451.636 157.185 451.207C156.637 450.778 155.831 450.881 155.403 451.43Z" fill="#E0DCDC"/>
<path d="M179.1 379.025C178.671 379.574 178.757 380.38 179.322 380.808C179.871 381.237 180.676 381.134 181.104 380.585C181.533 380.037 181.43 379.231 180.882 378.803C180.333 378.374 179.528 378.46 179.1 379.025Z" fill="#E0DCDC"/>
<path d="M190.768 444.556C190.339 445.105 190.442 445.91 190.99 446.339C191.539 446.768 192.344 446.665 192.772 446.116C193.201 445.568 193.098 444.762 192.55 444.333C192.001 443.905 191.196 443.991 190.768 444.556Z" fill="#E0DCDC"/>
<path d="M177.438 362.536C177.009 363.084 177.112 363.89 177.66 364.318C178.209 364.747 179.014 364.644 179.442 364.095C179.871 363.547 179.768 362.741 179.22 362.313C178.671 361.867 177.866 361.97 177.438 362.536Z" fill="#E0DCDC"/>
<path d="M169.418 343.988C168.99 344.537 169.092 345.343 169.641 345.771C170.189 346.2 170.994 346.097 171.423 345.548C171.851 345 171.748 344.194 171.2 343.766C170.652 343.337 169.846 343.44 169.418 343.988Z" fill="#E0DCDC"/>
<path d="M176.083 348.446C175.655 348.994 175.74 349.8 176.306 350.229C176.854 350.657 177.659 350.554 178.088 350.006C178.516 349.457 178.413 348.652 177.865 348.223C177.317 347.795 176.511 347.897 176.083 348.446Z" fill="#E0DCDC"/>
<path d="M326.179 397.847C325.751 398.395 325.854 399.201 326.402 399.629C326.95 400.058 327.756 399.955 328.184 399.407C328.612 398.858 328.51 398.053 327.961 397.624C327.413 397.195 326.608 397.298 326.179 397.847Z" fill="#E0DCDC"/>
<path d="M54.2926 264.951C53.8643 265.499 53.9671 266.305 54.5154 266.734C55.0637 267.162 55.869 267.059 56.2974 266.511C56.7257 265.962 56.6229 265.157 56.0746 264.728C55.5263 264.299 54.721 264.402 54.2926 264.951Z" fill="#E0DCDC"/>
<path d="M38.1524 319.717C37.7241 320.265 37.8269 321.071 38.3752 321.5C38.9235 321.928 39.7288 321.825 40.1571 321.277C40.5855 320.728 40.4827 319.923 39.9344 319.494C39.369 319.066 38.5808 319.168 38.1524 319.717Z" fill="#E0DCDC"/>
<path d="M93.1878 318.723C92.7594 319.272 92.8622 320.077 93.4105 320.506C93.9588 320.935 94.7642 320.832 95.1925 320.283C95.6209 319.735 95.5181 318.929 94.9698 318.5C94.4215 318.072 93.6161 318.175 93.1878 318.723Z" fill="#E0DCDC"/>
<path d="M43.4805 477.673C43.0522 478.222 43.155 479.028 43.7033 479.456C44.2516 479.885 45.0569 479.782 45.4852 479.233C45.9136 478.685 45.8108 477.879 45.2625 477.451C44.7142 477.022 43.9089 477.125 43.4805 477.673Z" fill="#E0DCDC"/>
<path d="M101.977 461.989C101.549 462.537 101.635 463.343 102.2 463.772C102.748 464.2 103.554 464.097 103.982 463.549C104.41 463 104.308 462.195 103.759 461.766C103.194 461.338 102.406 461.44 101.977 461.989Z" fill="#E0DCDC"/>
<path d="M88.3221 491.197C87.8938 491.746 87.9966 492.552 88.5449 492.98C89.0932 493.409 89.8985 493.306 90.3269 492.757C90.7552 492.209 90.6524 491.403 90.1041 490.975C89.5558 490.546 88.7505 490.649 88.3221 491.197Z" fill="#E0DCDC"/>
<path d="M34.9488 74.7524C34.5205 75.3009 34.6061 76.1066 35.1716 76.5351C35.7199 76.9636 36.5251 76.8608 36.9535 76.3123C37.3818 75.7637 37.2791 74.9581 36.7308 74.5296C36.1825 74.0839 35.3772 74.1867 34.9488 74.7524Z" fill="#E0DCDC"/>
<path d="M44.2699 93.9337C43.8415 94.4823 43.9443 95.2879 44.4926 95.7164C45.0409 96.145 45.8463 96.0421 46.2746 95.4936C46.703 94.9451 46.6002 94.1394 46.0519 93.7109C45.5036 93.2824 44.6983 93.3852 44.2699 93.9337Z" fill="#E0DCDC"/>
<path d="M23.8628 143.951C23.4345 144.5 23.5373 145.305 24.0856 145.734C24.6339 146.162 25.4392 146.06 25.8676 145.511C26.2959 144.962 26.1931 144.157 25.6448 143.728C25.0965 143.283 24.2912 143.385 23.8628 143.951Z" fill="#E0DCDC"/>
<path d="M65.2422 93.9677C64.8139 94.5163 64.9167 95.3219 65.465 95.7504C66.0133 96.179 66.8185 96.0761 67.2469 95.5276C67.6753 94.9791 67.5725 94.1734 67.0242 93.7449C66.4759 93.2992 65.6706 93.4021 65.2422 93.9677Z" fill="#E0DCDC"/>
<path d="M272.515 359.365C272.086 359.913 272.189 360.719 272.737 361.148C273.286 361.576 274.091 361.473 274.519 360.925C274.948 360.376 274.845 359.571 274.296 359.142C273.748 358.714 272.943 358.816 272.515 359.365Z" fill="#E0DCDC"/>
<path d="M272.515 359.365C272.086 359.913 272.189 360.719 272.737 361.148C273.286 361.576 274.091 361.473 274.519 360.925C274.948 360.376 274.845 359.571 274.296 359.142C273.748 358.714 272.943 358.816 272.515 359.365Z" fill="#E0DCDC"/>
<path d="M272.515 359.365C272.086 359.913 272.189 360.719 272.737 361.148C273.286 361.576 274.091 361.473 274.519 360.925C274.948 360.376 274.845 359.571 274.296 359.142C273.748 358.714 272.943 358.816 272.515 359.365Z" fill="#E0DCDC"/>
<path d="M193.714 383.5C193.286 384.048 193.389 384.854 193.937 385.282C194.485 385.711 195.291 385.608 195.719 385.06C196.147 384.511 196.045 383.705 195.496 383.277C194.948 382.848 194.143 382.951 193.714 383.5Z" fill="#E0DCDC"/>
<path d="M179.1 379.025C178.671 379.574 178.757 380.38 179.322 380.808C179.871 381.237 180.676 381.134 181.104 380.585C181.533 380.037 181.43 379.231 180.882 378.803C180.333 378.374 179.528 378.46 179.1 379.025Z" fill="#E0DCDC"/>
<path d="M190.768 444.556C190.339 445.105 190.442 445.91 190.99 446.339C191.539 446.768 192.344 446.665 192.772 446.116C193.201 445.568 193.098 444.762 192.55 444.333C192.001 443.905 191.196 443.991 190.768 444.556Z" fill="#E0DCDC"/>
<path d="M3.38756 188.45C2.9592 188.998 3.06201 189.804 3.61031 190.233C4.15861 190.661 4.96394 190.558 5.39229 190.01C5.82065 189.461 5.71784 188.656 5.16954 188.227C4.62124 187.798 3.81592 187.901 3.38756 188.45Z" fill="#E0DCDC"/>
<path d="M23.8628 143.951C23.4345 144.5 23.5373 145.305 24.0856 145.734C24.6339 146.162 25.4392 146.06 25.8676 145.511C26.2959 144.962 26.1931 144.157 25.6448 143.728C25.0965 143.283 24.2912 143.385 23.8628 143.951Z" fill="#E0DCDC"/>
<path d="M3.38756 188.45C2.9592 188.998 3.06201 189.804 3.61031 190.233C4.15861 190.661 4.96394 190.558 5.39229 190.01C5.82065 189.461 5.71784 188.656 5.16954 188.227C4.62124 187.798 3.81592 187.901 3.38756 188.45Z" fill="#E0DCDC"/>
<path d="M4.44987 296.046C4.02151 296.611 4.10714 297.4 4.67257 297.828C5.22087 298.257 6.02619 298.154 6.45455 297.605C6.88291 297.057 6.78009 296.251 6.2318 295.823C5.6835 295.394 4.87823 295.497 4.44987 296.046Z" fill="#E0DCDC"/>
<path d="M18.6198 322.974C18.1914 323.522 18.2771 324.328 18.8426 324.756C19.3909 325.185 20.1961 325.082 20.6245 324.534C21.0529 323.985 20.9501 323.179 20.4018 322.751C19.8364 322.322 19.0482 322.425 18.6198 322.974Z" fill="#E0DCDC"/>
<path d="M38.1524 319.717C37.7241 320.265 37.8269 321.071 38.3752 321.5C38.9235 321.928 39.7288 321.825 40.1571 321.277C40.5855 320.728 40.4827 319.923 39.9344 319.494C39.369 319.066 38.5808 319.168 38.1524 319.717Z" fill="#E0DCDC"/>
<path d="M4.44987 296.046C4.02151 296.611 4.10714 297.4 4.67257 297.828C5.22087 298.257 6.02619 298.154 6.45455 297.605C6.88291 297.057 6.78009 296.251 6.2318 295.823C5.6835 295.394 4.87823 295.497 4.44987 296.046Z" fill="#E0DCDC"/>
<path d="M31.5556 278.39C31.1273 278.938 31.2129 279.744 31.7784 280.172C32.3438 280.601 33.132 280.498 33.5603 279.95C33.9887 279.401 33.8859 278.595 33.3376 278.167C32.7722 277.738 31.984 277.841 31.5556 278.39Z" fill="#E0DCDC"/>
<path d="M38.1524 319.717C37.7241 320.265 37.8269 321.071 38.3752 321.5C38.9235 321.928 39.7288 321.825 40.1571 321.277C40.5855 320.728 40.4827 319.923 39.9344 319.494C39.369 319.066 38.5808 319.168 38.1524 319.717Z" fill="#E0DCDC"/>
<path d="M4.44987 296.046C4.02151 296.611 4.10714 297.4 4.67257 297.828C5.22087 298.257 6.02619 298.154 6.45455 297.605C6.88291 297.057 6.78009 296.251 6.2318 295.823C5.6835 295.394 4.87823 295.497 4.44987 296.046Z" fill="#E0DCDC"/>
<path d="M18.6198 322.974C18.1914 323.522 18.2771 324.328 18.8426 324.756C19.3909 325.185 20.1961 325.082 20.6245 324.534C21.0529 323.985 20.9501 323.179 20.4018 322.751C19.8364 322.322 19.0482 322.425 18.6198 322.974Z" fill="#E0DCDC"/>
<path d="M4.44987 296.046C4.02151 296.611 4.10714 297.4 4.67257 297.828C5.22087 298.257 6.02619 298.154 6.45455 297.605C6.88291 297.057 6.78009 296.251 6.2318 295.823C5.6835 295.394 4.87823 295.497 4.44987 296.046Z" fill="#E0DCDC"/>
<path d="M21.4982 255.009C21.0699 255.558 21.1555 256.364 21.721 256.792C22.2693 257.221 23.0746 257.118 23.5029 256.569C23.9313 256.021 23.8285 255.215 23.2802 254.787C22.7319 254.358 21.9266 254.461 21.4982 255.009Z" fill="#E0DCDC"/>
<path d="M123.687 468.023C123.258 468.571 123.361 469.377 123.91 469.805C124.475 470.234 125.263 470.131 125.691 469.582C126.12 469.034 126.017 468.228 125.469 467.8C124.92 467.371 124.132 467.474 123.687 468.023Z" fill="#E0DCDC"/>
<path d="M88.3221 491.197C87.8938 491.746 87.9966 492.552 88.5449 492.98C89.0932 493.409 89.8985 493.306 90.3269 492.757C90.7552 492.209 90.6524 491.403 90.1041 490.975C89.5558 490.546 88.7505 490.649 88.3221 491.197Z" fill="#E0DCDC"/>
<path d="M239.994 432.883C239.566 433.432 239.668 434.238 240.217 434.666C240.765 435.095 241.57 434.992 241.999 434.443C242.427 433.895 242.324 433.089 241.776 432.661C241.228 432.232 240.422 432.335 239.994 432.883Z" fill="#E0DCDC"/>
<path d="M226.51 406.469C226.081 407.017 226.184 407.823 226.732 408.252C227.281 408.68 228.086 408.577 228.514 408.029C228.943 407.48 228.84 406.675 228.292 406.246C227.743 405.818 226.938 405.92 226.51 406.469Z" fill="#E0DCDC"/>
<path d="M265.712 418.862C265.284 419.41 265.387 420.216 265.935 420.645C266.483 421.073 267.289 420.97 267.717 420.422C268.145 419.873 268.042 419.068 267.494 418.639C266.946 418.211 266.141 418.313 265.712 418.862Z" fill="#E0DCDC"/>
<path d="M224.899 492.809C224.471 493.374 224.573 494.163 225.122 494.591C225.67 495.02 226.475 494.917 226.904 494.369C227.332 493.82 227.229 493.014 226.681 492.586C226.133 492.157 225.327 492.26 224.899 492.809Z" fill="#E0DCDC"/>
<path d="M141.541 327.739C141.113 328.288 141.216 329.093 141.764 329.522C142.312 329.95 143.118 329.848 143.546 329.299C143.974 328.751 143.872 327.945 143.323 327.516C142.775 327.071 141.97 327.174 141.541 327.739Z" fill="#E0DCDC"/>
<path d="M169.418 343.988C168.99 344.537 169.092 345.343 169.641 345.771C170.189 346.2 170.994 346.097 171.423 345.548C171.851 345 171.748 344.194 171.2 343.766C170.652 343.337 169.846 343.44 169.418 343.988Z" fill="#E0DCDC"/>
<path d="M141.541 327.739C141.113 328.288 141.216 329.093 141.764 329.522C142.312 329.95 143.118 329.848 143.546 329.299C143.974 328.751 143.872 327.945 143.323 327.516C142.775 327.071 141.97 327.174 141.541 327.739Z" fill="#E0DCDC"/>
<path d="M63.9053 419.736C63.4769 420.284 63.5797 421.09 64.128 421.518C64.6763 421.947 65.4816 421.844 65.91 421.296C66.3383 420.747 66.2356 419.941 65.6873 419.513C65.139 419.067 64.3336 419.17 63.9053 419.736Z" fill="#E0DCDC"/>
<path d="M91.2175 385.968C90.7891 386.517 90.892 387.322 91.4402 387.751C91.9885 388.18 92.7938 388.077 93.2222 387.528C93.6505 386.98 93.5477 386.174 92.9995 385.745C92.4512 385.317 91.6458 385.403 91.2175 385.968Z" fill="#E0DCDC"/>
<path d="M101.977 461.989C101.549 462.537 101.635 463.343 102.2 463.772C102.748 464.2 103.554 464.097 103.982 463.549C104.41 463 104.308 462.195 103.759 461.766C103.194 461.338 102.406 461.44 101.977 461.989Z" fill="#E0DCDC"/>
<path d="M21.018 415.331C20.5897 415.879 20.6925 416.685 21.2408 417.113C21.8062 417.542 22.5944 417.439 23.0228 416.891C23.4511 416.342 23.3483 415.536 22.8 415.108C22.2517 414.679 21.4464 414.782 21.018 415.331Z" fill="#E0DCDC"/>
<path d="M153.723 373.043C153.295 373.592 153.398 374.398 153.946 374.826C154.511 375.255 155.3 375.152 155.728 374.603C156.156 374.055 156.054 373.249 155.505 372.821C154.957 372.375 154.152 372.478 153.723 373.043Z" fill="#E0DCDC"/>
<path d="M177.438 362.536C177.009 363.084 177.112 363.89 177.66 364.318C178.209 364.747 179.014 364.644 179.442 364.095C179.871 363.547 179.768 362.741 179.22 362.313C178.671 361.867 177.866 361.97 177.438 362.536Z" fill="#E0DCDC"/>
<path d="M179.1 379.025C178.671 379.574 178.757 380.38 179.322 380.808C179.871 381.237 180.676 381.134 181.104 380.585C181.533 380.037 181.43 379.231 180.882 378.803C180.333 378.374 179.528 378.46 179.1 379.025Z" fill="#E0DCDC"/>
<path d="M153.723 373.043C153.295 373.592 153.398 374.398 153.946 374.826C154.511 375.255 155.3 375.152 155.728 374.603C156.156 374.055 156.054 373.249 155.505 372.821C154.957 372.375 154.152 372.478 153.723 373.043Z" fill="#E0DCDC"/>
<path d="M169.418 343.988C168.99 344.537 169.092 345.343 169.641 345.771C170.189 346.2 170.994 346.097 171.423 345.548C171.851 345 171.748 344.194 171.2 343.766C170.652 343.337 169.846 343.44 169.418 343.988Z" fill="#E0DCDC"/>
<path d="M177.438 362.536C177.009 363.084 177.112 363.89 177.66 364.318C178.209 364.747 179.014 364.644 179.442 364.095C179.871 363.547 179.768 362.741 179.22 362.313C178.671 361.867 177.866 361.97 177.438 362.536Z" fill="#E0DCDC"/>
<path d="M153.723 373.043C153.295 373.592 153.398 374.398 153.946 374.826C154.511 375.255 155.3 375.152 155.728 374.603C156.156 374.055 156.054 373.249 155.505 372.821C154.957 372.375 154.152 372.478 153.723 373.043Z" fill="#E0DCDC"/>
<path d="M141.541 327.739C141.113 328.288 141.216 329.093 141.764 329.522C142.312 329.95 143.118 329.848 143.546 329.299C143.974 328.751 143.872 327.945 143.323 327.516C142.775 327.071 141.97 327.174 141.541 327.739Z" fill="#E0DCDC"/>
<path d="M169.418 343.988C168.99 344.537 169.092 345.343 169.641 345.771C170.189 346.2 170.994 346.097 171.423 345.548C171.851 345 171.748 344.194 171.2 343.766C170.652 343.337 169.846 343.44 169.418 343.988Z" fill="#E0DCDC"/>
<path d="M153.723 373.043C153.295 373.592 153.398 374.398 153.946 374.826C154.511 375.255 155.3 375.152 155.728 374.603C156.156 374.055 156.054 373.249 155.505 372.821C154.957 372.375 154.152 372.478 153.723 373.043Z" fill="#E0DCDC"/>
<path d="M84.2778 364.644C83.8494 365.21 83.9523 365.998 84.5005 366.427C85.0488 366.855 85.8541 366.753 86.2825 366.204C86.7108 365.656 86.6081 364.85 86.0598 364.421C85.5115 363.993 84.7061 364.096 84.2778 364.644Z" fill="#E0DCDC"/>
<path d="M91.2175 385.968C90.7891 386.517 90.892 387.322 91.4402 387.751C91.9885 388.18 92.7938 388.077 93.2222 387.528C93.6505 386.98 93.5477 386.174 92.9995 385.745C92.4512 385.317 91.6458 385.403 91.2175 385.968Z" fill="#E0DCDC"/>
<path d="M219.193 492.706C218.765 493.254 218.868 494.06 219.416 494.488C219.964 494.917 220.77 494.814 221.198 494.266C221.626 493.717 221.524 492.911 220.975 492.483C220.427 492.054 219.622 492.157 219.193 492.706Z" fill="#E0DCDC"/>
<path d="M219.193 492.706C218.765 493.254 218.868 494.06 219.416 494.488C219.964 494.917 220.77 494.814 221.198 494.266C221.626 493.717 221.524 492.911 220.975 492.483C220.427 492.054 219.622 492.157 219.193 492.706Z" fill="#E0DCDC"/>
<path d="M233.963 438.317C233.535 438.866 233.638 439.671 234.186 440.1C234.734 440.528 235.539 440.425 235.968 439.877C236.396 439.328 236.293 438.523 235.745 438.094C235.18 437.666 234.391 437.769 233.963 438.317Z" fill="#E0DCDC"/>
<path d="M224.899 492.809C224.471 493.374 224.573 494.163 225.122 494.591C225.67 495.02 226.475 494.917 226.904 494.369C227.332 493.82 227.229 493.014 226.681 492.586C226.133 492.157 225.327 492.26 224.899 492.809Z" fill="#E0DCDC"/>
<path d="M219.193 492.706C218.765 493.254 218.868 494.06 219.416 494.488C219.964 494.917 220.77 494.814 221.198 494.266C221.626 493.717 221.524 492.911 220.975 492.483C220.427 492.054 219.622 492.157 219.193 492.706Z" fill="#E0DCDC"/>
<path d="M158.058 475.942C157.63 476.491 157.733 477.297 158.281 477.725C158.829 478.154 159.635 478.051 160.063 477.502C160.491 476.954 160.388 476.148 159.84 475.72C159.292 475.274 158.487 475.377 158.058 475.942Z" fill="#E0DCDC"/>
<path d="M123.687 468.023C123.258 468.571 123.361 469.377 123.91 469.805C124.475 470.234 125.263 470.131 125.691 469.582C126.12 469.034 126.017 468.228 125.469 467.8C124.92 467.371 124.132 467.474 123.687 468.023Z" fill="#E0DCDC"/>
<path d="M155.403 451.43C154.975 451.978 155.077 452.784 155.626 453.213C156.174 453.641 156.979 453.538 157.408 452.99C157.836 452.441 157.733 451.636 157.185 451.207C156.637 450.778 155.831 450.881 155.403 451.43Z" fill="#E0DCDC"/>
<path d="M226.099 367.438C225.67 367.986 225.773 368.792 226.321 369.221C226.87 369.649 227.675 369.546 228.103 368.998C228.532 368.449 228.429 367.644 227.88 367.215C227.332 366.769 226.527 366.872 226.099 367.438Z" fill="#E0DCDC"/>
<path d="M193.714 383.5C193.286 384.048 193.389 384.854 193.937 385.282C194.485 385.711 195.291 385.608 195.719 385.06C196.147 384.511 196.045 383.705 195.496 383.277C194.948 382.848 194.143 382.951 193.714 383.5Z" fill="#E0DCDC"/>
<path d="M226.51 406.469C226.081 407.017 226.184 407.823 226.732 408.252C227.281 408.68 228.086 408.577 228.514 408.029C228.943 407.48 228.84 406.675 228.292 406.246C227.743 405.818 226.938 405.92 226.51 406.469Z" fill="#E0DCDC"/>
<path d="M226.099 367.438C225.67 367.986 225.773 368.792 226.321 369.221C226.87 369.649 227.675 369.546 228.103 368.998C228.532 368.449 228.429 367.644 227.88 367.215C227.332 366.769 226.527 366.872 226.099 367.438Z" fill="#E0DCDC"/>
<path d="M192.874 336.155C192.446 336.704 192.549 337.51 193.097 337.938C193.645 338.367 194.451 338.264 194.879 337.715C195.307 337.167 195.205 336.361 194.656 335.933C194.091 335.504 193.303 335.607 192.874 336.155Z" fill="#E0DCDC"/>
<path d="M194.092 334.578C193.663 335.127 193.766 335.932 194.314 336.361C194.863 336.789 195.668 336.687 196.096 336.138C196.525 335.59 196.422 334.784 195.874 334.355C195.325 333.927 194.52 334.03 194.092 334.578Z" fill="#E0DCDC"/>
<path d="M15.6377 468.331C15.2093 468.897 15.3121 469.685 15.8604 470.114C16.4087 470.542 17.214 470.44 17.6424 469.891C18.0707 469.343 17.9679 468.537 17.4196 468.108C16.8713 467.68 16.066 467.783 15.6377 468.331Z" fill="#E0DCDC"/>
<path d="M43.4805 477.673C43.0522 478.222 43.155 479.028 43.7033 479.456C44.2516 479.885 45.0569 479.782 45.4852 479.233C45.9136 478.685 45.8108 477.879 45.2625 477.451C44.7142 477.022 43.9089 477.125 43.4805 477.673Z" fill="#E0DCDC"/>
<path d="M248.321 486.415C247.893 486.964 247.978 487.769 248.544 488.198C249.092 488.626 249.897 488.523 250.326 487.975C250.754 487.426 250.651 486.621 250.103 486.192C249.555 485.764 248.749 485.849 248.321 486.415Z" fill="#E0DCDC"/>
<path d="M248.321 486.415C247.893 486.964 247.978 487.769 248.544 488.198C249.092 488.626 249.897 488.523 250.326 487.975C250.754 487.426 250.651 486.621 250.103 486.192C249.555 485.764 248.749 485.849 248.321 486.415Z" fill="#E0DCDC"/>
<path d="M224.899 492.809C224.471 493.374 224.573 494.163 225.122 494.591C225.67 495.02 226.475 494.917 226.904 494.369C227.332 493.82 227.229 493.014 226.681 492.586C226.133 492.157 225.327 492.26 224.899 492.809Z" fill="#E0DCDC"/>
<path d="M28.2837 325.443C27.8554 325.991 27.9582 326.797 28.5065 327.226C29.0548 327.654 29.8601 327.551 30.2885 327.003C30.7168 326.454 30.614 325.649 30.0657 325.22C29.5003 324.774 28.7121 324.877 28.2837 325.443Z" fill="#E0DCDC"/>
<path d="M18.6198 322.974C18.1914 323.522 18.2771 324.328 18.8426 324.756C19.3909 325.185 20.1961 325.082 20.6245 324.534C21.0529 323.985 20.9501 323.179 20.4018 322.751C19.8364 322.322 19.0482 322.425 18.6198 322.974Z" fill="#E0DCDC"/>
<path d="M38.1524 319.717C37.7241 320.265 37.8269 321.071 38.3752 321.5C38.9235 321.928 39.7288 321.825 40.1571 321.277C40.5855 320.728 40.4827 319.923 39.9344 319.494C39.369 319.066 38.5808 319.168 38.1524 319.717Z" fill="#E0DCDC"/>
<path d="M28.2837 325.443C27.8554 325.991 27.9582 326.797 28.5065 327.226C29.0548 327.654 29.8601 327.551 30.2885 327.003C30.7168 326.454 30.614 325.649 30.0657 325.22C29.5003 324.774 28.7121 324.877 28.2837 325.443Z" fill="#E0DCDC"/>
<path d="M38.1524 319.717C37.7241 320.265 37.8269 321.071 38.3752 321.5C38.9235 321.928 39.7288 321.825 40.1571 321.277C40.5855 320.728 40.4827 319.923 39.9344 319.494C39.369 319.066 38.5808 319.168 38.1524 319.717Z" fill="#E0DCDC"/>
<path d="M84.2778 364.644C83.8494 365.21 83.9523 365.998 84.5005 366.427C85.0488 366.855 85.8541 366.753 86.2825 366.204C86.7108 365.656 86.6081 364.85 86.0598 364.421C85.5115 363.993 84.7061 364.096 84.2778 364.644Z" fill="#E0DCDC"/>
</svg>
