<svg width="547" height="467" viewBox="0 0 547 467" fill="none" xmlns="http://www.w3.org/2000/svg">
<g opacity="0.2443">
<path opacity="0.2443" d="M4.74551 237.887L34.799 145.667L0.993112 142.325L0.993104 232.556L4.74551 237.887ZM33.2569 146.679L4.36855 235.333L2.15827 232.196L2.15828 143.61L33.2569 146.679Z" fill="#89455E"/>
</g>
<g opacity="0.0547">
<path opacity="0.0547" d="M49.6706 184.732L213.183 116.339L33.2046 145.736L49.6706 184.732ZM203.673 119.047L50.2875 183.207L34.8495 146.61L203.673 119.047Z" fill="#89455E"/>
</g>
<g opacity="0.341">
<path opacity="0.7" d="M180.833 423.286L315.903 358.252L228.158 342.054L180.833 423.286ZM312.202 358.732L183.712 420.595L228.724 343.322L312.202 358.732Z" fill="#89455E"/>
</g>
<g opacity="0.4395">
<path opacity="0.4395" d="M354.404 461.511L381.973 340.1L313.281 358.098L354.404 461.511ZM380.431 341.694L354.112 457.62L314.841 358.887L380.431 341.694Z" fill="#89455E"/>
</g>
<g opacity="0.3403">
<path opacity="0.3403" d="M353.736 466.945L430.257 466.945L457.415 420.681L353.684 459.146L353.736 466.945ZM429.589 465.797L354.884 465.797L354.849 459.969L454.776 422.91L429.589 465.797Z" fill="#89455E"/>
</g>
<g opacity="0.1984">
<path opacity="0.1984" d="M151.038 466.945L190.892 466.945L182.582 420.441L151.038 466.945ZM189.521 465.796L153.231 465.796L181.965 423.44L189.521 465.796Z" fill="#89455E"/>
</g>
<g opacity="0.2669">
<path opacity="0.2669" d="M226.856 466.945L346.933 466.945L355.466 459.231L180.439 420.955L226.856 466.945ZM346.505 465.796L227.353 465.796L184.106 422.943L353.05 459.9L346.505 465.796Z" fill="#89455E"/>
</g>
<g opacity="0.3556">
<path d="M231.089 281.768L208.9 116.853L48.6262 183.892L231.089 281.768ZM207.958 118.516L229.65 279.694L51.3334 184.046L207.958 118.516Z" fill="#89455E"/>
</g>
<g opacity="0.0587">
<path opacity="0.0587" d="M30.4468 364.972L229.016 343.203L230.986 279.832L30.4468 364.972ZM227.885 342.174L38.123 362.967L229.752 281.614L227.885 342.174Z" fill="#89455E"/>
</g>
<g opacity="0.5176">
<path opacity="0.5176" d="M478.473 340.22L478.85 339.792L533.2 278.135L392.887 268.107L478.473 340.22ZM530.784 279.129L478.353 338.609L396.348 269.513L530.784 279.129Z" fill="#89455E"/>
</g>
<g opacity="0.7235">
<path opacity="0.7235" d="M476.725 340.151L518.704 336.5L532.308 290.733L476.725 340.151ZM517.813 335.42L480.1 338.694L530.047 294.299L517.813 335.42Z" fill="#89455E"/>
</g>
<g opacity="0.3334">
<path opacity="0.3334" d="M546.01 411.018L457.777 328.345L453.428 436.305L546.01 411.018ZM458.838 330.933L543.715 410.444L454.652 434.772L458.838 330.933Z" fill="#89455E"/>
</g>
<g opacity="0.8014">
<path opacity="0.8014" d="M227.833 343.923L248.583 327.176L229.889 277.809L227.833 343.923ZM247.212 326.816L229.067 341.454L230.866 283.654L247.212 326.816Z" fill="#89455E"/>
</g>
<g opacity="0.38">
<path opacity="0.38" d="M318.267 359.864L247.811 326.319L227.096 343.031L318.267 359.864ZM247.983 327.673L309.854 357.121L229.803 342.346L247.983 327.673Z" fill="#89455E"/>
</g>
<path d="M10.2798 232.453C11.1536 231.322 10.948 229.728 9.83427 228.854C8.72055 227.98 7.10992 228.185 6.23608 229.299C5.36223 230.414 5.56786 232.025 6.68158 232.899C7.79531 233.773 9.40593 233.568 10.2798 232.453Z" fill="#89455E"/>
<path d="M83.5834 340.142C84.4573 339.028 84.2516 337.417 83.1379 336.543C82.0242 335.669 80.4136 335.874 79.5397 336.988C78.6659 338.103 78.8715 339.714 80.0023 340.588C81.0989 341.462 82.7096 341.256 83.5834 340.142Z" fill="#C1A6B0"/>
<path d="M90.8785 240.407C91.7524 239.293 91.5467 237.682 90.433 236.807C89.3193 235.933 87.6915 236.139 86.8348 237.253C85.961 238.367 86.1666 239.978 87.2803 240.853C88.3941 241.727 90.0047 241.521 90.8785 240.407Z" fill="#89455E"/>
<path d="M209.581 119.135C210.455 118.021 210.25 116.41 209.136 115.535C208.022 114.678 206.412 114.867 205.538 115.981C204.664 117.095 204.87 118.707 206 119.581C207.097 120.455 208.708 120.249 209.581 119.135Z" fill="#C1A6B0"/>
<path d="M231.226 217.472C232.1 216.358 231.894 214.747 230.78 213.872C229.667 212.998 228.056 213.204 227.182 214.318C226.308 215.432 226.514 217.043 227.628 217.918C228.741 218.792 230.352 218.586 231.226 217.472Z" fill="#89455E"/>
<path d="M103.712 270.816C104.586 269.702 104.381 268.09 103.267 267.216C102.153 266.342 100.543 266.548 99.6687 267.662C98.7949 268.793 99.0005 270.404 100.114 271.261C101.228 272.136 102.839 271.93 103.712 270.816Z" fill="#89455E"/>
<path d="M90.8785 240.407C91.7524 239.293 91.5467 237.682 90.433 236.807C89.3193 235.933 87.6915 236.139 86.8348 237.253C85.961 238.367 86.1666 239.978 87.2803 240.853C88.3941 241.727 90.0047 241.521 90.8785 240.407Z" fill="#C1A6B0"/>
<path d="M316.229 411.253C317.103 410.139 316.897 408.527 315.783 407.653C314.67 406.779 313.059 406.985 312.185 408.099C311.311 409.213 311.517 410.824 312.631 411.699C313.744 412.573 315.355 412.367 316.229 411.253Z" fill="#89455E"/>
<path d="M210.168 462.317C211.042 461.202 210.836 459.591 209.722 458.717C208.608 457.843 206.998 458.049 206.124 459.163C205.25 460.277 205.456 461.888 206.57 462.762C207.7 463.637 209.294 463.431 210.168 462.317Z" fill="#89455E"/>
<path d="M247.332 398.534C248.206 397.42 248 395.809 246.886 394.935C245.773 394.06 244.162 394.266 243.288 395.38C242.414 396.494 242.62 398.106 243.751 398.98C244.847 399.854 246.458 399.666 247.332 398.534Z" fill="#C1A6B0"/>
<path d="M316.229 411.253C317.103 410.139 316.897 408.527 315.783 407.653C314.67 406.779 313.059 406.985 312.185 408.099C311.311 409.213 311.517 410.824 312.631 411.699C313.744 412.573 315.355 412.367 316.229 411.253Z" fill="#C1A6B0"/>
<path d="M370.253 397.095C371.127 395.981 370.922 394.369 369.808 393.495C368.694 392.621 367.083 392.827 366.21 393.958C365.353 395.072 365.559 396.683 366.672 397.558C367.769 398.415 369.379 398.209 370.253 397.095Z" fill="#C1A6B0"/>
<path d="M430.514 462.197C431.387 461.082 431.182 459.471 430.051 458.597C428.937 457.723 427.327 457.928 426.453 459.043C425.579 460.157 425.785 461.768 426.898 462.642C428.029 463.516 429.64 463.311 430.514 462.197Z" fill="#C1A6B0"/>
<path d="M210.168 462.317C211.042 461.202 210.836 459.591 209.722 458.717C208.608 457.843 206.998 458.049 206.124 459.163C205.25 460.277 205.456 461.888 206.57 462.762C207.7 463.637 209.294 463.431 210.168 462.317Z" fill="#C1A6B0"/>
<path d="M210.168 462.317C211.042 461.202 210.836 459.591 209.722 458.717C208.608 457.843 206.998 458.049 206.124 459.163C205.25 460.277 205.456 461.888 206.57 462.762C207.7 463.637 209.294 463.431 210.168 462.317Z" fill="#C1A6B0"/>
<path d="M231.226 217.472C232.1 216.358 231.894 214.747 230.78 213.872C229.667 212.998 228.056 213.204 227.182 214.318C226.308 215.432 226.514 217.043 227.628 217.918C228.741 218.792 230.352 218.586 231.226 217.472Z" fill="#89455E"/>
<path d="M248.874 348.688C249.748 347.574 249.542 345.963 248.429 345.088C247.315 344.214 245.704 344.42 244.831 345.534C243.957 346.648 244.162 348.259 245.293 349.134C246.39 350.008 248 349.802 248.874 348.688Z" fill="#89455E"/>
<path d="M231.585 282.142C232.459 281.028 232.254 279.417 231.14 278.543C230.026 277.669 228.416 277.874 227.542 278.988C226.668 280.103 226.873 281.714 227.987 282.588C229.101 283.462 230.712 283.257 231.585 282.142Z" fill="#89455E"/>
<path d="M103.712 270.816C104.586 269.702 104.381 268.09 103.267 267.216C102.153 266.342 100.543 266.548 99.6687 267.662C98.7949 268.793 99.0005 270.404 100.114 271.261C101.228 272.136 102.839 271.93 103.712 270.816Z" fill="#89455E"/>
<path d="M248.874 348.688C249.748 347.574 249.542 345.963 248.429 345.088C247.315 344.214 245.704 344.42 244.831 345.534C243.957 346.648 244.162 348.259 245.293 349.134C246.39 350.008 248 349.802 248.874 348.688Z" fill="#89455E"/>
<path d="M247.332 398.534C248.206 397.42 248 395.809 246.886 394.935C245.773 394.06 244.162 394.266 243.288 395.38C242.414 396.494 242.62 398.106 243.751 398.98C244.847 399.854 246.458 399.666 247.332 398.534Z" fill="#89455E"/>
<path d="M91.085 415.659C91.9588 414.544 91.7532 412.933 90.6394 412.059C89.5257 411.185 87.9151 411.39 87.0413 412.505C86.1674 413.619 86.373 415.23 87.5039 416.104C88.6005 416.978 90.2111 416.79 91.085 415.659Z" fill="#89455E"/>
<path d="M22.6672 334.752C23.5411 333.638 23.3354 332.027 22.2217 331.153C21.108 330.278 19.4974 330.484 18.6236 331.598C17.7668 332.712 17.9553 334.324 19.0862 335.198C20.1999 336.072 21.8105 335.866 22.6672 334.752Z" fill="#89455E"/>
<path d="M22.6672 334.752C23.5411 333.638 23.3354 332.027 22.2217 331.153C21.108 330.278 19.4974 330.484 18.6236 331.598C17.7668 332.712 17.9553 334.324 19.0862 335.198C20.1999 336.072 21.8105 335.866 22.6672 334.752Z" fill="#89455E"/>
<path d="M29.7442 4.63016C30.618 3.51598 30.4124 1.88757 29.2987 1.03051C28.185 0.15631 26.5743 0.362004 25.7005 1.47618C24.8266 2.59036 25.0323 4.20162 26.146 5.07583C27.2769 5.95003 28.8875 5.74433 29.7442 4.63016Z" fill="#89455E"/>
<path d="M61.4427 129.984C62.3166 128.87 62.111 127.258 60.9973 126.384C59.8836 125.51 58.2729 125.716 57.3991 126.83C56.5424 127.944 56.7309 129.555 57.8446 130.429C58.9755 131.304 60.586 131.098 61.4427 129.984Z" fill="#89455E"/>
<path d="M472.581 347.142C473.455 346.028 473.25 344.417 472.136 343.543C471.022 342.669 469.412 342.874 468.538 343.988C467.664 345.103 467.869 346.731 468.983 347.588C470.097 348.462 471.708 348.257 472.581 347.142Z" fill="#C1A6B0"/>
<path d="M448.471 395.912C449.345 394.798 449.14 393.186 448.026 392.312C446.912 391.438 445.302 391.644 444.428 392.758C443.554 393.872 443.76 395.483 444.873 396.358C445.987 397.232 447.598 397.026 448.471 395.912Z" fill="#89455E"/>
<path d="M381.048 339.089C381.922 337.975 381.716 336.363 380.602 335.489C379.489 334.615 377.861 334.82 377.004 335.935C376.13 337.049 376.336 338.66 377.45 339.534C378.563 340.409 380.174 340.22 381.048 339.089Z" fill="#89455E"/>
<path d="M483.581 362.141C484.455 361.027 484.25 359.416 483.136 358.541C482.022 357.667 480.394 357.873 479.538 359.004C478.664 360.118 478.87 361.73 479.983 362.604C481.097 363.461 482.708 363.255 483.581 362.141Z" fill="#89455E"/>
<path d="M480.547 393.117C481.42 392.003 481.215 390.392 480.101 389.518C478.987 388.644 477.377 388.849 476.503 389.963C475.646 391.078 475.835 392.689 476.965 393.563C478.062 394.437 479.673 394.232 480.547 393.117Z" fill="#C1A6B0"/>
<path d="M448.471 395.912C449.345 394.798 449.14 393.186 448.026 392.312C446.912 391.438 445.302 391.644 444.428 392.758C443.554 393.872 443.76 395.483 444.873 396.358C445.987 397.232 447.598 397.026 448.471 395.912Z" fill="#89455E"/>
<path d="M430.514 462.197C431.387 461.082 431.182 459.471 430.051 458.597C428.937 457.723 427.327 457.928 426.453 459.043C425.579 460.157 425.785 461.768 426.898 462.642C428.029 463.516 429.64 463.311 430.514 462.197Z" fill="#C1A6B0"/>
<path d="M458.573 422.142C459.446 421.028 459.241 419.417 458.127 418.543C457.013 417.669 455.403 417.874 454.529 418.988C453.672 420.103 453.861 421.714 454.991 422.588C456.088 423.462 457.699 423.257 458.573 422.142Z" fill="#C1A6B0"/>
<path d="M262.975 385.901C263.849 384.787 263.643 383.176 262.53 382.302C261.416 381.428 259.805 381.633 258.931 382.747C258.058 383.862 258.263 385.473 259.377 386.347C260.491 387.221 262.101 387.033 262.975 385.901Z" fill="#C1A6B0"/>
<path d="M247.332 398.534C248.206 397.42 248 395.809 246.886 394.935C245.773 394.06 244.162 394.266 243.288 395.38C242.414 396.494 242.62 398.106 243.751 398.98C244.847 399.854 246.458 399.666 247.332 398.534Z" fill="#C1A6B0"/>
<path d="M248.874 348.688C249.748 347.574 249.542 345.963 248.429 345.088C247.315 344.214 245.704 344.42 244.831 345.534C243.957 346.648 244.162 348.259 245.293 349.134C246.39 350.008 248 349.802 248.874 348.688Z" fill="#C1A6B0"/>
<path d="M316.229 411.253C317.103 410.139 316.897 408.527 315.783 407.653C314.67 406.779 313.059 406.985 312.185 408.099C311.311 409.213 311.517 410.824 312.631 411.699C313.744 412.573 315.355 412.367 316.229 411.253Z" fill="#89455E"/>
<path d="M247.332 398.534C248.206 397.42 248 395.809 246.886 394.935C245.773 394.06 244.162 394.266 243.288 395.38C242.414 396.494 242.62 398.106 243.751 398.98C244.847 399.854 246.458 399.666 247.332 398.534Z" fill="#89455E"/>
<g opacity="0.2443">
<path opacity="0.2443" d="M103.386 353.042L66.9248 301.31L51.7267 347.951L103.386 353.042ZM67.3018 303.864L100.971 351.653L53.2517 346.939L67.3018 303.864Z" fill="#89455E"/>
</g>
<g opacity="0.5761">
<path opacity="0.5761" d="M44.188 142.188L81.6434 119.853L81.1123 118.824L47.5463 133.48L44.188 142.188ZM73.1791 123.555L46.484 139.48L48.4716 134.354L73.1791 123.555Z" fill="#89455E"/>
</g>
<g opacity="0.1811">
<path opacity="0.1811" d="M39.0822 88.9127L35.604 29.6899L0.992768 54.9218L0.992767 63.7152L39.0822 88.9127ZM34.5759 31.8669L37.7971 86.6672L2.15794 63.081L2.15794 55.5046L34.5759 31.8669Z" fill="#89455E"/>
</g>
<g opacity="0.6975">
<path opacity="0.6975" d="M311.842 351.07L342.496 340.837L308.741 300.864L311.842 351.07ZM340.508 340.271L312.888 349.493L310.095 304.275L340.508 340.271Z" fill="#89455E"/>
</g>
<g opacity="0.0547">
<path opacity="0.0547" d="M1.00946 356.435L53.3204 347.882L44.9074 327.929L1.00946 346.287L1.00946 356.435V356.435ZM51.6755 346.99L2.15748 355.081L2.15748 347.076L44.2735 329.455L51.6755 346.99Z" fill="#89455E"/>
</g>
<g opacity="0.6378">
<path opacity="0.6378" d="M320.666 356.538L344.842 338.849L311.071 350.127L320.666 356.538ZM338.177 342.277L320.632 355.116L313.675 350.453L338.177 342.277Z" fill="#89455E"/>
</g>
<path opacity="0.6534" d="M299.848 466.945L338.006 466.945L324.556 391.455L299.848 466.945ZM336.636 465.796L301.459 465.796L324.248 396.186L336.636 465.796Z" fill="#89455E"/>
<g opacity="0.4075">
<path opacity="0.4075" d="M323.27 376.919L321.197 355.493L311.054 348.705L323.27 376.919ZM320.101 356.161L321.403 369.737L313.675 351.876L320.101 356.161Z" fill="#89455E"/>
</g>
<g opacity="0.1929">
<path opacity="0.1929" d="M148.467 320.713L218.752 319.445L169.08 250.777L148.467 320.713ZM216.507 318.331L150.009 319.531L169.508 253.366L216.507 318.331Z" fill="#89455E"/>
</g>
<g opacity="0.9176">
<path opacity="0.9176" d="M16.3791 156.397L45.7986 141.245L49.2255 132.383L15.7794 155.42L16.3791 156.397ZM44.8734 140.422L23.9011 151.221L46.7924 135.451L44.8734 140.422Z" fill="#89455E"/>
</g>
<g opacity="0.1984">
<path opacity="0.1984" d="M1.01022 179.195L17.3392 155.112L1.01023 157.7L1.01022 179.195ZM14.889 156.672L2.15824 175.424L2.15824 158.677L14.889 156.672Z" fill="#89455E"/>
</g>
<path opacity="0.4956" d="M336.841 466.944L339.891 466.944L343.164 398.962L323.682 392.98L336.841 466.944ZM338.777 465.796L337.801 465.796L325.138 394.66L341.964 399.819L338.777 465.796Z" fill="#89455E"/>
<g opacity="0.6271">
<path opacity="0.6271" d="M106.128 158.198L132.583 100.689L80.4606 119.064L106.128 158.198ZM130.39 102.694L105.956 155.815L82.2426 119.664L130.39 102.694Z" fill="#89455E"/>
</g>
<g opacity="0.7557">
<path opacity="0.7557" d="M43.057 184.955L107.807 156.878L44.7876 140.079L43.057 184.955ZM104.295 157.135L44.2907 183.155L45.9013 141.571L104.295 157.135Z" fill="#89455E"/>
</g>
<g opacity="0.3556">
<path opacity="0.3556" d="M1.00996 347.539L45.936 328.752L1.00997 304.652L1.00996 347.539ZM43.2459 328.632L2.15798 345.825L2.15799 306.606L43.2459 328.632Z" fill="#89455E"/>
</g>
<g opacity="0.0587">
<path opacity="0.0587" d="M1.00999 261.833L56.2166 238.401L1.00999 244.452L1.00999 261.833ZM48.5233 240.407L2.15801 260.085L2.15801 245.48L48.5233 240.407Z" fill="#89455E"/>
</g>
<g opacity="0.5999">
<path opacity="0.5999" d="M124.651 324.81L150.729 320.456L105.735 288.848L124.651 324.81ZM147.748 319.788L125.268 323.541L108.973 292.567L147.748 319.788Z" fill="#89455E"/>
</g>
<g opacity="0.7881">
<path opacity="0.7881" d="M150.026 321.381L141.459 267.798L106.316 290.681L150.026 321.381ZM140.602 269.752L148.449 318.879L108.39 290.733L140.602 269.752Z" fill="#89455E"/>
</g>
<g opacity="0.397">
<path opacity="0.397" d="M127.769 328.29L107.722 290.167L93.1234 288.539L127.769 328.29ZM106.985 291.247L122.132 320.062L95.9334 290.013L106.985 291.247Z" fill="#89455E"/>
</g>
<g opacity="0.1352">
<path opacity="0.1352" d="M107.722 291.333L131.196 234.818L93.5004 289.739L107.722 291.333ZM125.884 244.623L107.002 290.082L95.5736 288.796L125.884 244.623Z" fill="#89455E"/>
</g>
<g opacity="0.5835">
<path opacity="0.5835" d="M399.827 461.545L433.495 443.187L382.161 426.954L399.827 461.545ZM430.565 443.478L400.323 459.968L384.474 428.908L430.565 443.478Z" fill="#89455E"/>
</g>
<g opacity="0.7245">
<path opacity="0.7245" d="M313.024 351.327L309.94 301.36L276.734 330.175L313.024 351.327ZM308.929 303.777L311.739 349.236L278.722 329.986L308.929 303.777Z" fill="#89455E"/>
</g>
<g opacity="0.6437">
<path opacity="0.6437" d="M276.7 331.735L311.551 301.515L282.885 307.892L276.7 331.735ZM307.319 303.641L278.739 328.427L283.811 308.869L307.319 303.641Z" fill="#89455E"/>
</g>
<g opacity="0.4081">
<path opacity="0.4081" d="M200.777 466.945L224.902 466.945L215.581 401.037L180.49 444.421L200.777 466.945ZM223.566 465.796L201.291 465.796L182.015 444.387L214.81 403.848L223.566 465.796Z" fill="#89455E"/>
</g>
<g opacity="0.9412">
<path opacity="0.9412" d="M83.0489 466.945L109.007 466.945L128.849 438.679L69.8041 414.527L83.0489 466.945ZM108.408 465.796L83.957 465.796L71.4833 416.481L127.067 439.21L108.408 465.796Z" fill="#89455E"/>
</g>
<g opacity="0.2546">
<path opacity="0.2546" d="M1.01002 108.54L39.5792 87.8504L1.01003 62.3271L1.01002 108.54ZM37.3175 87.7475L2.15804 106.603L2.15805 64.4698L37.3175 87.7475Z" fill="#89455E"/>
</g>
<g opacity="0.2255">
<path opacity="0.2255" d="M325.053 394.574L322.825 372.479L291.059 386.552L325.053 394.574ZM321.849 374.176L323.751 393.066L294.674 386.21L321.849 374.176Z" fill="#89455E"/>
</g>
<g opacity="0.1251">
<path opacity="0.1251" d="M291.555 387.598L323.099 373.628L312.442 348.962L291.555 387.598ZM321.574 373.028L294.177 385.164L312.305 351.602L321.574 373.028Z" fill="#89455E"/>
</g>
<g opacity="0.2913">
<path opacity="0.2913" d="M292.686 387.941L313.144 350.076L276.785 328.89L292.686 387.941ZM311.602 350.505L293.045 384.838L278.636 331.289L311.602 350.505Z" fill="#89455E"/>
</g>
<g opacity="0.7893">
<path opacity="0.7893" d="M214.811 403.111L296.456 386.227L205.747 375.257L214.811 403.111ZM289.294 386.535L215.6 401.774L207.409 376.628L289.294 386.535Z" fill="#89455E"/>
</g>
<g opacity="0.769">
<path opacity="0.769" d="M383.909 429.063L383.377 378.496L341.433 399.305L383.909 429.063ZM382.229 380.347L382.726 426.817L343.694 399.477L382.229 380.347Z" fill="#89455E"/>
</g>
<g opacity="0.7914">
<path opacity="0.7914" d="M382.401 379.833L383.206 379.01L342.975 337.717L340.73 340.614L382.401 379.833ZM343.078 339.465L363.793 360.72L342.289 340.477L343.078 339.465Z" fill="#89455E"/>
</g>
<g opacity="0.7235">
<path opacity="0.7235" d="M282.954 309.383L296.01 299.63L277.094 280.432L282.954 309.383ZM294.263 299.493L283.725 307.36L278.996 283.997L294.263 299.493Z" fill="#89455E"/>
</g>
<g opacity="0.3504">
<path opacity="0.3504" d="M52.532 127.155L82.6711 119.63L37.2139 86.1873L52.532 127.155ZM80.0153 119.098L53.2516 125.783L39.6641 89.4098L80.0153 119.098Z" fill="#89455E"/>
</g>
<g opacity="0.5955">
<path opacity="0.5955" d="M47.7174 135.4L53.5259 126.538L38.9617 87.5928L37.848 87.9185L47.7174 135.4ZM52.258 126.4L48.2999 132.434L40.5552 95.0663L52.258 126.4Z" fill="#89455E"/>
</g>
<g opacity="0.9285">
<path opacity="0.9285" d="M137.056 327.844L152.272 319.033L122.132 324.056L137.056 327.844ZM146.189 321.228L136.885 326.61L127.77 324.296L146.189 321.228Z" fill="#89455E"/>
</g>
<g opacity="0.9356">
<path opacity="0.9356" d="M206.227 376.422L206.963 375.531L149.324 319.41L135.89 327.193L206.227 376.422ZM149.152 320.85L201.035 371.383L138.049 327.278L149.152 320.85Z" fill="#89455E"/>
</g>
<path d="M64.2689 304.652C63.8405 305.217 63.9433 306.006 64.4916 306.434C65.0399 306.863 65.8452 306.76 66.2736 306.211C66.7019 305.663 66.5991 304.857 66.0508 304.429C65.5025 303.983 64.7144 304.086 64.2689 304.652Z" fill="#E0DCDC"/>
<path d="M36.0655 264.592C35.6371 265.141 35.7399 265.947 36.2882 266.375C36.8365 266.804 37.6418 266.701 38.0702 266.152C38.4985 265.604 38.3957 264.798 37.8474 264.37C37.282 263.941 36.4938 264.044 36.0655 264.592Z" fill="#E0DCDC"/>
<path d="M24.2937 300.692C23.8654 301.241 23.9682 302.046 24.5165 302.475C25.0819 302.903 25.8701 302.8 26.2985 302.252C26.7268 301.703 26.624 300.898 26.0757 300.469C25.5274 300.041 24.7221 300.144 24.2937 300.692Z" fill="#E0DCDC"/>
<path d="M20.6791 128.869C20.2507 129.417 20.3535 130.223 20.9018 130.651C21.4501 131.08 22.2554 130.977 22.6837 130.429C23.1121 129.88 23.0093 129.074 22.461 128.646C21.9127 128.217 21.1074 128.32 20.6791 128.869Z" fill="#E0DCDC"/>
<path d="M18.5377 134.439C18.1094 134.988 18.2122 135.794 18.7605 136.222C19.3088 136.651 20.1141 136.548 20.5424 135.999C20.9708 135.451 20.868 134.645 20.3197 134.217C19.7714 133.788 18.9661 133.891 18.5377 134.439Z" fill="#E0DCDC"/>
<path d="M47.5111 117.161C47.0827 117.71 47.1855 118.515 47.7338 118.944C48.2821 119.372 49.0874 119.269 49.5158 118.721C49.9441 118.155 49.8413 117.367 49.293 116.938C48.7447 116.51 47.9394 116.613 47.5111 117.161Z" fill="#E0DCDC"/>
<path d="M12.9854 91.7582C12.557 92.3067 12.6599 93.1123 13.2082 93.5409C13.7564 93.9694 14.5618 93.8666 14.9901 93.318C15.4185 92.7695 15.3157 91.9639 14.7674 91.5354C14.2191 91.1068 13.4138 91.2097 12.9854 91.7582Z" fill="#E0DCDC"/>
<path d="M10.2957 45.8879C9.86734 46.4364 9.9701 47.2421 10.5184 47.6706C11.0667 48.0991 11.872 47.9963 12.3004 47.4478C12.7287 46.8992 12.6259 46.0936 12.0776 45.6651C11.5293 45.2194 10.7241 45.3222 10.2957 45.8879Z" fill="#E0DCDC"/>
<path d="M359.989 395.26C359.56 395.808 359.646 396.614 360.211 397.042C360.76 397.471 361.565 397.368 361.993 396.82C362.422 396.271 362.319 395.465 361.771 395.037C361.205 394.591 360.417 394.694 359.989 395.26Z" fill="#E0DCDC"/>
<path d="M329.712 377.862C329.284 378.41 329.386 379.216 329.935 379.644C330.483 380.073 331.288 379.97 331.717 379.422C332.145 378.873 332.042 378.067 331.494 377.639C330.946 377.21 330.14 377.313 329.712 377.862Z" fill="#E0DCDC"/>
<path d="M390.179 356.846C389.751 357.395 389.854 358.2 390.402 358.629C390.95 359.058 391.756 358.955 392.184 358.406C392.612 357.858 392.509 357.052 391.961 356.623C391.413 356.195 390.608 356.298 390.179 356.846Z" fill="#E0DCDC"/>
<path d="M233.418 302.988C232.989 303.537 233.092 304.343 233.64 304.771C234.189 305.2 234.994 305.097 235.422 304.548C235.851 304 235.748 303.194 235.2 302.766C234.651 302.337 233.846 302.44 233.418 302.988Z" fill="#E0DCDC"/>
<path d="M256.874 295.155C256.446 295.704 256.549 296.509 257.097 296.938C257.645 297.366 258.451 297.264 258.879 296.715C259.307 296.167 259.204 295.361 258.656 294.932C258.091 294.504 257.303 294.607 256.874 295.155Z" fill="#E0DCDC"/>
<path d="M17.938 285.608C17.5096 286.156 17.6124 286.962 18.1607 287.391C18.709 287.819 19.5143 287.716 19.9426 287.168C20.371 286.602 20.2682 285.814 19.7199 285.385C19.1545 284.956 18.3663 285.059 17.938 285.608Z" fill="#E0DCDC"/>
<path d="M24.2937 300.692C23.8654 301.241 23.9682 302.046 24.5165 302.475C25.0819 302.903 25.8701 302.8 26.2985 302.252C26.7268 301.703 26.624 300.898 26.0757 300.469C25.5274 300.041 24.7221 300.144 24.2937 300.692Z" fill="#E0DCDC"/>
<path d="M129.688 457.928C129.259 458.477 129.362 459.282 129.91 459.711C130.459 460.139 131.264 460.037 131.692 459.488C132.121 458.922 132.018 458.134 131.47 457.705C130.904 457.26 130.116 457.363 129.688 457.928Z" fill="#E0DCDC"/>
<path d="M240.083 307.446C239.654 307.994 239.74 308.8 240.306 309.228C240.854 309.657 241.659 309.554 242.087 309.006C242.516 308.457 242.413 307.651 241.865 307.223C241.316 306.794 240.511 306.897 240.083 307.446Z" fill="#E0DCDC"/>
<path d="M233.418 302.988C232.989 303.537 233.092 304.343 233.64 304.771C234.189 305.2 234.994 305.097 235.422 304.548C235.851 304 235.748 303.194 235.2 302.766C234.651 302.337 233.846 302.44 233.418 302.988Z" fill="#E0DCDC"/>
<path d="M256.874 295.155C256.446 295.704 256.549 296.509 257.097 296.938C257.645 297.366 258.451 297.264 258.879 296.715C259.307 296.167 259.204 295.361 258.656 294.932C258.091 294.504 257.303 294.607 256.874 295.155Z" fill="#E0DCDC"/>
<path d="M219.403 410.43C218.975 410.978 219.077 411.784 219.626 412.213C220.174 412.641 220.979 412.538 221.408 411.99C221.836 411.441 221.733 410.636 221.185 410.207C220.637 409.778 219.831 409.881 219.403 410.43Z" fill="#E0DCDC"/>
<path d="M243.099 338.025C242.671 338.574 242.757 339.379 243.322 339.808C243.87 340.236 244.676 340.134 245.104 339.585C245.533 339.037 245.43 338.231 244.881 337.802C244.333 337.374 243.528 337.46 243.099 338.025Z" fill="#E0DCDC"/>
<path d="M254.767 403.556C254.339 404.104 254.442 404.91 254.99 405.339C255.538 405.767 256.344 405.664 256.772 405.116C257.2 404.567 257.098 403.762 256.549 403.333C256.001 402.905 255.196 402.99 254.767 403.556Z" fill="#E0DCDC"/>
<path d="M241.437 321.536C241.009 322.084 241.112 322.89 241.66 323.318C242.208 323.747 243.014 323.644 243.442 323.095C243.87 322.547 243.768 321.741 243.219 321.313C242.671 320.867 241.866 320.97 241.437 321.536Z" fill="#E0DCDC"/>
<path d="M233.418 302.988C232.989 303.537 233.092 304.343 233.64 304.771C234.189 305.2 234.994 305.097 235.422 304.548C235.851 304 235.748 303.194 235.2 302.766C234.651 302.337 233.846 302.44 233.418 302.988Z" fill="#E0DCDC"/>
<path d="M240.083 307.446C239.654 307.994 239.74 308.8 240.306 309.228C240.854 309.657 241.659 309.554 242.087 309.006C242.516 308.457 242.413 307.651 241.865 307.223C241.316 306.794 240.511 306.897 240.083 307.446Z" fill="#E0DCDC"/>
<path d="M390.179 356.846C389.751 357.395 389.854 358.2 390.402 358.629C390.95 359.058 391.756 358.955 392.184 358.406C392.612 357.858 392.509 357.052 391.961 356.623C391.413 356.195 390.608 356.298 390.179 356.846Z" fill="#E0DCDC"/>
<path d="M118.292 223.951C117.864 224.499 117.967 225.305 118.515 225.734C119.064 226.162 119.869 226.059 120.297 225.511C120.726 224.962 120.623 224.157 120.074 223.728C119.526 223.299 118.721 223.402 118.292 223.951Z" fill="#E0DCDC"/>
<path d="M102.152 278.717C101.724 279.265 101.827 280.071 102.375 280.5C102.923 280.928 103.729 280.825 104.157 280.277C104.585 279.728 104.482 278.923 103.934 278.494C103.369 278.066 102.581 278.168 102.152 278.717Z" fill="#E0DCDC"/>
<path d="M157.188 277.723C156.759 278.271 156.862 279.077 157.41 279.505C157.959 279.934 158.764 279.831 159.192 279.283C159.621 278.734 159.518 277.928 158.97 277.5C158.421 277.071 157.616 277.174 157.188 277.723Z" fill="#E0DCDC"/>
<path d="M107.48 436.673C107.052 437.222 107.155 438.027 107.703 438.456C108.251 438.884 109.057 438.781 109.485 438.233C109.913 437.684 109.811 436.879 109.262 436.45C108.714 436.022 107.909 436.124 107.48 436.673Z" fill="#E0DCDC"/>
<path d="M165.977 420.989C165.549 421.537 165.635 422.343 166.2 422.771C166.748 423.2 167.554 423.097 167.982 422.548C168.41 422 168.307 421.194 167.759 420.766C167.194 420.337 166.406 420.44 165.977 420.989Z" fill="#E0DCDC"/>
<path d="M152.322 450.197C151.894 450.745 151.996 451.551 152.545 451.98C153.093 452.408 153.898 452.305 154.327 451.757C154.755 451.208 154.652 450.403 154.104 449.974C153.556 449.546 152.75 449.648 152.322 450.197Z" fill="#E0DCDC"/>
<path d="M98.9486 33.7522C98.5203 34.3007 98.606 35.1063 99.1714 35.5348C99.7197 35.9634 100.525 35.8605 100.953 35.312C101.382 34.7635 101.279 33.9579 100.731 33.5293C100.182 33.0837 99.377 33.1865 98.9486 33.7522Z" fill="#E0DCDC"/>
<path d="M108.27 52.9335C107.841 53.482 107.944 54.2877 108.492 54.7162C109.041 55.1447 109.846 55.0419 110.274 54.4934C110.703 53.9448 110.6 53.1392 110.052 52.7107C109.503 52.2821 108.698 52.385 108.27 52.9335Z" fill="#E0DCDC"/>
<path d="M87.8627 102.951C87.4343 103.499 87.5371 104.305 88.0854 104.734C88.6337 105.162 89.439 105.059 89.8674 104.511C90.2957 103.962 90.1929 103.157 89.6446 102.728C89.0963 102.282 88.291 102.385 87.8627 102.951Z" fill="#E0DCDC"/>
<path d="M129.242 52.9677C128.814 53.5163 128.916 54.3219 129.465 54.7504C130.013 55.179 130.818 55.0761 131.247 54.5276C131.675 53.9791 131.572 53.1734 131.024 52.7449C130.476 52.2992 129.67 52.4021 129.242 52.9677Z" fill="#E0DCDC"/>
<path d="M20.6791 128.869C20.2507 129.417 20.3535 130.223 20.9018 130.651C21.4501 131.08 22.2554 130.977 22.6837 130.429C23.1121 129.88 23.0093 129.074 22.461 128.646C21.9127 128.217 21.1074 128.32 20.6791 128.869Z" fill="#E0DCDC"/>
<path d="M18.5377 134.439C18.1094 134.988 18.2122 135.794 18.7605 136.222C19.3088 136.651 20.1141 136.548 20.5424 135.999C20.9708 135.451 20.868 134.645 20.3197 134.217C19.7714 133.788 18.9661 133.891 18.5377 134.439Z" fill="#E0DCDC"/>
<path d="M56.7126 28.0443C56.2842 28.5928 56.3871 29.3985 56.9354 29.827C57.4837 30.2555 58.2889 30.1527 58.7173 29.6042C59.1457 29.0557 59.06 28.25 58.4945 27.8215C57.9291 27.393 57.141 27.4958 56.7126 28.0443Z" fill="#E0DCDC"/>
<path d="M10.2957 45.8879C9.86734 46.4364 9.9701 47.2421 10.5184 47.6706C11.0667 48.0991 11.872 47.9963 12.3004 47.4478C12.7287 46.8992 12.6259 46.0936 12.0776 45.6651C11.5293 45.2194 10.7241 45.3222 10.2957 45.8879Z" fill="#E0DCDC"/>
<path d="M41.9596 51.682C41.5313 52.2306 41.6341 53.0362 42.1824 53.4647C42.7307 53.8933 43.536 53.7904 43.9644 53.2419C44.3927 52.6934 44.2899 51.8877 43.7416 51.4592C43.1933 51.0307 42.388 51.1335 41.9596 51.682Z" fill="#E0DCDC"/>
<path d="M56.7126 28.0443C56.2842 28.5928 56.3871 29.3985 56.9354 29.827C57.4837 30.2555 58.2889 30.1527 58.7173 29.6042C59.1457 29.0557 59.06 28.25 58.4945 27.8215C57.9291 27.393 57.141 27.4958 56.7126 28.0443Z" fill="#E0DCDC"/>
<path d="M336.514 318.365C336.086 318.913 336.189 319.719 336.737 320.147C337.285 320.576 338.091 320.473 338.519 319.924C338.947 319.376 338.845 318.57 338.296 318.142C337.748 317.713 336.943 317.816 336.514 318.365Z" fill="#E0DCDC"/>
<path d="M336.514 318.365C336.086 318.913 336.189 319.719 336.737 320.147C337.285 320.576 338.091 320.473 338.519 319.924C338.947 319.376 338.845 318.57 338.296 318.142C337.748 317.713 336.943 317.816 336.514 318.365Z" fill="#E0DCDC"/>
<path d="M336.514 318.365C336.086 318.913 336.189 319.719 336.737 320.147C337.285 320.576 338.091 320.473 338.519 319.924C338.947 319.376 338.845 318.57 338.296 318.142C337.748 317.713 336.943 317.816 336.514 318.365Z" fill="#E0DCDC"/>
<path d="M257.714 342.499C257.286 343.048 257.389 343.853 257.937 344.282C258.485 344.71 259.29 344.608 259.719 344.059C260.147 343.511 260.044 342.705 259.496 342.276C258.948 341.848 258.142 341.951 257.714 342.499Z" fill="#E0DCDC"/>
<path d="M243.099 338.025C242.671 338.574 242.757 339.379 243.322 339.808C243.87 340.236 244.676 340.134 245.104 339.585C245.533 339.037 245.43 338.231 244.881 337.802C244.333 337.374 243.528 337.46 243.099 338.025Z" fill="#E0DCDC"/>
<path d="M254.767 403.556C254.339 404.104 254.442 404.91 254.99 405.339C255.538 405.767 256.344 405.664 256.772 405.116C257.2 404.567 257.098 403.762 256.549 403.333C256.001 402.905 255.196 402.99 254.767 403.556Z" fill="#E0DCDC"/>
<path d="M67.3874 147.45C66.959 147.998 67.0618 148.804 67.6101 149.232C68.1584 149.661 68.9638 149.558 69.3921 149.009C69.8205 148.461 69.7177 147.655 69.1694 147.227C68.6211 146.798 67.8157 146.901 67.3874 147.45Z" fill="#E0DCDC"/>
<path d="M47.5111 117.161C47.0827 117.71 47.1855 118.515 47.7338 118.944C48.2821 119.372 49.0874 119.269 49.5158 118.721C49.9441 118.155 49.8413 117.367 49.293 116.938C48.7447 116.51 47.9394 116.613 47.5111 117.161Z" fill="#E0DCDC"/>
<path d="M87.8627 102.951C87.4343 103.499 87.5371 104.305 88.0854 104.734C88.6337 105.162 89.439 105.059 89.8674 104.511C90.2957 103.962 90.1929 103.157 89.6446 102.728C89.0963 102.282 88.291 102.385 87.8627 102.951Z" fill="#E0DCDC"/>
<path d="M67.3874 147.45C66.959 147.998 67.0618 148.804 67.6101 149.232C68.1584 149.661 68.9638 149.558 69.3921 149.009C69.8205 148.461 69.7177 147.655 69.1694 147.227C68.6211 146.798 67.8157 146.901 67.3874 147.45Z" fill="#E0DCDC"/>
<path d="M18.5377 134.439C18.1094 134.988 18.2122 135.794 18.7605 136.222C19.3088 136.651 20.1141 136.548 20.5424 135.999C20.9708 135.451 20.868 134.645 20.3197 134.217C19.7714 133.788 18.9661 133.891 18.5377 134.439Z" fill="#E0DCDC"/>
<path d="M17.2008 169.219C16.7725 169.785 16.8581 170.573 17.4235 171.002C17.9718 171.43 18.7772 171.327 19.2055 170.779C19.6339 170.23 19.5311 169.425 18.9828 168.996C18.4173 168.568 17.6292 168.671 17.2008 169.219Z" fill="#E0DCDC"/>
<path d="M17.938 285.608C17.5096 286.156 17.6124 286.962 18.1607 287.391C18.709 287.819 19.5143 287.716 19.9426 287.168C20.371 286.602 20.2682 285.814 19.7199 285.385C19.1545 284.956 18.3663 285.059 17.938 285.608Z" fill="#E0DCDC"/>
<path d="M24.1918 213.752C23.7635 214.3 23.8663 215.106 24.4146 215.534C24.9629 215.963 25.7682 215.86 26.1966 215.311C26.6249 214.763 26.5221 213.957 25.9738 213.529C25.4255 213.1 24.6202 213.203 24.1918 213.752Z" fill="#E0DCDC"/>
<path d="M68.4497 255.045C68.0213 255.611 68.107 256.399 68.6724 256.828C69.2207 257.256 70.026 257.153 70.4544 256.605C70.8827 256.056 70.7799 255.251 70.2316 254.822C69.6833 254.394 68.878 254.497 68.4497 255.045Z" fill="#E0DCDC"/>
<path d="M82.6196 281.974C82.1912 282.522 82.2769 283.328 82.8424 283.756C83.3907 284.185 84.196 284.082 84.6243 283.533C85.0527 282.985 84.9499 282.179 84.4016 281.751C83.8362 281.322 83.048 281.425 82.6196 281.974Z" fill="#E0DCDC"/>
<path d="M102.152 278.717C101.724 279.265 101.827 280.071 102.375 280.5C102.923 280.928 103.729 280.825 104.157 280.277C104.585 279.728 104.482 278.923 103.934 278.494C103.369 278.066 102.581 278.168 102.152 278.717Z" fill="#E0DCDC"/>
<path d="M68.4497 255.045C68.0213 255.611 68.107 256.399 68.6724 256.828C69.2207 257.256 70.026 257.153 70.4544 256.605C70.8827 256.056 70.7799 255.251 70.2316 254.822C69.6833 254.394 68.878 254.497 68.4497 255.045Z" fill="#E0DCDC"/>
<path d="M95.5554 237.389C95.1271 237.938 95.2128 238.743 95.7782 239.172C96.3436 239.601 97.1318 239.498 97.5601 238.949C97.9885 238.401 97.8857 237.595 97.3374 237.166C96.772 236.738 95.9838 236.841 95.5554 237.389Z" fill="#E0DCDC"/>
<path d="M102.152 278.717C101.724 279.265 101.827 280.071 102.375 280.5C102.923 280.928 103.729 280.825 104.157 280.277C104.585 279.728 104.482 278.923 103.934 278.494C103.369 278.066 102.581 278.168 102.152 278.717Z" fill="#E0DCDC"/>
<path d="M68.4497 255.045C68.0213 255.611 68.107 256.399 68.6724 256.828C69.2207 257.256 70.026 257.153 70.4544 256.605C70.8827 256.056 70.7799 255.251 70.2316 254.822C69.6833 254.394 68.878 254.497 68.4497 255.045Z" fill="#E0DCDC"/>
<path d="M58.1345 253.896C57.7062 254.445 57.809 255.251 58.3573 255.679C58.9056 256.108 59.7109 256.005 60.1392 255.456C60.5676 254.908 60.4648 254.102 59.9165 253.674C59.3511 253.245 58.5629 253.348 58.1345 253.896Z" fill="#E0DCDC"/>
<path d="M82.6196 281.974C82.1912 282.522 82.2769 283.328 82.8424 283.756C83.3907 284.185 84.196 284.082 84.6243 283.533C85.0527 282.985 84.9499 282.179 84.4016 281.751C83.8362 281.322 83.048 281.425 82.6196 281.974Z" fill="#E0DCDC"/>
<path d="M68.4497 255.045C68.0213 255.611 68.107 256.399 68.6724 256.828C69.2207 257.256 70.026 257.153 70.4544 256.605C70.8827 256.056 70.7799 255.251 70.2316 254.822C69.6833 254.394 68.878 254.497 68.4497 255.045Z" fill="#E0DCDC"/>
<path d="M85.498 214.009C85.0697 214.557 85.1553 215.363 85.7208 215.792C86.2691 216.22 87.0744 216.117 87.5028 215.569C87.9311 215.02 87.8283 214.215 87.28 213.786C86.7317 213.358 85.9264 213.46 85.498 214.009Z" fill="#E0DCDC"/>
<path d="M58.1345 253.896C57.7062 254.445 57.809 255.251 58.3573 255.679C58.9056 256.108 59.7109 256.005 60.1392 255.456C60.5676 254.908 60.4648 254.102 59.9165 253.674C59.3511 253.245 58.5629 253.348 58.1345 253.896Z" fill="#E0DCDC"/>
<path d="M187.687 427.022C187.258 427.571 187.361 428.376 187.909 428.805C188.475 429.234 189.263 429.131 189.691 428.582C190.12 428.034 190.017 427.228 189.469 426.8C188.92 426.371 188.132 426.474 187.687 427.022Z" fill="#E0DCDC"/>
<path d="M152.322 450.197C151.894 450.745 151.996 451.551 152.545 451.98C153.093 452.408 153.898 452.305 154.327 451.757C154.755 451.208 154.652 450.403 154.104 449.974C153.556 449.546 152.75 449.648 152.322 450.197Z" fill="#E0DCDC"/>
<path d="M191.662 461.973C191.234 462.522 191.336 463.327 191.885 463.756C192.433 464.184 193.238 464.081 193.667 463.533C194.095 462.984 193.992 462.179 193.444 461.75C192.878 461.305 192.09 461.407 191.662 461.973Z" fill="#E0DCDC"/>
<path d="M303.994 391.883C303.565 392.432 303.668 393.237 304.216 393.666C304.765 394.094 305.57 393.992 305.998 393.443C306.427 392.895 306.324 392.089 305.776 391.66C305.227 391.232 304.422 391.335 303.994 391.883Z" fill="#E0DCDC"/>
<path d="M290.509 365.468C290.081 366.017 290.184 366.823 290.732 367.251C291.28 367.68 292.086 367.577 292.514 367.028C292.943 366.48 292.84 365.674 292.291 365.246C291.743 364.817 290.938 364.92 290.509 365.468Z" fill="#E0DCDC"/>
<path d="M329.712 377.862C329.284 378.41 329.386 379.216 329.935 379.644C330.483 380.073 331.288 379.97 331.717 379.422C332.145 378.873 332.042 378.067 331.494 377.639C330.946 377.21 330.14 377.313 329.712 377.862Z" fill="#E0DCDC"/>
<path d="M288.899 451.809C288.47 452.374 288.573 453.163 289.122 453.591C289.67 454.02 290.475 453.917 290.904 453.369C291.332 452.82 291.229 452.014 290.681 451.586C290.132 451.157 289.327 451.26 288.899 451.809Z" fill="#E0DCDC"/>
<path d="M205.541 286.739C205.113 287.287 205.216 288.093 205.764 288.521C206.312 288.95 207.118 288.847 207.546 288.299C207.974 287.75 207.871 286.944 207.323 286.516C206.775 286.07 205.97 286.173 205.541 286.739Z" fill="#E0DCDC"/>
<path d="M233.418 302.988C232.989 303.537 233.092 304.343 233.64 304.771C234.189 305.2 234.994 305.097 235.422 304.548C235.851 304 235.748 303.194 235.2 302.766C234.651 302.337 233.846 302.44 233.418 302.988Z" fill="#E0DCDC"/>
<path d="M205.541 286.739C205.113 287.287 205.216 288.093 205.764 288.521C206.312 288.95 207.118 288.847 207.546 288.299C207.974 287.75 207.871 286.944 207.323 286.516C206.775 286.07 205.97 286.173 205.541 286.739Z" fill="#E0DCDC"/>
<path d="M127.905 378.736C127.477 379.284 127.58 380.09 128.128 380.518C128.676 380.947 129.481 380.844 129.91 380.296C130.338 379.747 130.235 378.941 129.687 378.513C129.139 378.067 128.333 378.17 127.905 378.736Z" fill="#E0DCDC"/>
<path d="M155.217 344.968C154.789 345.517 154.892 346.322 155.44 346.751C155.988 347.179 156.794 347.076 157.222 346.528C157.65 345.979 157.548 345.174 156.999 344.745C156.451 344.317 155.646 344.402 155.217 344.968Z" fill="#E0DCDC"/>
<path d="M165.977 420.989C165.549 421.537 165.635 422.343 166.2 422.771C166.748 423.2 167.554 423.097 167.982 422.548C168.41 422 168.307 421.194 167.759 420.766C167.194 420.337 166.406 420.44 165.977 420.989Z" fill="#E0DCDC"/>
<path d="M54.6217 417.646C54.1934 418.195 54.2962 419 54.8445 419.429C55.3928 419.858 56.1981 419.755 56.6264 419.206C57.0548 418.658 56.952 417.852 56.4037 417.424C55.8382 416.995 55.0501 417.098 54.6217 417.646Z" fill="#E0DCDC"/>
<path d="M38.8926 355.475C38.4642 356.023 38.567 356.829 39.1153 357.258C39.6636 357.686 40.4689 357.583 40.8972 357.035C41.3256 356.486 41.2228 355.681 40.6745 355.252C40.1262 354.824 39.3209 354.909 38.8926 355.475Z" fill="#E0DCDC"/>
<path d="M85.0178 374.33C84.5895 374.879 84.6923 375.684 85.2406 376.113C85.806 376.541 86.5942 376.439 87.0226 375.89C87.451 375.342 87.3481 374.536 86.7998 374.107C86.2515 373.679 85.4462 373.782 85.0178 374.33Z" fill="#E0DCDC"/>
<path d="M12.9854 91.7582C12.557 92.3067 12.6599 93.1123 13.2082 93.5409C13.7564 93.9694 14.5618 93.8666 14.9901 93.318C15.4185 92.7695 15.3157 91.9639 14.7674 91.5354C14.2191 91.1068 13.4138 91.2097 12.9854 91.7582Z" fill="#E0DCDC"/>
<path d="M217.723 332.043C217.295 332.592 217.398 333.398 217.946 333.826C218.511 334.255 219.299 334.152 219.728 333.603C220.156 333.055 220.053 332.249 219.505 331.821C218.957 331.375 218.151 331.478 217.723 332.043Z" fill="#E0DCDC"/>
<path d="M241.437 321.536C241.009 322.084 241.112 322.89 241.66 323.318C242.208 323.747 243.014 323.644 243.442 323.095C243.87 322.547 243.768 321.741 243.219 321.313C242.671 320.867 241.866 320.97 241.437 321.536Z" fill="#E0DCDC"/>
<path d="M243.099 338.025C242.671 338.574 242.757 339.379 243.322 339.808C243.87 340.236 244.676 340.134 245.104 339.585C245.533 339.037 245.43 338.231 244.881 337.802C244.333 337.374 243.528 337.46 243.099 338.025Z" fill="#E0DCDC"/>
<path d="M217.723 332.043C217.295 332.592 217.398 333.398 217.946 333.826C218.511 334.255 219.299 334.152 219.728 333.603C220.156 333.055 220.053 332.249 219.505 331.821C218.957 331.375 218.151 331.478 217.723 332.043Z" fill="#E0DCDC"/>
<path d="M233.418 302.988C232.989 303.537 233.092 304.343 233.64 304.771C234.189 305.2 234.994 305.097 235.422 304.548C235.851 304 235.748 303.194 235.2 302.766C234.651 302.337 233.846 302.44 233.418 302.988Z" fill="#E0DCDC"/>
<path d="M241.437 321.536C241.009 322.084 241.112 322.89 241.66 323.318C242.208 323.747 243.014 323.644 243.442 323.095C243.87 322.547 243.768 321.741 243.219 321.313C242.671 320.867 241.866 320.97 241.437 321.536Z" fill="#E0DCDC"/>
<path d="M217.723 332.043C217.295 332.592 217.398 333.398 217.946 333.826C218.511 334.255 219.299 334.152 219.728 333.603C220.156 333.055 220.053 332.249 219.505 331.821C218.957 331.375 218.151 331.478 217.723 332.043Z" fill="#E0DCDC"/>
<path d="M205.541 286.739C205.113 287.287 205.216 288.093 205.764 288.521C206.312 288.95 207.118 288.847 207.546 288.299C207.974 287.75 207.871 286.944 207.323 286.516C206.775 286.07 205.97 286.173 205.541 286.739Z" fill="#E0DCDC"/>
<path d="M233.418 302.988C232.989 303.537 233.092 304.343 233.64 304.771C234.189 305.2 234.994 305.097 235.422 304.548C235.851 304 235.748 303.194 235.2 302.766C234.651 302.337 233.846 302.44 233.418 302.988Z" fill="#E0DCDC"/>
<path d="M217.723 332.043C217.295 332.592 217.398 333.398 217.946 333.826C218.511 334.255 219.299 334.152 219.728 333.603C220.156 333.055 220.053 332.249 219.505 331.821C218.957 331.375 218.151 331.478 217.723 332.043Z" fill="#E0DCDC"/>
<path d="M148.278 323.644C147.849 324.21 147.952 324.998 148.5 325.427C149.049 325.855 149.854 325.752 150.282 325.204C150.711 324.655 150.608 323.85 150.06 323.421C149.511 322.993 148.706 323.095 148.278 323.644Z" fill="#E0DCDC"/>
<path d="M155.217 344.968C154.789 345.517 154.892 346.322 155.44 346.751C155.988 347.179 156.794 347.076 157.222 346.528C157.65 345.979 157.548 345.174 156.999 344.745C156.451 344.317 155.646 344.402 155.217 344.968Z" fill="#E0DCDC"/>
<path d="M220.567 455.494C220.139 456.042 220.241 456.848 220.79 457.276C221.355 457.705 222.143 457.602 222.572 457.054C223 456.505 222.914 455.699 222.349 455.271C221.801 454.842 220.995 454.928 220.567 455.494Z" fill="#E0DCDC"/>
<path d="M283.193 451.705C282.765 452.254 282.868 453.059 283.416 453.488C283.964 453.916 284.77 453.814 285.198 453.265C285.626 452.717 285.524 451.911 284.975 451.482C284.427 451.054 283.622 451.157 283.193 451.705Z" fill="#E0DCDC"/>
<path d="M283.193 451.705C282.765 452.254 282.868 453.059 283.416 453.488C283.964 453.916 284.77 453.814 285.198 453.265C285.626 452.717 285.524 451.911 284.975 451.482C284.427 451.054 283.622 451.157 283.193 451.705Z" fill="#E0DCDC"/>
<path d="M297.963 397.317C297.535 397.865 297.637 398.671 298.186 399.099C298.734 399.528 299.539 399.425 299.968 398.877C300.396 398.328 300.293 397.522 299.745 397.094C299.18 396.665 298.391 396.768 297.963 397.317Z" fill="#E0DCDC"/>
<path d="M288.899 451.809C288.47 452.374 288.573 453.163 289.122 453.591C289.67 454.02 290.475 453.917 290.904 453.369C291.332 452.82 291.229 452.014 290.681 451.586C290.132 451.157 289.327 451.26 288.899 451.809Z" fill="#E0DCDC"/>
<path d="M283.193 451.705C282.765 452.254 282.868 453.059 283.416 453.488C283.964 453.916 284.77 453.814 285.198 453.265C285.626 452.717 285.524 451.911 284.975 451.482C284.427 451.054 283.622 451.157 283.193 451.705Z" fill="#E0DCDC"/>
<path d="M220.567 455.494C220.139 456.042 220.241 456.848 220.79 457.276C221.355 457.705 222.143 457.602 222.572 457.054C223 456.505 222.914 455.699 222.349 455.271C221.801 454.842 220.995 454.928 220.567 455.494Z" fill="#E0DCDC"/>
<path d="M222.058 434.942C221.63 435.491 221.733 436.296 222.281 436.725C222.829 437.153 223.634 437.051 224.063 436.502C224.491 435.953 224.388 435.148 223.84 434.719C223.292 434.274 222.486 434.376 222.058 434.942Z" fill="#E0DCDC"/>
<path d="M187.687 427.022C187.258 427.571 187.361 428.376 187.909 428.805C188.475 429.234 189.263 429.131 189.691 428.582C190.12 428.034 190.017 427.228 189.469 426.8C188.92 426.371 188.132 426.474 187.687 427.022Z" fill="#E0DCDC"/>
<path d="M219.403 410.43C218.975 410.978 219.077 411.784 219.626 412.213C220.174 412.641 220.979 412.538 221.408 411.99C221.836 411.441 221.733 410.636 221.185 410.207C220.637 409.778 219.831 409.881 219.403 410.43Z" fill="#E0DCDC"/>
<path d="M290.098 326.438C289.67 326.986 289.773 327.792 290.321 328.221C290.869 328.649 291.675 328.546 292.103 327.998C292.531 327.449 292.429 326.644 291.88 326.215C291.332 325.769 290.527 325.872 290.098 326.438Z" fill="#E0DCDC"/>
<path d="M257.714 342.499C257.286 343.048 257.389 343.853 257.937 344.282C258.485 344.71 259.29 344.608 259.719 344.059C260.147 343.511 260.044 342.705 259.496 342.276C258.948 341.848 258.142 341.951 257.714 342.499Z" fill="#E0DCDC"/>
<path d="M290.509 365.468C290.081 366.017 290.184 366.823 290.732 367.251C291.28 367.68 292.086 367.577 292.514 367.028C292.943 366.48 292.84 365.674 292.291 365.246C291.743 364.817 290.938 364.92 290.509 365.468Z" fill="#E0DCDC"/>
<path d="M290.098 326.438C289.67 326.986 289.773 327.792 290.321 328.221C290.869 328.649 291.675 328.546 292.103 327.998C292.531 327.449 292.429 326.644 291.88 326.215C291.332 325.769 290.527 325.872 290.098 326.438Z" fill="#E0DCDC"/>
<path d="M256.874 295.155C256.446 295.704 256.549 296.509 257.097 296.938C257.645 297.366 258.451 297.264 258.879 296.715C259.307 296.167 259.204 295.361 258.656 294.932C258.091 294.504 257.303 294.607 256.874 295.155Z" fill="#E0DCDC"/>
<path d="M258.092 293.578C257.663 294.127 257.766 294.932 258.314 295.361C258.863 295.789 259.668 295.687 260.096 295.138C260.525 294.59 260.422 293.784 259.874 293.355C259.325 292.927 258.52 293.03 258.092 293.578Z" fill="#E0DCDC"/>
<path d="M79.6375 427.331C79.2091 427.897 79.3119 428.685 79.8602 429.114C80.4085 429.542 81.2138 429.44 81.6422 428.891C82.0705 428.343 81.9677 427.537 81.4194 427.108C80.8711 426.68 80.0659 426.783 79.6375 427.331Z" fill="#E0DCDC"/>
<path d="M107.48 436.673C107.052 437.222 107.155 438.027 107.703 438.456C108.251 438.884 109.057 438.781 109.485 438.233C109.913 437.684 109.811 436.879 109.262 436.45C108.714 436.022 107.909 436.124 107.48 436.673Z" fill="#E0DCDC"/>
<path d="M24.6197 122.887C24.1913 123.435 24.2942 124.241 24.8425 124.669C25.3908 125.098 26.1961 124.995 26.6245 124.446C27.0528 123.898 26.95 123.092 26.4017 122.664C25.8363 122.235 25.0481 122.338 24.6197 122.887Z" fill="#E0DCDC"/>
<path d="M12.9854 91.7582C12.557 92.3067 12.6599 93.1123 13.2082 93.5409C13.7564 93.9694 14.5618 93.8666 14.9901 93.318C15.4185 92.7695 15.3157 91.9639 14.7674 91.5354C14.2191 91.1068 13.4138 91.2097 12.9854 91.7582Z" fill="#E0DCDC"/>
<path d="M47.5111 117.161C47.0827 117.71 47.1855 118.515 47.7338 118.944C48.2821 119.372 49.0874 119.269 49.5158 118.721C49.9441 118.155 49.8413 117.367 49.293 116.938C48.7447 116.51 47.9394 116.613 47.5111 117.161Z" fill="#E0DCDC"/>
<path d="M24.6197 122.887C24.1913 123.435 24.2942 124.241 24.8425 124.669C25.3908 125.098 26.1961 124.995 26.6245 124.446C27.0528 123.898 26.95 123.092 26.4017 122.664C25.8363 122.235 25.0481 122.338 24.6197 122.887Z" fill="#E0DCDC"/>
<path d="M12.9854 91.7582C12.557 92.3067 12.6599 93.1123 13.2082 93.5409C13.7564 93.9694 14.5618 93.8666 14.9901 93.318C15.4185 92.7695 15.3157 91.9639 14.7674 91.5354C14.2191 91.1068 13.4138 91.2097 12.9854 91.7582Z" fill="#E0DCDC"/>
<path d="M20.6791 128.869C20.2507 129.417 20.3535 130.223 20.9018 130.651C21.4501 131.08 22.2554 130.977 22.6837 130.429C23.1121 129.88 23.0093 129.074 22.461 128.646C21.9127 128.217 21.1074 128.32 20.6791 128.869Z" fill="#E0DCDC"/>
<path d="M312.321 445.415C311.892 445.963 311.978 446.769 312.543 447.197C313.092 447.626 313.897 447.523 314.325 446.974C314.754 446.426 314.651 445.62 314.103 445.192C313.554 444.763 312.749 444.849 312.321 445.415Z" fill="#E0DCDC"/>
<path d="M312.321 445.415C311.892 445.963 311.978 446.769 312.543 447.197C313.092 447.626 313.897 447.523 314.325 446.974C314.754 446.426 314.651 445.62 314.103 445.192C313.554 444.763 312.749 444.849 312.321 445.415Z" fill="#E0DCDC"/>
<path d="M288.899 451.809C288.47 452.374 288.573 453.163 289.122 453.591C289.67 454.02 290.475 453.917 290.904 453.369C291.332 452.82 291.229 452.014 290.681 451.586C290.132 451.157 289.327 451.26 288.899 451.809Z" fill="#E0DCDC"/>
<path d="M92.2836 284.442C91.8552 284.991 91.958 285.797 92.5063 286.225C93.0546 286.654 93.8599 286.551 94.2883 286.002C94.7166 285.454 94.6138 284.648 94.0655 284.22C93.5001 283.774 92.7119 283.877 92.2836 284.442Z" fill="#E0DCDC"/>
<path d="M82.6196 281.974C82.1912 282.522 82.2769 283.328 82.8424 283.756C83.3907 284.185 84.196 284.082 84.6243 283.533C85.0527 282.985 84.9499 282.179 84.4016 281.751C83.8362 281.322 83.048 281.425 82.6196 281.974Z" fill="#E0DCDC"/>
<path d="M102.152 278.717C101.724 279.265 101.827 280.071 102.375 280.5C102.923 280.928 103.729 280.825 104.157 280.277C104.585 279.728 104.482 278.923 103.934 278.494C103.369 278.066 102.581 278.168 102.152 278.717Z" fill="#E0DCDC"/>
<path d="M92.2836 284.442C91.8552 284.991 91.958 285.797 92.5063 286.225C93.0546 286.654 93.8599 286.551 94.2883 286.002C94.7166 285.454 94.6138 284.648 94.0655 284.22C93.5001 283.774 92.7119 283.877 92.2836 284.442Z" fill="#E0DCDC"/>
<path d="M102.152 278.717C101.724 279.265 101.827 280.071 102.375 280.5C102.923 280.928 103.729 280.825 104.157 280.277C104.585 279.728 104.482 278.923 103.934 278.494C103.369 278.066 102.581 278.168 102.152 278.717Z" fill="#E0DCDC"/>
<path d="M148.278 323.644C147.849 324.21 147.952 324.998 148.5 325.427C149.049 325.855 149.854 325.752 150.282 325.204C150.711 324.655 150.608 323.85 150.06 323.421C149.511 322.993 148.706 323.095 148.278 323.644Z" fill="#E0DCDC"/>
</svg>
