<svg width="375" height="409" viewBox="0 0 375 409" fill="none" xmlns="http://www.w3.org/2000/svg">
<g opacity="0.0547">
<path opacity="0.0547" d="M-14.3296 183.268L149.183 251.661L-30.7955 222.264L-14.3296 183.268ZM139.673 248.953L-13.7127 184.793L-29.1507 221.39L139.673 248.953Z" fill="#89455E"/>
</g>
<g opacity="0.341">
<path opacity="0.7" d="M116.833 -55.2861L251.902 9.74751L164.158 25.9459L116.833 -55.2861ZM248.201 9.26756L119.712 -52.595L164.723 24.6775L248.201 9.26756Z" fill="#89455E"/>
</g>
<g opacity="0.4395">
<path opacity="0.4395" d="M290.403 -93.5111L317.972 27.8999L249.281 9.90167L290.403 -93.5111ZM316.43 26.3058L290.112 -89.6201L250.84 9.11319L316.43 26.3058Z" fill="#89455E"/>
</g>
<g opacity="0.3556">
<path d="M167.089 86.2316L144.9 251.147L-15.374 184.108L167.089 86.2316ZM143.957 249.484L165.649 88.3057L-12.6668 183.954L143.957 249.484Z" fill="#89455E"/>
</g>
<g opacity="0.0587">
<path opacity="0.0587" d="M-33.5534 3.02798L165.015 24.7973L166.986 88.1682L-33.5534 3.02798ZM163.885 25.8257L-25.8773 5.03349L165.752 86.3855L163.885 25.8257Z" fill="#89455E"/>
</g>
<g opacity="0.5176">
<path opacity="0.5176" d="M414.472 27.78L414.849 28.2086L469.199 89.8654L328.887 99.893L414.472 27.78ZM466.783 88.8712L414.352 29.3913L332.348 98.4874L466.783 88.8712Z" fill="#89455E"/>
</g>
<g opacity="0.3334">
<path opacity="0.3334" d="M482.01 -43.0177L393.777 39.6545L389.428 -68.3053L482.01 -43.0177ZM394.838 37.0669L479.715 -42.4436L390.651 -66.7719L394.838 37.0669Z" fill="#89455E"/>
</g>
<g opacity="0.8014">
<path opacity="0.8014" d="M163.833 24.0773L184.583 40.8242L165.889 90.1908L163.833 24.0773ZM183.212 41.1842L165.067 26.5456L166.866 84.3457L183.212 41.1842Z" fill="#89455E"/>
</g>
<g opacity="0.38">
<path opacity="0.38" d="M254.267 8.1361L183.811 41.6814L163.096 24.9688L254.267 8.1361ZM183.982 40.3272L245.854 10.8787L165.803 25.6544L183.982 40.3272Z" fill="#89455E"/>
</g>
<path d="M19.5835 27.8577C20.4573 28.9719 20.2517 30.5831 19.138 31.4573C18.0242 32.3315 16.4136 32.1258 15.5398 31.0116C14.6659 29.8975 14.8715 28.2862 16.0024 27.412C17.099 26.5378 18.7096 26.7435 19.5835 27.8577Z" fill="#C1A6B0"/>
<path d="M26.8784 127.593C27.7523 128.707 27.5466 130.318 26.4329 131.193C25.3192 132.067 23.6914 131.861 22.8347 130.747C21.9609 129.633 22.1665 128.021 23.2802 127.147C24.3939 126.273 26.0046 126.479 26.8784 127.593Z" fill="#89455E"/>
<path d="M145.581 248.865C146.455 249.979 146.25 251.59 145.136 252.465C144.022 253.322 142.411 253.133 141.538 252.019C140.664 250.905 140.869 249.293 142 248.419C143.097 247.545 144.707 247.751 145.581 248.865Z" fill="#C1A6B0"/>
<path d="M167.226 150.528C168.1 151.642 167.894 153.253 166.78 154.128C165.667 155.002 164.056 154.796 163.182 153.682C162.308 152.568 162.514 150.957 163.628 150.082C164.741 149.208 166.352 149.414 167.226 150.528Z" fill="#89455E"/>
<path d="M39.7124 97.1843C40.5862 98.2985 40.3806 99.9097 39.2669 100.784C38.1531 101.658 36.5425 101.452 35.6687 100.338C34.7948 99.2069 35.0004 97.5957 36.1142 96.7386C37.2279 95.8644 38.8385 96.0701 39.7124 97.1843Z" fill="#89455E"/>
<path d="M26.8784 127.593C27.7523 128.707 27.5466 130.318 26.4329 131.193C25.3192 132.067 23.6914 131.861 22.8347 130.747C21.9609 129.633 22.1665 128.021 23.2802 127.147C24.3939 126.273 26.0046 126.479 26.8784 127.593Z" fill="#C1A6B0"/>
<path d="M167.226 150.528C168.1 151.642 167.894 153.253 166.78 154.128C165.667 155.002 164.056 154.796 163.182 153.682C162.308 152.568 162.514 150.957 163.628 150.082C164.741 149.208 166.352 149.414 167.226 150.528Z" fill="#89455E"/>
<path d="M184.874 19.3121C185.748 20.4263 185.542 22.0375 184.429 22.9117C183.315 23.7859 181.704 23.5803 180.83 22.4661C179.956 21.3519 180.162 19.7406 181.293 18.8664C182.39 17.9922 184 18.1979 184.874 19.3121Z" fill="#89455E"/>
<path d="M167.585 85.8577C168.459 86.9718 168.253 88.5831 167.14 89.4573C166.026 90.3315 164.415 90.1258 163.541 89.0116C162.668 87.8974 162.873 86.2862 163.987 85.412C165.101 84.5378 166.711 84.7435 167.585 85.8577Z" fill="#89455E"/>
<path d="M39.7124 97.1843C40.5862 98.2985 40.3806 99.9097 39.2669 100.784C38.1531 101.658 36.5425 101.452 35.6687 100.338C34.7948 99.2069 35.0004 97.5957 36.1142 96.7386C37.2279 95.8644 38.8385 96.0701 39.7124 97.1843Z" fill="#89455E"/>
<path d="M184.874 19.3121C185.748 20.4263 185.542 22.0375 184.429 22.9117C183.315 23.7859 181.704 23.5803 180.83 22.4661C179.956 21.3519 180.162 19.7406 181.293 18.8664C182.39 17.9922 184 18.1979 184.874 19.3121Z" fill="#89455E"/>
<path d="M317.048 28.9113C317.921 30.0255 317.716 31.6368 316.602 32.511C315.488 33.3852 313.861 33.1795 313.004 32.0653C312.13 30.9511 312.336 29.3399 313.449 28.4656C314.563 27.5914 316.174 27.78 317.048 28.9113Z" fill="#89455E"/>
<path d="M184.874 19.3121C185.748 20.4263 185.542 22.0375 184.429 22.9117C183.315 23.7859 181.704 23.5803 180.83 22.4661C179.956 21.3519 180.162 19.7406 181.293 18.8664C182.39 17.9922 184 18.1979 184.874 19.3121Z" fill="#C1A6B0"/>
<g opacity="0.2443">
<path opacity="0.2443" d="M39.3862 14.9583L2.92456 66.6904L-12.2735 20.0493L39.3862 14.9583ZM3.30152 64.1364L36.9703 16.3468L-10.7486 21.0606L3.30152 64.1364Z" fill="#89455E"/>
</g>
<g opacity="0.5761">
<path opacity="0.5761" d="M-19.8124 225.812L17.6431 248.147L17.1119 249.176L-16.4541 234.52L-19.8124 225.812ZM9.17874 244.445L-17.5164 228.52L-15.5288 233.646L9.17874 244.445Z" fill="#89455E"/>
</g>
<g opacity="0.6975">
<path opacity="0.6975" d="M247.842 16.9301L278.495 27.1634L244.741 67.1366L247.842 16.9301ZM276.508 27.729L248.887 18.5071L246.094 63.7255L276.508 27.729Z" fill="#89455E"/>
</g>
<g opacity="0.6378">
<path opacity="0.6378" d="M256.666 11.4616L280.842 29.1512L247.07 17.8724L256.666 11.4616ZM274.177 25.723L256.631 12.8843L249.675 17.5467L274.177 25.723Z" fill="#89455E"/>
</g>
<g opacity="0.4075">
<path opacity="0.4075" d="M259.27 -8.91935L257.197 12.5071L247.053 19.295L259.27 -8.91935ZM256.1 11.8386L257.402 -1.73718L249.675 16.1239L256.1 11.8386Z" fill="#89455E"/>
</g>
<g opacity="0.1929">
<path opacity="0.1929" d="M84.4668 47.2865L154.751 48.555L105.079 117.223L84.4668 47.2865ZM152.507 49.6692L86.0089 48.4693L105.508 114.634L152.507 49.6692Z" fill="#89455E"/>
</g>
<g opacity="0.6271">
<path opacity="0.6271" d="M42.1277 209.802L68.583 267.311L16.4606 248.936L42.1277 209.802ZM66.3898 265.306L41.9563 212.185L18.2425 248.336L66.3898 265.306Z" fill="#89455E"/>
</g>
<g opacity="0.7557">
<path opacity="0.7557" d="M-20.9432 183.045L43.8071 211.122L-19.2127 227.921L-20.9432 183.045ZM40.2946 210.865L-19.7095 184.845L-18.0989 226.429L40.2946 210.865Z" fill="#89455E"/>
</g>
<g opacity="0.5999">
<path opacity="0.5999" d="M60.6507 43.19L86.729 47.5439L41.7344 79.1522L60.6507 43.19ZM83.7476 48.2124L61.2675 44.4584L44.9728 75.4326L83.7476 48.2124Z" fill="#89455E"/>
</g>
<g opacity="0.7881">
<path opacity="0.7881" d="M86.0254 46.6187L77.4583 100.202L42.3159 77.3185L86.0254 46.6187ZM76.6016 98.2479L84.449 49.1213L44.3892 77.2671L76.6016 98.2479Z" fill="#89455E"/>
</g>
<g opacity="0.397">
<path opacity="0.397" d="M63.7686 39.7106L43.7215 77.8327L29.1231 79.4611L63.7686 39.7106ZM42.9847 76.7527L58.1314 47.9384L31.9331 77.9869L42.9847 76.7527Z" fill="#89455E"/>
</g>
<g opacity="0.1352">
<path opacity="0.1352" d="M43.7214 76.6672L67.1953 133.182L29.5 78.2613L43.7214 76.6672ZM61.8837 123.377L43.0018 77.9185L31.5732 79.2041L61.8837 123.377Z" fill="#89455E"/>
</g>
<g opacity="0.7245">
<path opacity="0.7245" d="M249.024 16.6729L245.94 66.6395L212.734 37.8252L249.024 16.6729ZM244.929 64.2226L247.739 18.7642L214.721 38.0137L244.929 64.2226Z" fill="#89455E"/>
</g>
<g opacity="0.6437">
<path opacity="0.6437" d="M212.7 36.2651L247.551 66.485L218.885 60.1085L212.7 36.2651ZM243.319 64.3595L214.739 39.5733L219.81 59.1314L243.319 64.3595Z" fill="#89455E"/>
</g>
<g opacity="0.1251">
<path opacity="0.1251" d="M227.555 -19.5981L259.099 -5.62807L248.442 19.0381L227.555 -19.5981ZM257.574 -5.02811L230.177 -17.1641L248.305 16.3984L257.574 -5.02811Z" fill="#89455E"/>
</g>
<g opacity="0.2913">
<path opacity="0.2913" d="M228.685 -19.941L249.144 17.9238L212.785 39.1104L228.685 -19.941ZM247.601 17.4953L229.045 -16.8385L214.635 36.7106L247.601 17.4953Z" fill="#89455E"/>
</g>
<g opacity="0.7914">
<path opacity="0.7914" d="M318.401 -11.8328L319.206 -11.01L278.975 30.2831L276.73 27.3862L318.401 -11.8328ZM279.077 28.5347L299.793 7.2796L278.289 27.5234L279.077 28.5347Z" fill="#89455E"/>
</g>
<g opacity="0.7235">
<path opacity="0.7235" d="M218.954 58.6169L232.01 68.3702L213.094 87.5684L218.954 58.6169ZM230.263 68.5073L219.725 60.6395L214.996 84.003L230.263 68.5073Z" fill="#89455E"/>
</g>
<g opacity="0.3504">
<path opacity="0.3504" d="M-11.4683 240.845L18.6709 248.37L-26.7863 281.813L-11.4683 240.845ZM16.0151 248.902L-10.7487 242.217L-24.3361 278.59L16.0151 248.902Z" fill="#89455E"/>
</g>
<g opacity="0.9285">
<path opacity="0.9285" d="M73.0563 40.156L88.2715 48.9666L58.1324 43.9442L73.0563 40.156ZM82.1888 46.7725L72.8849 41.3901L63.7695 43.7042L82.1888 46.7725Z" fill="#89455E"/>
</g>
<g opacity="0.9356">
<path opacity="0.9356" d="M142.226 -8.42202L142.963 -7.53067L85.3232 48.5896L71.89 40.8075L142.226 -8.42202ZM85.1519 47.1497L137.034 -3.3825L74.0489 40.7218L85.1519 47.1497Z" fill="#89455E"/>
</g>
<path d="M0.268904 63.3486C-0.159453 62.7829 -0.0566911 61.9944 0.491605 61.5659C1.0399 61.1373 1.84522 61.2402 2.27358 61.7887C2.70194 62.3372 2.59912 63.1428 2.05083 63.5714C1.50253 64.017 0.714394 63.9142 0.268904 63.3486Z" fill="#E0DCDC"/>
<path d="M326.179 11.1535C325.751 10.605 325.853 9.79941 326.402 9.37088C326.95 8.94236 327.755 9.04521 328.184 9.59372C328.612 10.1422 328.509 10.9479 327.961 11.3764C327.413 11.8049 326.607 11.7021 326.179 11.1535Z" fill="#E0DCDC"/>
<path d="M169.418 65.0116C168.989 64.4631 169.092 63.6574 169.64 63.2289C170.189 62.8004 170.994 62.9032 171.422 63.4518C171.851 64.0003 171.748 64.8059 171.2 65.2344C170.651 65.6629 169.846 65.5601 169.418 65.0116Z" fill="#E0DCDC"/>
<path d="M192.874 72.8447C192.446 72.2962 192.549 71.4905 193.097 71.062C193.645 70.6335 194.45 70.7363 194.879 71.2848C195.307 71.8334 195.204 72.639 194.656 73.0675C194.091 73.4961 193.302 73.3932 192.874 72.8447Z" fill="#E0DCDC"/>
<path d="M176.083 60.5543C175.654 60.0058 175.74 59.2001 176.305 58.7716C176.854 58.3431 177.659 58.4459 178.087 58.9944C178.516 59.543 178.413 60.3486 177.865 60.7771C177.316 61.2057 176.511 61.1028 176.083 60.5543Z" fill="#E0DCDC"/>
<path d="M169.418 65.0116C168.989 64.4631 169.092 63.6574 169.64 63.2289C170.189 62.8004 170.994 62.9032 171.422 63.4518C171.851 64.0003 171.748 64.8059 171.2 65.2344C170.651 65.6629 169.846 65.5601 169.418 65.0116Z" fill="#E0DCDC"/>
<path d="M192.874 72.8447C192.446 72.2962 192.549 71.4905 193.097 71.062C193.645 70.6335 194.45 70.7363 194.879 71.2848C195.307 71.8334 195.204 72.639 194.656 73.0675C194.091 73.4961 193.302 73.3932 192.874 72.8447Z" fill="#E0DCDC"/>
<path d="M179.099 29.9748C178.671 29.4263 178.757 28.6207 179.322 28.1921C179.87 27.7636 180.676 27.8664 181.104 28.415C181.532 28.9635 181.429 29.7691 180.881 30.1976C180.333 30.6262 179.528 30.5405 179.099 29.9748Z" fill="#E0DCDC"/>
<path d="M177.437 46.4645C177.009 45.916 177.112 45.1104 177.66 44.6819C178.208 44.2533 179.013 44.3562 179.442 44.9047C179.87 45.4532 179.767 46.2588 179.219 46.6874C178.671 47.133 177.865 47.0302 177.437 46.4645Z" fill="#E0DCDC"/>
<path d="M169.418 65.0116C168.989 64.4631 169.092 63.6574 169.64 63.2289C170.189 62.8004 170.994 62.9032 171.422 63.4518C171.851 64.0003 171.748 64.8059 171.2 65.2344C170.651 65.6629 169.846 65.5601 169.418 65.0116Z" fill="#E0DCDC"/>
<path d="M176.083 60.5543C175.654 60.0058 175.74 59.2001 176.305 58.7716C176.854 58.3431 177.659 58.4459 178.087 58.9944C178.516 59.543 178.413 60.3486 177.865 60.7771C177.316 61.2057 176.511 61.1028 176.083 60.5543Z" fill="#E0DCDC"/>
<path d="M326.179 11.1535C325.751 10.605 325.853 9.79941 326.402 9.37088C326.95 8.94236 327.755 9.04521 328.184 9.59372C328.612 10.1422 328.509 10.9479 327.961 11.3764C327.413 11.8049 326.607 11.7021 326.179 11.1535Z" fill="#E0DCDC"/>
<path d="M54.2923 144.049C53.8639 143.501 53.9667 142.695 54.515 142.267C55.0633 141.838 55.8686 141.941 56.297 142.489C56.7254 143.038 56.6226 143.844 56.0743 144.272C55.526 144.701 54.7206 144.598 54.2923 144.049Z" fill="#E0DCDC"/>
<path d="M38.1522 89.2832C37.7238 88.7347 37.8266 87.929 38.3749 87.5005C38.9232 87.072 39.7285 87.1748 40.1569 87.7233C40.5852 88.2719 40.4824 89.0775 39.9341 89.506C39.3687 89.9345 38.5805 89.8317 38.1522 89.2832Z" fill="#E0DCDC"/>
<path d="M93.1873 90.2772C92.7589 89.7287 92.8618 88.923 93.4101 88.4945C93.9584 88.066 94.7637 88.1688 95.192 88.7173C95.6204 89.2659 95.5176 90.0715 94.9693 90.5C94.421 90.9286 93.6157 90.8257 93.1873 90.2772Z" fill="#E0DCDC"/>
<path d="M34.9486 334.248C34.5202 333.699 34.6059 332.894 35.1713 332.465C35.7196 332.037 36.5249 332.139 36.9532 332.688C37.3816 333.237 37.2788 334.042 36.7305 334.471C36.1822 334.916 35.3769 334.813 34.9486 334.248Z" fill="#E0DCDC"/>
<path d="M44.2693 315.067C43.841 314.518 43.9438 313.712 44.4921 313.284C45.0404 312.855 45.8457 312.958 46.2741 313.507C46.7024 314.055 46.5996 314.861 46.0513 315.289C45.503 315.718 44.6977 315.615 44.2693 315.067Z" fill="#E0DCDC"/>
<path d="M23.8626 265.049C23.4342 264.501 23.5371 263.695 24.0853 263.266C24.6336 262.838 25.439 262.941 25.8673 263.489C26.2957 264.038 26.1929 264.843 25.6446 265.272C25.0963 265.718 24.291 265.615 23.8626 265.049Z" fill="#E0DCDC"/>
<path d="M65.242 315.032C64.8137 314.484 64.9165 313.678 65.4648 313.25C66.0131 312.821 66.8184 312.924 67.2467 313.472C67.6751 314.021 67.5723 314.827 67.024 315.255C66.4757 315.701 65.6704 315.598 65.242 315.032Z" fill="#E0DCDC"/>
<path d="M272.514 49.6355C272.086 49.087 272.189 48.2813 272.737 47.8528C273.285 47.4243 274.091 47.5271 274.519 48.0757C274.947 48.6242 274.844 49.4298 274.296 49.8583C273.748 50.2868 272.943 50.184 272.514 49.6355Z" fill="#E0DCDC"/>
<path d="M272.514 49.6355C272.086 49.087 272.189 48.2813 272.737 47.8528C273.285 47.4243 274.091 47.5271 274.519 48.0757C274.947 48.6242 274.844 49.4298 274.296 49.8583C273.748 50.2868 272.943 50.184 272.514 49.6355Z" fill="#E0DCDC"/>
<path d="M272.514 49.6355C272.086 49.087 272.189 48.2813 272.737 47.8528C273.285 47.4243 274.091 47.5271 274.519 48.0757C274.947 48.6242 274.844 49.4298 274.296 49.8583C273.748 50.2868 272.943 50.184 272.514 49.6355Z" fill="#E0DCDC"/>
<path d="M193.714 25.5007C193.286 24.9522 193.388 24.1465 193.937 23.718C194.485 23.2895 195.29 23.3923 195.719 23.9409C196.147 24.4894 196.044 25.295 195.496 25.7235C194.948 26.1521 194.142 26.0492 193.714 25.5007Z" fill="#E0DCDC"/>
<path d="M179.099 29.9748C178.671 29.4263 178.757 28.6207 179.322 28.1921C179.87 27.7636 180.676 27.8664 181.104 28.415C181.532 28.9635 181.429 29.7691 180.881 30.1976C180.333 30.6262 179.528 30.5405 179.099 29.9748Z" fill="#E0DCDC"/>
<path d="M3.38701 220.55C2.95865 220.002 3.06146 219.196 3.60976 218.768C4.15806 218.339 4.96339 218.442 5.39174 218.991C5.8201 219.539 5.71729 220.345 5.16899 220.773C4.62069 221.202 3.81537 221.099 3.38701 220.55Z" fill="#E0DCDC"/>
<path d="M23.8626 265.049C23.4342 264.501 23.5371 263.695 24.0853 263.266C24.6336 262.838 25.439 262.941 25.8673 263.489C26.2957 264.038 26.1929 264.843 25.6446 265.272C25.0963 265.718 24.291 265.615 23.8626 265.049Z" fill="#E0DCDC"/>
<path d="M3.38701 220.55C2.95865 220.002 3.06146 219.196 3.60976 218.768C4.15806 218.339 4.96339 218.442 5.39174 218.991C5.8201 219.539 5.71729 220.345 5.16899 220.773C4.62069 221.202 3.81537 221.099 3.38701 220.55Z" fill="#E0DCDC"/>
<path d="M4.44956 112.955C4.02121 112.389 4.10683 111.601 4.67227 111.172C5.22056 110.744 6.02589 110.847 6.45424 111.395C6.8826 111.944 6.77979 112.749 6.23149 113.178C5.68319 113.606 4.87792 113.503 4.44956 112.955Z" fill="#E0DCDC"/>
<path d="M18.6194 86.0263C18.1911 85.4778 18.2767 84.6722 18.8422 84.2436C19.3905 83.8151 20.1958 83.918 20.6241 84.4665C21.0525 85.015 20.9497 85.8207 20.4014 86.2492C19.836 86.6777 19.0478 86.5749 18.6194 86.0263Z" fill="#E0DCDC"/>
<path d="M38.1522 89.2832C37.7238 88.7347 37.8266 87.929 38.3749 87.5005C38.9232 87.072 39.7285 87.1748 40.1569 87.7233C40.5852 88.2719 40.4824 89.0775 39.9341 89.506C39.3687 89.9345 38.5805 89.8317 38.1522 89.2832Z" fill="#E0DCDC"/>
<path d="M4.44956 112.955C4.02121 112.389 4.10683 111.601 4.67227 111.172C5.22056 110.744 6.02589 110.847 6.45424 111.395C6.8826 111.944 6.77979 112.749 6.23149 113.178C5.68319 113.606 4.87792 113.503 4.44956 112.955Z" fill="#E0DCDC"/>
<path d="M31.555 130.611C31.1267 130.062 31.2123 129.257 31.7778 128.828C32.3432 128.399 33.1314 128.502 33.5597 129.051C33.9881 129.599 33.8853 130.405 33.337 130.834C32.7715 131.262 31.9834 131.159 31.555 130.611Z" fill="#E0DCDC"/>
<path d="M38.1522 89.2832C37.7238 88.7347 37.8266 87.929 38.3749 87.5005C38.9232 87.072 39.7285 87.1748 40.1569 87.7233C40.5852 88.2719 40.4824 89.0775 39.9341 89.506C39.3687 89.9345 38.5805 89.8317 38.1522 89.2832Z" fill="#E0DCDC"/>
<path d="M4.44956 112.955C4.02121 112.389 4.10683 111.601 4.67227 111.172C5.22056 110.744 6.02589 110.847 6.45424 111.395C6.8826 111.944 6.77979 112.749 6.23149 113.178C5.68319 113.606 4.87792 113.503 4.44956 112.955Z" fill="#E0DCDC"/>
<path d="M18.6194 86.0263C18.1911 85.4778 18.2767 84.6722 18.8422 84.2436C19.3905 83.8151 20.1958 83.918 20.6241 84.4665C21.0525 85.015 20.9497 85.8207 20.4014 86.2492C19.836 86.6777 19.0478 86.5749 18.6194 86.0263Z" fill="#E0DCDC"/>
<path d="M4.44956 112.955C4.02121 112.389 4.10683 111.601 4.67227 111.172C5.22056 110.744 6.02589 110.847 6.45424 111.395C6.8826 111.944 6.77979 112.749 6.23149 113.178C5.68319 113.606 4.87792 113.503 4.44956 112.955Z" fill="#E0DCDC"/>
<path d="M21.4978 153.991C21.0695 153.442 21.1552 152.637 21.7206 152.208C22.2689 151.78 23.0742 151.883 23.5026 152.431C23.9309 152.98 23.8281 153.785 23.2798 154.214C22.7315 154.642 21.9262 154.539 21.4978 153.991Z" fill="#E0DCDC"/>
<path d="M226.509 2.53146C226.081 1.98294 226.184 1.17731 226.732 0.748776C227.28 0.320243 228.086 0.423099 228.514 0.971621C228.942 1.52014 228.84 2.32577 228.291 2.75431C227.743 3.18284 226.938 3.07998 226.509 2.53146Z" fill="#E0DCDC"/>
<path d="M141.541 81.2611C141.113 80.7126 141.216 79.907 141.764 79.4784C142.312 79.0499 143.117 79.1528 143.546 79.7013C143.974 80.2498 143.871 81.0554 143.323 81.484C142.775 81.9296 141.969 81.8268 141.541 81.2611Z" fill="#E0DCDC"/>
<path d="M169.418 65.0116C168.989 64.4631 169.092 63.6574 169.64 63.2289C170.189 62.8004 170.994 62.9032 171.422 63.4518C171.851 64.0003 171.748 64.8059 171.2 65.2344C170.651 65.6629 169.846 65.5601 169.418 65.0116Z" fill="#E0DCDC"/>
<path d="M141.541 81.2611C141.113 80.7126 141.216 79.907 141.764 79.4784C142.312 79.0499 143.117 79.1528 143.546 79.7013C143.974 80.2498 143.871 81.0554 143.323 81.484C142.775 81.9296 141.969 81.8268 141.541 81.2611Z" fill="#E0DCDC"/>
<path d="M91.2171 23.0321C90.7888 22.4835 90.8916 21.6779 91.4399 21.2493C91.9882 20.8208 92.7935 20.9237 93.2218 21.4722C93.6502 22.0207 93.5474 22.8264 92.9991 23.2549C92.4508 23.6834 91.6455 23.5977 91.2171 23.0321Z" fill="#E0DCDC"/>
<path d="M153.723 35.9566C153.295 35.408 153.397 34.6024 153.946 34.1739C154.511 33.7454 155.299 33.8482 155.728 34.3967C156.156 34.9453 156.053 35.7509 155.505 36.1794C154.957 36.6251 154.151 36.5222 153.723 35.9566Z" fill="#E0DCDC"/>
<path d="M177.437 46.4645C177.009 45.916 177.112 45.1104 177.66 44.6819C178.208 44.2533 179.013 44.3562 179.442 44.9047C179.87 45.4532 179.767 46.2588 179.219 46.6874C178.671 47.133 177.865 47.0302 177.437 46.4645Z" fill="#E0DCDC"/>
<path d="M179.099 29.9748C178.671 29.4263 178.757 28.6207 179.322 28.1921C179.87 27.7636 180.676 27.8664 181.104 28.415C181.532 28.9635 181.429 29.7691 180.881 30.1976C180.333 30.6262 179.528 30.5405 179.099 29.9748Z" fill="#E0DCDC"/>
<path d="M153.723 35.9566C153.295 35.408 153.397 34.6024 153.946 34.1739C154.511 33.7454 155.299 33.8482 155.728 34.3967C156.156 34.9453 156.053 35.7509 155.505 36.1794C154.957 36.6251 154.151 36.5222 153.723 35.9566Z" fill="#E0DCDC"/>
<path d="M169.418 65.0116C168.989 64.4631 169.092 63.6574 169.64 63.2289C170.189 62.8004 170.994 62.9032 171.422 63.4518C171.851 64.0003 171.748 64.8059 171.2 65.2344C170.651 65.6629 169.846 65.5601 169.418 65.0116Z" fill="#E0DCDC"/>
<path d="M177.437 46.4645C177.009 45.916 177.112 45.1104 177.66 44.6819C178.208 44.2533 179.013 44.3562 179.442 44.9047C179.87 45.4532 179.767 46.2588 179.219 46.6874C178.671 47.133 177.865 47.0302 177.437 46.4645Z" fill="#E0DCDC"/>
<path d="M153.723 35.9566C153.295 35.408 153.397 34.6024 153.946 34.1739C154.511 33.7454 155.299 33.8482 155.728 34.3967C156.156 34.9453 156.053 35.7509 155.505 36.1794C154.957 36.6251 154.151 36.5222 153.723 35.9566Z" fill="#E0DCDC"/>
<path d="M141.541 81.2611C141.113 80.7126 141.216 79.907 141.764 79.4784C142.312 79.0499 143.117 79.1528 143.546 79.7013C143.974 80.2498 143.871 81.0554 143.323 81.484C142.775 81.9296 141.969 81.8268 141.541 81.2611Z" fill="#E0DCDC"/>
<path d="M169.418 65.0116C168.989 64.4631 169.092 63.6574 169.64 63.2289C170.189 62.8004 170.994 62.9032 171.422 63.4518C171.851 64.0003 171.748 64.8059 171.2 65.2344C170.651 65.6629 169.846 65.5601 169.418 65.0116Z" fill="#E0DCDC"/>
<path d="M153.723 35.9566C153.295 35.408 153.397 34.6024 153.946 34.1739C154.511 33.7454 155.299 33.8482 155.728 34.3967C156.156 34.9453 156.053 35.7509 155.505 36.1794C154.957 36.6251 154.151 36.5222 153.723 35.9566Z" fill="#E0DCDC"/>
<path d="M84.2772 44.3561C83.8488 43.7904 83.9516 43.0019 84.4999 42.5734C85.0482 42.1448 85.8535 42.2477 86.2819 42.7962C86.7102 43.3447 86.6074 44.1504 86.0591 44.5789C85.5109 45.0074 84.7055 44.9046 84.2772 44.3561Z" fill="#E0DCDC"/>
<path d="M91.2171 23.0321C90.7888 22.4835 90.8916 21.6779 91.4399 21.2493C91.9882 20.8208 92.7935 20.9237 93.2218 21.4722C93.6502 22.0207 93.5474 22.8264 92.9991 23.2549C92.4508 23.6834 91.6455 23.5977 91.2171 23.0321Z" fill="#E0DCDC"/>
<path d="M226.098 41.562C225.67 41.0135 225.773 40.2079 226.321 39.7794C226.869 39.3508 227.675 39.4537 228.103 40.0022C228.531 40.5507 228.428 41.3564 227.88 41.7849C227.332 42.2306 226.527 42.1277 226.098 41.562Z" fill="#E0DCDC"/>
<path d="M193.714 25.5007C193.286 24.9522 193.388 24.1465 193.937 23.718C194.485 23.2895 195.29 23.3923 195.719 23.9409C196.147 24.4894 196.044 25.295 195.496 25.7235C194.948 26.1521 194.142 26.0492 193.714 25.5007Z" fill="#E0DCDC"/>
<path d="M226.509 2.53146C226.081 1.98294 226.184 1.17731 226.732 0.748776C227.28 0.320243 228.086 0.423099 228.514 0.971621C228.942 1.52014 228.84 2.32577 228.291 2.75431C227.743 3.18284 226.938 3.07998 226.509 2.53146Z" fill="#E0DCDC"/>
<path d="M226.098 41.562C225.67 41.0135 225.773 40.2079 226.321 39.7794C226.869 39.3508 227.675 39.4537 228.103 40.0022C228.531 40.5507 228.428 41.3564 227.88 41.7849C227.332 42.2306 226.527 42.1277 226.098 41.562Z" fill="#E0DCDC"/>
<path d="M192.874 72.8447C192.446 72.2962 192.549 71.4905 193.097 71.062C193.645 70.6335 194.45 70.7363 194.879 71.2848C195.307 71.8334 195.204 72.639 194.656 73.0675C194.091 73.4961 193.302 73.3932 192.874 72.8447Z" fill="#E0DCDC"/>
<path d="M194.091 74.4217C193.663 73.8732 193.766 73.0676 194.314 72.639C194.862 72.2105 195.668 72.3133 196.096 72.8619C196.524 73.4104 196.422 74.216 195.873 74.6446C195.325 75.0731 194.52 74.9702 194.091 74.4217Z" fill="#E0DCDC"/>
<path d="M28.2835 83.5575C27.8551 83.009 27.9579 82.2034 28.5062 81.7748C29.0545 81.3463 29.8599 81.4491 30.2882 81.9976C30.7166 82.5462 30.6138 83.3518 30.0655 83.7804C29.5 84.226 28.7119 84.1232 28.2835 83.5575Z" fill="#E0DCDC"/>
<path d="M18.6194 86.0263C18.1911 85.4778 18.2767 84.6722 18.8422 84.2436C19.3905 83.8151 20.1958 83.918 20.6241 84.4665C21.0525 85.015 20.9497 85.8207 20.4014 86.2492C19.836 86.6777 19.0478 86.5749 18.6194 86.0263Z" fill="#E0DCDC"/>
<path d="M38.1522 89.2832C37.7238 88.7347 37.8266 87.929 38.3749 87.5005C38.9232 87.072 39.7285 87.1748 40.1569 87.7233C40.5852 88.2719 40.4824 89.0775 39.9341 89.506C39.3687 89.9345 38.5805 89.8317 38.1522 89.2832Z" fill="#E0DCDC"/>
<path d="M28.2835 83.5575C27.8551 83.009 27.9579 82.2034 28.5062 81.7748C29.0545 81.3463 29.8599 81.4491 30.2882 81.9976C30.7166 82.5462 30.6138 83.3518 30.0655 83.7804C29.5 84.226 28.7119 84.1232 28.2835 83.5575Z" fill="#E0DCDC"/>
<path d="M38.1522 89.2832C37.7238 88.7347 37.8266 87.929 38.3749 87.5005C38.9232 87.072 39.7285 87.1748 40.1569 87.7233C40.5852 88.2719 40.4824 89.0775 39.9341 89.506C39.3687 89.9345 38.5805 89.8317 38.1522 89.2832Z" fill="#E0DCDC"/>
<path d="M84.2772 44.3561C83.8488 43.7904 83.9516 43.0019 84.4999 42.5734C85.0482 42.1448 85.8535 42.2477 86.2819 42.7962C86.7102 43.3447 86.6074 44.1504 86.0591 44.5789C85.5109 45.0074 84.7055 44.9046 84.2772 44.3561Z" fill="#E0DCDC"/>
</svg>
