<?xml version="1.0" encoding="utf-8"?>
<!-- Generator: Adobe Illustrator 22.1.0, SVG Export Plug-In . SVG Version: 6.00 Build 0)  -->
<svg version="1.1" id="Layer_1" xmlns="http://www.w3.org/2000/svg" xmlns:xlink="http://www.w3.org/1999/xlink" x="0px" y="0px"
	 width="546px" height="497px" viewBox="0 0 546 497" style="enable-background:new 0 0 546 497;" xml:space="preserve">
<style type="text/css">
	.st0{opacity:0.2443;}
	.st1{opacity:0.2443;fill:#89455E;enable-background:new    ;}
	.st2{opacity:5.470000e-02;}
	.st3{opacity:5.470000e-02;fill:#89455E;enable-background:new    ;}
	.st4{opacity:0.341;}
	.st5{opacity:0.7;fill:#89455E;enable-background:new    ;}
	.st6{opacity:0.4395;}
	.st7{opacity:0.4395;fill:#89455E;enable-background:new    ;}
	.st8{opacity:0.3403;}
	.st9{opacity:0.3403;fill:#89455E;enable-background:new    ;}
	.st10{opacity:0.1984;}
	.st11{opacity:0.1984;fill:#89455E;enable-background:new    ;}
	.st12{opacity:0.2669;}
	.st13{opacity:0.2669;fill:#89455E;enable-background:new    ;}
	.st14{opacity:0.3556;}
	.st15{fill:#89455E;}
	.st16{opacity:5.870000e-02;}
	.st17{opacity:5.870000e-02;fill:#89455E;enable-background:new    ;}
	.st18{opacity:0.5176;}
	.st19{opacity:0.5176;fill:#89455E;enable-background:new    ;}
	.st20{opacity:0.7235;}
	.st21{opacity:0.7235;fill:#89455E;enable-background:new    ;}
	.st22{opacity:0.3334;}
	.st23{opacity:0.3334;fill:#89455E;enable-background:new    ;}
	.st24{opacity:0.8014;}
	.st25{opacity:0.8014;fill:#89455E;enable-background:new    ;}
	.st26{opacity:0.38;}
	.st27{opacity:0.38;fill:#89455E;enable-background:new    ;}
	.st28{fill:#C1A6B0;}
	.st29{opacity:0.5761;}
	.st30{opacity:0.5761;fill:#89455E;enable-background:new    ;}
	.st31{opacity:0.1811;}
	.st32{opacity:0.1811;fill:#89455E;enable-background:new    ;}
	.st33{opacity:0.6975;}
	.st34{opacity:0.6975;fill:#89455E;enable-background:new    ;}
	.st35{opacity:0.6378;}
	.st36{opacity:0.6378;fill:#89455E;enable-background:new    ;}
	.st37{opacity:0.6534;fill:#89455E;enable-background:new    ;}
	.st38{opacity:0.4075;}
	.st39{opacity:0.4075;fill:#89455E;enable-background:new    ;}
	.st40{opacity:0.1929;}
	.st41{opacity:0.1929;fill:#89455E;enable-background:new    ;}
	.st42{opacity:0.9176;}
	.st43{opacity:0.9176;fill:#89455E;enable-background:new    ;}
	.st44{opacity:0.4956;fill:#89455E;enable-background:new    ;}
	.st45{opacity:0.6271;}
	.st46{opacity:0.6271;fill:#89455E;enable-background:new    ;}
	.st47{opacity:0.7557;}
	.st48{opacity:0.7557;fill:#89455E;enable-background:new    ;}
	.st49{opacity:0.3556;fill:#89455E;enable-background:new    ;}
	.st50{opacity:0.5999;}
	.st51{opacity:0.5999;fill:#89455E;enable-background:new    ;}
	.st52{opacity:0.7881;}
	.st53{opacity:0.7881;fill:#89455E;enable-background:new    ;}
	.st54{opacity:0.397;}
	.st55{opacity:0.397;fill:#89455E;enable-background:new    ;}
	.st56{opacity:0.1352;}
	.st57{opacity:0.1352;fill:#89455E;enable-background:new    ;}
	.st58{opacity:0.5835;}
	.st59{opacity:0.5835;fill:#89455E;enable-background:new    ;}
	.st60{opacity:0.7245;}
	.st61{opacity:0.7245;fill:#89455E;enable-background:new    ;}
	.st62{opacity:0.6437;}
	.st63{opacity:0.6437;fill:#89455E;enable-background:new    ;}
	.st64{opacity:0.4081;}
	.st65{opacity:0.4081;fill:#89455E;enable-background:new    ;}
	.st66{opacity:0.9412;}
	.st67{opacity:0.9412;fill:#89455E;enable-background:new    ;}
	.st68{opacity:0.2546;}
	.st69{opacity:0.2546;fill:#89455E;enable-background:new    ;}
	.st70{opacity:0.2255;}
	.st71{opacity:0.2255;fill:#89455E;enable-background:new    ;}
	.st72{opacity:0.1251;}
	.st73{opacity:0.1251;fill:#89455E;enable-background:new    ;}
	.st74{opacity:0.2913;}
	.st75{opacity:0.2913;fill:#89455E;enable-background:new    ;}
	.st76{opacity:0.7893;}
	.st77{opacity:0.7893;fill:#89455E;enable-background:new    ;}
	.st78{opacity:0.769;}
	.st79{opacity:0.769;fill:#89455E;enable-background:new    ;}
	.st80{opacity:0.7914;}
	.st81{opacity:0.7914;fill:#89455E;enable-background:new    ;}
	.st82{opacity:0.3504;}
	.st83{opacity:0.3504;fill:#89455E;enable-background:new    ;}
	.st84{opacity:0.5955;}
	.st85{opacity:0.5955;fill:#89455E;enable-background:new    ;}
	.st86{opacity:0.9285;}
	.st87{opacity:0.9285;fill:#89455E;enable-background:new    ;}
	.st88{opacity:0.9356;}
	.st89{opacity:0.9356;fill:#89455E;enable-background:new    ;}
	.st90{fill:#E0DCDC;}
</style>
<g class="st0">
	<path class="st1" d="M3.8,278.9l30.1-92.2L0,183.3l0,90.2L3.8,278.9z M32.3,187.7L3.4,276.3l-2.2-3.1l0-88.6L32.3,187.7z"/>
</g>
<g class="st2">
	<path class="st3" d="M48.7,225.7l163.5-68.4l-180,29.4L48.7,225.7z M202.7,160L49.3,224.2l-15.4-36.6L202.7,160z"/>
</g>
<g class="st4">
	<path class="st5" d="M179.8,464.3l135.1-65l-87.7-16.2L179.8,464.3z M311.2,399.7l-128.5,61.9l45-77.3L311.2,399.7z"/>
</g>
<g class="st6">
	<path class="st7" d="M353.4,502.5L381,381.1l-68.7,18L353.4,502.5z M379.4,382.7l-26.3,115.9l-39.3-98.7L379.4,382.7z"/>
</g>
<g class="st8">
	<path class="st9" d="M352.7,507.9h76.5l27.2-46.3l-103.7,38.5L352.7,507.9z M428.6,506.8h-74.7l0-5.8l99.9-37.1L428.6,506.8z"/>
</g>
<g class="st10">
	<path class="st11" d="M150,507.9h39.9l-8.3-46.5L150,507.9z M188.5,506.8h-36.3l28.7-42.4L188.5,506.8z"/>
</g>
<g class="st12">
	<path class="st13" d="M225.9,507.9h120.1l8.5-7.7l-175-38.3L225.9,507.9z M345.5,506.8H226.4l-43.2-42.9l168.9,37L345.5,506.8z"/>
</g>
<g class="st14">
	<path class="st15" d="M230.1,322.8l-22.2-164.9l-160.3,67L230.1,322.8z M207,159.5l21.7,161.2L50.3,225L207,159.5z"/>
</g>
<g class="st16">
	<path class="st17" d="M29.5,406L228,384.2l2-63.4L29.5,406z M226.9,383.2L37.1,404l191.6-81.4L226.9,383.2z"/>
</g>
<g class="st18">
	<path class="st19" d="M477.5,381.2l0.4-0.4l54.3-61.7l-140.3-10L477.5,381.2z M529.8,320.1l-52.4,59.5l-82-69.1L529.8,320.1z"/>
</g>
<g class="st20">
	<path class="st21" d="M475.7,381.2l42-3.7l13.6-45.8L475.7,381.2z M516.8,376.4l-37.7,3.3l49.9-44.4L516.8,376.4z"/>
</g>
<g class="st22">
	<path class="st23" d="M545,452l-88.2-82.7l-4.3,108L545,452z M457.8,371.9l84.9,79.5l-89.1,24.3L457.8,371.9z"/>
</g>
<g class="st24">
	<path class="st25" d="M226.8,384.9l20.8-16.7l-18.7-49.4L226.8,384.9z M246.2,367.8l-18.1,14.6l1.8-57.8L246.2,367.8z"/>
</g>
<g class="st26">
	<path class="st27" d="M317.3,400.9l-70.5-33.5L226.1,384L317.3,400.9z M247,368.7l61.9,29.4l-80.1-14.8L247,368.7z"/>
</g>
<path class="st15" d="M9.3,273.5c0.9-1.1,0.7-2.7-0.4-3.6s-2.7-0.7-3.6,0.4c-0.9,1.1-0.7,2.7,0.4,3.6C6.8,274.8,8.4,274.6,9.3,273.5
	z"/>
<path class="st28" d="M82.6,381.1c0.9-1.1,0.7-2.7-0.4-3.6c-1.1-0.9-2.7-0.7-3.6,0.4c-0.9,1.1-0.7,2.7,0.5,3.6
	C80.1,382.5,81.7,382.3,82.6,381.1z"/>
<path class="st15" d="M89.9,281.4c0.9-1.1,0.7-2.7-0.4-3.6c-1.1-0.9-2.7-0.7-3.6,0.4c-0.9,1.1-0.7,2.7,0.4,3.6
	C87.4,282.7,89,282.5,89.9,281.4z"/>
<path class="st28" d="M208.6,160.1c0.9-1.1,0.7-2.7-0.4-3.6c-1.1-0.9-2.7-0.7-3.6,0.4c-0.9,1.1-0.7,2.7,0.5,3.6
	C206.1,161.5,207.7,161.2,208.6,160.1z"/>
<path class="st15" d="M230.2,258.5c0.9-1.1,0.7-2.7-0.4-3.6c-1.1-0.9-2.7-0.7-3.6,0.4c-0.9,1.1-0.7,2.7,0.4,3.6
	C227.7,259.8,229.4,259.6,230.2,258.5z"/>
<path class="st15" d="M102.7,311.8c0.9-1.1,0.7-2.7-0.4-3.6s-2.7-0.7-3.6,0.4c-0.9,1.1-0.7,2.7,0.4,3.6
	C100.2,313.1,101.8,312.9,102.7,311.8z"/>
<path class="st28" d="M89.9,281.4c0.9-1.1,0.7-2.7-0.4-3.6c-1.1-0.9-2.7-0.7-3.6,0.4c-0.9,1.1-0.7,2.7,0.4,3.6
	C87.4,282.7,89,282.5,89.9,281.4z"/>
<path class="st15" d="M315.2,452.3c0.9-1.1,0.7-2.7-0.4-3.6c-1.1-0.9-2.7-0.7-3.6,0.4c-0.9,1.1-0.7,2.7,0.4,3.6
	C312.8,453.6,314.4,453.4,315.2,452.3z"/>
<path class="st15" d="M209.2,503.3c0.9-1.1,0.7-2.7-0.4-3.6c-1.1-0.9-2.7-0.7-3.6,0.4c-0.9,1.1-0.7,2.7,0.4,3.6
	C206.7,504.6,208.3,504.4,209.2,503.3z"/>
<path class="st28" d="M246.3,439.5c0.9-1.1,0.7-2.7-0.4-3.6c-1.1-0.9-2.7-0.7-3.6,0.4c-0.9,1.1-0.7,2.7,0.5,3.6
	C243.9,440.9,245.5,440.7,246.3,439.5z"/>
<path class="st28" d="M315.2,452.3c0.9-1.1,0.7-2.7-0.4-3.6c-1.1-0.9-2.7-0.7-3.6,0.4c-0.9,1.1-0.7,2.7,0.4,3.6
	C312.8,453.6,314.4,453.4,315.2,452.3z"/>
<path class="st28" d="M369.3,438.1c0.9-1.1,0.7-2.7-0.4-3.6c-1.1-0.9-2.7-0.7-3.6,0.5c-0.9,1.1-0.7,2.7,0.5,3.6
	C366.8,439.4,368.4,439.2,369.3,438.1z"/>
<path class="st28" d="M429.5,503.2c0.9-1.1,0.7-2.7-0.5-3.6c-1.1-0.9-2.7-0.7-3.6,0.4c-0.9,1.1-0.7,2.7,0.4,3.6
	C427,504.5,428.6,504.3,429.5,503.2z"/>
<path class="st28" d="M209.2,503.3c0.9-1.1,0.7-2.7-0.4-3.6c-1.1-0.9-2.7-0.7-3.6,0.4c-0.9,1.1-0.7,2.7,0.4,3.6
	C206.7,504.6,208.3,504.4,209.2,503.3z"/>
<path class="st28" d="M209.2,503.3c0.9-1.1,0.7-2.7-0.4-3.6c-1.1-0.9-2.7-0.7-3.6,0.4c-0.9,1.1-0.7,2.7,0.4,3.6
	C206.7,504.6,208.3,504.4,209.2,503.3z"/>
<path class="st15" d="M230.2,258.5c0.9-1.1,0.7-2.7-0.4-3.6c-1.1-0.9-2.7-0.7-3.6,0.4c-0.9,1.1-0.7,2.7,0.4,3.6
	C227.7,259.8,229.4,259.6,230.2,258.5z"/>
<path class="st15" d="M247.9,389.7c0.9-1.1,0.7-2.7-0.4-3.6c-1.1-0.9-2.7-0.7-3.6,0.4c-0.9,1.1-0.7,2.7,0.5,3.6
	C245.4,391,247,390.8,247.9,389.7z"/>
<path class="st15" d="M230.6,323.1c0.9-1.1,0.7-2.7-0.4-3.6s-2.7-0.7-3.6,0.4c-0.9,1.1-0.7,2.7,0.4,3.6
	C228.1,324.5,229.7,324.3,230.6,323.1z"/>
<path class="st15" d="M102.7,311.8c0.9-1.1,0.7-2.7-0.4-3.6s-2.7-0.7-3.6,0.4c-0.9,1.1-0.7,2.7,0.4,3.6
	C100.2,313.1,101.8,312.9,102.7,311.8z"/>
<path class="st15" d="M247.9,389.7c0.9-1.1,0.7-2.7-0.4-3.6c-1.1-0.9-2.7-0.7-3.6,0.4c-0.9,1.1-0.7,2.7,0.5,3.6
	C245.4,391,247,390.8,247.9,389.7z"/>
<path class="st15" d="M246.3,439.5c0.9-1.1,0.7-2.7-0.4-3.6c-1.1-0.9-2.7-0.7-3.6,0.4c-0.9,1.1-0.7,2.7,0.5,3.6
	C243.9,440.9,245.5,440.7,246.3,439.5z"/>
<path class="st15" d="M90.1,456.7c0.9-1.1,0.7-2.7-0.4-3.6c-1.1-0.9-2.7-0.7-3.6,0.4c-0.9,1.1-0.7,2.7,0.5,3.6
	C87.6,458,89.2,457.8,90.1,456.7z"/>
<path class="st15" d="M21.7,375.8c0.9-1.1,0.7-2.7-0.4-3.6c-1.1-0.9-2.7-0.7-3.6,0.4c-0.9,1.1-0.7,2.7,0.5,3.6
	C19.2,377.1,20.8,376.9,21.7,375.8z"/>
<path class="st15" d="M21.7,375.8c0.9-1.1,0.7-2.7-0.4-3.6c-1.1-0.9-2.7-0.7-3.6,0.4c-0.9,1.1-0.7,2.7,0.5,3.6
	C19.2,377.1,20.8,376.9,21.7,375.8z"/>
<path class="st15" d="M28.8,45.6c0.9-1.1,0.7-2.7-0.4-3.6c-1.1-0.9-2.7-0.7-3.6,0.4c-0.9,1.1-0.7,2.7,0.4,3.6
	C26.3,47,27.9,46.7,28.8,45.6z"/>
<path class="st15" d="M60.4,171c0.9-1.1,0.7-2.7-0.4-3.6c-1.1-0.9-2.7-0.7-3.6,0.4c-0.9,1.1-0.7,2.7,0.4,3.6
	C58,172.3,59.6,172.1,60.4,171z"/>
<path class="st28" d="M471.6,388.1c0.9-1.1,0.7-2.7-0.4-3.6c-1.1-0.9-2.7-0.7-3.6,0.4c-0.9,1.1-0.7,2.7,0.4,3.6
	C469.1,389.5,470.7,389.3,471.6,388.1z"/>
<path class="st15" d="M447.5,436.9c0.9-1.1,0.7-2.7-0.4-3.6c-1.1-0.9-2.7-0.7-3.6,0.4c-0.9,1.1-0.7,2.7,0.4,3.6
	C445,438.2,446.6,438,447.5,436.9z"/>
<path class="st15" d="M380.1,380.1c0.9-1.1,0.7-2.7-0.4-3.6c-1.1-0.9-2.7-0.7-3.6,0.4c-0.9,1.1-0.7,2.7,0.4,3.6
	C377.6,381.4,379.2,381.2,380.1,380.1z"/>
<path class="st15" d="M482.6,403.1c0.9-1.1,0.7-2.7-0.4-3.6c-1.1-0.9-2.7-0.7-3.6,0.5c-0.9,1.1-0.7,2.7,0.4,3.6
	C480.1,404.5,481.7,404.3,482.6,403.1z"/>
<path class="st28" d="M479.6,434.1c0.9-1.1,0.7-2.7-0.4-3.6c-1.1-0.9-2.7-0.7-3.6,0.4c-0.9,1.1-0.7,2.7,0.5,3.6
	C477.1,435.4,478.7,435.2,479.6,434.1z"/>
<path class="st15" d="M447.5,436.9c0.9-1.1,0.7-2.7-0.4-3.6c-1.1-0.9-2.7-0.7-3.6,0.4c-0.9,1.1-0.7,2.7,0.4,3.6
	C445,438.2,446.6,438,447.5,436.9z"/>
<path class="st28" d="M429.5,503.2c0.9-1.1,0.7-2.7-0.5-3.6c-1.1-0.9-2.7-0.7-3.6,0.4c-0.9,1.1-0.7,2.7,0.4,3.6
	C427,504.5,428.6,504.3,429.5,503.2z"/>
<path class="st28" d="M457.6,463.1c0.9-1.1,0.7-2.7-0.4-3.6c-1.1-0.9-2.7-0.7-3.6,0.4c-0.9,1.1-0.7,2.7,0.5,3.6
	C455.1,464.5,456.7,464.3,457.6,463.1z"/>
<path class="st28" d="M262,426.9c0.9-1.1,0.7-2.7-0.4-3.6c-1.1-0.9-2.7-0.7-3.6,0.4c-0.9,1.1-0.7,2.7,0.4,3.6
	C259.5,428.2,261.1,428,262,426.9z"/>
<path class="st28" d="M246.3,439.5c0.9-1.1,0.7-2.7-0.4-3.6c-1.1-0.9-2.7-0.7-3.6,0.4c-0.9,1.1-0.7,2.7,0.5,3.6
	C243.9,440.9,245.5,440.7,246.3,439.5z"/>
<path class="st28" d="M247.9,389.7c0.9-1.1,0.7-2.7-0.4-3.6c-1.1-0.9-2.7-0.7-3.6,0.4c-0.9,1.1-0.7,2.7,0.5,3.6
	C245.4,391,247,390.8,247.9,389.7z"/>
<path class="st15" d="M315.2,452.3c0.9-1.1,0.7-2.7-0.4-3.6c-1.1-0.9-2.7-0.7-3.6,0.4c-0.9,1.1-0.7,2.7,0.4,3.6
	C312.8,453.6,314.4,453.4,315.2,452.3z"/>
<path class="st15" d="M246.3,439.5c0.9-1.1,0.7-2.7-0.4-3.6c-1.1-0.9-2.7-0.7-3.6,0.4c-0.9,1.1-0.7,2.7,0.5,3.6
	C243.9,440.9,245.5,440.7,246.3,439.5z"/>
<g class="st0">
	<path class="st1" d="M102.4,394l-36.5-51.7L50.7,389L102.4,394z M66.3,344.9l33.7,47.8l-47.7-4.7L66.3,344.9z"/>
</g>
<g class="st29">
	<path class="st30" d="M43.2,183.2l37.5-22.3l-0.5-1l-33.6,14.7L43.2,183.2z M72.2,164.6l-26.7,15.9l2-5.1L72.2,164.6z"/>
</g>
<g class="st31">
	<path class="st32" d="M38.1,129.9l-3.5-59.2L0,95.9l0,8.8L38.1,129.9z M33.6,72.9l3.2,54.8L1.2,104.1v-7.6L33.6,72.9z"/>
</g>
<g class="st33">
	<path class="st34" d="M310.8,392.1l30.7-10.2l-33.8-40L310.8,392.1z M339.5,381.3l-27.6,9.2l-2.8-45.2L339.5,381.3z"/>
</g>
<g class="st2">
	<path class="st3" d="M0,397.4l52.3-8.6l-8.4-20L0,387.3L0,397.4L0,397.4z M50.7,388l-49.5,8.1v-8l42.1-17.6L50.7,388z"/>
</g>
<g class="st35">
	<path class="st36" d="M319.7,397.5l24.2-17.7l-33.8,11.3L319.7,397.5z M337.2,383.3l-17.5,12.8l-7-4.7L337.2,383.3z"/>
</g>
<path class="st37" d="M298.9,507.9H337l-13.5-75.5L298.9,507.9z M335.6,506.8h-35.2l22.8-69.6L335.6,506.8z"/>
<g class="st38">
	<path class="st39" d="M322.3,417.9l-2.1-21.4l-10.1-6.8L322.3,417.9z M319.1,397.2l1.3,13.6l-7.7-17.9L319.1,397.2z"/>
</g>
<g class="st40">
	<path class="st41" d="M147.5,361.7l70.3-1.3l-49.7-68.7L147.5,361.7z M215.5,359.3l-66.5,1.2l19.5-66.2L215.5,359.3z"/>
</g>
<g class="st42">
	<path class="st43" d="M15.4,197.4l29.4-15.2l3.4-8.9l-33.4,23L15.4,197.4z M43.9,181.4l-21,10.8l22.9-15.8L43.9,181.4z"/>
</g>
<g class="st10">
	<path class="st11" d="M0,220.2l16.3-24.1L0,198.7L0,220.2z M13.9,197.7L1.2,216.4v-16.7L13.9,197.7z"/>
</g>
<path class="st44" d="M335.8,507.9h3.1l3.3-68l-19.5-6L335.8,507.9z M337.8,506.8h-1l-12.7-71.1l16.8,5.2L337.8,506.8z"/>
<g class="st45">
	<path class="st46" d="M105.1,199.2l26.5-57.5l-52.1,18.4L105.1,199.2z M129.4,143.7L105,196.8l-23.7-36.2L129.4,143.7z"/>
</g>
<g class="st47">
	<path class="st48" d="M42.1,226l64.7-28.1l-63-16.8L42.1,226z M103.3,198.1l-60,26l1.6-41.6L103.3,198.1z"/>
</g>
<g class="st14">
	<path class="st49" d="M0,388.5l44.9-18.8L0,345.7L0,388.5z M42.3,369.6L1.2,386.8v-39.2L42.3,369.6z"/>
</g>
<g class="st16">
	<path class="st17" d="M0,302.8l55.2-23.4L0,285.5L0,302.8z M47.5,281.4L1.2,301.1v-14.6L47.5,281.4z"/>
</g>
<g class="st50">
	<path class="st51" d="M123.7,365.8l26.1-4.4l-45-31.6L123.7,365.8z M146.8,360.8l-22.5,3.8l-16.3-31L146.8,360.8z"/>
</g>
<g class="st52">
	<path class="st53" d="M149,362.4l-8.6-53.6l-35.1,22.9L149,362.4z M139.6,310.8l7.8,49.1l-40.1-28.1L139.6,310.8z"/>
</g>
<g class="st54">
	<path class="st55" d="M126.8,369.3l-20-38.1l-14.6-1.6L126.8,369.3z M106,332.2l15.1,28.8l-26.2-30L106,332.2z"/>
</g>
<g class="st56">
	<path class="st57" d="M106.7,332.3l23.5-56.5l-37.7,54.9L106.7,332.3z M124.9,285.6L106,331.1l-11.4-1.3L124.9,285.6z"/>
</g>
<g class="st58">
	<path class="st59" d="M398.8,502.5l33.7-18.4L381.2,468L398.8,502.5z M429.6,484.5L399.3,501l-15.9-31.1L429.6,484.5z"/>
</g>
<g class="st60">
	<path class="st61" d="M312,392.3l-3.1-50l-33.2,28.8L312,392.3z M307.9,344.8l2.8,45.5l-33-19.3L307.9,344.8z"/>
</g>
<g class="st62">
	<path class="st63" d="M275.7,372.7l34.9-30.2l-28.7,6.4L275.7,372.7z M306.3,344.6l-28.6,24.8l5.1-19.6L306.3,344.6z"/>
</g>
<g class="st64">
	<path class="st65" d="M199.8,507.9h24.1l-9.3-65.9l-35.1,43.4L199.8,507.9z M222.6,506.8h-22.3L181,485.4l32.8-40.5L222.6,506.8z"
		/>
</g>
<g class="st66">
	<path class="st67" d="M82.1,507.9h26l19.8-28.3l-59-24.2L82.1,507.9z M107.4,506.8H83l-12.5-49.3l55.6,22.7L107.4,506.8z"/>
</g>
<g class="st68">
	<path class="st69" d="M0,149.5l38.6-20.7L0,103.3L0,149.5z M36.3,128.7L1.2,147.6v-42.1L36.3,128.7z"/>
</g>
<g class="st70">
	<path class="st71" d="M324.1,435.6l-2.2-22.1l-31.8,14.1L324.1,435.6z M320.9,415.2l1.9,18.9l-29.1-6.9L320.9,415.2z"/>
</g>
<g class="st72">
	<path class="st73" d="M290.6,428.6l31.5-14L311.4,390L290.6,428.6z M320.6,414l-27.4,12.1l18.1-33.6L320.6,414z"/>
</g>
<g class="st74">
	<path class="st75" d="M291.7,428.9l20.5-37.9l-36.4-21.2L291.7,428.9z M310.6,391.5l-18.6,34.3l-14.4-53.5L310.6,391.5z"/>
</g>
<g class="st76">
	<path class="st77" d="M213.8,444.1l81.6-16.9l-90.7-11L213.8,444.1z M288.3,427.5l-73.7,15.2l-8.2-25.1L288.3,427.5z"/>
</g>
<g class="st78">
	<path class="st79" d="M382.9,470.1l-0.5-50.6l-41.9,20.8L382.9,470.1z M381.2,421.3l0.5,46.5l-39-27.3L381.2,421.3z"/>
</g>
<g class="st80">
	<path class="st81" d="M381.4,420.8l0.8-0.8L342,378.7l-2.2,2.9L381.4,420.8z M342.1,380.5l20.7,21.3l-21.5-20.2L342.1,380.5z"/>
</g>
<g class="st20">
	<path class="st21" d="M282,350.4l13.1-9.8l-18.9-19.2L282,350.4z M293.3,340.5l-10.5,7.9L278,325L293.3,340.5z"/>
</g>
<g class="st82">
	<path class="st83" d="M51.5,168.2l30.1-7.5l-45.5-33.4L51.5,168.2z M79,160.1l-26.8,6.7l-13.6-36.4L79,160.1z"/>
</g>
<g class="st84">
	<path class="st85" d="M46.7,176.4l5.8-8.9L38,128.6l-1.1,0.3L46.7,176.4z M51.3,167.4l-4,6l-7.7-37.4L51.3,167.4z"/>
</g>
<g class="st86">
	<path class="st87" d="M136.1,368.8l15.2-8.8l-30.1,5L136.1,368.8z M145.2,362.2l-9.3,5.4l-9.1-2.3L145.2,362.2z"/>
</g>
<g class="st88">
	<path class="st89" d="M205.2,417.4l0.7-0.9l-57.6-56.1l-13.4,7.8L205.2,417.4z M148.2,361.9l51.9,50.5l-63-44.1L148.2,361.9z"/>
</g>
<path class="st90" d="M63.3,345.7c-0.4,0.6-0.3,1.4,0.2,1.8c0.5,0.4,1.4,0.3,1.8-0.2c0.4-0.5,0.3-1.4-0.2-1.8
	C64.5,345,63.7,345.1,63.3,345.7z"/>
<path class="st90" d="M35.1,305.6c-0.4,0.5-0.3,1.4,0.2,1.8c0.5,0.4,1.4,0.3,1.8-0.2c0.4-0.5,0.3-1.4-0.2-1.8
	C36.3,304.9,35.5,305,35.1,305.6z"/>
<path class="st90" d="M23.3,341.7c-0.4,0.5-0.3,1.4,0.2,1.8c0.6,0.4,1.4,0.3,1.8-0.2c0.4-0.5,0.3-1.4-0.2-1.8
	C24.5,341,23.7,341.1,23.3,341.7z"/>
<path class="st90" d="M19.7,169.9c-0.4,0.5-0.3,1.4,0.2,1.8c0.5,0.4,1.4,0.3,1.8-0.2c0.4-0.5,0.3-1.4-0.2-1.8
	C20.9,169.2,20.1,169.3,19.7,169.9z"/>
<path class="st90" d="M17.5,175.4c-0.4,0.5-0.3,1.4,0.2,1.8c0.5,0.4,1.4,0.3,1.8-0.2c0.4-0.5,0.3-1.4-0.2-1.8
	C18.8,174.8,18,174.9,17.5,175.4z"/>
<path class="st90" d="M46.5,158.2c-0.4,0.5-0.3,1.4,0.2,1.8c0.5,0.4,1.4,0.3,1.8-0.2c0.4-0.6,0.3-1.4-0.2-1.8
	C47.8,157.5,46.9,157.6,46.5,158.2z"/>
<path class="st90" d="M12,132.8c-0.4,0.5-0.3,1.4,0.2,1.8c0.5,0.4,1.4,0.3,1.8-0.2c0.4-0.5,0.3-1.4-0.2-1.8
	C13.2,132.1,12.4,132.2,12,132.8z"/>
<path class="st90" d="M9.3,86.9c-0.4,0.5-0.3,1.4,0.2,1.8c0.5,0.4,1.4,0.3,1.8-0.2c0.4-0.5,0.3-1.4-0.2-1.8
	C10.5,86.2,9.7,86.3,9.3,86.9z"/>
<path class="st90" d="M359,436.3c-0.4,0.5-0.3,1.4,0.2,1.8c0.5,0.4,1.4,0.3,1.8-0.2c0.4-0.5,0.3-1.4-0.2-1.8
	C360.2,435.6,359.4,435.7,359,436.3z"/>
<path class="st90" d="M328.7,418.9c-0.4,0.5-0.3,1.4,0.2,1.8c0.5,0.4,1.4,0.3,1.8-0.2c0.4-0.5,0.3-1.4-0.2-1.8
	C330,418.2,329.1,418.3,328.7,418.9z"/>
<path class="st90" d="M389.2,397.8c-0.4,0.5-0.3,1.4,0.2,1.8c0.5,0.4,1.4,0.3,1.8-0.2c0.4-0.5,0.3-1.4-0.2-1.8
	C390.4,397.2,389.6,397.3,389.2,397.8z"/>
<path class="st90" d="M232.4,344c-0.4,0.5-0.3,1.4,0.2,1.8c0.5,0.4,1.4,0.3,1.8-0.2c0.4-0.5,0.3-1.4-0.2-1.8
	C233.7,343.3,232.9,343.4,232.4,344z"/>
<path class="st90" d="M255.9,336.2c-0.4,0.5-0.3,1.4,0.2,1.8c0.5,0.4,1.4,0.3,1.8-0.2c0.4-0.5,0.3-1.4-0.2-1.8
	C257.1,335.5,256.3,335.6,255.9,336.2z"/>
<path class="st90" d="M16.9,326.6c-0.4,0.5-0.3,1.4,0.2,1.8c0.5,0.4,1.4,0.3,1.8-0.2c0.4-0.6,0.3-1.4-0.2-1.8
	C18.2,326,17.4,326.1,16.9,326.6z"/>
<path class="st90" d="M23.3,341.7c-0.4,0.5-0.3,1.4,0.2,1.8c0.6,0.4,1.4,0.3,1.8-0.2c0.4-0.5,0.3-1.4-0.2-1.8
	C24.5,341,23.7,341.1,23.3,341.7z"/>
<path class="st90" d="M128.7,498.9c-0.4,0.5-0.3,1.4,0.2,1.8c0.5,0.4,1.4,0.3,1.8-0.2c0.4-0.6,0.3-1.4-0.2-1.8
	C129.9,498.3,129.1,498.4,128.7,498.9z"/>
<path class="st90" d="M239.1,348.4c-0.4,0.5-0.3,1.4,0.2,1.8c0.5,0.4,1.4,0.3,1.8-0.2c0.4-0.5,0.3-1.4-0.2-1.8
	C240.3,347.8,239.5,347.9,239.1,348.4z"/>
<path class="st90" d="M232.4,344c-0.4,0.5-0.3,1.4,0.2,1.8c0.5,0.4,1.4,0.3,1.8-0.2c0.4-0.5,0.3-1.4-0.2-1.8
	C233.7,343.3,232.9,343.4,232.4,344z"/>
<path class="st90" d="M255.9,336.2c-0.4,0.5-0.3,1.4,0.2,1.8c0.5,0.4,1.4,0.3,1.8-0.2c0.4-0.5,0.3-1.4-0.2-1.8
	C257.1,335.5,256.3,335.6,255.9,336.2z"/>
<path class="st90" d="M218.4,451.4c-0.4,0.5-0.3,1.4,0.2,1.8c0.5,0.4,1.4,0.3,1.8-0.2c0.4-0.5,0.3-1.4-0.2-1.8
	S218.8,450.9,218.4,451.4z"/>
<path class="st90" d="M242.1,379c-0.4,0.5-0.3,1.4,0.2,1.8c0.5,0.4,1.4,0.3,1.8-0.2c0.4-0.5,0.3-1.4-0.2-1.8
	C243.3,378.4,242.5,378.5,242.1,379z"/>
<path class="st90" d="M253.8,444.6c-0.4,0.5-0.3,1.4,0.2,1.8c0.5,0.4,1.4,0.3,1.8-0.2c0.4-0.5,0.3-1.4-0.2-1.8
	C255,443.9,254.2,444,253.8,444.6z"/>
<path class="st90" d="M240.4,362.5c-0.4,0.5-0.3,1.4,0.2,1.8c0.5,0.4,1.4,0.3,1.8-0.2c0.4-0.5,0.3-1.4-0.2-1.8
	C241.7,361.9,240.9,362,240.4,362.5z"/>
<path class="st90" d="M232.4,344c-0.4,0.5-0.3,1.4,0.2,1.8c0.5,0.4,1.4,0.3,1.8-0.2c0.4-0.5,0.3-1.4-0.2-1.8
	C233.7,343.3,232.9,343.4,232.4,344z"/>
<path class="st90" d="M239.1,348.4c-0.4,0.5-0.3,1.4,0.2,1.8c0.5,0.4,1.4,0.3,1.8-0.2c0.4-0.5,0.3-1.4-0.2-1.8
	C240.3,347.8,239.5,347.9,239.1,348.4z"/>
<path class="st90" d="M389.2,397.8c-0.4,0.5-0.3,1.4,0.2,1.8c0.5,0.4,1.4,0.3,1.8-0.2c0.4-0.5,0.3-1.4-0.2-1.8
	C390.4,397.2,389.6,397.3,389.2,397.8z"/>
<path class="st90" d="M117.3,265c-0.4,0.5-0.3,1.4,0.2,1.8c0.5,0.4,1.4,0.3,1.8-0.2c0.4-0.5,0.3-1.4-0.2-1.8
	C118.5,264.3,117.7,264.4,117.3,265z"/>
<path class="st90" d="M101.2,319.7c-0.4,0.5-0.3,1.4,0.2,1.8c0.5,0.4,1.4,0.3,1.8-0.2c0.4-0.5,0.3-1.4-0.2-1.8
	C102.4,319.1,101.6,319.2,101.2,319.7z"/>
<path class="st90" d="M156.2,318.7c-0.4,0.5-0.3,1.4,0.2,1.8c0.5,0.4,1.4,0.3,1.8-0.2c0.4-0.5,0.3-1.4-0.2-1.8
	C157.4,318.1,156.6,318.2,156.2,318.7z"/>
<path class="st90" d="M106.5,477.7c-0.4,0.5-0.3,1.4,0.2,1.8c0.5,0.4,1.4,0.3,1.8-0.2c0.4-0.5,0.3-1.4-0.2-1.8
	C107.7,477,106.9,477.1,106.5,477.7z"/>
<path class="st90" d="M165,462c-0.4,0.5-0.3,1.4,0.2,1.8c0.5,0.4,1.4,0.3,1.8-0.2c0.4-0.5,0.3-1.4-0.2-1.8
	C166.2,461.3,165.4,461.4,165,462z"/>
<path class="st90" d="M151.3,491.2c-0.4,0.5-0.3,1.4,0.2,1.8c0.5,0.4,1.4,0.3,1.8-0.2c0.4-0.5,0.3-1.4-0.2-1.8
	C152.6,490.5,151.8,490.6,151.3,491.2z"/>
<path class="st90" d="M98,74.8c-0.4,0.5-0.3,1.4,0.2,1.8c0.5,0.4,1.4,0.3,1.8-0.2c0.4-0.5,0.3-1.4-0.2-1.8
	C99.2,74.1,98.4,74.2,98,74.8z"/>
<path class="st90" d="M107.3,93.9c-0.4,0.5-0.3,1.4,0.2,1.8c0.5,0.4,1.4,0.3,1.8-0.2c0.4-0.5,0.3-1.4-0.2-1.8
	C108.5,93.3,107.7,93.4,107.3,93.9z"/>
<path class="st90" d="M86.9,144c-0.4,0.5-0.3,1.4,0.2,1.8c0.5,0.4,1.4,0.3,1.8-0.2c0.4-0.5,0.3-1.4-0.2-1.8
	C88.1,143.3,87.3,143.4,86.9,144z"/>
<path class="st90" d="M128.2,94c-0.4,0.5-0.3,1.4,0.2,1.8c0.5,0.4,1.4,0.3,1.8-0.2c0.4-0.5,0.3-1.4-0.2-1.8
	C129.5,93.3,128.7,93.4,128.2,94z"/>
<path class="st90" d="M19.7,169.9c-0.4,0.5-0.3,1.4,0.2,1.8c0.5,0.4,1.4,0.3,1.8-0.2c0.4-0.5,0.3-1.4-0.2-1.8
	C20.9,169.2,20.1,169.3,19.7,169.9z"/>
<path class="st90" d="M17.5,175.4c-0.4,0.5-0.3,1.4,0.2,1.8c0.5,0.4,1.4,0.3,1.8-0.2c0.4-0.5,0.3-1.4-0.2-1.8
	C18.8,174.8,18,174.9,17.5,175.4z"/>
<path class="st90" d="M55.7,69c-0.4,0.5-0.3,1.4,0.2,1.8c0.5,0.4,1.4,0.3,1.8-0.2c0.4-0.5,0.3-1.4-0.2-1.8
	C56.9,68.4,56.1,68.5,55.7,69z"/>
<path class="st90" d="M9.3,86.9c-0.4,0.5-0.3,1.4,0.2,1.8c0.5,0.4,1.4,0.3,1.8-0.2c0.4-0.5,0.3-1.4-0.2-1.8
	C10.5,86.2,9.7,86.3,9.3,86.9z"/>
<path class="st90" d="M41,92.7c-0.4,0.5-0.3,1.4,0.2,1.8c0.5,0.4,1.4,0.3,1.8-0.2c0.4-0.5,0.3-1.4-0.2-1.8
	C42.2,92,41.4,92.1,41,92.7z"/>
<path class="st90" d="M55.7,69c-0.4,0.5-0.3,1.4,0.2,1.8c0.5,0.4,1.4,0.3,1.8-0.2c0.4-0.5,0.3-1.4-0.2-1.8
	C56.9,68.4,56.1,68.5,55.7,69z"/>
<path class="st90" d="M335.5,359.4c-0.4,0.5-0.3,1.4,0.2,1.8c0.5,0.4,1.4,0.3,1.8-0.2c0.4-0.5,0.3-1.4-0.2-1.8
	C336.8,358.7,336,358.8,335.5,359.4z"/>
<path class="st90" d="M335.5,359.4c-0.4,0.5-0.3,1.4,0.2,1.8c0.5,0.4,1.4,0.3,1.8-0.2c0.4-0.5,0.3-1.4-0.2-1.8
	C336.8,358.7,336,358.8,335.5,359.4z"/>
<path class="st90" d="M335.5,359.4c-0.4,0.5-0.3,1.4,0.2,1.8c0.5,0.4,1.4,0.3,1.8-0.2c0.4-0.5,0.3-1.4-0.2-1.8
	C336.8,358.7,336,358.8,335.5,359.4z"/>
<path class="st90" d="M256.7,383.5c-0.4,0.5-0.3,1.4,0.2,1.8c0.5,0.4,1.4,0.3,1.8-0.2c0.4-0.5,0.3-1.4-0.2-1.8
	C258,382.8,257.1,383,256.7,383.5z"/>
<path class="st90" d="M242.1,379c-0.4,0.5-0.3,1.4,0.2,1.8c0.5,0.4,1.4,0.3,1.8-0.2c0.4-0.5,0.3-1.4-0.2-1.8
	C243.3,378.4,242.5,378.5,242.1,379z"/>
<path class="st90" d="M253.8,444.6c-0.4,0.5-0.3,1.4,0.2,1.8c0.5,0.4,1.4,0.3,1.8-0.2c0.4-0.5,0.3-1.4-0.2-1.8
	C255,443.9,254.2,444,253.8,444.6z"/>
<path class="st90" d="M66.4,188.4c-0.4,0.5-0.3,1.4,0.2,1.8c0.5,0.4,1.4,0.3,1.8-0.2c0.4-0.5,0.3-1.4-0.2-1.8
	C67.6,187.8,66.8,187.9,66.4,188.4z"/>
<path class="st90" d="M46.5,158.2c-0.4,0.5-0.3,1.4,0.2,1.8c0.5,0.4,1.4,0.3,1.8-0.2c0.4-0.6,0.3-1.4-0.2-1.8
	C47.8,157.5,46.9,157.6,46.5,158.2z"/>
<path class="st90" d="M86.9,144c-0.4,0.5-0.3,1.4,0.2,1.8c0.5,0.4,1.4,0.3,1.8-0.2c0.4-0.5,0.3-1.4-0.2-1.8
	C88.1,143.3,87.3,143.4,86.9,144z"/>
<path class="st90" d="M66.4,188.4c-0.4,0.5-0.3,1.4,0.2,1.8c0.5,0.4,1.4,0.3,1.8-0.2c0.4-0.5,0.3-1.4-0.2-1.8
	C67.6,187.8,66.8,187.9,66.4,188.4z"/>
<path class="st90" d="M17.5,175.4c-0.4,0.5-0.3,1.4,0.2,1.8c0.5,0.4,1.4,0.3,1.8-0.2c0.4-0.5,0.3-1.4-0.2-1.8
	C18.8,174.8,18,174.9,17.5,175.4z"/>
<path class="st90" d="M16.2,210.2c-0.4,0.6-0.3,1.4,0.2,1.8c0.5,0.4,1.4,0.3,1.8-0.2c0.4-0.5,0.3-1.4-0.2-1.8
	C17.4,209.6,16.6,209.7,16.2,210.2z"/>
<path class="st90" d="M16.9,326.6c-0.4,0.5-0.3,1.4,0.2,1.8c0.5,0.4,1.4,0.3,1.8-0.2c0.4-0.6,0.3-1.4-0.2-1.8
	C18.2,326,17.4,326.1,16.9,326.6z"/>
<path class="st90" d="M23.2,254.8c-0.4,0.5-0.3,1.4,0.2,1.8c0.5,0.4,1.4,0.3,1.8-0.2c0.4-0.5,0.3-1.4-0.2-1.8
	C24.4,254.1,23.6,254.2,23.2,254.8z"/>
<path class="st90" d="M67.5,296c-0.4,0.6-0.3,1.4,0.2,1.8c0.5,0.4,1.4,0.3,1.8-0.2c0.4-0.5,0.3-1.4-0.2-1.8
	C68.7,295.4,67.9,295.5,67.5,296z"/>
<path class="st90" d="M81.6,323c-0.4,0.5-0.3,1.4,0.2,1.8c0.5,0.4,1.4,0.3,1.8-0.2c0.4-0.5,0.3-1.4-0.2-1.8
	C82.8,322.3,82.1,322.4,81.6,323z"/>
<path class="st90" d="M101.2,319.7c-0.4,0.5-0.3,1.4,0.2,1.8c0.5,0.4,1.4,0.3,1.8-0.2c0.4-0.5,0.3-1.4-0.2-1.8
	C102.4,319.1,101.6,319.2,101.2,319.7z"/>
<path class="st90" d="M67.5,296c-0.4,0.6-0.3,1.4,0.2,1.8c0.5,0.4,1.4,0.3,1.8-0.2c0.4-0.5,0.3-1.4-0.2-1.8
	C68.7,295.4,67.9,295.5,67.5,296z"/>
<path class="st90" d="M94.6,278.4c-0.4,0.5-0.3,1.4,0.2,1.8c0.6,0.4,1.4,0.3,1.8-0.2c0.4-0.5,0.3-1.4-0.2-1.8
	C95.8,277.7,95,277.8,94.6,278.4z"/>
<path class="st90" d="M101.2,319.7c-0.4,0.5-0.3,1.4,0.2,1.8c0.5,0.4,1.4,0.3,1.8-0.2c0.4-0.5,0.3-1.4-0.2-1.8
	C102.4,319.1,101.6,319.2,101.2,319.7z"/>
<path class="st90" d="M67.5,296c-0.4,0.6-0.3,1.4,0.2,1.8c0.5,0.4,1.4,0.3,1.8-0.2c0.4-0.5,0.3-1.4-0.2-1.8
	C68.7,295.4,67.9,295.5,67.5,296z"/>
<path class="st90" d="M57.1,294.9c-0.4,0.5-0.3,1.4,0.2,1.8c0.5,0.4,1.4,0.3,1.8-0.2c0.4-0.5,0.3-1.4-0.2-1.8
	C58.4,294.2,57.6,294.3,57.1,294.9z"/>
<path class="st90" d="M81.6,323c-0.4,0.5-0.3,1.4,0.2,1.8c0.5,0.4,1.4,0.3,1.8-0.2c0.4-0.5,0.3-1.4-0.2-1.8
	C82.8,322.3,82.1,322.4,81.6,323z"/>
<path class="st90" d="M67.5,296c-0.4,0.6-0.3,1.4,0.2,1.8c0.5,0.4,1.4,0.3,1.8-0.2c0.4-0.5,0.3-1.4-0.2-1.8
	C68.7,295.4,67.9,295.5,67.5,296z"/>
<path class="st90" d="M84.5,255c-0.4,0.5-0.3,1.4,0.2,1.8c0.5,0.4,1.4,0.3,1.8-0.2c0.4-0.5,0.3-1.4-0.2-1.8
	C85.7,254.4,84.9,254.5,84.5,255z"/>
<path class="st90" d="M57.1,294.9c-0.4,0.5-0.3,1.4,0.2,1.8c0.5,0.4,1.4,0.3,1.8-0.2c0.4-0.5,0.3-1.4-0.2-1.8
	C58.4,294.2,57.6,294.3,57.1,294.9z"/>
<path class="st90" d="M186.7,468c-0.4,0.5-0.3,1.4,0.2,1.8c0.6,0.4,1.4,0.3,1.8-0.2c0.4-0.5,0.3-1.4-0.2-1.8
	C187.9,467.4,187.1,467.5,186.7,468z"/>
<path class="st90" d="M151.3,491.2c-0.4,0.5-0.3,1.4,0.2,1.8c0.5,0.4,1.4,0.3,1.8-0.2c0.4-0.5,0.3-1.4-0.2-1.8
	C152.6,490.5,151.8,490.6,151.3,491.2z"/>
<path class="st90" d="M190.7,503c-0.4,0.5-0.3,1.4,0.2,1.8c0.5,0.4,1.4,0.3,1.8-0.2c0.4-0.5,0.3-1.4-0.2-1.8
	C191.9,502.3,191.1,502.4,190.7,503z"/>
<path class="st90" d="M303,432.9c-0.4,0.5-0.3,1.4,0.2,1.8c0.5,0.4,1.4,0.3,1.8-0.2c0.4-0.5,0.3-1.4-0.2-1.8
	C304.2,432.2,303.4,432.3,303,432.9z"/>
<path class="st90" d="M289.5,406.5c-0.4,0.5-0.3,1.4,0.2,1.8c0.5,0.4,1.4,0.3,1.8-0.2c0.4-0.5,0.3-1.4-0.2-1.8
	C290.8,405.8,289.9,405.9,289.5,406.5z"/>
<path class="st90" d="M328.7,418.9c-0.4,0.5-0.3,1.4,0.2,1.8c0.5,0.4,1.4,0.3,1.8-0.2c0.4-0.5,0.3-1.4-0.2-1.8
	C330,418.2,329.1,418.3,328.7,418.9z"/>
<path class="st90" d="M287.9,492.8c-0.4,0.6-0.3,1.4,0.2,1.8c0.5,0.4,1.4,0.3,1.8-0.2c0.4-0.5,0.3-1.4-0.2-1.8
	C289.1,492.2,288.3,492.3,287.9,492.8z"/>
<path class="st90" d="M204.5,327.7c-0.4,0.5-0.3,1.4,0.2,1.8c0.5,0.4,1.4,0.3,1.8-0.2c0.4-0.5,0.3-1.4-0.2-1.8
	C205.8,327.1,205,327.2,204.5,327.7z"/>
<path class="st90" d="M232.4,344c-0.4,0.5-0.3,1.4,0.2,1.8c0.5,0.4,1.4,0.3,1.8-0.2c0.4-0.5,0.3-1.4-0.2-1.8
	C233.7,343.3,232.9,343.4,232.4,344z"/>
<path class="st90" d="M204.5,327.7c-0.4,0.5-0.3,1.4,0.2,1.8c0.5,0.4,1.4,0.3,1.8-0.2c0.4-0.5,0.3-1.4-0.2-1.8
	C205.8,327.1,205,327.2,204.5,327.7z"/>
<path class="st90" d="M126.9,419.7c-0.4,0.5-0.3,1.4,0.2,1.8c0.5,0.4,1.4,0.3,1.8-0.2c0.4-0.5,0.3-1.4-0.2-1.8
	C128.1,419.1,127.3,419.2,126.9,419.7z"/>
<path class="st90" d="M154.2,386c-0.4,0.5-0.3,1.4,0.2,1.8c0.5,0.4,1.4,0.3,1.8-0.2c0.4-0.5,0.3-1.4-0.2-1.8
	C155.5,385.3,154.7,385.4,154.2,386z"/>
<path class="st90" d="M165,462c-0.4,0.5-0.3,1.4,0.2,1.8c0.5,0.4,1.4,0.3,1.8-0.2c0.4-0.5,0.3-1.4-0.2-1.8
	C166.2,461.3,165.4,461.4,165,462z"/>
<path class="st90" d="M53.6,458.6c-0.4,0.5-0.3,1.4,0.2,1.8c0.5,0.4,1.4,0.3,1.8-0.2c0.4-0.5,0.3-1.4-0.2-1.8
	C54.8,458,54.1,458.1,53.6,458.6z"/>
<path class="st90" d="M37.9,396.5c-0.4,0.5-0.3,1.4,0.2,1.8c0.5,0.4,1.4,0.3,1.8-0.2c0.4-0.5,0.3-1.4-0.2-1.8
	C39.1,395.8,38.3,395.9,37.9,396.5z"/>
<path class="st90" d="M84,415.3c-0.4,0.5-0.3,1.4,0.2,1.8c0.6,0.4,1.4,0.3,1.8-0.2c0.4-0.5,0.3-1.4-0.2-1.8
	C85.3,414.7,84.5,414.8,84,415.3z"/>
<path class="st90" d="M12,132.8c-0.4,0.5-0.3,1.4,0.2,1.8c0.5,0.4,1.4,0.3,1.8-0.2c0.4-0.5,0.3-1.4-0.2-1.8
	C13.2,132.1,12.4,132.2,12,132.8z"/>
<path class="st90" d="M216.7,373c-0.4,0.5-0.3,1.4,0.2,1.8c0.6,0.4,1.4,0.3,1.8-0.2c0.4-0.5,0.3-1.4-0.2-1.8
	C218,372.4,217.2,372.5,216.7,373z"/>
<path class="st90" d="M240.4,362.5c-0.4,0.5-0.3,1.4,0.2,1.8c0.5,0.4,1.4,0.3,1.8-0.2c0.4-0.5,0.3-1.4-0.2-1.8
	C241.7,361.9,240.9,362,240.4,362.5z"/>
<path class="st90" d="M242.1,379c-0.4,0.5-0.3,1.4,0.2,1.8c0.5,0.4,1.4,0.3,1.8-0.2c0.4-0.5,0.3-1.4-0.2-1.8
	C243.3,378.4,242.5,378.5,242.1,379z"/>
<path class="st90" d="M216.7,373c-0.4,0.5-0.3,1.4,0.2,1.8c0.6,0.4,1.4,0.3,1.8-0.2c0.4-0.5,0.3-1.4-0.2-1.8
	C218,372.4,217.2,372.5,216.7,373z"/>
<path class="st90" d="M232.4,344c-0.4,0.5-0.3,1.4,0.2,1.8c0.5,0.4,1.4,0.3,1.8-0.2c0.4-0.5,0.3-1.4-0.2-1.8
	C233.7,343.3,232.9,343.4,232.4,344z"/>
<path class="st90" d="M240.4,362.5c-0.4,0.5-0.3,1.4,0.2,1.8c0.5,0.4,1.4,0.3,1.8-0.2c0.4-0.5,0.3-1.4-0.2-1.8
	C241.7,361.9,240.9,362,240.4,362.5z"/>
<path class="st90" d="M216.7,373c-0.4,0.5-0.3,1.4,0.2,1.8c0.6,0.4,1.4,0.3,1.8-0.2c0.4-0.5,0.3-1.4-0.2-1.8
	C218,372.4,217.2,372.5,216.7,373z"/>
<path class="st90" d="M204.5,327.7c-0.4,0.5-0.3,1.4,0.2,1.8c0.5,0.4,1.4,0.3,1.8-0.2c0.4-0.5,0.3-1.4-0.2-1.8
	C205.8,327.1,205,327.2,204.5,327.7z"/>
<path class="st90" d="M232.4,344c-0.4,0.5-0.3,1.4,0.2,1.8c0.5,0.4,1.4,0.3,1.8-0.2c0.4-0.5,0.3-1.4-0.2-1.8
	C233.7,343.3,232.9,343.4,232.4,344z"/>
<path class="st90" d="M216.7,373c-0.4,0.5-0.3,1.4,0.2,1.8c0.6,0.4,1.4,0.3,1.8-0.2c0.4-0.5,0.3-1.4-0.2-1.8
	C218,372.4,217.2,372.5,216.7,373z"/>
<path class="st90" d="M147.3,364.6c-0.4,0.6-0.3,1.4,0.2,1.8c0.5,0.4,1.4,0.3,1.8-0.2c0.4-0.5,0.3-1.4-0.2-1.8
	C148.5,364,147.7,364.1,147.3,364.6z"/>
<path class="st90" d="M154.2,386c-0.4,0.5-0.3,1.4,0.2,1.8c0.5,0.4,1.4,0.3,1.8-0.2c0.4-0.5,0.3-1.4-0.2-1.8
	C155.5,385.3,154.7,385.4,154.2,386z"/>
<path class="st90" d="M219.6,496.5c-0.4,0.5-0.3,1.4,0.2,1.8c0.6,0.4,1.4,0.3,1.8-0.2c0.4-0.5,0.3-1.4-0.2-1.8
	C220.8,495.8,220,495.9,219.6,496.5z"/>
<path class="st90" d="M282.2,492.7c-0.4,0.5-0.3,1.4,0.2,1.8c0.5,0.4,1.4,0.3,1.8-0.2c0.4-0.5,0.3-1.4-0.2-1.8
	C283.4,492.1,282.6,492.2,282.2,492.7z"/>
<path class="st90" d="M282.2,492.7c-0.4,0.5-0.3,1.4,0.2,1.8c0.5,0.4,1.4,0.3,1.8-0.2c0.4-0.5,0.3-1.4-0.2-1.8
	C283.4,492.1,282.6,492.2,282.2,492.7z"/>
<path class="st90" d="M297,438.3c-0.4,0.5-0.3,1.4,0.2,1.8c0.5,0.4,1.4,0.3,1.8-0.2c0.4-0.5,0.3-1.4-0.2-1.8
	C298.2,437.7,297.4,437.8,297,438.3z"/>
<path class="st90" d="M287.9,492.8c-0.4,0.6-0.3,1.4,0.2,1.8c0.5,0.4,1.4,0.3,1.8-0.2c0.4-0.5,0.3-1.4-0.2-1.8
	C289.1,492.2,288.3,492.3,287.9,492.8z"/>
<path class="st90" d="M282.2,492.7c-0.4,0.5-0.3,1.4,0.2,1.8c0.5,0.4,1.4,0.3,1.8-0.2c0.4-0.5,0.3-1.4-0.2-1.8
	C283.4,492.1,282.6,492.2,282.2,492.7z"/>
<path class="st90" d="M219.6,496.5c-0.4,0.5-0.3,1.4,0.2,1.8c0.6,0.4,1.4,0.3,1.8-0.2c0.4-0.5,0.3-1.4-0.2-1.8
	C220.8,495.8,220,495.9,219.6,496.5z"/>
<path class="st90" d="M221.1,475.9c-0.4,0.5-0.3,1.4,0.2,1.8c0.5,0.4,1.4,0.3,1.8-0.2c0.4-0.5,0.3-1.4-0.2-1.8
	C222.3,475.3,221.5,475.4,221.1,475.9z"/>
<path class="st90" d="M186.7,468c-0.4,0.5-0.3,1.4,0.2,1.8c0.6,0.4,1.4,0.3,1.8-0.2c0.4-0.5,0.3-1.4-0.2-1.8
	C187.9,467.4,187.1,467.5,186.7,468z"/>
<path class="st90" d="M218.4,451.4c-0.4,0.5-0.3,1.4,0.2,1.8c0.5,0.4,1.4,0.3,1.8-0.2c0.4-0.5,0.3-1.4-0.2-1.8
	S218.8,450.9,218.4,451.4z"/>
<path class="st90" d="M289.1,367.4c-0.4,0.5-0.3,1.4,0.2,1.8c0.5,0.4,1.4,0.3,1.8-0.2c0.4-0.5,0.3-1.4-0.2-1.8
	C290.3,366.8,289.5,366.9,289.1,367.4z"/>
<path class="st90" d="M256.7,383.5c-0.4,0.5-0.3,1.4,0.2,1.8c0.5,0.4,1.4,0.3,1.8-0.2c0.4-0.5,0.3-1.4-0.2-1.8
	C258,382.8,257.1,383,256.7,383.5z"/>
<path class="st90" d="M289.5,406.5c-0.4,0.5-0.3,1.4,0.2,1.8c0.5,0.4,1.4,0.3,1.8-0.2c0.4-0.5,0.3-1.4-0.2-1.8
	C290.8,405.8,289.9,405.9,289.5,406.5z"/>
<path class="st90" d="M289.1,367.4c-0.4,0.5-0.3,1.4,0.2,1.8c0.5,0.4,1.4,0.3,1.8-0.2c0.4-0.5,0.3-1.4-0.2-1.8
	C290.3,366.8,289.5,366.9,289.1,367.4z"/>
<path class="st90" d="M255.9,336.2c-0.4,0.5-0.3,1.4,0.2,1.8c0.5,0.4,1.4,0.3,1.8-0.2c0.4-0.5,0.3-1.4-0.2-1.8
	C257.1,335.5,256.3,335.6,255.9,336.2z"/>
<path class="st90" d="M257.1,334.6c-0.4,0.5-0.3,1.4,0.2,1.8c0.5,0.4,1.4,0.3,1.8-0.2c0.4-0.5,0.3-1.4-0.2-1.8
	C258.3,333.9,257.5,334,257.1,334.6z"/>
<path class="st90" d="M78.6,468.3c-0.4,0.6-0.3,1.4,0.2,1.8c0.5,0.4,1.4,0.3,1.8-0.2c0.4-0.5,0.3-1.4-0.2-1.8
	C79.9,467.7,79.1,467.8,78.6,468.3z"/>
<path class="st90" d="M106.5,477.7c-0.4,0.5-0.3,1.4,0.2,1.8c0.5,0.4,1.4,0.3,1.8-0.2c0.4-0.5,0.3-1.4-0.2-1.8
	C107.7,477,106.9,477.1,106.5,477.7z"/>
<path class="st90" d="M23.6,163.9c-0.4,0.5-0.3,1.4,0.2,1.8c0.5,0.4,1.4,0.3,1.8-0.2c0.4-0.5,0.3-1.4-0.2-1.8
	C24.8,163.2,24.1,163.3,23.6,163.9z"/>
<path class="st90" d="M12,132.8c-0.4,0.5-0.3,1.4,0.2,1.8c0.5,0.4,1.4,0.3,1.8-0.2c0.4-0.5,0.3-1.4-0.2-1.8
	C13.2,132.1,12.4,132.2,12,132.8z"/>
<path class="st90" d="M46.5,158.2c-0.4,0.5-0.3,1.4,0.2,1.8c0.5,0.4,1.4,0.3,1.8-0.2c0.4-0.6,0.3-1.4-0.2-1.8
	C47.8,157.5,46.9,157.6,46.5,158.2z"/>
<path class="st90" d="M23.6,163.9c-0.4,0.5-0.3,1.4,0.2,1.8c0.5,0.4,1.4,0.3,1.8-0.2c0.4-0.5,0.3-1.4-0.2-1.8
	C24.8,163.2,24.1,163.3,23.6,163.9z"/>
<path class="st90" d="M12,132.8c-0.4,0.5-0.3,1.4,0.2,1.8c0.5,0.4,1.4,0.3,1.8-0.2c0.4-0.5,0.3-1.4-0.2-1.8
	C13.2,132.1,12.4,132.2,12,132.8z"/>
<path class="st90" d="M19.7,169.9c-0.4,0.5-0.3,1.4,0.2,1.8c0.5,0.4,1.4,0.3,1.8-0.2c0.4-0.5,0.3-1.4-0.2-1.8
	C20.9,169.2,20.1,169.3,19.7,169.9z"/>
<path class="st90" d="M311.3,486.4c-0.4,0.5-0.3,1.4,0.2,1.8c0.5,0.4,1.4,0.3,1.8-0.2c0.4-0.5,0.3-1.4-0.2-1.8
	C312.6,485.8,311.8,485.8,311.3,486.4z"/>
<path class="st90" d="M311.3,486.4c-0.4,0.5-0.3,1.4,0.2,1.8c0.5,0.4,1.4,0.3,1.8-0.2c0.4-0.5,0.3-1.4-0.2-1.8
	C312.6,485.8,311.8,485.8,311.3,486.4z"/>
<path class="st90" d="M287.9,492.8c-0.4,0.6-0.3,1.4,0.2,1.8c0.5,0.4,1.4,0.3,1.8-0.2c0.4-0.5,0.3-1.4-0.2-1.8
	C289.1,492.2,288.3,492.3,287.9,492.8z"/>
<path class="st90" d="M91.3,325.4c-0.4,0.5-0.3,1.4,0.2,1.8c0.5,0.4,1.4,0.3,1.8-0.2c0.4-0.5,0.3-1.4-0.2-1.8
	C92.5,324.8,91.7,324.9,91.3,325.4z"/>
<path class="st90" d="M81.6,323c-0.4,0.5-0.3,1.4,0.2,1.8c0.5,0.4,1.4,0.3,1.8-0.2c0.4-0.5,0.3-1.4-0.2-1.8
	C82.8,322.3,82.1,322.4,81.6,323z"/>
<path class="st90" d="M101.2,319.7c-0.4,0.5-0.3,1.4,0.2,1.8c0.5,0.4,1.4,0.3,1.8-0.2c0.4-0.5,0.3-1.4-0.2-1.8
	C102.4,319.1,101.6,319.2,101.2,319.7z"/>
<path class="st90" d="M91.3,325.4c-0.4,0.5-0.3,1.4,0.2,1.8c0.5,0.4,1.4,0.3,1.8-0.2c0.4-0.5,0.3-1.4-0.2-1.8
	C92.5,324.8,91.7,324.9,91.3,325.4z"/>
<path class="st90" d="M101.2,319.7c-0.4,0.5-0.3,1.4,0.2,1.8c0.5,0.4,1.4,0.3,1.8-0.2c0.4-0.5,0.3-1.4-0.2-1.8
	C102.4,319.1,101.6,319.2,101.2,319.7z"/>
<path class="st90" d="M147.3,364.6c-0.4,0.6-0.3,1.4,0.2,1.8c0.5,0.4,1.4,0.3,1.8-0.2c0.4-0.5,0.3-1.4-0.2-1.8
	C148.5,364,147.7,364.1,147.3,364.6z"/>
</svg>
