<svg width="64" height="64" viewBox="0 0 64 64" fill="none" xmlns="http://www.w3.org/2000/svg">
<path d="M13.1002 21.2C13.5973 21.2 14.0002 21.603 14.0002 22.1C14.0002 22.5971 13.5973 23 13.1002 23C12.6031 23 12.2002 22.5971 12.2002 22.1C12.2002 21.603 12.6031 21.2 13.1002 21.2" stroke="white" stroke-width="2" stroke-linecap="round" stroke-linejoin="round"/>
<path d="M43.6998 33.8C44.1969 33.8 44.5998 34.2029 44.5998 34.7C44.5998 35.197 44.1969 35.6 43.6998 35.6C43.2027 35.6 42.7998 35.197 42.7998 34.7C42.7998 34.2029 43.2027 33.8 43.6998 33.8" stroke="white" stroke-width="2" stroke-linecap="round" stroke-linejoin="round"/>
<rect x="5" y="14" width="46.8" height="28.8" rx="1.5" stroke="white" stroke-width="2" stroke-linecap="round" stroke-linejoin="round"/>
<path fill-rule="evenodd" clip-rule="evenodd" d="M28.4002 35.6C32.3766 35.6 35.6002 32.3765 35.6002 28.4C35.6002 24.4236 32.3766 21.2 28.4002 21.2C24.4237 21.2 21.2002 24.4236 21.2002 28.4C21.2002 32.3765 24.4237 35.6 28.4002 35.6Z" stroke="white" stroke-width="2" stroke-linecap="round" stroke-linejoin="round"/>
<path d="M58.9998 24.8V46.4C58.9998 48.3882 57.388 50 55.3998 50H15.7998" stroke="white" stroke-width="2" stroke-linecap="round" stroke-linejoin="round"/>
</svg>
