<svg width="64" height="64" viewBox="0 0 64 64" fill="none" xmlns="http://www.w3.org/2000/svg">
<path d="M43 10.6667H48.3333C49.7478 10.6667 51.1044 11.2286 52.1046 12.2288C53.1048 13.2289 53.6667 14.5855 53.6667 16V39.0002M21.6667 10.6667H16.3333C14.9188 10.6667 13.5623 11.2286 12.5621 12.2288C11.5619 13.2289 11 14.5855 11 16V53.3333C11 54.7478 11.5619 56.1044 12.5621 57.1046C13.5623 58.1048 14.9188 58.6667 16.3333 58.6667H34" stroke="#022342" stroke-width="2" stroke-linecap="round" stroke-linejoin="round"/>
<path d="M39.9997 5.33334H23.9997C22.5269 5.33334 21.333 6.52725 21.333 8.00001V13.3333C21.333 14.8061 22.5269 16 23.9997 16H39.9997C41.4724 16 42.6663 14.8061 42.6663 13.3333V8.00001C42.6663 6.52725 41.4724 5.33334 39.9997 5.33334Z" stroke="#022342" stroke-width="2" stroke-linecap="round" stroke-linejoin="round"/>
<path d="M32 47H21" stroke="#022342" stroke-width="2" stroke-linecap="round" stroke-linejoin="round"/>
<path d="M39 39H21" stroke="#022342" stroke-width="2" stroke-linecap="round" stroke-linejoin="round"/>
<path d="M42.3333 30H21" stroke="#022342" stroke-width="2" stroke-linecap="round" stroke-linejoin="round"/>
<path d="M45.6667 61.3333C51.5577 61.3333 56.3333 56.5577 56.3333 50.6667C56.3333 44.7756 51.5577 40 45.6667 40C39.7756 40 35 44.7756 35 50.6667C35 56.5577 39.7756 61.3333 45.6667 61.3333Z" stroke="#2F2F2F" stroke-width="2" stroke-linecap="round" stroke-linejoin="round"/>
<path d="M48.8668 47.4656L42.4668 53.8656" stroke="#2F2F2F" stroke-width="2" stroke-linecap="round" stroke-linejoin="round"/>
<path d="M42.4668 47.4656L48.8668 53.8656" stroke="#2F2F2F" stroke-width="2" stroke-linecap="round" stroke-linejoin="round"/>
</svg>
