<svg width="104" height="104" viewBox="0 0 104 104" fill="none" xmlns="http://www.w3.org/2000/svg">
<path d="M50.4928 70.8568C60.5286 70.8568 68.6643 59.9581 68.6643 46.5138C68.6643 33.0696 60.5286 22.1709 50.4928 22.1709C40.4569 22.1709 32.3213 33.0696 32.3213 46.5138C32.3213 59.9581 40.4569 70.8568 50.4928 70.8568Z" stroke="black" stroke-width="4" stroke-miterlimit="10" stroke-linecap="round" stroke-linejoin="round"/>
<path d="M59.064 68.4568C59.064 68.4568 62.4925 75.314 67.6354 76.3425C72.7783 77.3711 87.864 84.5711 89.5783 99.9997" stroke="black" stroke-width="4" stroke-miterlimit="10" stroke-linecap="round" stroke-linejoin="round"/>
<path d="M41.921 68.4568C41.921 68.4568 38.4925 75.314 33.3496 76.3425C28.2067 77.3711 13.1209 84.5711 11.7495 99.9997" stroke="black" stroke-width="4" stroke-miterlimit="10" stroke-linecap="round" stroke-linejoin="round"/>
<path d="M2.83545 44.8H99.8643" stroke="black" stroke-width="4" stroke-miterlimit="10" stroke-linecap="round" stroke-linejoin="round"/>
<path d="M4.20703 17.7143V7.42858C4.20703 5.37143 5.92132 4 7.63561 4H18.2642" stroke="black" stroke-width="4" stroke-miterlimit="10" stroke-linecap="round" stroke-linejoin="round"/>
<path d="M16.5499 74.6286H7.63561C5.57846 74.6286 4.20703 72.9144 4.20703 71.2001V59.8857" stroke="black" stroke-width="4" stroke-miterlimit="10" stroke-linecap="round" stroke-linejoin="round"/>
<path d="M99.8647 60.229V71.5433C99.8647 73.6005 98.1504 74.9719 96.4361 74.9719H86.1504" stroke="black" stroke-width="4" stroke-miterlimit="10" stroke-linecap="round" stroke-linejoin="round"/>
<path d="M84.7788 4H96.436C98.4931 4 99.8646 5.71429 99.8646 7.42858V18.4" stroke="black" stroke-width="4" stroke-miterlimit="10" stroke-linecap="round" stroke-linejoin="round"/>
</svg>
