<svg width="64" height="64" viewBox="0 0 64 64" fill="none" xmlns="http://www.w3.org/2000/svg">
<path d="M37.3337 5.33334H16.0003C14.5858 5.33334 13.2293 5.89525 12.2291 6.89544C11.2289 7.89563 10.667 9.25219 10.667 10.6667V53.3333C10.667 54.7478 11.2289 56.1044 12.2291 57.1046C13.2293 58.1048 14.5858 58.6667 16.0003 58.6667H48.0003C49.4148 58.6667 50.7714 58.1048 51.7716 57.1046C52.7718 56.1044 53.3337 54.7478 53.3337 53.3333V21.3333L37.3337 5.33334Z" stroke="white" stroke-width="2" stroke-linecap="round" stroke-linejoin="round"/>
<path d="M37.333 5.33334V21.3333H53.333" stroke="white" stroke-width="2" stroke-linecap="round" stroke-linejoin="round"/>
<path d="M42.6663 34.6667H21.333" stroke="white" stroke-width="2" stroke-linecap="round" stroke-linejoin="round"/>
<path d="M42.6663 45.3335H21.333" stroke="white" stroke-width="2" stroke-linecap="round" stroke-linejoin="round"/>
<path d="M26.6663 24H23.9997H21.333" stroke="white" stroke-width="2" stroke-linecap="round" stroke-linejoin="round"/>
</svg>
