<svg width="16" height="16" viewBox="0 0 16 16" fill="none" xmlns="http://www.w3.org/2000/svg">
<path fill-rule="evenodd" clip-rule="evenodd" d="M8 2.5C4.96243 2.5 2.5 4.96243 2.5 8C2.5 11.0376 4.96243 13.5 8 13.5C11.0376 13.5 13.5 11.0376 13.5 8C13.5 4.96243 11.0376 2.5 8 2.5ZM1.5 8C1.5 4.41015 4.41015 1.5 8 1.5C11.5899 1.5 14.5 4.41015 14.5 8C14.5 11.5899 11.5899 14.5 8 14.5C4.41015 14.5 1.5 11.5899 1.5 8Z" fill="#161618"/>
<path fill-rule="evenodd" clip-rule="evenodd" d="M11.359 5.65193C11.5512 5.85017 11.5463 6.16672 11.3481 6.35895L7.22307 10.359C7.02913 10.547 6.72087 10.547 6.52693 10.359L4.65193 8.54077C4.45368 8.34853 4.44881 8.03199 4.64105 7.83375C4.83329 7.6355 5.14983 7.63063 5.34807 7.82287L6.875 9.30352L10.6519 5.64105C10.8502 5.44881 11.1667 5.45368 11.359 5.65193Z" fill="#161618"/>
</svg>
