<svg width="24" height="24" viewBox="0 0 24 24" fill="none" xmlns="http://www.w3.org/2000/svg">
<path fill-rule="evenodd" clip-rule="evenodd" d="M6.41553 6.88769C6.41553 4.95192 7.7753 3.5 9.31726 3.5C10.8592 3.5 12.219 4.95192 12.219 6.88769C12.219 8.82346 10.8592 10.2754 9.31726 10.2754C7.7753 10.2754 6.41553 8.82346 6.41553 6.88769ZM9.31726 2.5C7.10176 2.5 5.41553 4.52924 5.41553 6.88769C5.41553 9.24614 7.10176 11.2754 9.31726 11.2754C11.5327 11.2754 13.219 9.24614 13.219 6.88769C13.219 4.52924 11.5327 2.5 9.31726 2.5ZM11.5 16.5C11.5 15.422 11.8412 14.4237 12.4214 13.6071C11.5916 13.3593 10.6932 13.2192 9.80346 13.2192C8.2182 13.2192 6.60544 13.6638 5.40248 14.3704C4.17826 15.0894 3.5 15.9986 3.5 16.8847V18.0507H11.7451C11.586 17.5625 11.5 17.0413 11.5 16.5ZM16.5 11.5C15.2098 11.5 14.0336 11.9887 13.1467 12.7911C12.1022 12.4259 10.9456 12.2192 9.80346 12.2192C8.04876 12.2192 6.25979 12.7071 4.89602 13.5081C3.5535 14.2967 2.5 15.4703 2.5 16.8847V18.5507L3 19.0507H12.1987C13.0702 20.5172 14.6703 21.5 16.5 21.5C19.2614 21.5 21.5 19.2614 21.5 16.5C21.5 13.7386 19.2614 11.5 16.5 11.5ZM15.8534 18.8536L19.3534 15.3536L18.6463 14.6465L15.5007 17.7921L14.3543 16.6402L13.6455 17.3457L15.1455 18.8527L15.8534 18.8536Z" fill="#797C7F"/>
</svg>
