<svg width="24" height="24" viewBox="0 0 24 24" fill="none" xmlns="http://www.w3.org/2000/svg">
<path d="M11.8 15.5498C9.7 15.5498 8 13.8498 8 11.7498C8 9.7498 9.7 8.0498 11.8 8.0498C13.9 8.0498 15.6 9.7498 15.6 11.8498C15.5 13.8498 13.8 15.5498 11.8 15.5498ZM11.8 9.5498C10.6 9.5498 9.6 10.5498 9.6 11.7498C9.6 12.9498 10.6 13.9498 11.8 13.9498C13 13.9498 14 12.9498 14 11.7498C14 10.5498 13 9.5498 11.8 9.5498Z" fill="black"/>
<path d="M11.8 22.55C11.1 22.55 10.5 22.25 10 21.75C9.5 21.25 9.2 20.65 9.2 19.95C9.2 19.75 9.1 19.55 9.1 19.45C9 19.35 8.9 19.25 8.7 19.15C8.5 19.05 8.4 19.05 8.2 19.05C8.1 19.05 7.9 19.15 7.8 19.25C7.5 19.55 7.2 19.75 6.9 19.85C6.3 20.15 5.6 20.15 4.9 19.85C4.6 19.75 4.3 19.55 4.1 19.25C3.9 19.05 3.7 18.75 3.5 18.45C3.4 18.15 3.3 17.85 3.3 17.45C3.3 17.05 3.4 16.75 3.5 16.45C3.6 16.15 3.8 15.85 4.1 15.65C4.3 15.45 4.3 15.35 4.4 15.25C4.4 15.15 4.4 14.95 4.3 14.85C4.2 14.75 4.1 14.55 4 14.55C3.9 14.45 3.7 14.45 3.6 14.45C2.9 14.45 2.3 14.15 1.8 13.65C1.3 13.15 1 12.55 1 11.85C1 11.15 1.3 10.55 1.8 10.05C2.3 9.55 2.9 9.25 3.6 9.25C3.8 9.25 4 9.15 4.1 9.15C4.2 9.15 4.3 8.95 4.4 8.75C4.5 8.55 4.5 8.45 4.5 8.25C4.5 8.15 4.4 7.95 4.3 7.85C3.9 7.65 3.7 7.35 3.6 7.05C3.5 6.75 3.4 6.35 3.4 6.05C3.4 5.75 3.5 5.35 3.6 5.05C3.7 4.75 3.9 4.45 4.2 4.25C4.4 3.95 4.7 3.85 5 3.65C5.6 3.35 6.3 3.35 7 3.65C7.3 3.75 7.6 3.95 7.8 4.25C8 4.45 8.1 4.45 8.2 4.55C8.4 4.55 8.5 4.55 8.6 4.45C8.7 4.45 8.7 4.45 8.8 4.35C8.9 4.35 9 4.25 9.1 4.15C9.1 4.05 9.2 3.85 9.2 3.75V3.55C9.2 2.85 9.5 2.25 10 1.75C11 0.75 12.7 0.75 13.6 1.75C14.1 2.25 14.4 2.85 14.4 3.55C14.4 3.75 14.4 3.95 14.5 4.05C14.6 4.15 14.7 4.25 14.8 4.35C14.9 4.45 15.1 4.45 15.2 4.45C15.3 4.45 15.5 4.35 15.6 4.25C15.9 3.95 16.2 3.75 16.5 3.65C17.1 3.35 17.8 3.35 18.5 3.65C18.8 3.75 19.1 3.95 19.3 4.25C19.5 4.45 19.7 4.75 19.9 5.05C20 5.35 20 5.65 20 5.95C20 6.25 19.9 6.65 19.8 6.95C19.7 7.25 19.5 7.55 19.2 7.75C19.1 7.95 19.1 8.05 19 8.25C19 8.35 19 8.55 19.1 8.65C19.1 8.75 19.1 8.75 19.2 8.85C19.2 8.95 19.3 9.05 19.4 9.05C19.5 9.15 19.7 9.15 19.8 9.15H20C20.7 9.15 21.3 9.45 21.8 9.95C22.3 10.45 22.6 11.05 22.6 11.75C22.6 12.45 22.3 13.05 21.8 13.55C21.3 14.05 20.7 14.35 20 14.35C19.8 14.35 19.6 14.35 19.5 14.45C19.4 14.55 19.3 14.65 19.2 14.75C19.1 14.85 19.1 15.05 19.1 15.15C19.1 15.25 19.2 15.45 19.3 15.55C19.6 15.85 19.8 16.15 19.9 16.45C20 16.75 20.1 17.05 20.1 17.45C20.1 17.85 20 18.15 19.9 18.45C19.8 18.75 19.6 19.05 19.3 19.25C19.1 19.45 18.8 19.65 18.5 19.85C17.9 20.15 17.2 20.15 16.5 19.85C16.2 19.75 15.9 19.55 15.7 19.25C15.5 19.05 15.4 19.05 15.3 19.05C15.2 19.05 15 19.05 14.9 19.15C14.8 19.25 14.6 19.35 14.6 19.45C14.5 19.55 14.5 19.75 14.5 19.85V19.95C14.5 20.65 14.2 21.25 13.7 21.75C13.2 22.25 12.5 22.55 11.8 22.55ZM8.4 17.65C8.7 17.65 9 17.75 9.3 17.85C9.7 17.95 10 18.25 10.3 18.65C10.6 19.05 10.7 19.45 10.7 19.95C10.7 20.35 10.8 20.65 11 20.85C11.4 21.25 12.1 21.25 12.5 20.85C12.7 20.65 12.8 20.35 12.8 20.05V19.85C12.8 19.45 12.9 18.95 13.2 18.65C13.4 18.25 13.8 17.95 14.2 17.85C14.6 17.65 15.1 17.65 15.5 17.65C15.9 17.75 16.3 17.95 16.7 18.25C16.9 18.45 17 18.45 17.1 18.55C17.4 18.65 17.7 18.65 17.9 18.55C18 18.45 18.1 18.45 18.2 18.35C18.3 18.25 18.4 18.15 18.4 18.05C18.5 17.95 18.5 17.75 18.5 17.65C18.5 17.55 18.5 17.35 18.4 17.25C18.3 17.15 18.3 17.05 18.2 16.95C17.8 16.55 17.6 16.15 17.5 15.75C17.4 15.35 17.5 14.85 17.7 14.45C17.9 14.05 18.2 13.75 18.5 13.45C18.9 13.25 19.3 13.05 19.7 13.05C20.1 13.05 20.3 12.95 20.5 12.75C20.7 12.55 20.8 12.25 20.8 11.95C20.8 11.65 20.7 11.35 20.5 11.15C20.3 10.95 20 10.85 19.7 10.85H19.5C19.1 10.85 18.6 10.75 18.3 10.45C17.9 10.25 17.6 9.85 17.5 9.45C17.5 9.35 17.5 9.35 17.4 9.25C17.3 8.85 17.2 8.45 17.3 8.05C17.4 7.65 17.6 7.25 17.9 6.85C18.1 6.65 18.1 6.55 18.2 6.45C18.3 6.35 18.3 6.15 18.3 6.05C18.3 5.95 18.3 5.75 18.2 5.65C18.1 5.55 18.1 5.45 18 5.35C18.1 5.15 18 5.05 17.9 4.95C17.6 4.85 17.3 4.85 17.1 4.95C17 5.05 16.9 5.05 16.8 5.15C16.4 5.55 16 5.75 15.6 5.85C15.2 5.95 14.7 5.85 14.3 5.65C13.9 5.45 13.6 5.15 13.3 4.85C13.1 4.45 12.9 4.05 12.9 3.65C12.9 3.25 12.8 3.05 12.6 2.85C12.2 2.45 11.5 2.45 11.1 2.85C10.8 3.05 10.7 3.35 10.7 3.55V3.75C10.7 4.15 10.6 4.65 10.3 4.95C10.1 5.35 9.7 5.65 9.3 5.75C9.2 5.75 9.2 5.75 9.1 5.85C8.7 5.95 8.3 6.05 7.9 5.95C7.5 5.85 7.1 5.65 6.8 5.35C6.6 5.15 6.5 5.15 6.4 5.05C6.1 4.95 5.8 4.95 5.5 5.05C5.4 5.15 5.3 5.15 5.2 5.25C5.1 5.35 5 5.55 5 5.65C4.9 5.75 4.9 5.95 4.9 6.05C4.9 6.15 4.9 6.35 5 6.45C5 6.55 5.1 6.75 5.2 6.85C5.6 7.15 5.8 7.55 5.9 8.05C6 8.45 5.9 8.95 5.7 9.35C5.6 9.75 5.3 10.05 4.9 10.35C4.6 10.65 4.1 10.75 3.7 10.75C3.3 10.75 3 10.85 2.8 11.05C2.6 11.25 2.5 11.55 2.5 11.85C2.5 12.15 2.6 12.45 2.8 12.65C3 12.85 3.3 12.95 3.6 12.95H3.8C4.2 12.95 4.7 13.05 5 13.35C5.4 13.55 5.6 13.95 5.8 14.35C6 14.65 6 15.15 5.9 15.55C5.8 15.95 5.6 16.45 5.3 16.75C5.2 16.95 5.1 17.05 5 17.15C5 17.25 5 17.45 5 17.55C5 17.65 5 17.85 5.1 17.95C5.2 18.05 5.2 18.15 5.3 18.25C5.4 18.35 5.5 18.45 5.6 18.45C5.9 18.55 6.2 18.55 6.4 18.45C6.5 18.35 6.6 18.35 6.7 18.25C7.1 17.85 7.5 17.65 7.9 17.55C8.2 17.65 8.3 17.65 8.4 17.65Z" fill="black"/>
</svg>
