<svg width="80" height="80" viewBox="0 0 80 80" fill="none" xmlns="http://www.w3.org/2000/svg">
<path d="M42.5 33C50.5081 33 57 26.5081 57 18.5C57 10.4919 50.5081 4 42.5 4C34.4919 4 28 10.4919 28 18.5C28 26.5081 34.4919 33 42.5 33Z" fill="#C1A6B0"/>
<path d="M13 64.6003C14.0976 48.8686 26.9024 36.4296 43 36.4296C58.7317 36.4296 71.9024 48.5027 73 64.2344L13 64.6003Z" fill="#C1A6B0"/>
<path d="M31 62.5C31 69.4036 25.4036 75 18.5 75C11.5964 75 6 69.4036 6 62.5C6 55.5964 11.5964 50 18.5 50C25.4036 50 31 55.5964 31 62.5Z" fill="#89455E"/>
<path fill-rule="evenodd" clip-rule="evenodd" d="M18.5 51C12.1487 51 7 56.1487 7 62.5C7 68.8513 12.1487 74 18.5 74C24.8513 74 30 68.8513 30 62.5C30 56.1487 24.8513 51 18.5 51ZM5 62.5C5 55.0442 11.0442 49 18.5 49C25.9558 49 32 55.0442 32 62.5C32 69.9558 25.9558 76 18.5 76C11.0442 76 5 69.9558 5 62.5Z" fill="#E6DBDF"/>
<path fill-rule="evenodd" clip-rule="evenodd" d="M18.667 56.1246C19.2193 56.1246 19.667 56.5723 19.667 57.1246V68.208C19.667 68.7602 19.2193 69.208 18.667 69.208C18.1147 69.208 17.667 68.7602 17.667 68.208V57.1246C17.667 56.5723 18.1147 56.1246 18.667 56.1246Z" fill="white"/>
<path fill-rule="evenodd" clip-rule="evenodd" d="M25.209 62.6666C25.209 63.2189 24.7613 63.6666 24.209 63.6666L13.1257 63.6666C12.5734 63.6666 12.1257 63.2189 12.1257 62.6666C12.1257 62.1143 12.5734 61.6666 13.1257 61.6666L24.209 61.6666C24.7613 61.6666 25.209 62.1143 25.209 62.6666Z" fill="white"/>
</svg>
