<svg width="24" height="24" viewBox="0 0 24 24" fill="none" xmlns="http://www.w3.org/2000/svg">
<path d="M24 6C24 2.68629 21.3137 0 18 0H6C2.68629 0 0 2.68629 0 6V18C0 21.3137 2.68629 24 6 24H18C21.3137 24 24 21.3137 24 18V6Z" fill="#E6DBDF"/>
<path fill-rule="evenodd" clip-rule="evenodd" d="M12 6.24988C12.4142 6.24988 12.75 6.58566 12.75 6.99988V16.9999C12.75 17.4141 12.4142 17.7499 12 17.7499C11.5858 17.7499 11.25 17.4141 11.25 16.9999V6.99988C11.25 6.58566 11.5858 6.24988 12 6.24988Z" fill="#89455E"/>
<path fill-rule="evenodd" clip-rule="evenodd" d="M17.75 12C17.75 12.4142 17.4142 12.75 17 12.75L7 12.75C6.58579 12.75 6.25 12.4142 6.25 12C6.25 11.5858 6.58579 11.25 7 11.25L17 11.25C17.4142 11.25 17.75 11.5858 17.75 12Z" fill="#89455E"/>
</svg>
