<svg width="24" height="24" viewBox="0 0 24 24" fill="none" xmlns="http://www.w3.org/2000/svg">
<path fill-rule="evenodd" clip-rule="evenodd" d="M15.9364 10.1756C16.2259 10.4718 16.2206 10.9466 15.9244 11.2362L11.4244 15.6362C11.1306 15.9235 10.6603 15.9209 10.3698 15.6303L8.06977 13.3303C7.77687 13.0374 7.77687 12.5625 8.06977 12.2696C8.36266 11.9767 8.83753 11.9767 9.13043 12.2696L10.906 14.0452L14.8758 10.1637C15.1719 9.87411 15.6468 9.87945 15.9364 10.1756Z" fill="#C1A6B0"/>
<path fill-rule="evenodd" clip-rule="evenodd" d="M5.5 3.25C5.36193 3.25 5.25 3.36193 5.25 3.5V20.2C5.25 20.3381 5.36193 20.45 5.5 20.45H18.65V6.65H15.9C15.4858 6.65 15.15 6.31421 15.15 5.9V3.25H5.5ZM3.75 3.5C3.75 2.5335 4.5335 1.75 5.5 1.75H15.9C16.3142 1.75 16.65 2.08579 16.65 2.5V5.15H19.4C19.8142 5.15 20.15 5.48579 20.15 5.9V21.2C20.15 21.6142 19.8142 21.95 19.4 21.95H5.5C4.5335 21.95 3.75 21.1665 3.75 20.2V3.5Z" fill="#C1A6B0"/>
<path fill-rule="evenodd" clip-rule="evenodd" d="M15.3619 1.97741C15.6506 1.6803 16.1254 1.67342 16.4225 1.96204L19.9225 5.36204C20.2196 5.65066 20.2265 6.12548 19.9379 6.42259C19.6492 6.7197 19.1744 6.72658 18.8773 6.43796L15.3773 3.03796C15.0802 2.74934 15.0733 2.27452 15.3619 1.97741Z" fill="#C1A6B0"/>
</svg>
