<svg width="16" height="16" viewBox="0 0 16 16" fill="none" xmlns="http://www.w3.org/2000/svg">
<path d="M4.87438 8.99987H3.88574L5.39213 4.63623H6.58105L8.08532 8.99987H7.09668L6.00364 5.63339H5.96955L4.87438 8.99987ZM4.81259 7.28467H7.14782V8.00484H4.81259V7.28467Z" fill="#9D9FA2"/>
<path d="M9.52672 9.06166C9.31792 9.06166 9.13184 9.02543 8.96848 8.95299C8.80513 8.87913 8.67587 8.77046 8.5807 8.627C8.48695 8.48211 8.44007 8.30171 8.44007 8.0858C8.44007 7.90399 8.47346 7.75129 8.54022 7.62771C8.60698 7.50413 8.69789 7.4047 8.81294 7.32941C8.928 7.25413 9.05868 7.19731 9.20499 7.15896C9.35272 7.12061 9.50755 7.09362 9.66948 7.07799C9.85982 7.05811 10.0132 7.03964 10.1297 7.02259C10.2462 7.00413 10.3307 6.97714 10.3833 6.94163C10.4358 6.90612 10.4621 6.85356 10.4621 6.78396V6.77117C10.4621 6.63623 10.4195 6.53183 10.3343 6.45796C10.2504 6.3841 10.1311 6.34717 9.9763 6.34717C9.81294 6.34717 9.68297 6.38339 9.58638 6.45583C9.48979 6.52686 9.42587 6.61634 9.39462 6.7243L8.55513 6.65612C8.59774 6.45725 8.68155 6.28538 8.80655 6.14049C8.93155 5.99418 9.09277 5.88197 9.29022 5.80384C9.48908 5.7243 9.71919 5.68453 9.98056 5.68453C10.1624 5.68453 10.3364 5.70583 10.5026 5.74845C10.6702 5.79106 10.8186 5.85711 10.9479 5.9466C11.0786 6.03609 11.1816 6.15115 11.2568 6.29177C11.3321 6.43097 11.3698 6.59788 11.3698 6.79248V8.99987H10.509V8.54603H10.4834C10.4308 8.6483 10.3605 8.7385 10.2725 8.81663C10.1844 8.89333 10.0786 8.9537 9.95499 8.99774C9.83141 9.04035 9.68865 9.06166 9.52672 9.06166ZM9.78667 8.43524C9.92019 8.43524 10.0381 8.40896 10.1404 8.3564C10.2426 8.30242 10.3229 8.22998 10.3811 8.13907C10.4394 8.04816 10.4685 7.94518 10.4685 7.83012V7.48282C10.4401 7.50129 10.401 7.51833 10.3513 7.53396C10.303 7.54816 10.2483 7.56166 10.1872 7.57444C10.1262 7.5858 10.0651 7.59646 10.004 7.6064C9.94292 7.61492 9.88752 7.62274 9.8378 7.62984C9.73127 7.64546 9.63823 7.67032 9.55868 7.70441C9.47914 7.7385 9.41735 7.78467 9.37331 7.84291C9.32928 7.89972 9.30726 7.97075 9.30726 8.05597C9.30726 8.17955 9.35201 8.27401 9.4415 8.33936C9.5324 8.40328 9.64746 8.43524 9.78667 8.43524Z" fill="#9D9FA2"/>
<path fill-rule="evenodd" clip-rule="evenodd" d="M8 15C11.866 15 15 11.866 15 8C15 4.13401 11.866 1 8 1C4.13401 1 1 4.13401 1 8C1 11.866 4.13401 15 8 15ZM8 16C12.4183 16 16 12.4183 16 8C16 3.58172 12.4183 0 8 0C3.58172 0 0 3.58172 0 8C0 12.4183 3.58172 16 8 16Z" fill="#9D9FA2"/>
<path fill-rule="evenodd" clip-rule="evenodd" d="M3.86328 12.3633C3.86328 12.0871 4.08714 11.8633 4.36328 11.8633H11.636C11.9122 11.8633 12.136 12.0871 12.136 12.3633C12.136 12.6394 11.9122 12.8633 11.636 12.8633H4.36328C4.08714 12.8633 3.86328 12.6394 3.86328 12.3633Z" fill="#9D9FA2"/>
</svg>
