<svg width="24" height="24" viewBox="0 0 24 24" fill="none" xmlns="http://www.w3.org/2000/svg">
<path fill-rule="evenodd" clip-rule="evenodd" d="M2 3.5L1.5 4V20.0001L2 20.5001H22.0001L22.5001 20.0001V4L22.0001 3.5H2ZM2.5 19.5001V4.5H21.5001V19.5001H2.5ZM13 10.5H19V9.49997H13V10.5ZM17 14.5H13V13.5H17V14.5ZM9.875 9.70836C9.875 10.859 9.03553 11.7917 8 11.7917C6.96447 11.7917 6.125 10.859 6.125 9.70836C6.125 8.55777 6.96447 7.62503 8 7.62503C9.03553 7.62503 9.875 8.55777 9.875 9.70836ZM8 13C6.15905 13 4.25 14.026 4.25 15.2917V16.2083H11.75V15.2917C11.75 14.026 9.84095 13 8 13Z" fill="#797C7F"/>
</svg>
