<svg width="16" height="16" viewBox="0 0 16 16" fill="none" xmlns="http://www.w3.org/2000/svg">
<path fill-rule="evenodd" clip-rule="evenodd" d="M1.25 8C1.25 7.58579 1.58579 7.25 2 7.25H14C14.4142 7.25 14.75 7.58579 14.75 8C14.75 8.41421 14.4142 8.75 14 8.75H2C1.58579 8.75 1.25 8.41421 1.25 8Z" fill="#161618"/>
<path fill-rule="evenodd" clip-rule="evenodd" d="M7.46967 1.46967C7.76256 1.17678 8.23744 1.17678 8.53033 1.46967L14.5303 7.46967C14.8232 7.76256 14.8232 8.23744 14.5303 8.53033L8.53033 14.5303C8.23744 14.8232 7.76256 14.8232 7.46967 14.5303C7.17678 14.2374 7.17678 13.7626 7.46967 13.4697L12.9393 8L7.46967 2.53033C7.17678 2.23744 7.17678 1.76256 7.46967 1.46967Z" fill="#161618"/>
</svg>
