<svg width="14" height="14" viewBox="0 0 14 14" fill="none" xmlns="http://www.w3.org/2000/svg">
<path fill-rule="evenodd" clip-rule="evenodd" d="M4.70513 0.75C4.70513 0.335786 4.36934 0 3.95513 0C3.54091 0 3.20513 0.335786 3.20513 0.75V1.28205H2.25C1.00736 1.28205 0 2.28941 0 3.53205V10.7885C0 12.0311 1.00736 13.0385 2.25 13.0385H10.7885C12.0311 13.0385 13.0385 12.0311 13.0385 10.7885V3.53205C13.0385 2.28941 12.0311 1.28205 10.7885 1.28205H9.83333V0.75C9.83333 0.335786 9.49755 0 9.08333 0C8.66912 0 8.33333 0.335786 8.33333 0.75V1.28205H4.70513V0.75ZM8.33333 3.3141V2.78205H4.70513V3.3141C4.70513 3.72832 4.36934 4.0641 3.95513 4.0641C3.54091 4.0641 3.20513 3.72832 3.20513 3.3141V2.78205H2.25C1.83579 2.78205 1.5 3.11784 1.5 3.53205V4.48718H11.5385V3.53205C11.5385 3.11784 11.2027 2.78205 10.7885 2.78205H9.83333V3.3141C9.83333 3.72832 9.49755 4.0641 9.08333 4.0641C8.66912 4.0641 8.33333 3.72832 8.33333 3.3141ZM11.5385 5.98718H1.5V10.7885C1.5 11.2027 1.83579 11.5385 2.25 11.5385H10.7885C11.2027 11.5385 11.5385 11.2027 11.5385 10.7885V5.98718Z" fill="#161618"/>
</svg>
