<svg width="48" height="48" viewBox="0 0 48 48" fill="none" xmlns="http://www.w3.org/2000/svg">
<path fill-rule="evenodd" clip-rule="evenodd" d="M17.3062 7.15499C17.5856 6.74519 18.0495 6.5 18.5455 6.5H29.4546C29.9506 6.5 30.4145 6.74519 30.694 7.15499L33.8837 11.8333H40.3637C41.7152 11.8333 43.018 12.358 43.9837 13.3022C44.9506 14.2476 45.5001 15.5371 45.5001 16.8889V36.4444C45.5001 37.7963 44.9506 39.0857 43.9837 40.0311C43.018 40.9754 41.7152 41.5 40.3637 41.5H7.63637C6.28486 41.5 4.98211 40.9754 4.01639 40.0311C3.04954 39.0857 2.5 37.7963 2.5 36.4444V16.8889C2.5 15.5371 3.04954 14.2476 4.01639 13.3022C4.98211 12.358 6.28487 11.8333 7.63637 11.8333H14.1164L17.3062 7.15499ZM19.3382 9.5L16.1485 14.1783C15.869 14.5881 15.4051 14.8333 14.9091 14.8333H7.63637C7.05903 14.8333 6.51194 15.0579 6.11374 15.4472C5.7167 15.8355 5.5 16.3547 5.5 16.8889V36.4444C5.5 36.9786 5.7167 37.4979 6.11374 37.8861C6.51194 38.2754 7.05903 38.5 7.63637 38.5H40.3637C40.9411 38.5 41.4882 38.2754 41.8864 37.8861C42.2834 37.4979 42.5001 36.9786 42.5001 36.4444V16.8889C42.5001 16.3547 42.2834 15.8355 41.8864 15.4472C41.4882 15.0579 40.9411 14.8333 40.3637 14.8333H33.091C32.595 14.8333 32.1311 14.5881 31.8517 14.1783L28.6619 9.5H19.3382Z" fill="black"/>
<path fill-rule="evenodd" clip-rule="evenodd" d="M24 20.167C20.7799 20.167 18.2273 22.7108 18.2273 25.7781C18.2273 28.8454 20.7799 31.3892 24 31.3892C27.2202 31.3892 29.7728 28.8454 29.7728 25.7781C29.7728 22.7108 27.2202 20.167 24 20.167ZM15.2273 25.7781C15.2273 20.9907 19.1869 17.167 24 17.167C28.8131 17.167 32.7728 20.9907 32.7728 25.7781C32.7728 30.5655 28.8131 34.3892 24 34.3892C19.1869 34.3892 15.2273 30.5655 15.2273 25.7781Z" fill="black"/>
</svg>
