<svg width="24" height="17" viewBox="0 0 24 17" fill="none" xmlns="http://www.w3.org/2000/svg">
<path d="M5.99976 0H18.0014V16.9607H5.99976V0Z" fill="white"/>
<path d="M0 0H5.99917V16.9607H0V0ZM18.0008 0H24V16.9607H18.0041L18.0008 0ZM7.79793 8.19545L7.32754 8.35445L9.49731 10.2592C9.66294 10.7462 9.44099 10.8886 9.29855 11.147L11.6505 10.8489L11.5942 13.2174L12.0845 13.2041L11.9752 10.8522L14.3337 11.1338C14.188 10.8257 14.0588 10.6634 14.1913 10.1731L16.3578 8.36771L15.9801 8.22857C15.6687 7.99007 16.1126 7.07909 16.1789 6.50269C16.1789 6.50269 14.9168 6.93665 14.834 6.70808L14.5093 6.08862L13.3598 7.35404C13.234 7.38385 13.181 7.33416 13.1511 7.22816L13.6812 4.58468L12.8398 5.05839C12.7702 5.09151 12.7006 5.06501 12.6542 4.9822L11.8427 3.35901L11.0079 5.04514C10.9449 5.10476 10.882 5.11139 10.829 5.07164L10.0273 4.62112L10.511 7.24141C10.4712 7.34742 10.3785 7.37392 10.2725 7.3176L9.16936 6.06874C9.02691 6.30062 8.93085 6.67495 8.73872 6.76108C8.5499 6.84058 7.91056 6.60207 7.48323 6.50932C7.62899 7.03603 8.08613 7.91056 7.79793 8.19876V8.19545Z" fill="#FF0000"/>
</svg>
