<svg width="24" height="24" viewBox="0 0 24 24" fill="none" xmlns="http://www.w3.org/2000/svg">
<path fill-rule="evenodd" clip-rule="evenodd" d="M4.63636 5.75C4.19347 5.75 3.75 6.14949 3.75 6.75V17.25C3.75 17.8505 4.19347 18.25 4.63636 18.25H19.3636C19.8065 18.25 20.25 17.8505 20.25 17.25V6.75C20.25 6.14949 19.8065 5.75 19.3636 5.75H4.63636ZM2.25 6.75C2.25 5.41751 3.27178 4.25 4.63636 4.25H19.3636C20.7282 4.25 21.75 5.41751 21.75 6.75V17.25C21.75 18.5825 20.7282 19.75 19.3636 19.75H4.63636C3.27178 19.75 2.25 18.5825 2.25 17.25V6.75Z" fill="#161618"/>
<path fill-rule="evenodd" clip-rule="evenodd" d="M2.25 10C2.25 9.58579 2.58579 9.25 3 9.25H21C21.4142 9.25 21.75 9.58579 21.75 10C21.75 10.4142 21.4142 10.75 21 10.75H3C2.58579 10.75 2.25 10.4142 2.25 10Z" fill="#161618"/>
</svg>
