<svg width="24" height="24" viewBox="0 0 24 24" fill="none" xmlns="http://www.w3.org/2000/svg">
<path fill-rule="evenodd" clip-rule="evenodd" d="M4.63636 5.75C4.19347 5.75 3.75 6.14949 3.75 6.75V17.25C3.75 17.8505 4.19347 18.25 4.63636 18.25H19.3636C19.8065 18.25 20.25 17.8505 20.25 17.25V6.75C20.25 6.14949 19.8065 5.75 19.3636 5.75H4.63636ZM2.25 6.75C2.25 5.41751 3.27178 4.25 4.63636 4.25H19.3636C20.7282 4.25 21.75 5.41751 21.75 6.75V17.25C21.75 18.5825 20.7282 19.75 19.3636 19.75H4.63636C3.27178 19.75 2.25 18.5825 2.25 17.25V6.75Z" fill="#C1A6B0"/>
<path fill-rule="evenodd" clip-rule="evenodd" d="M2.25 9C2.25 8.58579 2.58579 8.25 3 8.25H21C21.4142 8.25 21.75 8.58579 21.75 9C21.75 9.41421 21.4142 9.75 21 9.75H3C2.58579 9.75 2.25 9.41421 2.25 9Z" fill="#C1A6B0"/>
<path fill-rule="evenodd" clip-rule="evenodd" d="M14.5303 11.4697C14.8232 11.7626 14.8232 12.2374 14.5303 12.5303L11.8637 15.197C11.5708 15.4899 11.0959 15.4899 10.803 15.197L9.46967 13.8637C9.17678 13.5708 9.17678 13.0959 9.46967 12.803C9.76256 12.5101 10.2374 12.5101 10.5303 12.803L11.3333 13.606L13.4697 11.4697C13.7626 11.1768 14.2374 11.1768 14.5303 11.4697Z" fill="#C1A6B0"/>
</svg>
