<svg width="24" height="24" viewBox="0 0 24 24" fill="none" xmlns="http://www.w3.org/2000/svg">
<path fill-rule="evenodd" clip-rule="evenodd" d="M3.81818 5.47729C3.22824 5.47729 2.75 5.95554 2.75 6.54548V17.4546C2.75 18.0445 3.22824 18.5227 3.81818 18.5227H20.1818C20.7718 18.5227 21.25 18.0445 21.25 17.4546V6.54548C21.25 5.95554 20.7718 5.47729 20.1818 5.47729H3.81818ZM1.25 6.54548C1.25 5.12711 2.39981 3.97729 3.81818 3.97729H20.1818C21.6002 3.97729 22.75 5.12711 22.75 6.54548V17.4546C22.75 18.8729 21.6002 20.0228 20.1818 20.0228H3.81818C2.39981 20.0228 1.25 18.8729 1.25 17.4546V6.54548Z" fill="#89455E"/>
<path fill-rule="evenodd" clip-rule="evenodd" d="M1.25 10.1819C1.25 9.76767 1.58579 9.43188 2 9.43188H22C22.4142 9.43188 22.75 9.76767 22.75 10.1819C22.75 10.5961 22.4142 10.9319 22 10.9319H2C1.58579 10.9319 1.25 10.5961 1.25 10.1819Z" fill="#89455E"/>
<path fill-rule="evenodd" clip-rule="evenodd" d="M4.72705 13.0682C4.72705 12.654 5.06284 12.3182 5.47705 12.3182H8.52251C8.93672 12.3182 9.27251 12.654 9.27251 13.0682C9.27251 13.4825 8.93672 13.8182 8.52251 13.8182H5.47705C5.06284 13.8182 4.72705 13.4825 4.72705 13.0682Z" fill="#89455E"/>
</svg>
