<svg width="24" height="24" viewBox="0 0 24 24" fill="none" xmlns="http://www.w3.org/2000/svg">
<path d="M20.875 12.2021C20.875 15.1228 19.9372 17.7305 18.1658 20.0254C17.228 21.2771 16.1861 22.3202 14.9357 23.259C14.4147 23.6762 13.7895 23.5719 13.4769 23.0504C13.1643 22.5288 13.1643 21.903 13.6853 21.59C14.5189 20.9642 15.3525 20.234 15.9777 19.3995C17.1238 18.0435 18.0616 16.4788 18.4784 14.7056C19.1036 12.0978 18.791 9.59435 17.4364 7.19522C16.4986 5.42195 15.1441 4.06592 13.5811 2.9185C13.2685 2.60557 13.0601 2.29264 13.1643 1.8754C13.2685 1.45816 13.5811 1.14523 13.9979 1.04092C14.3105 0.936611 14.6231 1.04092 14.8315 1.24954C17.5406 3.23143 19.5204 5.83919 20.4582 9.0728C20.6666 10.1159 20.875 11.159 20.875 12.2021Z" fill="white"/>
<path d="M16.0819 12.3069C16.0819 15.019 15.0399 17.3138 13.1644 19.1914C12.6434 19.7129 12.1224 20.2345 11.4972 20.6517C10.7678 21.1733 9.93423 20.8604 9.72584 20.0259C9.62164 19.6086 9.83003 19.2957 10.1426 18.9828C10.9762 18.3569 11.8098 17.5224 12.435 16.6879C13.6854 14.8104 14.2063 12.8285 13.6854 10.638C13.2686 8.86468 12.3308 7.50865 11.0804 6.25693C10.872 6.04831 10.5594 5.73538 10.2468 5.52676C9.72584 5.10952 9.62164 4.48366 10.0384 4.06642C10.351 3.54487 10.9762 3.44056 11.4972 3.8578C13.5812 5.42245 15.0399 7.30003 15.7693 9.80348C15.9777 10.638 16.0819 11.3681 16.0819 12.3069Z" fill="white"/>
<path d="M11.2886 12.4109C11.2886 14.2885 10.455 15.9575 9.10045 17.3135C8.78785 17.6264 8.47526 17.9393 8.05847 18.148C7.74587 18.3566 7.32908 18.4609 6.91229 18.148C6.4955 17.9393 6.2871 17.4178 6.3913 17.0006C6.4955 16.7919 6.5997 16.5833 6.80809 16.3747C7.85007 15.5402 8.68365 14.6014 8.99625 13.3497C9.41304 11.6807 8.99625 10.3247 7.95427 8.96867C7.64167 8.76005 7.32908 8.34281 6.91229 8.02988C6.3913 7.61264 6.2871 6.98678 6.70389 6.46523C7.12069 5.94368 7.74587 5.94368 8.26686 6.36092C9.41304 7.40402 10.3508 8.55143 10.976 10.0118C11.1844 10.8463 11.2886 11.5764 11.2886 12.4109Z" fill="white"/>
<path d="M6.59966 12.2019C6.59966 13.6622 5.87028 14.8096 4.7241 15.6441C4.30731 15.957 3.68212 15.8527 3.36953 15.4355C3.05693 15.0183 3.05693 14.3924 3.47373 13.9752C3.68212 13.8708 3.78632 13.6622 3.99472 13.5579C4.7241 12.7234 4.7241 11.7846 3.99472 10.9502C3.78632 10.8459 3.57792 10.6372 3.36953 10.5329C2.95274 10.1157 2.84854 9.59413 3.26533 9.07258C3.57792 8.65534 4.20311 8.55103 4.6199 8.86396C5.87028 9.69844 6.49547 10.8459 6.59966 12.2019Z" fill="white"/>
</svg>
