<svg width="80" height="80" viewBox="0 0 80 80" fill="none" xmlns="http://www.w3.org/2000/svg">
<path d="M39.9002 34.4C46.6381 34.4 52.1002 28.9379 52.1002 22.2C52.1002 15.4621 46.6381 10 39.9002 10C33.1623 10 27.7002 15.4621 27.7002 22.2C27.7002 28.9379 33.1623 34.4 39.9002 34.4Z" fill="#89455E"/>
<path d="M64.7 34.4C68.9526 34.4 72.4 30.9526 72.4 26.7C72.4 22.4474 68.9526 19 64.7 19C60.4474 19 57 22.4474 57 26.7C57 30.9526 60.4474 34.4 64.7 34.4Z" fill="#89455E"/>
<path d="M15.0999 34.4C19.3525 34.4 22.7999 30.9526 22.7999 26.7C22.7999 22.4474 19.3525 19 15.0999 19C10.8473 19 7.3999 22.4474 7.3999 26.7C7.3999 30.9526 10.8473 34.4 15.0999 34.4Z" fill="#89455E"/>
<path d="M22.8 41.4C19.8 38.9 17 39.2 13.5 39.2C8.2 39.2 4 43.5 4 48.7V64.1C4 66.4 5.9 68.2 8.1 68.2C17.9 68.2 16.8 68.4 16.8 67.8C16.7 56.9 15.4 48.9 22.8 41.4Z" fill="#C1A6B0"/>
<path d="M43.2001 39.3001C37.1001 38.8001 31.7001 39.3001 27.1001 43.1001C19.4001 49.3001 20.9001 57.6001 20.9001 67.8001C20.9001 70.5001 23.1001 72.7001 25.8001 72.7001C55.5001 72.7001 56.7001 73.7001 58.4001 69.8001C59.0001 68.5001 58.8001 68.9001 58.8001 56.3001C58.9001 46.3001 50.2001 39.3001 43.2001 39.3001Z" fill="#C1A6B0"/>
<path d="M66.4001 39.2C62.9001 39.2 60.1001 38.9 57.1001 41.4C64.4001 48.9 63.2001 56.3 63.2001 67.8C63.2001 68.4 62.2001 68.2 71.7001 68.2C74.1001 68.2 76.0001 66.3 76.0001 63.9V48.7C75.9001 43.5 71.6001 39.2 66.4001 39.2Z" fill="#C1A6B0"/>
</svg>
