<svg width="25" height="24" viewBox="0 0 25 24" fill="none" xmlns="http://www.w3.org/2000/svg">
<path fill-rule="evenodd" clip-rule="evenodd" d="M11.9998 4.55005C10.6467 4.55005 9.5498 5.64695 9.5498 7.00005C9.5498 8.35315 10.6467 9.45005 11.9998 9.45005C13.3529 9.45005 14.4498 8.35315 14.4498 7.00005C14.4498 5.64695 13.3529 4.55005 11.9998 4.55005ZM8.0498 7.00005C8.0498 4.81852 9.81828 3.05005 11.9998 3.05005C14.1813 3.05005 15.9498 4.81852 15.9498 7.00005C15.9498 9.18157 14.1813 10.95 11.9998 10.95C9.81828 10.95 8.0498 9.18157 8.0498 7.00005Z" fill="#161618"/>
<path fill-rule="evenodd" clip-rule="evenodd" d="M4.74712 19.6448L19.4528 19.5551C18.8238 16.0502 15.7415 13.45 12.0999 13.45C8.38419 13.45 5.36979 16.1182 4.74712 19.6448ZM3.15172 20.3478C3.47833 15.6664 7.29435 11.95 12.0999 11.95C16.7873 11.95 20.7202 15.5482 21.0481 20.2478C21.0625 20.4544 20.9908 20.6579 20.8499 20.8098C20.7091 20.9618 20.5117 21.0487 20.3045 21.0499L3.90448 21.1499C3.69571 21.1512 3.49585 21.0654 3.35299 20.9132C3.21013 20.7609 3.13719 20.556 3.15172 20.3478Z" fill="#161618"/>
</svg>
