<svg width="18" height="19" viewBox="0 0 18 19" fill="none" xmlns="http://www.w3.org/2000/svg">
<path d="M8.89996 8C11.1091 8 12.9 6.20914 12.9 4C12.9 1.79086 11.1091 0 8.89996 0C6.69082 0 4.89996 1.79086 4.89996 4C4.89996 6.20914 6.69082 8 8.89996 8Z" fill="white"/>
<path fill-rule="evenodd" clip-rule="evenodd" d="M8.99998 8.89844C4.19998 8.89844 0.399976 12.5984 0.0999756 17.2984C0.0999756 17.4984 0.199976 17.6984 0.299976 17.8984C0.399976 18.0984 0.599976 18.0984 0.899976 18.0984L17.2 17.9984C17.4 17.9984 17.6 17.8984 17.7 17.7984C17.8 17.5984 17.9 17.3984 17.9 17.1984C17.6 12.4984 13.6 8.89844 8.99998 8.89844Z" fill="white"/>
</svg>
