<svg width="24" height="24" viewBox="0 0 24 24" fill="none" xmlns="http://www.w3.org/2000/svg">
<path fill-rule="evenodd" clip-rule="evenodd" d="M2.75 20.4C2.75 19.9858 3.08579 19.65 3.5 19.65H20.5C20.9142 19.65 21.25 19.9858 21.25 20.4C21.25 20.8142 20.9142 21.15 20.5 21.15H3.5C3.08579 21.15 2.75 20.8142 2.75 20.4Z" fill="#C1A6B0"/>
<path fill-rule="evenodd" clip-rule="evenodd" d="M3.8501 3.59998C3.8501 3.18576 4.18588 2.84998 4.6001 2.84998H9.5001C9.91431 2.84998 10.2501 3.18576 10.2501 3.59998V5.34998H14.4001C14.8143 5.34998 15.1501 5.68576 15.1501 6.09998V8.04998H19.5001C19.9143 8.04998 20.2501 8.38576 20.2501 8.79998V20.4C20.2501 20.8142 19.9143 21.15 19.5001 21.15C19.0859 21.15 18.7501 20.8142 18.7501 20.4V9.54998H14.4001C13.9859 9.54998 13.6501 9.21419 13.6501 8.79998V6.84998H9.5001C9.08588 6.84998 8.7501 6.51419 8.7501 6.09998V4.34998H5.3501V20.4C5.3501 20.8142 5.01431 21.15 4.6001 21.15C4.18588 21.15 3.8501 20.8142 3.8501 20.4V3.59998Z" fill="#C1A6B0"/>
<path fill-rule="evenodd" clip-rule="evenodd" d="M10.3501 18.2C10.3501 17.7857 10.6859 17.45 11.1001 17.45H12.8001C13.2143 17.45 13.5501 17.7857 13.5501 18.2V20.4C13.5501 20.8142 13.2143 21.15 12.8001 21.15C12.3859 21.15 12.0501 20.8142 12.0501 20.4V18.95H11.8501V20.4C11.8501 20.8142 11.5143 21.15 11.1001 21.15C10.6859 21.15 10.3501 20.8142 10.3501 20.4V18.2Z" fill="#C1A6B0"/>
<path fill-rule="evenodd" clip-rule="evenodd" d="M7 6.25C7.41421 6.25 7.75 6.58579 7.75 7V14.1C7.75 14.5142 7.41421 14.85 7 14.85C6.58579 14.85 6.25 14.5142 6.25 14.1V7C6.25 6.58579 6.58579 6.25 7 6.25Z" fill="#C1A6B0"/>
<path fill-rule="evenodd" clip-rule="evenodd" d="M9.5 5.34998C9.91421 5.34998 10.25 5.68576 10.25 6.09998V20.4C10.25 20.8142 9.91421 21.15 9.5 21.15C9.08579 21.15 8.75 20.8142 8.75 20.4V6.09998C8.75 5.68576 9.08579 5.34998 9.5 5.34998Z" fill="#C1A6B0"/>
<path fill-rule="evenodd" clip-rule="evenodd" d="M14.3999 8.05005C14.8141 8.05005 15.1499 8.38584 15.1499 8.80005V20.4C15.1499 20.8143 14.8141 21.15 14.3999 21.15C13.9857 21.15 13.6499 20.8143 13.6499 20.4V8.80005C13.6499 8.38584 13.9857 8.05005 14.3999 8.05005Z" fill="#C1A6B0"/>
<path fill-rule="evenodd" clip-rule="evenodd" d="M12 8.65002C12.4142 8.65002 12.75 8.98581 12.75 9.40002V14.1C12.75 14.5142 12.4142 14.85 12 14.85C11.5858 14.85 11.25 14.5142 11.25 14.1V9.40002C11.25 8.98581 11.5858 8.65002 12 8.65002Z" fill="#C1A6B0"/>
<path fill-rule="evenodd" clip-rule="evenodd" d="M17 11.05C17.4142 11.05 17.75 11.3858 17.75 11.8V14.1C17.75 14.5143 17.4142 14.85 17 14.85C16.5858 14.85 16.25 14.5143 16.25 14.1V11.8C16.25 11.3858 16.5858 11.05 17 11.05Z" fill="#C1A6B0"/>
</svg>
