<svg width="24" height="24" viewBox="0 0 24 24" fill="none" xmlns="http://www.w3.org/2000/svg">
<path fill-rule="evenodd" clip-rule="evenodd" d="M21 4C21 3.44772 20.5523 3 20 3H11C10.4477 3 10 3.44772 10 4L10 10C10 10.5523 10.4477 11 11 11H20C20.5523 11 21 10.5523 21 10V4ZM14 14C14 13.4477 13.5523 13 13 13H4C3.44772 13 3 13.4477 3 14V20C3 20.5523 3.44771 21 4 21H13C13.5523 21 14 20.5523 14 20V14ZM20 13C20.5523 13 21 13.4477 21 14V20C21 20.5523 20.5523 21 20 21H17C16.4477 21 16 20.5523 16 20V14C16 13.4477 16.4477 13 17 13H20ZM8 4C8 3.44772 7.55228 3 7 3H4C3.44772 3 3 3.44772 3 4V10C3 10.5523 3.44772 11 4 11H7C7.55228 11 8 10.5523 8 10L8 4Z" fill="white"/>
</svg>
