<svg width="24" height="24" viewBox="0 0 24 24" fill="none" xmlns="http://www.w3.org/2000/svg">
<path fill-rule="evenodd" clip-rule="evenodd" d="M11.9998 3.84998C10.0944 3.84998 8.5498 5.39459 8.5498 7.29998C8.5498 9.20536 10.0944 10.75 11.9998 10.75C13.9052 10.75 15.4498 9.20536 15.4498 7.29998C15.4498 5.39459 13.9052 3.84998 11.9998 3.84998ZM7.0498 7.29998C7.0498 4.56617 9.26599 2.34998 11.9998 2.34998C14.7336 2.34998 16.9498 4.56617 16.9498 7.29998C16.9498 10.0338 14.7336 12.25 11.9998 12.25C9.266 12.25 7.0498 10.0338 7.0498 7.29998Z" fill="#161618"/>
<path fill-rule="evenodd" clip-rule="evenodd" d="M3.7998 8.94995C3.66173 8.94995 3.5498 9.06188 3.5498 9.19995V18.4C3.5498 18.538 3.66173 18.65 3.7998 18.65H20.1998C20.3379 18.65 20.4498 18.538 20.4498 18.4V9.19995C20.4498 9.06188 20.3379 8.94995 20.1998 8.94995H18.5998C18.1856 8.94995 17.8498 8.61416 17.8498 8.19995C17.8498 7.78574 18.1856 7.44995 18.5998 7.44995H20.1998C21.1663 7.44995 21.9498 8.23345 21.9498 9.19995V18.4C21.9498 19.3665 21.1663 20.15 20.1998 20.15H3.7998C2.8333 20.15 2.0498 19.3664 2.0498 18.4V9.19995C2.0498 8.23345 2.83331 7.44995 3.7998 7.44995H5.3998C5.81402 7.44995 6.14981 7.78574 6.14981 8.19995C6.14981 8.61416 5.81402 8.94995 5.3998 8.94995H3.7998Z" fill="#161618"/>
<path fill-rule="evenodd" clip-rule="evenodd" d="M6.75 14.6C6.75 14.1858 7.08579 13.85 7.5 13.85H16.5C16.9142 13.85 17.25 14.1858 17.25 14.6C17.25 15.0142 16.9142 15.35 16.5 15.35H7.5C7.08579 15.35 6.75 15.0142 6.75 14.6Z" fill="#161618"/>
</svg>
