<svg width="80" height="80" viewBox="0 0 80 80" fill="none" xmlns="http://www.w3.org/2000/svg">
<path d="M66.3004 53.5503C64.2004 49.5543 59.3004 47.9559 55.2004 49.9539L50.9004 52.0518C51.5004 52.851 52.1004 53.6502 52.5004 54.6492C53.2004 56.4474 53.5004 58.3455 53.2004 60.1437L66.3004 53.5503Z" fill="#C1A6B0"/>
<path d="M23.1006 20.983C23.1006 30.2737 30.7006 37.866 40.0006 37.866C40.7006 37.866 41.3006 37.7661 42.0006 37.6662C37.0006 33.7701 33.7006 27.7762 33.7006 20.983C33.7006 14.1898 37.0006 8.09589 42.0006 4.1998C41.3006 4.0999 40.7006 4 40.0006 4C30.7006 4 23.1006 11.6923 23.1006 20.983Z" fill="#C1A6B0"/>
<path d="M27.1999 4.1998C26.4999 4.0999 25.8999 4 25.1999 4C15.8999 4 8.3999 11.6923 8.3999 20.983C8.3999 30.2737 15.9999 37.866 25.2999 37.866C25.9999 37.866 26.5999 37.7661 27.2999 37.6662C22.2999 33.7701 18.9999 27.7762 18.9999 20.983C18.8999 14.1898 22.1999 8.09589 27.1999 4.1998Z" fill="#C1A6B0"/>
<path d="M4 46.2577H12.4V71.5323H4V46.2577Z" fill="#C1A6B0"/>
<path d="M68.6 57.0468L48 67.3364L33.3 61.7421L34.8 57.846L47.7 62.841L48.4 61.1427C49.8 57.846 48.2 54.1497 44.9 52.851L31.2 47.3565C27.4 45.858 23 46.0578 19.3 47.856L16.5 49.2546V66.737L35.1 74.2295C39.3 75.9278 43.8 76.4273 48.4 75.6281C50.8 75.2285 53.2 74.3294 55.4 73.2305L76 62.841V61.4424C76 57.846 72 55.4484 68.6 57.0468Z" fill="#C1A6B0"/>
<path d="M71.1579 20.5789C71.1579 29.1829 64.183 36.1579 55.5789 36.1579C46.9749 36.1579 40 29.1829 40 20.5789C40 11.9749 46.9749 5 55.5789 5C64.183 5 71.1579 11.9749 71.1579 20.5789Z" fill="#89455E"/>
<path fill-rule="evenodd" clip-rule="evenodd" d="M55.5789 6C47.5272 6 41 12.5272 41 20.5789C41 28.6307 47.5272 35.1579 55.5789 35.1579C63.6307 35.1579 70.1579 28.6307 70.1579 20.5789C70.1579 12.5272 63.6307 6 55.5789 6ZM39 20.5789C39 11.4226 46.4226 4 55.5789 4C64.7352 4 72.1579 11.4226 72.1579 20.5789C72.1579 29.7352 64.7352 37.1579 55.5789 37.1579C46.4226 37.1579 39 29.7352 39 20.5789Z" fill="#E6DBDF"/>
<path fill-rule="evenodd" clip-rule="evenodd" d="M56.0913 11.0392C56.6436 11.0392 57.0913 11.4869 57.0913 12.0392V14.0452C57.0913 14.5975 56.6436 15.0452 56.0913 15.0452C55.539 15.0452 55.0913 14.5975 55.0913 14.0452V12.0392C55.0913 11.4869 55.539 11.0392 56.0913 11.0392Z" fill="white"/>
<path fill-rule="evenodd" clip-rule="evenodd" d="M56.0909 15.045C54.0482 15.045 52.9268 16.3252 52.9268 17.3884C52.9268 17.8978 53.213 18.4695 53.8112 18.9474C54.4037 19.4208 55.2253 19.7317 56.0909 19.7317C56.6432 19.7317 57.0909 20.1794 57.0909 20.7317C57.0909 21.2839 56.6432 21.7317 56.0909 21.7317C54.7649 21.7317 53.5044 21.2624 52.5627 20.5099C51.6267 19.762 50.9268 18.662 50.9268 17.3884C50.9268 14.8853 53.3119 13.045 56.0909 13.045C57.4169 13.045 58.6774 13.5143 59.6191 14.2668C60.5551 15.0147 61.2551 16.1147 61.2551 17.3884C61.2551 17.9406 60.8073 18.3884 60.2551 18.3884C59.7028 18.3884 59.2551 17.9406 59.2551 17.3884C59.2551 16.8789 58.9688 16.3072 58.3706 15.8293C57.7781 15.3559 56.9565 15.045 56.0909 15.045Z" fill="white"/>
<path fill-rule="evenodd" clip-rule="evenodd" d="M56.0913 27.1777C56.6436 27.1777 57.0913 27.6254 57.0913 28.1777V30.1837C57.0913 30.736 56.6436 31.1837 56.0913 31.1837C55.539 31.1837 55.0913 30.736 55.0913 30.1837V28.1777C55.0913 27.6254 55.539 27.1777 56.0913 27.1777Z" fill="white"/>
<path fill-rule="evenodd" clip-rule="evenodd" d="M55.0909 20.7318C55.0909 20.1795 55.5386 19.7318 56.0909 19.7318C57.4169 19.7318 58.6774 20.2011 59.6191 20.9536C60.5551 21.7015 61.2551 22.8015 61.2551 24.0751C61.2551 26.5782 58.8699 28.4184 56.0909 28.4184C54.7649 28.4184 53.5044 27.9491 52.5627 27.1967C51.6267 26.4487 50.9268 25.3488 50.9268 24.0751C50.9268 23.5228 51.3745 23.0751 51.9268 23.0751C52.479 23.0751 52.9268 23.5228 52.9268 24.0751C52.9268 24.5846 53.213 25.1562 53.8112 25.6342C54.4037 26.1076 55.2253 26.4184 56.0909 26.4184C58.1336 26.4184 59.2551 25.1382 59.2551 24.0751C59.2551 23.5657 58.9688 22.994 58.3706 22.516C57.7781 22.0426 56.9565 21.7318 56.0909 21.7318C55.5386 21.7318 55.0909 21.2841 55.0909 20.7318Z" fill="white"/>
</svg>
