<svg width="24" height="24" viewBox="0 0 24 24" fill="none" xmlns="http://www.w3.org/2000/svg">
<g clip-path="url(#clip0)">
<path fill-rule="evenodd" clip-rule="evenodd" d="M20.2 8.10156H19.9C19.5 8.10156 19.2 8.40156 19.2 8.70156C18.7 12.2016 15.7 14.9016 12 14.9016C8.3 14.9016 5.3 12.2016 4.8 8.70156C4.7 8.40156 4.4 8.10156 4 8.10156H3.8C2.8 8.10156 2 8.90156 2 9.90156V19.1016C2 20.1016 2.8 20.9016 3.8 20.9016H20.2C21.2 20.9016 22 20.1016 22 19.1016V9.90156C21.9 8.90156 21.1 8.10156 20.2 8.10156ZM16.4 17.0016H7.4C7 17.0016 6.6 16.7016 6.6 16.2016C6.6 15.8016 6.9 15.4016 7.4 15.4016H16.4C16.8 15.4016 17.2 15.7016 17.2 16.2016C17.2 16.7016 16.9 17.0016 16.4 17.0016Z" fill="white"/>
<path fill-rule="evenodd" clip-rule="evenodd" d="M12 4.5C10 4.5 8.5 6 8.5 8C8.5 9.9 10 11.4 12 11.4C14 11.4 15.4 9.9 15.4 8C15.4 6 13.9 4.5 12 4.5ZM7 8C7 5.3 9.2 3 12 3C14.7 3 16.9 5.2 16.9 8C16.9 10.7 14.7 12.9 12 12.9C9.2 12.9 7 10.7 7 8Z" fill="white"/>
</g>
<defs>
<clipPath id="clip0">
<rect width="19.9" height="17.8" fill="white" transform="translate(2 3)"/>
</clipPath>
</defs>
</svg>
