<svg width="24" height="24" viewBox="0 0 24 24" fill="none" xmlns="http://www.w3.org/2000/svg">
<path fill-rule="evenodd" clip-rule="evenodd" d="M20.6827 7.25078C21.1342 7.23895 21.7198 7.35819 22.194 7.83919C22.2101 7.85559 22.2255 7.87271 22.2401 7.89052C22.7603 8.52574 22.7982 9.21873 22.7166 9.71319C22.6763 9.95715 22.6066 10.1612 22.5473 10.3046C22.5173 10.3772 22.4891 10.4365 22.4668 10.4803C22.4556 10.5022 22.4458 10.5204 22.438 10.5347L22.4277 10.553L22.4237 10.5599L22.422 10.5628L22.4213 10.564C22.4211 10.5643 22.4206 10.5652 21.775 10.1834L22.4206 10.5652C22.3955 10.6076 22.3664 10.6474 22.3336 10.684L16.6319 17.0461C16.5269 17.1633 16.3876 17.2445 16.2339 17.2782L14.1606 17.7326C13.9184 17.7857 13.6656 17.7156 13.4852 17.5454C13.3049 17.3752 13.2203 17.1269 13.2593 16.882L13.6625 14.3502C13.685 14.2091 13.7473 14.0773 13.8421 13.9704L14.7001 13.0042C15.2159 12.4238 15.9056 11.6485 16.6007 10.869C17.2956 10.0898 17.9967 9.30557 18.5352 8.7077C18.8043 8.409 19.034 8.15539 19.2025 7.97173C19.2865 7.88022 19.3573 7.80385 19.411 7.74717C19.4376 7.71915 19.4627 7.693 19.4845 7.67109C19.4849 7.67073 19.4854 7.67021 19.4861 7.66955C19.4965 7.65901 19.5435 7.61132 19.5967 7.57136C19.7444 7.46037 19.9297 7.38878 20.0803 7.34467C20.2507 7.29477 20.4572 7.25669 20.6827 7.25078ZM15.1094 14.8022L14.9136 16.0319L15.6764 15.8648L21.1504 9.75668C21.1538 9.74903 21.1574 9.74064 21.1611 9.73155C21.1882 9.66606 21.2193 9.57389 21.2366 9.46892C21.2686 9.27505 21.2523 9.06987 21.1027 8.87035C21.004 8.78284 20.8773 8.7462 20.722 8.75027C20.638 8.75247 20.5601 8.76714 20.5019 8.78419C20.4985 8.78521 20.4951 8.78621 20.492 8.78719C20.4471 8.83471 20.3853 8.90132 20.3077 8.98587C20.144 9.16434 19.9179 9.41385 19.6497 9.71159C19.1138 10.3066 18.4147 11.0886 17.7202 11.8674C17.0258 12.646 16.3368 13.4206 15.8214 14.0007L15.1094 14.8022Z" fill="#C1A6B0"/>
<path fill-rule="evenodd" clip-rule="evenodd" d="M4.25 8C4.25 7.58579 4.58579 7.25 5 7.25H14C14.4142 7.25 14.75 7.58579 14.75 8C14.75 8.41421 14.4142 8.75 14 8.75H5C4.58579 8.75 4.25 8.41421 4.25 8Z" fill="#C1A6B0"/>
<path fill-rule="evenodd" clip-rule="evenodd" d="M4.25 12C4.25 11.5858 4.58579 11.25 5 11.25H13C13.4142 11.25 13.75 11.5858 13.75 12C13.75 12.4142 13.4142 12.75 13 12.75H5C4.58579 12.75 4.25 12.4142 4.25 12Z" fill="#C1A6B0"/>
<path fill-rule="evenodd" clip-rule="evenodd" d="M4.25 16C4.25 15.5858 4.58579 15.25 5 15.25H10C10.4142 15.25 10.75 15.5858 10.75 16C10.75 16.4142 10.4142 16.75 10 16.75H5C4.58579 16.75 4.25 16.4142 4.25 16Z" fill="#C1A6B0"/>
<path fill-rule="evenodd" clip-rule="evenodd" d="M3 3.75C2.86193 3.75 2.75 3.86193 2.75 4V21C2.75 21.1381 2.86193 21.25 3 21.25H17C17.1381 21.25 17.25 21.1381 17.25 21V14.6058C17.25 14.1915 17.5858 13.8558 18 13.8558C18.4142 13.8558 18.75 14.1915 18.75 14.6058V21C18.75 21.9665 17.9665 22.75 17 22.75H3C2.0335 22.75 1.25 21.9665 1.25 21V4C1.25 3.0335 2.0335 2.25 3 2.25H17C17.9665 2.25 18.75 3.0335 18.75 4V10.207C18.75 10.6212 18.4142 10.957 18 10.957C17.5858 10.957 17.25 10.6212 17.25 10.207V4C17.25 3.86193 17.1381 3.75 17 3.75H3Z" fill="#C1A6B0"/>
</svg>
