<svg width="24" height="24" viewBox="0 0 24 24" fill="none" xmlns="http://www.w3.org/2000/svg">
<path fill-rule="evenodd" clip-rule="evenodd" d="M1.5 7C1.5 5.61929 2.61929 4.5 4 4.5H20C21.3807 4.5 22.5 5.61929 22.5 7V17C22.5 18.3807 21.3807 19.5 20 19.5H4C2.61929 19.5 1.5 18.3807 1.5 17V7ZM4 5.5C3.17157 5.5 2.5 6.17157 2.5 7V7.5H21.5V7C21.5 6.17157 20.8284 5.5 20 5.5H4ZM21.5 8.5H2.5V17C2.5 17.8284 3.17157 18.5 4 18.5H20C20.8284 18.5 21.5 17.8284 21.5 17V8.5ZM18 13C18 12.7239 18.2239 12.5 18.5 12.5H19.5C19.7761 12.5 20 12.7239 20 13C20 13.2761 19.7761 13.5 19.5 13.5H18.5C18.2239 13.5 18 13.2761 18 13Z" fill="#022342"/>
</svg>
