<svg width="24" height="24" viewBox="0 0 24 24" fill="none" xmlns="http://www.w3.org/2000/svg">
<path fill-rule="evenodd" clip-rule="evenodd" d="M6 4.5C5.60218 4.5 5.22064 4.65804 4.93934 4.93934C4.65804 5.22064 4.5 5.60218 4.5 6V20C4.5 20.3978 4.65804 20.7794 4.93934 21.0607C5.22064 21.342 5.60218 21.5 6 21.5H18C18.3978 21.5 18.7794 21.342 19.0607 21.0607C19.342 20.7794 19.5 20.3978 19.5 20V6C19.5 5.60218 19.342 5.22064 19.0607 4.93934C18.7794 4.65804 18.3978 4.5 18 4.5H16C15.7239 4.5 15.5 4.27614 15.5 4C15.5 3.72386 15.7239 3.5 16 3.5H18C18.663 3.5 19.2989 3.76339 19.7678 4.23223C20.2366 4.70107 20.5 5.33696 20.5 6V20C20.5 20.663 20.2366 21.2989 19.7678 21.7678C19.2989 22.2366 18.663 22.5 18 22.5H6C5.33696 22.5 4.70107 22.2366 4.23223 21.7678C3.76339 21.2989 3.5 20.663 3.5 20V6C3.5 5.33696 3.76339 4.70107 4.23223 4.23223C4.70107 3.76339 5.33696 3.5 6 3.5H8C8.27614 3.5 8.5 3.72386 8.5 4C8.5 4.27614 8.27614 4.5 8 4.5H6Z" fill="#022342"/>
<path fill-rule="evenodd" clip-rule="evenodd" d="M9 2.5C8.72386 2.5 8.5 2.72386 8.5 3V5C8.5 5.27614 8.72386 5.5 9 5.5H15C15.2761 5.5 15.5 5.27614 15.5 5V3C15.5 2.72386 15.2761 2.5 15 2.5H9ZM7.5 3C7.5 2.17157 8.17157 1.5 9 1.5H15C15.8284 1.5 16.5 2.17157 16.5 3V5C16.5 5.82843 15.8284 6.5 15 6.5H9C8.17157 6.5 7.5 5.82843 7.5 5V3Z" fill="#022342"/>
</svg>
