<svg width="32" height="32" viewBox="0 0 32 32" fill="none" xmlns="http://www.w3.org/2000/svg">
<g filter="url(#filter0_d)">
<path d="M0 12C0 5.37258 5.37258 0 12 0V0C18.6274 0 24 5.37258 24 12V12C24 18.6274 18.6274 24 12 24V24C5.37258 24 0 18.6274 0 12V12Z" fill="white"/>
<path fill-rule="evenodd" clip-rule="evenodd" d="M4.89274 5.89274C5.30428 5.4812 5.86244 5.25 6.44444 5.25H11.5C11.9142 5.25 12.25 5.58579 12.25 6C12.25 6.41421 11.9142 6.75 11.5 6.75H6.44444C6.26027 6.75 6.08363 6.82316 5.9534 6.9534C5.82316 7.08363 5.75 7.26027 5.75 7.44444V17.5556C5.75 17.7397 5.82316 17.9164 5.9534 18.0466C6.08363 18.1768 6.26027 18.25 6.44444 18.25H16.5556C16.7397 18.25 16.9164 18.1768 17.0466 18.0466C17.1768 17.9164 17.25 17.7397 17.25 17.5556V12.5C17.25 12.0858 17.5858 11.75 18 11.75C18.4142 11.75 18.75 12.0858 18.75 12.5V17.5556C18.75 18.1376 18.5188 18.6957 18.1073 19.1073C17.6957 19.5188 17.1376 19.75 16.5556 19.75H6.44444C5.86244 19.75 5.30428 19.5188 4.89274 19.1073C4.4812 18.6957 4.25 18.1376 4.25 17.5556V7.44444C4.25 6.86244 4.4812 6.30428 4.89274 5.89274Z" fill="#161618"/>
<path fill-rule="evenodd" clip-rule="evenodd" d="M17.6475 5.75C17.4879 5.75 17.3348 5.81342 17.2219 5.92632L11.3141 11.8341L11.0303 12.9692L12.1654 12.6854L18.0732 6.77766C18.1861 6.66477 18.2495 6.51165 18.2495 6.35199C18.2495 6.19233 18.1861 6.03921 18.0732 5.92632C17.9603 5.81342 17.8072 5.75 17.6475 5.75ZM16.1612 4.86566C16.5554 4.47146 17.0901 4.25 17.6475 4.25C18.205 4.25 18.7397 4.47146 19.1339 4.86566C19.5281 5.25986 19.7495 5.79451 19.7495 6.35199C19.7495 6.90947 19.5281 7.44412 19.1339 7.83832L13.0792 13.893C12.9831 13.9891 12.8626 14.0573 12.7308 14.0903L10.1814 14.7276C9.92585 14.7915 9.65548 14.7166 9.4692 14.5303C9.28291 14.344 9.20803 14.0737 9.27192 13.8181L9.90925 11.2688C9.94222 11.1369 10.0104 11.0165 10.1065 10.9203L16.1612 4.86566Z" fill="#161618"/>
</g>
<defs>
<filter id="filter0_d" x="0" y="0" width="32" height="32" filterUnits="userSpaceOnUse" color-interpolation-filters="sRGB">
<feFlood flood-opacity="0" result="BackgroundImageFix"/>
<feColorMatrix in="SourceAlpha" type="matrix" values="0 0 0 0 0 0 0 0 0 0 0 0 0 0 0 0 0 0 127 0"/>
<feOffset dx="4" dy="4"/>
<feGaussianBlur stdDeviation="2"/>
<feColorMatrix type="matrix" values="0 0 0 0 0.0862745 0 0 0 0 0.0862745 0 0 0 0 0.0941176 0 0 0 0.16 0"/>
<feBlend mode="normal" in2="BackgroundImageFix" result="effect1_dropShadow"/>
<feBlend mode="normal" in="SourceGraphic" in2="effect1_dropShadow" result="shape"/>
</filter>
</defs>
</svg>
