<svg width="16" height="16" viewBox="0 0 16 16" fill="none" xmlns="http://www.w3.org/2000/svg">
<path fill-rule="evenodd" clip-rule="evenodd" d="M0.892738 1.89274C1.30428 1.4812 1.86244 1.25 2.44444 1.25H7.5C7.91421 1.25 8.25 1.58579 8.25 2C8.25 2.41421 7.91421 2.75 7.5 2.75H2.44444C2.26027 2.75 2.08363 2.82316 1.9534 2.9534C1.82316 3.08363 1.75 3.26027 1.75 3.44444V13.5556C1.75 13.7397 1.82316 13.9164 1.9534 14.0466C2.08363 14.1768 2.26027 14.25 2.44444 14.25H12.5556C12.7397 14.25 12.9164 14.1768 13.0466 14.0466C13.1768 13.9164 13.25 13.7397 13.25 13.5556V8.5C13.25 8.08579 13.5858 7.75 14 7.75C14.4142 7.75 14.75 8.08579 14.75 8.5V13.5556C14.75 14.1376 14.5188 14.6957 14.1073 15.1073C13.6957 15.5188 13.1376 15.75 12.5556 15.75H2.44444C1.86244 15.75 1.30428 15.5188 0.892738 15.1073C0.4812 14.6957 0.25 14.1376 0.25 13.5556V3.44444C0.25 2.86244 0.4812 2.30428 0.892738 1.89274Z" fill="#161618"/>
<path fill-rule="evenodd" clip-rule="evenodd" d="M13.6475 1.75C13.4879 1.75 13.3348 1.81342 13.2219 1.92632L7.31408 7.8341L7.0303 8.96922L8.16543 8.68544L14.0732 2.77766C14.1861 2.66477 14.2495 2.51165 14.2495 2.35199C14.2495 2.19233 14.1861 2.03921 14.0732 1.92632C13.9603 1.81342 13.8072 1.75 13.6475 1.75ZM12.1612 0.865659C12.5554 0.471459 13.0901 0.25 13.6475 0.25C14.205 0.25 14.7397 0.471459 15.1339 0.865659C15.5281 1.25986 15.7495 1.79451 15.7495 2.35199C15.7495 2.90947 15.5281 3.44412 15.1339 3.83832L9.07919 9.893C8.98308 9.98911 8.86264 10.0573 8.73077 10.0903L6.18143 10.7276C5.92585 10.7915 5.65548 10.7166 5.4692 10.5303C5.28291 10.344 5.20803 10.0737 5.27192 9.8181L5.90925 7.26876C5.94222 7.13689 6.01041 7.01645 6.10653 6.92033L12.1612 0.865659Z" fill="#161618"/>
</svg>
