<svg width="24" height="24" viewBox="0 0 24 24" fill="none" xmlns="http://www.w3.org/2000/svg">
<path fill-rule="evenodd" clip-rule="evenodd" d="M4.42041 3.56L4.92041 3.06H18.9204L19.4204 3.56V7.56906L21.7336 8.53893L22.0402 9.00004V20.44L21.5402 20.94H2.47021L1.97021 20.44V9.00004L2.27671 8.539L4.42041 7.63923V3.56ZM19.4204 9.61201V8.6534L20.2124 8.98547L19.4204 9.61201ZM12.4455 16.5082L12.3128 16.5101L12.3103 16.5121L11.7002 16.5201L2.97021 9.97708V19.94H21.0402V9.60565L17.508 12.4L12.4455 16.5082ZM12.0591 15.4357L16.8827 11.6196L18.4204 10.3718V4.06H5.42041V10.3531L12.0591 15.4357ZM3.4877 9.11523L4.42041 9.81429V8.72375L3.4877 9.11523ZM11.9201 12.0701C13.7647 12.0701 15.2601 10.5747 15.2601 8.73008C15.2601 6.88544 13.7647 5.39008 11.9201 5.39008C10.0754 5.39008 8.58008 6.88544 8.58008 8.73008C8.58008 10.5747 10.0754 12.0701 11.9201 12.0701ZM13.8586 7.84841L11.4386 10.3386L10.7421 10.3587L9.66211 9.36849L10.3379 8.63141L11.0599 9.2934L13.1414 7.15149L13.8586 7.84841Z" fill="#797C7F"/>
</svg>
