<svg width="24" height="24" viewBox="0 0 24 24" fill="none" xmlns="http://www.w3.org/2000/svg">
<path fill-rule="evenodd" clip-rule="evenodd" d="M4.8 5.75C4.20416 5.75 3.75 6.22149 3.75 6.75V17.25C3.75 17.7785 4.20416 18.25 4.8 18.25H19.2C19.7958 18.25 20.25 17.7785 20.25 17.25V6.75C20.25 6.22149 19.7958 5.75 19.2 5.75H4.8ZM2.25 6.75C2.25 5.35351 3.41584 4.25 4.8 4.25H19.2C20.5842 4.25 21.75 5.35351 21.75 6.75V17.25C21.75 18.6465 20.5842 19.75 19.2 19.75H4.8C3.41584 19.75 2.25 18.6465 2.25 17.25V6.75Z" fill="#C1A6B0"/>
<path fill-rule="evenodd" clip-rule="evenodd" d="M2.37604 6.58393C2.60581 6.23929 3.07146 6.14616 3.4161 6.37592L12.0001 12.0986L20.5841 6.37592C20.9287 6.14616 21.3944 6.23929 21.6241 6.58393C21.8539 6.92858 21.7608 7.39423 21.4161 7.624L12.4161 13.624C12.1642 13.7919 11.836 13.7919 11.5841 13.624L2.58405 7.624C2.23941 7.39423 2.14628 6.92858 2.37604 6.58393Z" fill="#C1A6B0"/>
</svg>
