<?xml version="1.0" encoding="utf-8"?>
<!-- Generator: Adobe Illustrator 22.1.0, SVG Export Plug-In . SVG Version: 6.00 Build 0)  -->
<svg version="1.1" id="Layer_1" xmlns="http://www.w3.org/2000/svg" xmlns:xlink="http://www.w3.org/1999/xlink" x="0px" y="0px"
	 width="80px" height="80px" viewBox="0 0 80 80" style="enable-background:new 0 0 80 80;" xml:space="preserve">
<style type="text/css">
	.st0{opacity:0.61;fill:#E6DBDF;enable-background:new    ;}
	.st1{fill:#89455E;}
</style>
<path class="st0" d="M40,0C17.9,0,0,17.9,0,40c0,22.1,17.9,40,40,40c22.1,0,40-17.9,40-40C80,17.9,62.1,0,40,0z M40,69.6
	c-16.3,0-29.6-13.2-29.6-29.6c0-16.3,13.2-29.6,29.6-29.6c16.3,0,29.6,13.2,29.6,29.6C69.6,56.3,56.3,69.6,40,69.6z"/>
<path class="st1" d="M40,10.4c-16.3,0-29.6,13.2-29.6,29.6c0,16.3,13.2,29.6,29.6,29.6c16.3,0,29.6-13.2,29.6-29.6
	C69.6,23.7,56.3,10.4,40,10.4z M40.4,20.4c1.1,0,2,0.9,2,2l0,25.1c0,1.1-0.9,2-2,2c-1.1,0-2-0.9-2-2l0-25.1
	C38.4,21.3,39.3,20.4,40.4,20.4z M40.9,58.7l-0.5,0c-1.1,0-2-0.9-2-2c0-1.1,0.9-2,2-2l0.5,0c1.1,0,2,0.9,2,2S42,58.7,40.9,58.7z"/>
</svg>
