<svg width="24" height="24" viewBox="0 0 24 24" fill="none" xmlns="http://www.w3.org/2000/svg">
<path d="M0 6C0 2.68629 2.68629 0 6 0H18C21.3137 0 24 2.68629 24 6V18C24 21.3137 21.3137 24 18 24H6C2.68629 24 0 21.3137 0 18V6Z" fill="#E6DBDF"/>
<path fill-rule="evenodd" clip-rule="evenodd" d="M12 4.5C12.1886 4.5 12.3612 4.60611 12.4462 4.77442L14.4917 8.82049L19.0707 9.474C19.2604 9.50107 19.418 9.63423 19.4763 9.8168C19.5346 9.99936 19.4835 10.1992 19.3446 10.3313L16.0389 13.4751L16.8185 17.9135C16.8513 18.1004 16.7755 18.2899 16.6227 18.4025C16.4699 18.5151 16.2665 18.5315 16.0976 18.4448L12 16.3407L7.90241 18.4448C7.73355 18.5315 7.53016 18.5151 7.37737 18.4025C7.22457 18.2899 7.14872 18.1004 7.18156 17.9135L7.96117 13.4751L4.65544 10.3313C4.51656 10.1992 4.4654 9.99936 4.52374 9.8168C4.58207 9.63423 4.73963 9.50107 4.92937 9.474L9.50837 8.82049L11.5538 4.77442C11.6389 4.60611 11.8114 4.5 12 4.5ZM12 6.10826L10.2832 9.50423C10.2096 9.64998 10.0693 9.75056 9.90766 9.77364L6.09266 10.3181L8.84459 12.9353C8.96593 13.0507 9.02145 13.2192 8.99248 13.3841L8.34052 17.0957L11.7716 15.3339C11.915 15.2603 12.085 15.2603 12.2284 15.3339L15.6595 17.0957L15.0076 13.3841C14.9786 13.2192 15.0341 13.0507 15.1554 12.9353L17.9074 10.3181L14.0924 9.77364C13.9307 9.75056 13.7905 9.64998 13.7168 9.50423L12 6.10826Z" fill="#89455E"/>
</svg>
