<svg width="24" height="24" viewBox="0 0 24 24" fill="none" xmlns="http://www.w3.org/2000/svg">
<path fill-rule="evenodd" clip-rule="evenodd" d="M3.6499 2.5C3.6499 2.08579 3.98569 1.75 4.3999 1.75H15.9999C16.4141 1.75 16.7499 2.08579 16.7499 2.5V5.25H19.4999C19.9141 5.25 20.2499 5.58579 20.2499 6V21.5C20.2499 21.9142 19.9141 22.25 19.4999 22.25H4.3999C3.98569 22.25 3.6499 21.9142 3.6499 21.5V2.5ZM5.1499 3.25V20.75H18.7499V6.75H15.9999C15.5857 6.75 15.2499 6.41421 15.2499 6V3.25H5.1499Z" fill="#C1A6B0"/>
<path fill-rule="evenodd" clip-rule="evenodd" d="M15.4697 1.96967C15.7626 1.67678 16.2374 1.67678 16.5303 1.96967L20.0303 5.46967C20.3232 5.76256 20.3232 6.23744 20.0303 6.53033C19.7374 6.82322 19.2626 6.82322 18.9697 6.53033L15.4697 3.03033C15.1768 2.73744 15.1768 2.26256 15.4697 1.96967Z" fill="#C1A6B0"/>
</svg>
