<svg width="18" height="21" viewBox="0 0 18 21" fill="none" xmlns="http://www.w3.org/2000/svg">
<path d="M17.333 20H1.33301V1H13.4577L17.333 5.97946V20Z" stroke="#89455E" stroke-miterlimit="10" stroke-linecap="round" stroke-linejoin="round"/>
<path d="M13.1929 1.48535V6.12936H17.0406" stroke="#89455E" stroke-miterlimit="10" stroke-linecap="round" stroke-linejoin="round"/>
<path d="M4.43719 15.6339C4.44798 15.8179 4.63743 15.9414 4.81728 15.882C5.47196 15.6653 7.11704 14.9199 8.23095 11.3218C8.88683 9.20542 9.00913 8.0418 8.95637 7.40233C8.924 7.01912 8.38683 6.93991 8.22136 7.28935C7.75853 8.26661 7.31848 10.1361 9.64462 11.5944C12.9228 13.6491 14.0883 13.3346 14.219 13.0679C14.3497 12.8011 13.2154 11.8215 8.81249 13.0679C5.13863 14.108 4.40242 15.034 4.43719 15.6339Z" stroke="#89455E" stroke-width="0.75" stroke-miterlimit="10" stroke-linecap="round" stroke-linejoin="round"/>
</svg>
