<svg width="24" height="24" viewBox="0 0 24 24" fill="none" xmlns="http://www.w3.org/2000/svg">
<path fill-rule="evenodd" clip-rule="evenodd" d="M4.61515 4.28174C4.37087 4.28174 4.16113 4.48385 4.16113 4.73575V19.505C4.16113 19.7493 4.36325 19.959 4.61515 19.959H19.3844C19.6524 19.959 19.8384 19.773 19.8384 19.505V4.73575C19.8384 4.49148 19.6363 4.28174 19.3844 4.28174H4.61515ZM2.66113 4.73575C2.66113 3.6231 3.57514 2.78174 4.61515 2.78174H19.3844C20.497 2.78174 21.3384 3.69575 21.3384 4.73575V19.505C21.3384 20.6015 20.4809 21.459 19.3844 21.459H4.61515C3.5025 21.459 2.66113 20.545 2.66113 19.505V4.73575Z" fill="#161618"/>
<path fill-rule="evenodd" clip-rule="evenodd" d="M12.0803 8.255C11.0821 8.255 10.2617 9.05059 10.2617 10.0736C10.2617 10.4878 9.92593 10.8236 9.51172 10.8236C9.09751 10.8236 8.76172 10.4878 8.76172 10.0736C8.76172 8.20691 10.269 6.755 12.0803 6.755C13.8992 6.755 15.3988 8.25467 15.3988 10.0736C15.3988 11.6349 14.2938 12.9611 12.8303 13.3053V14.9298C12.8303 15.344 12.4945 15.6798 12.0803 15.6798C11.6661 15.6798 11.3303 15.344 11.3303 14.9298V12.6421C11.3303 12.2279 11.6661 11.8921 12.0803 11.8921C13.0707 11.8921 13.8988 11.064 13.8988 10.0736C13.8988 9.0831 13.0707 8.255 12.0803 8.255Z" fill="#161618"/>
<path d="M12.0803 17.9263C12.2577 17.9263 12.4014 17.7826 12.4014 17.6053C12.4014 17.4279 12.2577 17.2842 12.0803 17.2842C11.903 17.2842 11.7593 17.4279 11.7593 17.6053C11.7593 17.7826 11.903 17.9263 12.0803 17.9263Z" fill="#161618"/>
<path fill-rule="evenodd" clip-rule="evenodd" d="M12.0803 18.0342C12.3172 18.0342 12.5093 17.8421 12.5093 17.6053C12.5093 17.3684 12.3172 17.1763 12.0803 17.1763C11.8434 17.1763 11.6514 17.3684 11.6514 17.6053C11.6514 17.8421 11.8435 18.0342 12.0803 18.0342ZM11.0093 17.6053C11.0093 17.0137 11.4888 16.5342 12.0803 16.5342C12.6719 16.5342 13.1514 17.0137 13.1514 17.6053C13.1514 18.1968 12.6719 18.6763 12.0803 18.6763C11.4888 18.6763 11.0093 18.1968 11.0093 17.6053Z" fill="#161618"/>
</svg>
