<svg width="24" height="24" viewBox="0 0 24 24" fill="none" xmlns="http://www.w3.org/2000/svg">
<path fill-rule="evenodd" clip-rule="evenodd" d="M19.1 3H4.9C3.9 3 3 3.8 3 4.9V19.1C3 20.1 3.8 21 4.9 21H19.1C20.2 21 21 20.2 21 19.1V4.9C21 3.9 20.2 3 19.1 3ZM12.1 18.6C11.5 18.6 11 18.1 11 17.5C11 16.9 11.5 16.4 12.1 16.4C12.7 16.4 13.2 16.9 13.2 17.5C13.2 18.1 12.7 18.6 12.1 18.6ZM12.8 13.2V14.8C12.8 15.2 12.5 15.6 12 15.6C11.6 15.6 11.2 15.3 11.2 14.8V12.5C11.2 12.1 11.5 11.7 12 11.7C13 11.7 13.8 10.9 13.8 9.9C13.8 8.9 13 8.1 12 8.1C11 8.1 10.2 8.9 10.2 9.9C10.2 10.3 9.9 10.7 9.4 10.7C8.9 10.7 8.8 10.4 8.8 10C8.8 8.1 10.3 6.7 12.1 6.7C13.9 6.7 15.4 8.2 15.4 10C15.4 11.5 14.3 12.8 12.8 13.2Z" fill="white"/>
</svg>
