<svg width="29" height="29" viewBox="0 0 29 29" fill="none" xmlns="http://www.w3.org/2000/svg">
<g filter="url(#filter0_d)">
<path fill-rule="evenodd" clip-rule="evenodd" d="M11.9984 8.25001C11.6178 8.24919 11.2386 8.28895 10.8687 8.36832C10.4637 8.45522 10.065 8.19735 9.97805 7.79236C9.89116 7.38736 10.149 6.9886 10.554 6.9017C11.0286 6.79987 11.5141 6.74902 12.0008 6.75001C14.423 6.7503 16.2884 8.01916 17.5101 9.21376C18.1258 9.81572 18.5959 10.4155 18.9125 10.8649C19.0712 11.0902 19.1925 11.2794 19.2754 11.4144C19.3168 11.4819 19.3487 11.536 19.3709 11.5745C19.382 11.5937 19.3907 11.6091 19.397 11.6202L19.4045 11.6338L19.4069 11.6381L19.4078 11.6397C19.4079 11.64 19.4084 11.6409 18.75 12L19.4084 11.6409C19.5342 11.8714 19.5302 12.1509 19.3979 12.3778C18.9979 13.0638 18.5215 13.7085 17.9771 14.3016C17.6969 14.6067 17.2225 14.627 16.9174 14.3469C16.6122 14.0668 16.5919 13.5923 16.872 13.2872C17.2433 12.8828 17.577 12.452 17.8702 11.9993C17.8179 11.9194 17.7565 11.8285 17.6862 11.7288C17.4084 11.3345 16.9964 10.8093 16.4615 10.2863C15.3822 9.23099 13.8729 8.25001 12 8.25001L11.9984 8.25001ZM7.92491 8.04433C8.21302 7.84267 8.60256 7.86826 8.86179 8.1059L11.1973 10.2468C11.2026 10.2515 11.2079 10.2563 11.2131 10.2613L13.8033 12.6356C13.8059 12.638 13.8086 12.6404 13.8112 12.6428L16.1518 14.7884C16.3195 14.9421 16.4084 15.1637 16.3934 15.3907C16.3784 15.6178 16.2611 15.8257 16.0746 15.956C14.8989 16.7776 13.4749 17.228 12.0112 17.2499L12 17.2501C9.57746 17.2501 7.71175 15.981 6.48987 14.7863C5.87422 14.1843 5.40413 13.5845 5.08753 13.1351C4.92879 12.9098 4.80745 12.7206 4.72462 12.5856C4.68317 12.5181 4.65128 12.464 4.62907 12.4255C4.61797 12.4063 4.60928 12.3909 4.60303 12.3798L4.59548 12.3662L4.59307 12.3619L4.59221 12.3603C4.59206 12.36 4.59158 12.3591 5.25 12L4.59158 12.3591C4.46561 12.1282 4.46985 11.8481 4.60274 11.6211C5.42263 10.2205 6.55669 9.00205 7.92491 8.04433ZM6.13033 12.0014C6.18254 12.0811 6.24373 12.1718 6.31375 12.2712C6.59161 12.6655 7.00362 13.1907 7.53854 13.7137C8.61672 14.768 10.1241 15.748 11.9944 15.75C12.8339 15.7366 13.6512 15.5473 14.3858 15.2044L13.2431 14.1569C13.1601 14.2017 13.0746 14.242 12.9869 14.2778C12.6737 14.4058 12.3377 14.4738 11.9987 14.4792C11.6596 14.4847 11.3216 14.4276 11.0042 14.3101C10.6867 14.1926 10.3942 14.0161 10.1456 13.7882C9.89679 13.5602 9.69666 13.2848 9.56083 12.9765C9.42489 12.668 9.35711 12.3349 9.3636 11.9979C9.37008 11.6609 9.45062 11.3306 9.598 11.0274C9.62156 10.979 9.64673 10.9314 9.67344 10.8848L8.30485 9.63021C7.44309 10.3101 6.70927 11.1113 6.13033 12.0014ZM10.8658 11.9777C10.8645 11.9941 10.8636 12.0104 10.8633 12.0268C10.8611 12.1429 10.8842 12.2599 10.9335 12.3717C10.9828 12.4837 11.0583 12.59 11.1592 12.6825C11.2601 12.775 11.384 12.8512 11.525 12.9034C11.6613 12.9539 11.8088 12.9801 11.9587 12.9796L10.8658 11.9777Z" fill="#161618"/>
<path fill-rule="evenodd" clip-rule="evenodd" d="M4.71967 4.71967C5.01256 4.42678 5.48744 4.42678 5.78033 4.71967L19.2803 18.2197C19.5732 18.5126 19.5732 18.9874 19.2803 19.2803C18.9874 19.5732 18.5126 19.5732 18.2197 19.2803L4.71967 5.78033C4.42678 5.48744 4.42678 5.01256 4.71967 4.71967Z" fill="#161618"/>
</g>
<defs>
<filter id="filter0_d" x="0" y="0" width="32" height="32" filterUnits="userSpaceOnUse" color-interpolation-filters="sRGB">
<feFlood flood-opacity="0" result="BackgroundImageFix"/>
<feColorMatrix in="SourceAlpha" type="matrix" values="0 0 0 0 0 0 0 0 0 0 0 0 0 0 0 0 0 0 127 0"/>
<feOffset dx="4" dy="4"/>
<feGaussianBlur stdDeviation="2"/>
<feColorMatrix type="matrix" values="0 0 0 0 0.0862745 0 0 0 0 0.0862745 0 0 0 0 0.0941176 0 0 0 0.16 0"/>
<feBlend mode="normal" in2="BackgroundImageFix" result="effect1_dropShadow"/>
<feBlend mode="normal" in="SourceGraphic" in2="effect1_dropShadow" result="shape"/>
</filter>
</defs>
</svg>
