<svg width="24" height="24" viewBox="0 0 24 24" fill="none" xmlns="http://www.w3.org/2000/svg">
<path d="M22.5 20.1001H2.5C2.2 20.1001 2 19.9001 2 19.6001C2 19.3001 2.2 19.1001 2.5 19.1001H22.5C22.8 19.1001 23 19.3001 23 19.6001C23 19.9001 22.8 20.1001 22.5 20.1001Z" fill="#022342"/>
<path d="M13.0998 17.1001H11.3998C11.0998 17.1001 10.8998 16.9001 10.8998 16.6001V14.4001H8.7998C8.4998 14.4001 8.2998 14.2001 8.2998 13.9001V12.3001C8.2998 12.0001 8.4998 11.8001 8.7998 11.8001H10.9998V9.6001C10.8998 9.3001 11.1998 9.1001 11.3998 9.1001H12.9998C13.2998 9.1001 13.4998 9.3001 13.4998 9.6001V11.8001H15.6998C15.9998 11.8001 16.1998 12.0001 16.1998 12.3001V13.9001C16.1998 14.2001 15.9998 14.4001 15.6998 14.4001H13.4998V16.6001C13.5998 16.8001 13.2998 17.1001 13.0998 17.1001ZM11.8998 16.1001H12.4998V13.9001C12.4998 13.6001 12.6998 13.4001 12.9998 13.4001H15.1998V12.8001H12.9998C12.6998 12.8001 12.4998 12.6001 12.4998 12.3001V10.1001H11.8998V12.3001C11.8998 12.6001 11.6998 12.8001 11.3998 12.8001H9.2998V13.4001H11.4998C11.7998 13.4001 11.9998 13.6001 11.9998 13.9001V16.1001H11.8998Z" fill="#022342"/>
<path d="M4.5 20.1C4.4 20.1 4.2 20 4.1 20C4.1 19.9 4 19.7 4 19.6V8.4C4 7.8 4.4 7.3 5 7.3H8.4V4.1C8.4 3.5 8.8 3 9.4 3H15.5C16 3 16.5 3.5 16.5 4.1V7.3H20C20.5 7.3 21 7.8 21 8.4V19.4C21 19.7 20.8 19.9 20.5 19.9L4.5 20.1ZM5 8.4V19.1L20 19V8.4C20 8.3 20 8.3 20 8.3H16.1C15.8 8.3 15.6 8.1 15.6 7.8V4.2C15.6 4.1 15.6 4.1 15.6 4.1H9.4C9.4 4.1 9.4 4.1 9.4 4.2V7.9C9.4 8.2 9.2 8.4 8.9 8.4H5Z" fill="#022342"/>
</svg>
