<svg width="16" height="16" viewBox="0 0 16 16" fill="none" xmlns="http://www.w3.org/2000/svg">
<path fill-rule="evenodd" clip-rule="evenodd" d="M8.0001 2.3501C4.87969 2.3501 2.3501 4.87969 2.3501 8.0001C2.3501 11.1205 4.87969 13.6501 8.0001 13.6501C11.1205 13.6501 13.6501 11.1205 13.6501 8.0001C13.6501 4.87969 11.1205 2.3501 8.0001 2.3501ZM0.850098 8.0001C0.850098 4.05126 4.05126 0.850098 8.0001 0.850098C11.9489 0.850098 15.1501 4.05126 15.1501 8.0001C15.1501 11.9489 11.9489 15.1501 8.0001 15.1501C4.05126 15.1501 0.850098 11.9489 0.850098 8.0001Z" fill="#2F2F2F"/>
<path fill-rule="evenodd" clip-rule="evenodd" d="M8.00635 8.39014C7.59213 8.39014 7.25635 8.05435 7.25635 7.64014L7.25635 5.08014C7.25635 4.66592 7.59213 4.33014 8.00635 4.33014C8.42056 4.33014 8.75635 4.66592 8.75635 5.08014L8.75635 7.64014C8.75635 8.05435 8.42056 8.39014 8.00635 8.39014Z" fill="#2F2F2F"/>
<path fill-rule="evenodd" clip-rule="evenodd" d="M8.75659 10.5601C8.75659 10.9743 8.42081 11.3101 8.00659 11.3101L8.00019 11.3101C7.58598 11.3101 7.25019 10.9743 7.25019 10.5601C7.25019 10.1458 7.58598 9.81006 8.00019 9.81006L8.00659 9.81006C8.42081 9.81006 8.75659 10.1458 8.75659 10.5601Z" fill="#2F2F2F"/>
</svg>
