<svg width="80" height="80" viewBox="0 0 80 80" fill="none" xmlns="http://www.w3.org/2000/svg">
<path d="M6.57227 23.3903C6.57227 21.7334 7.91541 20.3903 9.57227 20.3903H73.9991C75.6559 20.3903 76.9991 21.7334 76.9991 23.3903V65.2805C76.9991 66.9374 75.656 68.2805 73.9991 68.2805H9.57227C7.91542 68.2805 6.57227 66.9374 6.57227 65.2805V23.3903Z" fill="#C1A6B0"/>
<path fill-rule="evenodd" clip-rule="evenodd" d="M14.0249 59.8292C14.0249 59.2769 14.4726 58.8292 15.0249 58.8292H25.3542C25.9065 58.8292 26.3542 59.2769 26.3542 59.8292C26.3542 60.3815 25.9065 60.8292 25.3542 60.8292H15.0249C14.4726 60.8292 14.0249 60.3815 14.0249 59.8292Z" fill="white"/>
<path fill-rule="evenodd" clip-rule="evenodd" d="M14.0249 45.7439C14.0249 45.1916 14.4726 44.7439 15.0249 44.7439H27.2322C27.7845 44.7439 28.2322 45.1916 28.2322 45.7439C28.2322 46.2962 27.7845 46.7439 27.2322 46.7439H15.0249C14.4726 46.7439 14.0249 46.2962 14.0249 45.7439Z" fill="white"/>
<path fill-rule="evenodd" clip-rule="evenodd" d="M29.9888 45.7439C29.9888 45.1916 30.4365 44.7439 30.9888 44.7439L39.44 44.7439C39.9923 44.7439 40.44 45.1916 40.44 45.7439C40.44 46.2962 39.9923 46.7439 39.44 46.7439L30.9888 46.7439C30.4365 46.7439 29.9888 46.2962 29.9888 45.7439Z" fill="white"/>
<path fill-rule="evenodd" clip-rule="evenodd" d="M43.1338 45.7439C43.1338 45.1916 43.5815 44.7439 44.1338 44.7439L52.585 44.7439C53.1373 44.7439 53.585 45.1916 53.585 45.7439C53.585 46.2962 53.1373 46.7439 52.585 46.7439L44.1338 46.7439C43.5815 46.7439 43.1338 46.2962 43.1338 45.7439Z" fill="white"/>
<path fill-rule="evenodd" clip-rule="evenodd" d="M55.3418 45.7439C55.3418 45.1916 55.7895 44.7439 56.3418 44.7439L68.5491 44.7439C69.1014 44.7439 69.5491 45.1916 69.5491 45.7439C69.5491 46.2962 69.1014 46.7439 68.5491 46.7439L56.3418 46.7439C55.7895 46.7439 55.3418 46.2962 55.3418 45.7439Z" fill="white"/>
<path fill-rule="evenodd" clip-rule="evenodd" d="M53.4639 28.8414C53.4639 28.2891 53.9116 27.8414 54.4639 27.8414L68.5492 27.8414C69.1015 27.8414 69.5492 28.2891 69.5492 28.8414C69.5492 29.3937 69.1015 29.8414 68.5492 29.8414L54.4639 29.8414C53.9116 29.8414 53.4639 29.3937 53.4639 28.8414Z" fill="white"/>
<path fill-rule="evenodd" clip-rule="evenodd" d="M29.9888 59.8292C29.9888 59.2769 30.4365 58.8292 30.9888 58.8292H48.8302C49.3825 58.8292 49.8302 59.2769 49.8302 59.8292C49.8302 60.3815 49.3825 60.8292 48.8302 60.8292H30.9888C30.4365 60.8292 29.9888 60.3815 29.9888 59.8292Z" fill="white"/>
<path d="M30.6534 25.8267C30.6534 34.0153 24.0153 40.6534 15.8267 40.6534C7.63814 40.6534 1 34.0153 1 25.8267C1 17.6381 7.63814 11 15.8267 11C24.0153 11 30.6534 17.6381 30.6534 25.8267Z" fill="#89455E"/>
<path fill-rule="evenodd" clip-rule="evenodd" d="M15.8267 12C8.19043 12 2 18.1904 2 25.8267C2 33.463 8.19043 39.6534 15.8267 39.6534C23.463 39.6534 29.6534 33.463 29.6534 25.8267C29.6534 18.1904 23.463 12 15.8267 12ZM0 25.8267C0 17.0859 7.08586 10 15.8267 10C24.5676 10 31.6534 17.0859 31.6534 25.8267C31.6534 34.5676 24.5676 41.6534 15.8267 41.6534C7.08586 41.6534 0 34.5676 0 25.8267Z" fill="#E6DBDF"/>
<path fill-rule="evenodd" clip-rule="evenodd" d="M22.3646 21.5612C22.7551 21.9517 22.7551 22.5849 22.3646 22.9754L14.8524 30.4876C14.4618 30.8781 13.8287 30.8781 13.4382 30.4876L9.68205 26.7315C9.29153 26.341 9.29153 25.7078 9.68205 25.3173C10.0726 24.9268 10.7057 24.9268 11.0963 25.3173L14.1453 28.3663L20.9503 21.5612C21.3409 21.1707 21.974 21.1707 22.3646 21.5612Z" fill="white"/>
</svg>
