<svg width="80" height="80" viewBox="0 0 80 80" fill="none" xmlns="http://www.w3.org/2000/svg">
<path d="M3 24.8001C3 23.1432 4.34315 21.8 6 21.8H74C75.6569 21.8 77 23.1432 77 24.8V69.12C77 70.7769 75.6569 72.12 74 72.12H6C4.34314 72.12 3 70.7769 3 69.12V24.8001Z" fill="#C1A6B0"/>
<path fill-rule="evenodd" clip-rule="evenodd" d="M10.8799 63.24C10.8799 62.6877 11.3276 62.24 11.8799 62.24H22.7332C23.2855 62.24 23.7332 62.6877 23.7332 63.24C23.7332 63.7923 23.2855 64.24 22.7332 64.24H11.8799C11.3276 64.24 10.8799 63.7923 10.8799 63.24Z" fill="white"/>
<path fill-rule="evenodd" clip-rule="evenodd" d="M10.8799 48.4399C10.8799 47.8877 11.3276 47.4399 11.8799 47.4399H24.7065C25.2588 47.4399 25.7065 47.8877 25.7065 48.4399C25.7065 48.9922 25.2588 49.4399 24.7065 49.4399H11.8799C11.3276 49.4399 10.8799 48.9922 10.8799 48.4399Z" fill="white"/>
<path fill-rule="evenodd" clip-rule="evenodd" d="M27.6533 48.4399C27.6533 47.8877 28.101 47.4399 28.6533 47.4399L37.5333 47.4399C38.0856 47.4399 38.5333 47.8877 38.5333 48.4399C38.5333 48.9922 38.0856 49.4399 37.5333 49.4399L28.6533 49.4399C28.101 49.4399 27.6533 48.9922 27.6533 48.4399Z" fill="white"/>
<path fill-rule="evenodd" clip-rule="evenodd" d="M41.4668 48.4399C41.4668 47.8877 41.9145 47.4399 42.4668 47.4399L51.3468 47.4399C51.8991 47.4399 52.3468 47.8877 52.3468 48.4399C52.3468 48.9922 51.8991 49.4399 51.3468 49.4399L42.4668 49.4399C41.9145 49.4399 41.4668 48.9922 41.4668 48.4399Z" fill="white"/>
<path fill-rule="evenodd" clip-rule="evenodd" d="M54.2935 48.4399C54.2935 47.8877 54.7412 47.4399 55.2935 47.4399L68.1201 47.4399C68.6724 47.4399 69.1201 47.8877 69.1201 48.4399C69.1201 48.9922 68.6724 49.4399 68.1201 49.4399L55.2935 49.4399C54.7412 49.4399 54.2935 48.9922 54.2935 48.4399Z" fill="white"/>
<path fill-rule="evenodd" clip-rule="evenodd" d="M27.6533 63.24C27.6533 62.6877 28.101 62.24 28.6533 62.24H47.4C47.9523 62.24 48.4 62.6877 48.4 63.24C48.4 63.7923 47.9523 64.24 47.4 64.24H28.6533C28.101 64.24 27.6533 63.7923 27.6533 63.24Z" fill="white"/>
<path d="M54.7223 21.021C54.7223 28.7647 48.4448 35.0421 40.7012 35.0421C32.9576 35.0421 26.6802 28.7647 26.6802 21.021C26.6802 13.2774 32.9576 7 40.7012 7C48.4448 7 54.7223 13.2774 54.7223 21.021Z" fill="#89455E"/>
<path fill-rule="evenodd" clip-rule="evenodd" d="M40.7012 8C33.5099 8 27.6802 13.8297 27.6802 21.021C27.6802 28.2124 33.5099 34.0421 40.7012 34.0421C47.8925 34.0421 53.7223 28.2124 53.7223 21.021C53.7223 13.8297 47.8925 8 40.7012 8ZM25.6802 21.021C25.6802 12.7252 32.4053 6 40.7012 6C48.9971 6 55.7223 12.7252 55.7223 21.021C55.7223 29.3169 48.9971 36.0421 40.7012 36.0421C32.4053 36.0421 25.6802 29.3169 25.6802 21.021Z" fill="#E6DBDF"/>
<path fill-rule="evenodd" clip-rule="evenodd" d="M41.1621 12.3353C41.7144 12.3353 42.1621 12.783 42.1621 13.3353V15.1407C42.1621 15.693 41.7144 16.1407 41.1621 16.1407C40.6098 16.1407 40.1621 15.693 40.1621 15.1407V13.3353C40.1621 12.783 40.6098 12.3353 41.1621 12.3353Z" fill="white"/>
<path fill-rule="evenodd" clip-rule="evenodd" d="M41.1618 16.1406C39.3602 16.1406 38.4141 17.2648 38.4141 18.1496C38.4141 18.5699 38.651 19.058 39.1725 19.4747C39.6882 19.8868 40.4058 20.1586 41.1618 20.1586C41.7141 20.1586 42.1618 20.6063 42.1618 21.1586C42.1618 21.7109 41.7141 22.1586 41.1618 22.1586C39.9453 22.1586 38.789 21.7283 37.924 21.0371C37.0647 20.3505 36.4141 19.3341 36.4141 18.1496C36.4141 15.8248 38.6239 14.1406 41.1618 14.1406C42.3783 14.1406 43.5346 14.5709 44.3996 15.2621C45.2589 15.9487 45.9095 16.9651 45.9095 18.1496C45.9095 18.7019 45.4618 19.1496 44.9095 19.1496C44.3573 19.1496 43.9095 18.7019 43.9095 18.1496C43.9095 17.7293 43.6726 17.2412 43.1511 16.8245C42.6354 16.4124 41.9178 16.1406 41.1618 16.1406Z" fill="white"/>
<path fill-rule="evenodd" clip-rule="evenodd" d="M41.1621 26.86C41.7144 26.86 42.1621 27.3077 42.1621 27.86V29.6654C42.1621 30.2177 41.7144 30.6654 41.1621 30.6654C40.6098 30.6654 40.1621 30.2177 40.1621 29.6654V27.86C40.1621 27.3077 40.6098 26.86 41.1621 26.86Z" fill="white"/>
<path fill-rule="evenodd" clip-rule="evenodd" d="M40.1618 21.1587C40.1618 20.6064 40.6095 20.1587 41.1618 20.1587C42.3783 20.1587 43.5346 20.589 44.3996 21.2802C45.2589 21.9668 45.9095 22.9832 45.9095 24.1677C45.9095 26.4924 43.6997 28.1766 41.1618 28.1766C39.9453 28.1766 38.789 27.7464 37.924 27.0552C37.0647 26.3686 36.4141 25.3521 36.4141 24.1677C36.4141 23.6154 36.8618 23.1677 37.4141 23.1677C37.9663 23.1677 38.4141 23.6154 38.4141 24.1677C38.4141 24.588 38.651 25.076 39.1725 25.4927C39.6882 25.9048 40.4058 26.1766 41.1618 26.1766C42.9634 26.1766 43.9095 25.0525 43.9095 24.1677C43.9095 23.7474 43.6726 23.2593 43.1511 22.8426C42.6354 22.4305 41.9178 22.1587 41.1618 22.1587C40.6095 22.1587 40.1618 21.711 40.1618 21.1587Z" fill="white"/>
<path fill-rule="evenodd" clip-rule="evenodd" d="M28.3243 31.6801C26.8786 31.6801 25.7065 32.8521 25.7065 34.2978V34.6267C25.7065 36.2541 27.0258 37.5734 28.6532 37.5734H53.3199C54.9473 37.5734 56.2665 36.2541 56.2665 34.6267V34.5106C56.2665 32.9474 54.9992 31.6801 53.436 31.6801V29.6801C56.1038 29.6801 58.2665 31.8428 58.2665 34.5106V34.6267C58.2665 37.3587 56.0518 39.5734 53.3199 39.5734H28.6532C25.9212 39.5734 23.7065 37.3587 23.7065 34.6267V34.2978C23.7065 31.7475 25.774 29.6801 28.3243 29.6801V31.6801Z" fill="white"/>
</svg>
