<svg width="80" height="80" viewBox="0 0 80 80" fill="none" xmlns="http://www.w3.org/2000/svg">
<path fill-rule="evenodd" clip-rule="evenodd" d="M40 9C22.8792 9 9 22.8792 9 40C9 57.1208 22.8792 71 40 71C57.1208 71 71 57.1208 71 40C71 32.6996 68.4802 25.9959 64.2605 20.6996C63.2281 19.4037 63.4417 17.5162 64.7375 16.4838C66.0334 15.4514 67.9209 15.665 68.9533 16.9608C73.9888 23.2812 77 31.2931 77 40C77 60.4345 60.4345 77 40 77C19.5655 77 3 60.4345 3 40C3 19.5655 19.5655 3 40 3C41.6569 3 43 4.34315 43 6C43 7.65685 41.6569 9 40 9Z" fill="#C1A6B0"/>
<path fill-rule="evenodd" clip-rule="evenodd" d="M40 9C22.8792 9 9 22.8792 9 40C9 57.1208 22.8792 71 40 71C57.1208 71 71 57.1208 71 40C71 38.3431 72.3431 37 74 37C75.6569 37 77 38.3431 77 40C77 60.4345 60.4345 77 40 77C19.5655 77 3 60.4345 3 40C3 19.5655 19.5655 3 40 3C41.6569 3 43 4.34315 43 6C43 7.65685 41.6569 9 40 9Z" fill="#89455E"/>
</svg>
