<svg width="80" height="80" viewBox="0 0 80 80" fill="none" xmlns="http://www.w3.org/2000/svg">
<path d="M41.9986 20.8C46.6378 20.8 50.3986 17.0392 50.3986 12.4C50.3986 7.76081 46.6378 4 41.9986 4C37.3594 4 33.5986 7.76081 33.5986 12.4C33.5986 17.0392 37.3594 20.8 41.9986 20.8Z" fill="#89455E"/>
<path d="M42.0014 75.9999C44.818 75.9999 47.1014 73.7166 47.1014 70.8999C47.1014 68.0833 44.818 65.7999 42.0014 65.7999C39.1847 65.7999 36.9014 68.0833 36.9014 70.8999C36.9014 73.7166 39.1847 75.9999 42.0014 75.9999Z" fill="#89455E"/>
<path d="M21.2993 28.6C25.4415 28.6 28.7993 25.2421 28.7993 21.1C28.7993 16.9578 25.4415 13.6 21.2993 13.6C17.1572 13.6 13.7993 16.9578 13.7993 21.1C13.7993 25.2421 17.1572 28.6 21.2993 28.6Z" fill="#C1A6B0"/>
<path d="M62.7 66.6999C65.0196 66.6999 66.9 64.8195 66.9 62.4999C66.9 60.1803 65.0196 58.2999 62.7 58.2999C60.3804 58.2999 58.5 60.1803 58.5 62.4999C58.5 64.8195 60.3804 66.6999 62.7 66.6999Z" fill="#C1A6B0"/>
<path d="M12.6 48.4001C16.2451 48.4001 19.2 45.4452 19.2 41.8001C19.2 38.155 16.2451 35.2001 12.6 35.2001C8.95492 35.2001 6 38.155 6 41.8001C6 45.4452 8.95492 48.4001 12.6 48.4001Z" fill="#89455E"/>
<path d="M71.3986 45.1C73.2212 45.1 74.6986 43.6225 74.6986 41.8C74.6986 39.9775 73.2212 38.5 71.3986 38.5C69.5761 38.5 68.0986 39.9775 68.0986 41.8C68.0986 43.6225 69.5761 45.1 71.3986 45.1Z" fill="#89455E"/>
<path d="M17.0993 58.3C14.6993 60.7 14.6993 64.3 17.0993 66.7C19.4993 69.1 23.0993 69.1 25.4993 66.7C27.8993 64.3 27.8993 60.7 25.4993 58.3C23.0993 55.9 19.4993 55.9 17.0993 58.3Z" fill="#C1A6B0"/>
<path d="M62.6993 23.5001C64.0248 23.5001 65.0993 22.4256 65.0993 21.1001C65.0993 19.7746 64.0248 18.7001 62.6993 18.7001C61.3738 18.7001 60.2993 19.7746 60.2993 21.1001C60.2993 22.4256 61.3738 23.5001 62.6993 23.5001Z" fill="#C1A6B0"/>
</svg>
