<svg width="24" height="24" viewBox="0 0 24 24" fill="none" xmlns="http://www.w3.org/2000/svg">
<path fill-rule="evenodd" clip-rule="evenodd" d="M12 2C6.5 2 2 6.5 2 12C2 17.5 6.5 22 12 22C17.5 22 22 17.5 22 12C22 6.5 17.5 2 12 2ZM10.9 10.4C11.2 10.6 11.7 10.8 12.1 10.8C12.9 10.8 13.6 11.1 14.2 11.6C14.7 12 15.1 12.7 15.2 13.5C15.2 14.8 14.2 15.7 12.9 16V16.9C12.9 17.4 12.5 17.7 12.1 17.7C11.6 17.7 11.3 17.3 11.3 16.9V16C10.8 15.9 10.4 15.7 10 15.4C9.4 14.9 9 14.3 9 13.5C9 13 9.2 12.7 9.7 12.7C10.2 12.7 10.5 13.1 10.5 13.5C10.5 13.7 10.6 13.9 10.8 14.2C11.1 14.4 11.6 14.6 12 14.6C13.1 14.6 13.6 14 13.6 13.5C13.6 13.3 13.5 13 13.3 12.7C13 12.5 12.5 12.3 12.1 12.3C11.3 12.3 10.6 12 10 11.6C9.4 11.1 9 10.5 9 9.7C9 8.4 10 7.5 11.3 7.3V6.8C11.3 6.3 11.7 6 12.1 6C12.5 6 12.8 6.3 12.8 6.8V7.2C13.3 7.3 13.8 7.5 14.3 7.8C14.9 8.3 15.3 8.9 15.3 9.7C15.3 10.2 15 10.5 14.5 10.5C14 10.5 13.7 10.1 13.7 9.7C13.7 9.5 13.6 9.2 13.3 9C13 8.8 12.5 8.6 12.1 8.6C11 8.6 10.5 9.2 10.5 9.7C10.5 9.9 10.6 10.2 10.9 10.4Z" fill="white"/>
</svg>
