<svg width="24" height="24" viewBox="0 0 24 24" fill="none" xmlns="http://www.w3.org/2000/svg">
<path fill-rule="evenodd" clip-rule="evenodd" d="M12 3.75C7.44365 3.75 3.75 7.44365 3.75 12C3.75 16.5563 7.44365 20.25 12 20.25C16.5563 20.25 20.25 16.5563 20.25 12C20.25 7.44365 16.5563 3.75 12 3.75ZM2.25 12C2.25 6.61522 6.61522 2.25 12 2.25C17.3848 2.25 21.75 6.61522 21.75 12C21.75 17.3848 17.3848 21.75 12 21.75C6.61522 21.75 2.25 17.3848 2.25 12Z" fill="#161618"/>
<path fill-rule="evenodd" clip-rule="evenodd" d="M12.322 6.25C12.7362 6.25 13.072 6.58579 13.072 7V8.11867C13.072 8.53288 12.7362 8.86867 12.322 8.86867C11.9078 8.86867 11.572 8.53288 11.572 8.11867V7C11.572 6.58579 11.9078 6.25 12.322 6.25Z" fill="#161618"/>
<path fill-rule="evenodd" clip-rule="evenodd" d="M12.3222 8.86865C11.2539 8.86865 10.75 9.52871 10.75 9.9831C10.75 10.1937 10.8699 10.4617 11.171 10.7023C11.4678 10.9395 11.8838 11.0975 12.3222 11.0975C12.7364 11.0975 13.0722 11.4333 13.0722 11.8475C13.0722 12.2618 12.7364 12.5975 12.3222 12.5975C11.5384 12.5975 10.7933 12.3206 10.2346 11.8741C9.68013 11.4311 9.25 10.7669 9.25 9.9831C9.25 8.44874 10.7017 7.36865 12.3222 7.36865C13.106 7.36865 13.8511 7.6456 14.4098 8.09207C14.9643 8.53511 15.3944 9.19935 15.3944 9.9831C15.3944 10.3973 15.0586 10.7331 14.6444 10.7331C14.2302 10.7331 13.8944 10.3973 13.8944 9.9831C13.8944 9.77248 13.7745 9.5045 13.4735 9.26391C13.1766 9.02674 12.7607 8.86865 12.3222 8.86865Z" fill="#161618"/>
<path fill-rule="evenodd" clip-rule="evenodd" d="M12.322 15.25C12.7362 15.25 13.072 15.5858 13.072 16V17.1187C13.072 17.5329 12.7362 17.8687 12.322 17.8687C11.9078 17.8687 11.572 17.5329 11.572 17.1187V16C11.572 15.5858 11.9078 15.25 12.322 15.25Z" fill="#161618"/>
<path fill-rule="evenodd" clip-rule="evenodd" d="M11.5722 11.8477C11.5722 11.4334 11.908 11.0977 12.3222 11.0977C13.106 11.0977 13.8511 11.3746 14.4098 11.8211C14.9643 12.2641 15.3944 12.9284 15.3944 13.7121C15.3944 15.2465 13.9427 16.3266 12.3222 16.3266C11.5384 16.3266 10.7933 16.0496 10.2346 15.6031C9.68013 15.1601 9.25 14.4959 9.25 13.7121C9.25 13.2979 9.58579 12.9621 10 12.9621C10.4142 12.9621 10.75 13.2979 10.75 13.7121C10.75 13.9227 10.8699 14.1907 11.171 14.4313C11.4678 14.6685 11.8838 14.8266 12.3222 14.8266C13.3905 14.8266 13.8944 14.1665 13.8944 13.7121C13.8944 13.5015 13.7745 13.2335 13.4735 12.9929C13.1766 12.7557 12.7607 12.5977 12.3222 12.5977C11.908 12.5977 11.5722 12.2619 11.5722 11.8477Z" fill="#161618"/>
</svg>
