<svg width="16" height="16" viewBox="0 0 16 16" fill="none" xmlns="http://www.w3.org/2000/svg">
<path d="M8.7846 4.63623V8.99987H7.86202V5.51194H7.83645L6.83716 6.13836V5.32018L7.91741 4.63623H8.7846Z" fill="#9D9FA2"/>
<path fill-rule="evenodd" clip-rule="evenodd" d="M8 15C11.866 15 15 11.866 15 8C15 4.13401 11.866 1 8 1C4.13401 1 1 4.13401 1 8C1 11.866 4.13401 15 8 15ZM8 16C12.4183 16 16 12.4183 16 8C16 3.58172 12.4183 0 8 0C3.58172 0 0 3.58172 0 8C0 12.4183 3.58172 16 8 16Z" fill="#9D9FA2"/>
<path fill-rule="evenodd" clip-rule="evenodd" d="M5.31836 12.3643C5.31836 12.0881 5.54222 11.8643 5.81836 11.8643H10.5456C10.8218 11.8643 11.0456 12.0881 11.0456 12.3643C11.0456 12.6404 10.8218 12.8643 10.5456 12.8643H5.81836C5.54222 12.8643 5.31836 12.6404 5.31836 12.3643Z" fill="#9D9FA2"/>
</svg>
