<svg width="16" height="16" viewBox="0 0 16 16" fill="none" xmlns="http://www.w3.org/2000/svg">
<path d="M4.82835 8.54585L4.88161 7.72128L4.19127 8.18364L3.90576 7.6808L4.64937 7.31858L3.90576 6.95637L4.19127 6.45352L4.88161 6.91588L4.82835 6.09131H5.4015L5.3461 6.91588L6.03644 6.45352L6.32195 6.95637L5.58048 7.31858L6.32195 7.6808L6.03644 8.18364L5.3461 7.72128L5.4015 8.54585H4.82835Z" fill="#9D9FA2"/>
<path d="M8.21507 8.54585L8.26833 7.72128L7.57799 8.18364L7.29248 7.6808L8.03609 7.31858L7.29248 6.95637L7.57799 6.45352L8.26833 6.91588L8.21507 6.09131H8.78822L8.73282 6.91588L9.42316 6.45352L9.70867 6.95637L8.9672 7.31858L9.70867 7.6808L9.42316 8.18364L8.73282 7.72128L8.78822 8.54585H8.21507Z" fill="#9D9FA2"/>
<path d="M11.6018 8.54585L11.6551 7.72128L10.9647 8.18364L10.6792 7.6808L11.4228 7.31858L10.6792 6.95637L10.9647 6.45352L11.6551 6.91588L11.6018 6.09131H12.1749L12.1195 6.91588L12.8099 6.45352L13.0954 6.95637L12.3539 7.31858L13.0954 7.6808L12.8099 8.18364L12.1195 7.72128L12.1749 8.54585H11.6018Z" fill="#9D9FA2"/>
<path fill-rule="evenodd" clip-rule="evenodd" d="M8 15C11.866 15 15 11.866 15 8C15 4.13401 11.866 1 8 1C4.13401 1 1 4.13401 1 8C1 11.866 4.13401 15 8 15ZM8 16C12.4183 16 16 12.4183 16 8C16 3.58172 12.4183 0 8 0C3.58172 0 0 3.58172 0 8C0 12.4183 3.58172 16 8 16Z" fill="#9D9FA2"/>
<path fill-rule="evenodd" clip-rule="evenodd" d="M5.31836 12.3643C5.31836 12.0881 5.54222 11.8643 5.81836 11.8643H10.5456C10.8218 11.8643 11.0456 12.0881 11.0456 12.3643C11.0456 12.6404 10.8218 12.8643 10.5456 12.8643H5.81836C5.54222 12.8643 5.31836 12.6404 5.31836 12.3643Z" fill="#9D9FA2"/>
</svg>
