<svg width="16" height="16" viewBox="0 0 16 16" fill="none" xmlns="http://www.w3.org/2000/svg">
<path fill-rule="evenodd" clip-rule="evenodd" d="M8 2.5C4.96243 2.5 2.5 4.96243 2.5 8C2.5 11.0376 4.96243 13.5 8 13.5C11.0376 13.5 13.5 11.0376 13.5 8C13.5 4.96243 11.0376 2.5 8 2.5ZM1.5 8C1.5 4.41015 4.41015 1.5 8 1.5C11.5899 1.5 14.5 4.41015 14.5 8C14.5 11.5899 11.5899 14.5 8 14.5C4.41015 14.5 1.5 11.5899 1.5 8Z" fill="#161618"/>
<path fill-rule="evenodd" clip-rule="evenodd" d="M8.24085 4.59956C8.51696 4.60381 8.73735 4.83108 8.7331 5.10719L8.68563 8.19275C8.68138 8.46886 8.4541 8.68925 8.178 8.685C7.90189 8.68075 7.6815 8.45348 7.68575 8.17737L7.73322 5.09181C7.73746 4.8157 7.96474 4.59531 8.24085 4.59956Z" fill="#161618"/>
<path fill-rule="evenodd" clip-rule="evenodd" d="M8.20166 10.0287C8.47777 10.0329 8.69816 10.2602 8.69391 10.5363L8.68567 11.0724C8.68142 11.3485 8.45414 11.5689 8.17803 11.5646C7.90192 11.5604 7.68154 11.3331 7.68578 11.057L7.69403 10.5209C7.69828 10.2448 7.92555 10.0245 8.20166 10.0287Z" fill="#161618"/>
</svg>
