<?xml version="1.0" encoding="utf-8"?>
<!-- Generator: Adobe Illustrator 22.1.0, SVG Export Plug-In . SVG Version: 6.00 Build 0)  -->
<svg version="1.1" id="Layer_1" xmlns="http://www.w3.org/2000/svg" xmlns:xlink="http://www.w3.org/1999/xlink" x="0px" y="0px"
	 width="24px" height="24px" viewBox="0 0 24 24" style="enable-background:new 0 0 24 24;" xml:space="preserve">
<style type="text/css">
	.st0{fill:#C1A6B0;}
</style>
<path class="st0" d="M20,22.7c-0.1,0-0.2,0-0.3,0c-3.2-0.3-6.3-1.4-9-3.2c-2.5-1.6-4.6-3.7-6.2-6.2c-1.7-2.7-2.8-5.8-3.2-9
	c0-0.4,0-0.8,0.1-1.1c0.1-0.4,0.3-0.7,0.6-1C2.3,1.9,2.6,1.6,3,1.5c0.4-0.2,0.7-0.2,1.1-0.2h3c0.6,0,1.3,0.2,1.8,0.7
	c0.5,0.4,0.8,1,0.9,1.7c0.1,0.9,0.3,1.8,0.7,2.7c0.2,0.5,0.2,1,0.1,1.5c-0.1,0.5-0.4,1-0.7,1.4L9,10c1.2,2,2.9,3.7,4.9,4.9l0.9-0.9
	c0.4-0.4,0.8-0.6,1.4-0.7c0.5-0.1,1-0.1,1.5,0.1c0.9,0.3,1.7,0.5,2.6,0.7c0.7,0.1,1.3,0.4,1.7,0.9c0.4,0.5,0.7,1.2,0.7,1.8v3
	c0,0.4-0.1,0.8-0.2,1.1c-0.2,0.4-0.4,0.7-0.7,0.9c-0.3,0.3-0.6,0.5-1,0.6C20.6,22.6,20.3,22.7,20,22.7z M7.1,2.8
	C7.1,2.8,7.1,2.8,7.1,2.8h-3c-0.2,0-0.3,0-0.5,0.1C3.4,2.9,3.3,3,3.2,3.2C3.1,3.3,3,3.4,2.9,3.6C2.9,3.8,2.9,3.9,2.9,4.1
	c0.3,2.9,1.3,5.8,3,8.3c1.5,2.3,3.5,4.3,5.8,5.8c2.5,1.6,5.4,2.6,8.3,3c0.2,0,0.3,0,0.5-0.1c0.2-0.1,0.3-0.1,0.4-0.3
	c0.1-0.1,0.2-0.3,0.3-0.4c0.1-0.2,0.1-0.3,0.1-0.5v-3c0,0,0,0,0,0c0-0.3-0.1-0.6-0.3-0.8c-0.2-0.2-0.5-0.4-0.8-0.4
	c-1-0.1-2-0.4-3-0.7c-0.2-0.1-0.5-0.1-0.7-0.1s-0.4,0.2-0.6,0.3l-1.3,1.3c-0.2,0.2-0.6,0.3-0.9,0.1c-2.6-1.5-4.8-3.7-6.3-6.3
	C7.3,10,7.3,9.6,7.6,9.4l1.3-1.3C9,7.9,9.1,7.7,9.2,7.5c0-0.2,0-0.5-0.1-0.7c-0.4-1-0.6-2-0.7-3c0-0.3-0.2-0.6-0.4-0.8
	C7.7,2.9,7.4,2.8,7.1,2.8z"/>
</svg>
