<svg width="32" height="32" viewBox="0 0 32 32" fill="none" xmlns="http://www.w3.org/2000/svg">
<path d="M2 6C2 3.79086 3.79086 2 6 2H26C28.2091 2 30 3.79086 30 6V26C30 28.2091 28.2091 30 26 30H6C3.79086 30 2 28.2091 2 26V6Z" fill="#E6DBDF"/>
<rect width="19.3846" height="19.3846" transform="translate(6.30762 6.3075)" fill="#E6DBDF"/>
<path fill-rule="evenodd" clip-rule="evenodd" d="M20.1649 18.2963C20.4577 18.5892 20.4577 19.0641 20.1649 19.357L16.5302 22.9916C16.2373 23.2845 15.7625 23.2845 15.4696 22.9916L11.835 19.357C11.5421 19.0641 11.5421 18.5892 11.835 18.2963C12.1279 18.0034 12.6027 18.0034 12.8956 18.2963L15.2499 20.6506V9.53821C15.2499 9.12399 15.5857 8.78821 15.9999 8.78821C16.4141 8.78821 16.7499 9.12399 16.7499 9.53821V20.6506L19.1042 18.2963C19.3971 18.0034 19.872 18.0034 20.1649 18.2963Z" fill="#89455E"/>
</svg>
