<svg width="16" height="16" viewBox="0 0 16 16" fill="none" xmlns="http://www.w3.org/2000/svg">
<path fill-rule="evenodd" clip-rule="evenodd" d="M8 2.5C4.96243 2.5 2.5 4.96243 2.5 8C2.5 11.0376 4.96243 13.5 8 13.5C11.0376 13.5 13.5 11.0376 13.5 8C13.5 4.96243 11.0376 2.5 8 2.5ZM1.5 8C1.5 4.41015 4.41015 1.5 8 1.5C11.5899 1.5 14.5 4.41015 14.5 8C14.5 11.5899 11.5899 14.5 8 14.5C4.41015 14.5 1.5 11.5899 1.5 8Z" fill="#161618"/>
<path fill-rule="evenodd" clip-rule="evenodd" d="M11.0256 5.18904C11.2179 5.38728 11.213 5.70382 11.0148 5.89606L5.80642 10.9466C5.60817 11.1388 5.29163 11.1339 5.09939 10.9357C4.90716 10.7374 4.91203 10.4209 5.11027 10.2287L10.3186 5.17816C10.5168 4.98592 10.8334 4.99079 11.0256 5.18904Z" fill="#161618"/>
<path fill-rule="evenodd" clip-rule="evenodd" d="M10.9369 11.0263C10.7387 11.2185 10.4221 11.2136 10.2299 11.0154L5.17938 5.80706C4.98714 5.60881 4.99201 5.29227 5.19026 5.10003C5.3885 4.9078 5.70505 4.91267 5.89728 5.11091L10.9478 10.3192C11.14 10.5175 11.1352 10.834 10.9369 11.0263Z" fill="#161618"/>
</svg>
