<svg width="24" height="24" viewBox="0 0 24 24" fill="none" xmlns="http://www.w3.org/2000/svg">
<path fill-rule="evenodd" clip-rule="evenodd" d="M9.00011 4.21333C9.00011 3.14579 9.8959 2.25 10.9634 2.25H12.2834C13.351 2.25 14.2468 3.14579 14.2468 4.21333C14.2468 4.39277 14.3555 4.56191 14.5064 4.63034C15.4303 4.93711 16.1568 5.35166 16.8696 5.95849C16.963 6.02511 17.0419 6.0513 17.1003 6.05745C17.1536 6.06307 17.2247 6.05658 17.3242 5.99688C17.3407 5.987 17.3575 5.97776 17.3747 5.96918C18.2821 5.51549 19.4454 5.82318 20.0229 6.73068C20.028 6.73883 20.0331 6.74708 20.0379 6.75543L20.6913 7.87543C20.6994 7.88934 20.7071 7.90351 20.7143 7.91792C21.1617 8.81273 20.8687 9.95737 20.0146 10.5426C19.9168 10.6188 19.8383 10.7139 19.7926 10.8054C19.7499 10.8908 19.7451 10.9515 19.7506 10.9903C19.8605 11.449 19.8603 11.9799 19.8601 12.3244C19.8601 12.3365 19.8601 12.3484 19.8601 12.36C19.8601 12.3716 19.8601 12.3835 19.8601 12.3956C19.8603 12.7408 19.8605 13.2732 19.7499 13.7326C19.7241 13.8809 19.7703 14.0261 19.9577 14.1405C20.4425 14.4205 20.7966 14.8661 20.9146 15.4069C21.031 15.9406 20.9006 16.4911 20.5649 16.9584L19.9313 18.0446C19.9237 18.0575 19.9158 18.0702 19.9075 18.0827C19.3876 18.8626 18.2048 19.4356 17.1874 18.7574C17.1759 18.7497 17.1645 18.7417 17.1534 18.7333C17.1492 18.7302 17.1152 18.7072 17.0247 18.7163C16.943 18.7245 16.8522 18.7569 16.7764 18.806C16.1051 19.4441 15.271 19.8499 14.5032 20.1386C14.3471 20.2039 14.2334 20.3766 14.2334 20.56C14.2334 21.6275 13.3377 22.5233 12.2701 22.5233H10.9501C9.88256 22.5233 8.98678 21.6275 8.98678 20.56V20.4667C8.98678 20.2837 8.8737 20.1115 8.71818 20.0457C7.86851 19.7303 7.1493 19.2164 6.52075 18.7674L6.51383 18.7624C6.3507 18.6676 6.23201 18.6313 6.14882 18.6229C6.07707 18.6158 6.0051 18.6256 5.90932 18.6831C5.89286 18.693 5.87602 18.7022 5.85885 18.7108C4.95647 19.162 3.80001 18.8603 3.21941 17.9894C3.2111 17.9769 3.20316 17.9642 3.19561 17.9512L2.5523 16.8484C1.94285 15.9092 2.289 14.7257 3.23418 14.1519C3.32491 14.0779 3.39761 13.988 3.44096 13.9013C3.48364 13.8159 3.48843 13.7552 3.48293 13.7164C3.37307 13.2577 3.37329 12.7268 3.37343 12.3823C3.37344 12.3702 3.37344 12.3583 3.37344 12.3467C3.37344 12.1243 3.3993 11.9063 3.42037 11.7286C3.42203 11.7146 3.42366 11.7008 3.42525 11.6874C3.44845 11.4901 3.46678 11.3186 3.46678 11.1333C3.46678 11.0839 3.47166 11.0347 3.48134 10.9862C3.5121 10.8325 3.4676 10.6811 3.27091 10.5631C3.2607 10.557 3.25065 10.5506 3.24075 10.544C2.45845 10.0225 1.90155 8.854 2.55048 7.8347L3.18499 6.74696C3.69035 5.77224 4.90795 5.54382 5.77257 5.96607C5.79192 5.97552 5.81085 5.9858 5.82932 5.99688C5.99111 6.09395 6.22087 6.07609 6.39344 5.94667L6.40752 5.93637C7.07697 5.45819 7.8829 4.94898 8.73159 4.63422C8.88707 4.56849 9.00011 4.39626 9.00011 4.21333ZM10.9634 3.75C10.7243 3.75 10.5001 3.97421 10.5001 4.21333C10.5001 4.96113 10.0564 5.71992 9.28199 6.02969L9.26272 6.03709C8.59818 6.28192 7.9177 6.70145 7.28553 7.15257C6.72047 7.57189 5.85411 7.73852 5.09488 7.30496C4.98351 7.25655 4.85149 7.24831 4.7346 7.28085C4.61377 7.3145 4.54566 7.37928 4.51426 7.44208C4.50706 7.45648 4.49939 7.47066 4.49128 7.48457L3.83795 8.60457C3.83176 8.61518 3.82531 8.62563 3.81861 8.63592C3.7699 8.71073 3.75271 8.80499 3.79062 8.92887C3.83028 9.05847 3.92614 9.19446 4.06211 9.2887C4.7607 9.71774 5.0846 10.4559 4.96622 11.2023C4.96213 11.4554 4.9365 11.6797 4.91497 11.8626L4.91368 11.8736C4.88945 12.0795 4.87344 12.2156 4.87344 12.3467C4.87344 12.7445 4.87783 13.1119 4.94438 13.3781C4.94727 13.3896 4.94988 13.4012 4.95221 13.4129C5.12324 14.2681 4.61069 14.9954 4.10678 15.3733C4.0819 15.392 4.05588 15.4091 4.02888 15.4245C3.86555 15.5178 3.78944 15.6388 3.76266 15.7383C3.73615 15.8368 3.74942 15.9402 3.81415 16.0373C3.82246 16.0498 3.8304 16.0625 3.83795 16.0754L4.47757 17.1719C4.64243 17.4029 4.95763 17.4722 5.171 17.3772C5.95481 16.9256 6.72127 17.1374 7.30932 17.4902C7.32643 17.5005 7.34313 17.5114 7.35937 17.523C8.02653 17.9996 8.59961 18.4035 9.24939 18.6429L9.26865 18.6503C10.0431 18.9601 10.4868 19.7189 10.4868 20.4667V20.56C10.4868 20.7991 10.711 21.0233 10.9501 21.0233H12.2701C12.5092 21.0233 12.7334 20.7991 12.7334 20.56C12.7334 19.8122 13.1772 19.0534 13.9516 18.7436L13.9668 18.7378C14.6727 18.473 15.3075 18.1445 15.7727 17.6901C15.796 17.6674 15.8207 17.6462 15.8468 17.6267C16.3748 17.2307 17.2999 16.989 18.0292 17.5155C18.0922 17.5537 18.176 17.5691 18.2929 17.5332C18.4199 17.4941 18.5546 17.3998 18.6489 17.2659L19.2889 16.1688C19.3035 16.1438 19.3195 16.1198 19.3368 16.0967C19.4603 15.932 19.4661 15.8047 19.449 15.7265C19.431 15.6438 19.3687 15.5316 19.2047 15.4378L19.1909 15.4298C18.4543 14.9878 18.1254 14.2058 18.2813 13.4262C18.2837 13.4146 18.2863 13.403 18.2892 13.3914C18.3557 13.1252 18.3601 12.7578 18.3601 12.36C18.3601 11.9622 18.3557 11.5948 18.2892 11.3286C18.2863 11.317 18.2837 11.3054 18.2813 11.2938C18.1103 10.4386 18.6229 9.71127 19.1268 9.33333C19.1379 9.32501 19.1492 9.31699 19.1607 9.3093C19.4037 9.14734 19.4778 8.82291 19.3804 8.60509L18.751 7.52623C18.5846 7.27541 18.2727 7.20929 18.0625 7.3028C17.2922 7.74649 16.5092 7.56352 15.9534 7.14667C15.9404 7.1369 15.9277 7.12671 15.9154 7.11611C15.3361 6.61957 14.769 6.29512 14.0096 6.04595C13.9945 6.04101 13.9796 6.03558 13.9649 6.02969C13.1905 5.71992 12.7468 4.96113 12.7468 4.21333C12.7468 3.97421 12.5226 3.75 12.2834 3.75H10.9634Z" fill="#161618"/>
<path fill-rule="evenodd" clip-rule="evenodd" d="M11.6035 9.97656C10.2651 9.97656 9.18018 11.0615 9.18018 12.3999C9.18018 13.7383 10.2651 14.8232 11.6035 14.8232C12.9419 14.8232 14.0268 13.7383 14.0268 12.3999C14.0268 11.0615 12.9419 9.97656 11.6035 9.97656ZM7.68018 12.3999C7.68018 10.2331 9.43671 8.47656 11.6035 8.47656C13.7703 8.47656 15.5268 10.2331 15.5268 12.3999C15.5268 14.5667 13.7703 16.3232 11.6035 16.3232C9.43671 16.3232 7.68018 14.5667 7.68018 12.3999Z" fill="#161618"/>
</svg>
