<svg width="24" height="24" viewBox="0 0 24 24" fill="none" xmlns="http://www.w3.org/2000/svg">
<g clip-path="url(#clip0)">
<path fill-rule="evenodd" clip-rule="evenodd" d="M21.7 15.2C21.6 14.7 21.2 14.2 20.7 13.9C20.5 13.8 20.5 13.6 20.5 13.5C20.6 13 20.6 12.5 20.6 12.2C20.6 11.9 20.6 11.3 20.5 10.9C20.5 10.9 20.5 10.8 20.5 10.7C20.5 10.6 20.6 10.5 20.7 10.4C21.6 9.8 21.8 8.7 21.4 7.8L20.7 6.7C20.1 5.8 19 5.5 18.1 5.9C18.1 5.9 18.1 5.9 18 5.9C17.9 6 17.8 6 17.8 6C17.7 6 17.7 6 17.6 5.9C16.9 5.3 16.2 4.9 15.2 4.6C15.1 4.3 15 4.1 15 4C15 2.9 14.1 2 13 2H11.7C10.6 2 9.7 2.9 9.7 4C9.7 4.2 9.6 4.4 9.4 4.4C8.6 4.7 7.8 5.2 7.2 5.7C7 5.8 6.7 5.8 6.6 5.7C6.6 5.7 6.6 5.7 6.5 5.7C5.7 5.3 4.4 5.5 3.9 6.5L3.3 7.6C2.7 8.6 3.2 9.8 4 10.3C4.2 10.4 4.2 10.6 4.2 10.7V10.8C4.2 11 4.2 11.2 4.2 11.4C4.2 11.6 4.2 11.8 4.2 12C4.2 12.3 4.2 12.9 4.3 13.3C4.3 13.3 4.3 13.4 4.3 13.5C4.3 13.6 4.2 13.7 4.1 13.8C3.2 14.4 2.8 15.6 3.4 16.5L4 17.6C4.6 18.5 5.7 18.8 6.6 18.3C6.6 18.3 6.6 18.3 6.7 18.3C6.8 18.2 6.9 18.2 6.9 18.2C7 18.2 7.1 18.2 7.3 18.3C7.9 18.7 8.6 19.3 9.5 19.6C9.7 19.7 9.8 19.8 9.8 20V20.1C9.8 21.2 10.7 22.1 11.8 22.1H13C14.1 22.1 15 21.2 15 20.1C15 19.9 15.1 19.7 15.3 19.7C16.1 19.4 16.9 19 17.6 18.4C17.7 18.4 17.8 18.3 17.8 18.3C17.9 18.3 17.9 18.3 17.9 18.3C18.9 19 20.1 18.4 20.6 17.6L21.2 16.5C21.5001 16 21.7756 15.578 21.7 15.2ZM12.4 14.6C11.1 14.6 10 13.5 10 12.2C10 10.9 11 9.7 12.4 9.7C13.8 9.7 14.8 10.8 14.8 12.1C14.8 13.4 13.7 14.6 12.4 14.6Z" fill="white"/>
</g>
<defs>
<clipPath id="clip0">
<rect width="18.7" height="20.3" fill="white" transform="translate(3 2)"/>
</clipPath>
</defs>
</svg>
