<svg width="29" height="29" viewBox="0 0 29 29" fill="none" xmlns="http://www.w3.org/2000/svg">
<g filter="url(#filter0_d)">
<path fill-rule="evenodd" clip-rule="evenodd" d="M5.87877 12C5.93541 12.0869 6.0027 12.1869 6.08044 12.2972C6.36931 12.7072 6.79765 13.2532 7.35388 13.7971C8.47575 14.8941 10.0475 15.9167 12 15.9167C13.9525 15.9167 15.5242 14.8941 16.6461 13.7971C17.2023 13.2532 17.6307 12.7072 17.9196 12.2972C17.9973 12.1869 18.0646 12.0869 18.1212 12C18.0646 11.9132 17.9973 11.8132 17.9196 11.7028C17.6307 11.2928 17.2023 10.7468 16.6461 10.203C15.5242 9.10602 13.9525 8.08337 12 8.08337C10.0475 8.08337 8.47575 9.10602 7.35388 10.203C6.79765 10.7468 6.36931 11.2928 6.08044 11.7028C6.0027 11.8132 5.93541 11.9132 5.87877 12ZM19 12C19.6584 11.6409 19.6583 11.6406 19.6581 11.6404L19.6569 11.6381L19.6545 11.6337L19.6467 11.6198C19.6403 11.6083 19.6313 11.5925 19.6199 11.5727C19.597 11.533 19.564 11.4771 19.5212 11.4073C19.4355 11.2677 19.31 11.072 19.1458 10.8389C18.8182 10.3739 18.3317 9.75325 17.6948 9.13045C16.4303 7.89406 14.5021 6.58337 12 6.58337C9.49791 6.58337 7.5697 7.89406 6.30521 9.13045C5.66826 9.75325 5.18183 10.3739 4.85422 10.8389C4.68997 11.072 4.56447 11.2677 4.47883 11.4073C4.43599 11.4771 4.40304 11.533 4.38013 11.5727C4.36868 11.5925 4.35973 11.6083 4.3533 11.6198L4.34554 11.6337L4.34309 11.6381L4.34221 11.6397C4.34206 11.64 4.34158 11.6409 5 12L4.34158 11.6409C4.21947 11.8648 4.21947 12.1353 4.34158 12.3592L5 12C4.34158 12.3592 4.34143 12.3589 4.34158 12.3592L4.34221 12.3603L4.34309 12.3619L4.34554 12.3664L4.3533 12.3803C4.35973 12.3918 4.36868 12.4076 4.38013 12.4274C4.40304 12.4671 4.43599 12.523 4.47883 12.5928C4.56447 12.7324 4.68997 12.9281 4.85422 13.1612C5.18183 13.6262 5.66826 14.2468 6.30521 14.8696C7.5697 16.106 9.49791 17.4167 12 17.4167C14.5021 17.4167 16.4303 16.106 17.6948 14.8696C18.3317 14.2468 18.8182 13.6262 19.1458 13.1612C19.31 12.9281 19.4355 12.7324 19.5212 12.5928C19.564 12.523 19.597 12.4671 19.6199 12.4274C19.6313 12.4076 19.6403 12.3918 19.6467 12.3803L19.6545 12.3664L19.6569 12.3619L19.6578 12.3603C19.6579 12.3601 19.6584 12.3592 19 12ZM19 12L19.6584 12.3592C19.7805 12.1353 19.7802 11.8642 19.6581 11.6404L19 12Z" fill="#161618"/>
<path fill-rule="evenodd" clip-rule="evenodd" d="M12.0003 10.4167C11.1259 10.4167 10.417 11.1256 10.417 12.0001C10.417 12.8745 11.1259 13.5834 12.0003 13.5834C12.8748 13.5834 13.5837 12.8745 13.5837 12.0001C13.5837 11.1256 12.8748 10.4167 12.0003 10.4167ZM8.91699 12.0001C8.91699 10.2972 10.2974 8.91675 12.0003 8.91675C13.7032 8.91675 15.0837 10.2972 15.0837 12.0001C15.0837 13.703 13.7032 15.0834 12.0003 15.0834C10.2974 15.0834 8.91699 13.703 8.91699 12.0001Z" fill="#161618"/>
</g>
<defs>
<filter id="filter0_d" x="0" y="0" width="32" height="32" filterUnits="userSpaceOnUse" color-interpolation-filters="sRGB">
<feFlood flood-opacity="0" result="BackgroundImageFix"/>
<feColorMatrix in="SourceAlpha" type="matrix" values="0 0 0 0 0 0 0 0 0 0 0 0 0 0 0 0 0 0 127 0"/>
<feOffset dx="4" dy="4"/>
<feGaussianBlur stdDeviation="2"/>
<feColorMatrix type="matrix" values="0 0 0 0 0.0862745 0 0 0 0 0.0862745 0 0 0 0 0.0941176 0 0 0 0.16 0"/>
<feBlend mode="normal" in2="BackgroundImageFix" result="effect1_dropShadow"/>
<feBlend mode="normal" in="SourceGraphic" in2="effect1_dropShadow" result="shape"/>
</filter>
</defs>
</svg>
