<svg width="16" height="16" viewBox="0 0 16 16" fill="none" xmlns="http://www.w3.org/2000/svg">
<path d="M8.12873 10.2573C7.6756 10.2573 7.27219 10.1955 6.9185 10.072C6.56481 9.9498 6.2658 9.77011 6.02148 9.53289C5.77717 9.2971 5.59109 9.00875 5.46325 8.66784C5.3354 8.32693 5.27148 7.93914 5.27148 7.50448C5.27148 7.07551 5.3354 6.6863 5.46325 6.33687C5.59251 5.98744 5.78072 5.68772 6.02788 5.43772C6.27504 5.1863 6.57688 4.99312 6.93342 4.85818C7.29137 4.72323 7.69904 4.65576 8.15643 4.65576C8.57972 4.65576 8.95756 4.71755 9.28995 4.84113C9.62376 4.96471 9.90643 5.14085 10.138 5.36954C10.3709 5.59681 10.5478 5.86741 10.6685 6.18133C10.7907 6.49383 10.851 6.83971 10.8496 7.21897C10.851 7.48034 10.8283 7.72039 10.7814 7.93914C10.7346 8.15789 10.6607 8.34894 10.5598 8.5123C10.4604 8.67423 10.3297 8.80278 10.1678 8.89795C10.0059 8.9917 9.80984 9.04497 9.57972 9.05775C9.41495 9.07053 9.28143 9.05846 9.17915 9.02153C9.07688 8.9846 8.99876 8.92991 8.94478 8.85747C8.89222 8.7836 8.85813 8.69767 8.84251 8.59965H8.81694C8.78285 8.68488 8.71609 8.7623 8.61665 8.8319C8.51722 8.90008 8.39577 8.95335 8.25231 8.9917C8.11026 9.02863 7.95898 9.04213 7.79847 9.03218C7.63086 9.02224 7.47177 8.98318 7.3212 8.915C7.17205 8.84681 7.03924 8.74809 6.92276 8.61883C6.80771 8.48957 6.7168 8.32977 6.65004 8.13943C6.58469 7.94909 6.55131 7.72892 6.54989 7.47892C6.55131 7.23176 6.58612 7.01656 6.6543 6.83332C6.7239 6.65008 6.81552 6.49596 6.92915 6.37096C7.04421 6.24596 7.17205 6.14795 7.31268 6.07693C7.4533 6.0059 7.59464 5.96045 7.73668 5.94056C7.89719 5.91642 8.04918 5.91642 8.19265 5.94056C8.33612 5.96471 8.45685 6.00377 8.55487 6.05775C8.6543 6.11173 8.71609 6.16997 8.74023 6.23247H8.77006V5.99383H9.43697V8.07338C9.43839 8.17139 9.4604 8.24738 9.50302 8.30136C9.54563 8.35534 9.60316 8.38232 9.6756 8.38232C9.77361 8.38232 9.85529 8.339 9.92063 8.25235C9.98739 8.1657 10.0371 8.03289 10.0698 7.85392C10.1039 7.67494 10.1209 7.44696 10.1209 7.16997C10.1209 6.90292 10.0854 6.66855 10.0144 6.46684C9.94478 6.26372 9.84677 6.09113 9.72035 5.94909C9.59535 5.80562 9.44975 5.68914 9.28356 5.59965C9.11737 5.51017 8.93697 5.44482 8.74237 5.40363C8.54918 5.36244 8.35032 5.34184 8.14577 5.34184C7.79208 5.34184 7.48313 5.39582 7.21893 5.50377C6.95472 5.61031 6.73455 5.76017 6.55842 5.95335C6.38228 6.14653 6.25018 6.37309 6.16211 6.63303C6.07546 6.89156 6.03143 7.17352 6.03001 7.47892C6.03143 7.81556 6.0783 8.11386 6.17063 8.3738C6.26438 8.63232 6.40217 8.84965 6.58398 9.02579C6.7658 9.20193 6.99023 9.33545 7.25728 9.42636C7.52433 9.51727 7.83114 9.56272 8.17773 9.56272C8.34109 9.56272 8.50089 9.55065 8.65714 9.5265C8.81339 9.50377 8.95472 9.47536 9.08114 9.44127C9.20756 9.4086 9.30913 9.37664 9.38583 9.34539L9.59677 9.96329C9.50728 10.0144 9.38583 10.062 9.23242 10.106C9.08043 10.1515 8.90856 10.1877 8.7168 10.2147C8.52646 10.2431 8.33043 10.2573 8.12873 10.2573ZM8.03072 8.33119C8.20401 8.33119 8.3418 8.29781 8.44407 8.23105C8.54776 8.16428 8.62163 8.06556 8.66566 7.93488C8.71112 7.80278 8.73242 7.64014 8.72958 7.44696C8.72816 7.2765 8.70614 7.13232 8.66353 7.01443C8.62234 6.89511 8.5506 6.80491 8.44833 6.74383C8.34748 6.68133 8.20685 6.65008 8.02646 6.65008C7.86879 6.65008 7.73455 6.68346 7.62376 6.75022C7.51438 6.81698 7.43058 6.91073 7.37234 7.03147C7.31552 7.15079 7.2864 7.29142 7.28498 7.45335C7.2864 7.60392 7.31055 7.74667 7.35742 7.88161C7.4043 8.01514 7.48171 8.1238 7.58967 8.20761C7.69762 8.28999 7.84464 8.33119 8.03072 8.33119Z" fill="#9D9FA2"/>
<path fill-rule="evenodd" clip-rule="evenodd" d="M8 15C11.866 15 15 11.866 15 8C15 4.13401 11.866 1 8 1C4.13401 1 1 4.13401 1 8C1 11.866 4.13401 15 8 15ZM8 16C12.4183 16 16 12.4183 16 8C16 3.58172 12.4183 0 8 0C3.58172 0 0 3.58172 0 8C0 12.4183 3.58172 16 8 16Z" fill="#9D9FA2"/>
<path fill-rule="evenodd" clip-rule="evenodd" d="M5.31836 12.3643C5.31836 12.0881 5.54222 11.8643 5.81836 11.8643H10.5456C10.8218 11.8643 11.0456 12.0881 11.0456 12.3643C11.0456 12.6404 10.8218 12.8643 10.5456 12.8643H5.81836C5.54222 12.8643 5.31836 12.6404 5.31836 12.3643Z" fill="#9D9FA2"/>
</svg>
