<svg width="24" height="24" viewBox="0 0 24 24" fill="none" xmlns="http://www.w3.org/2000/svg">
<path d="M12 2L15.09 8.58254L22 9.64458L17 14.7655L18.18 22L12 18.5825L5.82 22L7 14.7655L2 9.64458L8.91 8.58254L12 2Z" fill="#89455E"/>
<path fill-rule="evenodd" clip-rule="evenodd" d="M12 1.25C12.2908 1.25 12.5554 1.41808 12.6789 1.6813L15.5991 7.90198L22.114 8.90329C22.3917 8.94598 22.6223 9.14038 22.7114 9.40694C22.8004 9.67349 22.733 9.96746 22.5366 10.1685L17.8012 15.0185L18.9202 21.8793C18.9665 22.1627 18.8467 22.4477 18.6119 22.6132C18.3771 22.7786 18.0684 22.7953 17.8171 22.6563L12 19.4396L6.18296 22.6563C5.9316 22.7953 5.62294 22.7786 5.38811 22.6132C5.15329 22.4477 5.03356 22.1627 5.0798 21.8793L6.19884 15.0185L1.46339 10.1685C1.26706 9.96746 1.19962 9.67349 1.28867 9.40694C1.37772 9.14038 1.60831 8.94598 1.88608 8.90329L8.40097 7.90198L11.3211 1.6813C11.4447 1.41808 11.7092 1.25 12 1.25ZM12 3.76498L9.58894 8.90124C9.48276 9.12743 9.27092 9.28588 9.02395 9.32384L3.55567 10.1643L7.53665 14.2416C7.70301 14.4119 7.77857 14.6512 7.74024 14.8862L6.80891 20.5961L11.6371 17.9262C11.8629 17.8013 12.1371 17.8013 12.363 17.9262L17.1911 20.5961L16.2598 14.8862C16.2215 14.6512 16.297 14.4119 16.4634 14.2416L20.4444 10.1643L14.9761 9.32384C14.7291 9.28588 14.5173 9.12743 14.4111 8.90124L12 3.76498Z" fill="#89455E"/>
</svg>
