<svg width="24" height="24" viewBox="0 0 24 24" fill="none" xmlns="http://www.w3.org/2000/svg">
<path fill-rule="evenodd" clip-rule="evenodd" d="M12 4.25C12.2829 4.25 12.5417 4.40917 12.6694 4.66163L14.656 8.59141L19.106 9.2265C19.3906 9.26712 19.6269 9.46686 19.7144 9.74071C19.8019 10.0146 19.7252 10.3143 19.5169 10.5125L16.3083 13.5639L17.0647 17.8702C17.114 18.1507 17.0002 18.4348 16.771 18.6037C16.5418 18.7727 16.2367 18.7972 15.9834 18.6672L12 16.6218L8.01661 18.6672C7.76333 18.7972 7.45825 18.7727 7.22905 18.6037C6.99985 18.4348 6.88607 18.1507 6.93533 17.8702L7.69176 13.5639L4.48317 10.5125C4.27484 10.3143 4.1981 10.0146 4.28561 9.74071C4.37311 9.46686 4.60945 9.26712 4.89406 9.2265L9.34406 8.59141L11.3307 4.66163C11.4583 4.40917 11.7171 4.25 12 4.25ZM12 6.66238L10.5064 9.61702C10.3958 9.83565 10.1855 9.98652 9.94299 10.0211L6.63899 10.4927L9.01688 12.7541C9.19889 12.9272 9.28217 13.1799 9.23871 13.4273L8.67377 16.6435L11.6574 15.1115C11.8725 15.001 12.1276 15.001 12.3426 15.1115L15.3263 16.6435L14.7613 13.4273C14.7179 13.1799 14.8012 12.9272 14.9832 12.7541L17.3611 10.4927L14.0571 10.0211C13.8145 9.98652 13.6042 9.83565 13.4937 9.61702L12 6.66238Z" fill="#89455E"/>
</svg>
