<?xml version="1.0" encoding="utf-8"?>
<!-- Generator: Adobe Illustrator 22.1.0, SVG Export Plug-In . SVG Version: 6.00 Build 0)  -->
<svg version="1.1" id="Layer_1" xmlns="http://www.w3.org/2000/svg" xmlns:xlink="http://www.w3.org/1999/xlink" x="0px" y="0px"
	 width="80px" height="80px" viewBox="0 0 80 80" style="enable-background:new 0 0 80 80;" xml:space="preserve">
<style type="text/css">
	.st0{opacity:0.61;fill:#E6DBDF;enable-background:new    ;}
	.st1{fill:#89455E;}
</style>
<path class="st0" d="M40,0C17.9,0,0,17.9,0,40c0,22.1,17.9,40,40,40c22.1,0,40-17.9,40-40C80,17.9,62.1,0,40,0z M40,69.6
	c-16.3,0-29.6-13.2-29.6-29.6c0-16.3,13.2-29.6,29.6-29.6c16.3,0,29.6,13.2,29.6,29.6C69.6,56.3,56.3,69.6,40,69.6z"/>
<path class="st1" d="M40,10.4c-16.3,0-29.6,13.2-29.6,29.6c0,16.3,13.2,29.6,29.6,29.6c16.3,0,29.6-13.2,29.6-29.6
	C69.6,23.7,56.3,10.4,40,10.4z M55.9,30.4l-22.3,22c-0.8,0.8-2,0.8-2.8,0l-6.7-6.6c-0.8-0.8-0.8-2,0-2.8c0.8-0.8,2-0.8,2.8,0
	l5.3,5.2l20.9-20.6c0.8-0.8,2.1-0.8,2.8,0C56.7,28.4,56.7,29.6,55.9,30.4z"/>
</svg>
