<svg width="24" height="24" viewBox="0 0 24 24" fill="none" xmlns="http://www.w3.org/2000/svg">
<g clip-path="url(#clip0)">
<path fill-rule="evenodd" clip-rule="evenodd" d="M16.07 2.86573C14.1003 1.98806 11.8996 1.77064 9.79619 2.24587C7.69279 2.72111 5.79935 3.86354 4.39828 5.5028C2.99721 7.14205 2.16356 9.19029 2.02168 11.342C1.87979 13.4938 2.43727 15.6338 3.61096 17.4428C4.78466 19.2518 6.51168 20.633 8.53447 21.3803C10.5573 22.1276 12.7674 22.201 14.8354 21.5896C16.9033 20.9782 18.7182 19.7147 20.0093 17.9875C21.3005 16.2604 21.9988 14.1621 22 12.0057V10.9943C22 10.442 22.4477 9.99429 23 9.99429C23.5523 9.99429 24 10.442 24 10.9943V12.0063C23.9985 14.594 23.1606 17.1125 21.6112 19.1851C20.0618 21.2576 17.8839 22.7738 15.4024 23.5075C12.9209 24.2412 10.2687 24.1531 7.84136 23.2564C5.41402 22.3596 3.34158 20.7022 1.93315 18.5313C0.524719 16.3605 -0.144251 13.7925 0.0260121 11.2104C0.196275 8.62834 1.19665 6.17046 2.87794 4.20335C4.55922 2.23625 6.83134 0.865327 9.35542 0.295044C11.8795 -0.27524 14.5203 -0.0143272 16.884 1.03887C17.3885 1.26365 17.6152 1.85482 17.3904 2.3593C17.1656 2.86377 16.5745 3.09051 16.07 2.86573Z" fill="#89455E"/>
<path fill-rule="evenodd" clip-rule="evenodd" d="M23.6567 3.29254C24.0475 3.68287 24.0478 4.31603 23.6575 4.70675L12.1575 16.2182C11.97 16.4059 11.7156 16.5114 11.4502 16.5115C11.1849 16.5116 10.9305 16.4062 10.7429 16.2186L7.29289 12.7686C6.90237 12.3781 6.90237 11.7449 7.29289 11.3544C7.68342 10.9639 8.31658 10.9639 8.70711 11.3544L11.4496 14.0969L22.2425 3.29325C22.6329 2.90253 23.266 2.90221 23.6567 3.29254Z" fill="#89455E"/>
</g>
<defs>
<clipPath id="clip0">
<rect width="24" height="24" fill="white"/>
</clipPath>
</defs>
</svg>
