<svg width="32" height="32" viewBox="0 0 32 32" fill="none" xmlns="http://www.w3.org/2000/svg">
<rect opacity="0.4" width="32" height="32" rx="10" transform="matrix(-1 0 0 1 32 0)" fill="#C1A6B0"/>
<path fill-rule="evenodd" clip-rule="evenodd" d="M23.6999 22.2004H22.9999C24.4999 20.5004 25.4999 18.2004 25.4999 15.7004C25.4999 10.3004 21.1999 5.90039 15.6999 5.90039C14.3999 6.00039 13.1999 6.20039 11.9999 6.70039C11.5999 6.90039 11.3999 7.30039 11.5999 7.70039C11.7999 8.10039 12.1999 8.30039 12.5999 8.10039C13.5999 7.70039 14.5999 7.50039 15.7999 7.50039C20.3999 7.50039 24.0999 11.2004 24.0999 15.8004C24.0999 17.9004 23.2999 19.8004 22.0999 21.2004V20.4004C22.0999 20.0004 21.7999 19.6004 21.3999 19.6004C20.9999 19.6004 20.5999 19.9004 20.5999 20.3004L20.4999 22.8004V22.9004C20.4999 23.1004 20.5999 23.3004 20.6999 23.4004C20.7999 23.5004 20.9999 23.6004 21.1999 23.6004H23.7999C24.1999 23.6004 24.5999 23.3004 24.5999 22.8004C24.5999 22.3004 24.1999 22.2004 23.6999 22.2004ZM18.6 23.5004C17.7 23.8004 16.7 24.0004 15.7 24.0004C11.1 24.0004 7.4 20.3004 7.4 15.7004C7.4 13.7004 8.1 11.9004 9.3 10.4004V11.2004C9.3 11.6004 9.6 12.0004 10.1 12.0004C10.5 12.0004 10.9 11.7004 10.9 11.2004V8.70038V8.50038C10.9 8.45788 10.9 8.43344 10.8923 8.41172C10.8819 8.38232 10.8575 8.35788 10.8 8.30038L10.8 8.30038C10.8 8.25038 10.775 8.22537 10.75 8.20037C10.725 8.17537 10.7 8.15038 10.7 8.10038C10.5 8.00038 10.3 7.90038 10.1 8.00038H7.6C7.2 8.00038 6.8 8.30038 6.8 8.70038C6.8 9.10038 7.1 9.40038 7.6 9.40038H8.3C6.8 11.2004 6 13.4004 6 15.8004C6 21.2004 10.3 25.6004 15.8 25.6004C17 25.6004 18.1 25.4004 19.2 25.0004C19.6 24.9004 19.8 24.4004 19.7 24.0004C19.4 23.6004 19 23.4004 18.6 23.5004ZM14.5998 18.0004C14.8998 18.2004 15.3998 18.4004 15.7998 18.4004C16.7998 18.4004 17.2998 17.8004 17.3998 17.3004C17.3998 17.1004 17.2998 16.8004 17.0998 16.5004C16.7998 16.3004 16.2998 16.1004 15.8998 16.1004C15.0998 16.1004 14.3998 15.8004 13.7998 15.4004C13.1998 14.9004 12.7998 14.3004 12.7998 13.5004C12.7998 12.2004 13.7998 11.3004 14.9998 11.1004V10.6004C14.9998 10.1004 15.4998 9.80038 15.7998 9.80038C16.1998 9.80038 16.4998 10.1004 16.4998 10.6004V11.0004C16.9998 11.1004 17.4998 11.3004 17.9998 11.6004C18.5998 12.1004 18.9998 12.7004 18.9998 13.5004C18.9998 14.0004 18.6998 14.3004 18.1998 14.3004C17.6998 14.3004 17.3998 13.9004 17.3998 13.5004C17.3998 13.3004 17.2998 13.0004 16.9998 12.8004C16.6998 12.6004 16.1998 12.4004 15.7998 12.4004C14.6998 12.4004 14.1998 13.0004 14.1998 13.5004C14.1998 13.7004 14.2998 14.0004 14.6998 14.2004C14.9998 14.4004 15.4998 14.6004 15.8998 14.6004C16.6998 14.6004 17.3998 14.9004 17.9998 15.4004C18.4998 15.8004 18.8998 16.5004 18.9998 17.3004C18.9998 18.6004 17.9998 19.5004 16.6998 19.8004V20.7004C16.6998 21.2004 16.2998 21.5004 15.8998 21.5004C15.3998 21.5004 15.0998 21.1004 15.0998 20.7004V19.8004C14.5998 19.7004 14.1998 19.5004 13.7998 19.2004C13.1998 18.7004 12.7998 18.1004 12.7998 17.3004C12.7998 16.8004 12.9998 16.5004 13.4998 16.5004C13.9998 16.5004 14.2998 16.9004 14.2998 17.3004C14.2998 17.5004 14.3998 17.7004 14.5998 18.0004Z" fill="#89455E"/>
</svg>
