<svg width="24" height="24" viewBox="0 0 24 24" fill="none" xmlns="http://www.w3.org/2000/svg">
<path fill-rule="evenodd" clip-rule="evenodd" d="M17.4966 15.8627C17.9106 15.8746 18.2367 16.2198 18.2248 16.6339L18.1719 18.4875H19.9877C20.4019 18.4875 20.7377 18.8233 20.7377 19.2375C20.7377 19.6517 20.4019 19.9875 19.9877 19.9875H17.4001C17.1975 19.9875 17.0035 19.9055 16.8623 19.7602C16.7211 19.6149 16.6447 19.4186 16.6505 19.2161L16.7255 16.591C16.7373 16.177 17.0825 15.8509 17.4966 15.8627Z" fill="#161618"/>
<path fill-rule="evenodd" clip-rule="evenodd" d="M6.90119 4.41549C7.04423 4.55645 7.12477 4.74888 7.12477 4.94971V7.57477C7.12477 7.98898 6.78898 8.32477 6.37477 8.32477C5.96056 8.32477 5.62477 7.98898 5.62477 7.57477V5.71082L3.83574 5.73713C3.42157 5.74322 3.08088 5.41241 3.07479 4.99824C3.0687 4.58407 3.39951 4.24338 3.81368 4.23729L6.36374 4.19979C6.56454 4.19684 6.75814 4.27454 6.90119 4.41549Z" fill="#161618"/>
<path fill-rule="evenodd" clip-rule="evenodd" d="M6.96049 4.48121C7.21924 4.80466 7.1668 5.27663 6.84336 5.53539C4.95331 7.04742 3.74976 9.38451 3.74976 11.9999C3.74976 16.5733 7.42656 20.2501 12 20.2501C13.0011 20.2501 13.9683 20.0775 14.8672 19.7664C15.2586 19.6309 15.6858 19.8383 15.8213 20.2298C15.9568 20.6212 15.7493 21.0483 15.3579 21.1838C14.3068 21.5477 13.1739 21.7501 12 21.7501C6.59814 21.7501 2.24976 17.4017 2.24976 11.9999C2.24976 8.91516 3.67126 6.15213 5.90631 4.36408C6.22976 4.10533 6.70173 4.15777 6.96049 4.48121Z" fill="#161618"/>
<path fill-rule="evenodd" clip-rule="evenodd" d="M12.0001 3.74963C10.859 3.74963 9.83156 3.95602 8.83676 4.36766C8.45402 4.52604 8.01536 4.34415 7.85699 3.96141C7.69861 3.57867 7.8805 3.14001 8.26324 2.98164C9.4435 2.49325 10.6661 2.24963 12.0001 2.24963C17.4039 2.24963 21.7503 6.63755 21.7503 11.9998C21.7503 15.207 20.207 18.0528 17.8469 19.8025C17.5141 20.0492 17.0444 19.9794 16.7977 19.6467C16.551 19.3139 16.6208 18.8442 16.9535 18.5975C18.9435 17.1222 20.2503 14.7178 20.2503 11.9998C20.2503 7.46191 16.5715 3.74963 12.0001 3.74963Z" fill="#161618"/>
<path fill-rule="evenodd" clip-rule="evenodd" d="M12.322 6.25C12.7362 6.25 13.072 6.58579 13.072 7V8.11867C13.072 8.53288 12.7362 8.86867 12.322 8.86867C11.9078 8.86867 11.572 8.53288 11.572 8.11867V7C11.572 6.58579 11.9078 6.25 12.322 6.25Z" fill="#161618"/>
<path fill-rule="evenodd" clip-rule="evenodd" d="M12.3222 8.86865C11.2539 8.86865 10.75 9.52871 10.75 9.9831C10.75 10.1937 10.8699 10.4617 11.171 10.7023C11.4678 10.9395 11.8838 11.0975 12.3222 11.0975C12.7364 11.0975 13.0722 11.4333 13.0722 11.8475C13.0722 12.2618 12.7364 12.5975 12.3222 12.5975C11.5384 12.5975 10.7933 12.3206 10.2346 11.8741C9.68013 11.4311 9.25 10.7669 9.25 9.9831C9.25 8.44874 10.7017 7.36865 12.3222 7.36865C13.106 7.36865 13.8511 7.6456 14.4098 8.09207C14.9643 8.53511 15.3944 9.19935 15.3944 9.9831C15.3944 10.3973 15.0586 10.7331 14.6444 10.7331C14.2302 10.7331 13.8944 10.3973 13.8944 9.9831C13.8944 9.77248 13.7745 9.5045 13.4735 9.26391C13.1766 9.02674 12.7607 8.86865 12.3222 8.86865Z" fill="#161618"/>
<path fill-rule="evenodd" clip-rule="evenodd" d="M12.322 15.25C12.7362 15.25 13.072 15.5858 13.072 16V17.1187C13.072 17.5329 12.7362 17.8687 12.322 17.8687C11.9078 17.8687 11.572 17.5329 11.572 17.1187V16C11.572 15.5858 11.9078 15.25 12.322 15.25Z" fill="#161618"/>
<path fill-rule="evenodd" clip-rule="evenodd" d="M11.5722 11.8477C11.5722 11.4334 11.908 11.0977 12.3222 11.0977C13.106 11.0977 13.8511 11.3746 14.4098 11.8211C14.9643 12.2641 15.3944 12.9284 15.3944 13.7121C15.3944 15.2465 13.9427 16.3266 12.3222 16.3266C11.5384 16.3266 10.7933 16.0496 10.2346 15.6031C9.68013 15.1601 9.25 14.4959 9.25 13.7121C9.25 13.2979 9.58579 12.9621 10 12.9621C10.4142 12.9621 10.75 13.2979 10.75 13.7121C10.75 13.9227 10.8699 14.1907 11.171 14.4313C11.4678 14.6685 11.8838 14.8266 12.3222 14.8266C13.3905 14.8266 13.8944 14.1665 13.8944 13.7121C13.8944 13.5015 13.7745 13.2335 13.4735 12.9929C13.1766 12.7557 12.7607 12.5977 12.3222 12.5977C11.908 12.5977 11.5722 12.2619 11.5722 11.8477Z" fill="#161618"/>
</svg>
