<svg width="80" height="80" viewBox="0 0 80 80" fill="none" xmlns="http://www.w3.org/2000/svg">
<path d="M66.2546 57.2C64.1546 57.2 62.2546 56.2 61.1546 54.5L58.1546 50.0999C54.4546 56.4999 47.6546 60.5999 39.9546 60.5999C29.1546 60.5999 20.3546 52.4 19.2546 41.9H21.2546C22.0546 41.9 22.7546 41.4999 23.0546 40.7999C23.4546 40.0999 23.3546 39.3 22.9546 38.7L19.9546 34.2999L15.3546 27.6C14.9546 27 14.3546 26.7 13.6546 26.7C13.5546 26.7 13.4546 26.7 13.3546 26.7C13.2546 26.7 13.1546 26.7 13.1546 26.7C12.9546 26.8 12.7546 26.9 12.5546 27C12.3546 27.2 12.0546 27.4 11.9546 27.6L4.35464 38.7C3.95464 39.3 3.85464 40.1999 4.25464 40.7999C4.65464 41.4999 5.35464 41.9 6.05464 41.9H8.15464C8.65464 49.6 11.8546 56.7999 17.4546 62.2999C23.4546 68.2999 31.4546 71.5999 39.9546 71.5999C48.4546 71.5999 56.4546 68.2999 62.4546 62.2999C64.0546 60.6999 65.4546 58.8999 66.6546 57.0999C66.5546 57.0999 66.4546 57.2 66.2546 57.2Z" fill="#C1A6B0"/>
<path d="M75.7559 38.9C75.3559 38.2 74.6559 37.8 73.9559 37.8H71.8559C71.2559 30 67.9559 22.9 62.4559 17.3C56.4559 11.3 48.4559 8 39.9559 8C31.4559 8 23.4559 11.3 17.4559 17.3C15.8559 18.9 14.4559 20.7 13.2559 22.5C13.3559 22.5 13.5559 22.5 13.6559 22.5C15.7559 22.5 17.6559 23.5 18.7559 25.2L21.7559 29.6C25.3559 23.2 32.1559 19 39.8559 19C50.6559 19 59.4559 27.2 60.5559 37.7H58.5559C57.7559 37.7 57.0559 38.1 56.7559 38.8C56.3559 39.5 56.4559 40.3 56.8559 40.9L59.8559 45.3L64.4559 52C64.5559 52.1 64.6559 52.3 64.7559 52.4C65.1559 52.7 65.6559 52.9 66.1559 52.9C66.8559 52.9 67.4559 52.6 67.8559 52L70.5559 48L75.4559 40.9C76.0559 40.4 76.0559 39.6 75.7559 38.9Z" fill="#C1A6B0"/>
<path fill-rule="evenodd" clip-rule="evenodd" d="M40.0898 28.4141C40.6421 28.4141 41.0898 28.8618 41.0898 29.4141V31.7794C41.0898 32.3317 40.6421 32.7794 40.0898 32.7794C39.5376 32.7794 39.0898 32.3317 39.0898 31.7794V29.4141C39.0898 28.8618 39.5376 28.4141 40.0898 28.4141Z" fill="#89455E"/>
<path fill-rule="evenodd" clip-rule="evenodd" d="M40.0898 32.7792C37.6152 32.7792 36.1797 34.3388 36.1797 35.7214C36.1797 36.3905 36.5543 37.1119 37.2899 37.6997C38.0197 38.2829 39.0278 38.6636 40.0898 38.6636C40.642 38.6636 41.0898 39.1113 41.0898 39.6636C41.0898 40.2158 40.642 40.6636 40.0898 40.6636C38.5674 40.6636 37.1205 40.1244 36.0414 39.2621C34.968 38.4044 34.1797 37.1547 34.1797 35.7214C34.1797 32.8989 36.8789 30.7792 40.0898 30.7792C41.6121 30.7792 43.059 31.3183 44.1381 32.1806C45.2115 33.0383 45.9998 34.288 45.9998 35.7214C45.9998 36.2736 45.5521 36.7214 44.9998 36.7214C44.4475 36.7214 43.9998 36.2736 43.9998 35.7214C43.9998 35.0522 43.6252 34.3308 42.8896 33.7431C42.1598 33.1599 41.1517 32.7792 40.0898 32.7792Z" fill="#89455E"/>
<path fill-rule="evenodd" clip-rule="evenodd" d="M40.0898 47.4435C40.6421 47.4435 41.0898 47.8912 41.0898 48.4435V50.8088C41.0898 51.3611 40.6421 51.8088 40.0898 51.8088C39.5376 51.8088 39.0898 51.3611 39.0898 50.8088V48.4435C39.0898 47.8912 39.5376 47.4435 40.0898 47.4435Z" fill="#89455E"/>
<path fill-rule="evenodd" clip-rule="evenodd" d="M39.0898 39.6638C39.0898 39.1115 39.5375 38.6638 40.0898 38.6638C41.6121 38.6638 43.059 39.203 44.1381 40.0652C45.2115 40.9229 45.9998 42.1727 45.9998 43.606C45.9998 46.4285 43.3006 48.5482 40.0898 48.5482C38.5674 48.5482 37.1205 48.009 36.0414 47.1468C34.968 46.2891 34.1797 45.0393 34.1797 43.606C34.1797 43.0537 34.6274 42.606 35.1797 42.606C35.732 42.606 36.1797 43.0537 36.1797 43.606C36.1797 44.2752 36.5543 44.9965 37.2899 45.5843C38.0197 46.1675 39.0278 46.5482 40.0898 46.5482C42.5643 46.5482 43.9998 44.9885 43.9998 43.606C43.9998 42.9368 43.6252 42.2155 42.8896 41.6277C42.1598 41.0445 41.1517 40.6638 40.0898 40.6638C39.5375 40.6638 39.0898 40.2161 39.0898 39.6638Z" fill="#89455E"/>
</svg>
