<svg width="80" height="80" viewBox="0 0 80 80" fill="none" xmlns="http://www.w3.org/2000/svg">
<path d="M66.2546 57.2C64.1546 57.2 62.2546 56.2 61.1546 54.5L58.1546 50.0999C54.4546 56.4999 47.6546 60.5999 39.9546 60.5999C29.1546 60.5999 20.3546 52.4 19.2546 41.9H21.2546C22.0546 41.9 22.7546 41.4999 23.0546 40.7999C23.4546 40.0999 23.3546 39.3 22.9546 38.7L19.9546 34.2999L15.3546 27.6C14.9546 27 14.3546 26.7 13.6546 26.7C13.5546 26.7 13.4546 26.7 13.3546 26.7C13.2546 26.7 13.1546 26.7 13.1546 26.7C12.9546 26.8 12.7546 26.9 12.5546 27C12.3546 27.2 12.0546 27.4 11.9546 27.6L4.35464 38.7C3.95464 39.3 3.85464 40.1999 4.25464 40.7999C4.65464 41.4999 5.35464 41.9 6.05464 41.9H8.15464C8.65464 49.6 11.8546 56.7999 17.4546 62.2999C23.4546 68.2999 31.4546 71.5999 39.9546 71.5999C48.4546 71.5999 56.4546 68.2999 62.4546 62.2999C64.0546 60.6999 65.4546 58.8999 66.6546 57.0999C66.5546 57.0999 66.4546 57.2 66.2546 57.2Z" fill="#C1A6B0"/>
<path d="M75.7559 38.9C75.3559 38.2 74.6559 37.8 73.9559 37.8H71.8559C71.2559 30 67.9559 22.9 62.4559 17.3C56.4559 11.3 48.4559 8 39.9559 8C31.4559 8 23.4559 11.3 17.4559 17.3C15.8559 18.9 14.4559 20.7 13.2559 22.5C13.3559 22.5 13.5559 22.5 13.6559 22.5C15.7559 22.5 17.6559 23.5 18.7559 25.2L21.7559 29.6C25.3559 23.2 32.1559 19 39.8559 19C50.6559 19 59.4559 27.2 60.5559 37.7H58.5559C57.7559 37.7 57.0559 38.1 56.7559 38.8C56.3559 39.5 56.4559 40.3 56.8559 40.9L59.8559 45.3L64.4559 52C64.5559 52.1 64.6559 52.3 64.7559 52.4C65.1559 52.7 65.6559 52.9 66.1559 52.9C66.8559 52.9 67.4559 52.6 67.8559 52L70.5559 48L75.4559 40.9C76.0559 40.4 76.0559 39.6 75.7559 38.9Z" fill="#C1A6B0"/>
<path fill-rule="evenodd" clip-rule="evenodd" d="M39.9996 23C41.1042 23 41.9997 23.8954 41.9997 25L41.9999 43C42 44.1046 41.1045 45 40 45C38.8954 45 38 44.1046 37.9999 43L37.9997 25C37.9997 23.8955 38.8951 23 39.9996 23Z" fill="#89455E"/>
<path fill-rule="evenodd" clip-rule="evenodd" d="M42.371 49.5477C42.371 48.4431 41.4756 47.5476 40.371 47.5476L39.9991 47.5476C38.8946 47.5476 37.9991 48.443 37.9991 49.5476C37.9991 50.6522 38.8945 51.5476 39.9991 51.5476L40.371 51.5476C41.4756 51.5476 42.371 50.6522 42.371 49.5477Z" fill="#89455E"/>
</svg>
