<svg width="20" height="21" viewBox="0 0 20 21" fill="none" xmlns="http://www.w3.org/2000/svg">
<path fill-rule="evenodd" clip-rule="evenodd" d="M17.6999 17.2004H16.9999C18.4999 15.5004 19.4999 13.2004 19.4999 10.7004C19.4999 5.30039 15.1999 0.900391 9.69995 0.900391C8.39995 1.00039 7.19995 1.20039 5.99995 1.70039C5.59995 1.90039 5.39995 2.30039 5.59995 2.70039C5.79995 3.10039 6.19995 3.30039 6.59995 3.10039C7.59995 2.70039 8.59995 2.50039 9.79995 2.50039C14.3999 2.50039 18.0999 6.20039 18.0999 10.8004C18.0999 12.9004 17.2999 14.8004 16.0999 16.2004V15.4004C16.0999 15.0004 15.7999 14.6004 15.3999 14.6004C14.9999 14.6004 14.5999 14.9004 14.5999 15.3004L14.3999 18.0004V18.1004V18.2004C14.3999 18.3004 14.4999 18.5004 14.5999 18.6004C14.6999 18.7004 14.8999 18.8004 15.0999 18.8004H17.6999C18.0999 18.8004 18.4999 18.5004 18.4999 18.0004C18.4999 17.5004 18.1999 17.2004 17.6999 17.2004ZM13.6 19.0004C13.5 18.6004 13 18.4004 12.6 18.5004C11.7 18.8004 10.7 19.0004 9.7 19.0004C5.1 19.0004 1.4 15.3004 1.4 10.7004C1.4 8.7004 2.1 6.9004 3.3 5.4004V6.2004C3.3 6.6004 3.6 7.0004 4.1 7.0004C4.5 7.0004 4.9 6.7004 4.9 6.2004V3.7004V3.6004V3.5004C4.9 3.5004 4.9 3.3004 4.8 3.3004C4.8 3.3004 4.7 3.3004 4.7 3.2004L4.6 3.1004H4.5C4.5 3.0004 4.2 3.0004 4.2 3.0004H1.6C1.2 3.0004 0.8 3.3004 0.8 3.7004C0.8 4.1004 1.1 4.4004 1.6 4.4004H2.3C0.9 6.2004 0 8.4004 0 10.8004C0 16.2004 4.3 20.6004 9.8 20.6004C11 20.6004 12.1 20.4004 13.2 20.0004C13.5 19.8004 13.7 19.4004 13.6 19.0004ZM3.7998 10.8004C3.7998 7.50038 6.4998 4.80038 9.7998 4.80038C13.0998 4.80038 15.7998 7.50038 15.7998 10.8004C15.7998 14.1004 13.0998 16.8004 9.7998 16.8004C6.4998 16.8004 3.7998 14.1004 3.7998 10.8004ZM10.0998 9.90038C9.5998 9.90038 9.1998 9.70038 8.8998 9.50038C8.5998 9.20038 8.4998 8.90038 8.4998 8.70038C8.4998 8.30038 8.9998 7.60038 9.9998 7.70038C10.4998 7.70038 10.8998 7.90038 11.1998 8.10038C11.4998 8.30038 11.5998 8.60038 11.5998 8.80038C11.5998 9.30038 11.8998 9.60038 12.3998 9.60038C12.8998 9.60038 13.1998 9.20038 13.1998 8.80038C13.1998 8.00038 12.7998 7.30038 12.1998 6.90038C11.8998 6.60038 11.3998 6.40038 10.8998 6.30038V5.80038C10.8998 5.30038 10.4998 5.00038 10.0998 5.00038C9.69981 5.00038 9.2998 5.30038 9.2998 5.80038V6.20038C7.9998 6.40038 6.9998 7.40038 6.9998 8.70038C6.9998 9.50038 7.39981 10.2004 8.0998 10.7004C8.69981 11.1004 9.3998 11.4004 10.1998 11.4004C10.6998 11.4004 11.0998 11.6004 11.3998 11.8004C11.6998 12.0004 11.7998 12.3004 11.7998 12.5004C11.7998 12.9004 11.2998 13.6004 10.1998 13.6004C9.6998 13.6004 9.2998 13.4004 8.9998 13.2004C8.6998 13.0004 8.5998 12.7004 8.5998 12.5004C8.5998 12.0004 8.2998 11.7004 7.7998 11.7004C7.2998 11.7004 6.9998 12.1004 6.9998 12.5004C6.9998 13.3004 7.3998 14.0004 7.9998 14.4004C8.2998 14.7004 8.7998 14.9004 9.2998 15.0004V15.9004C9.2998 16.4004 9.69981 16.7004 10.0998 16.7004C10.5998 16.7004 10.8998 16.3004 10.8998 15.9004V15.0004C12.1998 14.8004 13.1998 13.8004 13.1998 12.5004C13.1998 11.7004 12.7998 11.0004 12.1998 10.6004C11.5998 10.2004 10.8998 9.90038 10.0998 9.90038Z" fill="white"/>
</svg>
