<svg width="32" height="32" viewBox="0 0 32 32" fill="none" xmlns="http://www.w3.org/2000/svg">
<path d="M2 6C2 3.79086 3.79086 2 6 2H26C28.2091 2 30 3.79086 30 6V26C30 28.2091 28.2091 30 26 30H6C3.79086 30 2 28.2091 2 26V6Z" fill="#E6DBDF"/>
<path fill-rule="evenodd" clip-rule="evenodd" d="M15.1923 11.9036C14.7781 11.9036 14.4423 11.5678 14.4423 11.1536C14.4423 10.7394 14.7781 10.4036 15.1923 10.4036H20.8461C21.2603 10.4036 21.5961 10.7394 21.5961 11.1536V16.8074C21.5961 17.2216 21.2603 17.5574 20.8461 17.5574C20.4319 17.5574 20.0961 17.2216 20.0961 16.8074V12.9642L11.6841 21.3762C11.3912 21.6691 10.9164 21.6691 10.6235 21.3762C10.3306 21.0833 10.3306 20.6084 10.6235 20.3155L19.0355 11.9036H15.1923Z" fill="#89455E"/>
</svg>
