<svg width="80" height="80" viewBox="0 0 80 80" fill="none" xmlns="http://www.w3.org/2000/svg">
<path d="M60.7371 67.1053C60.7371 68.7621 59.3939 70.1053 57.7371 70.1053H11.1055C9.44862 70.1053 8.10547 68.7621 8.10547 67.1053V6C8.10547 4.34315 9.44861 3 11.1055 3H48.895L54.1581 8.26316L60.7371 14.8421V67.1053Z" fill="#C1A6B0"/>
<path d="M60.7371 14.8421L48.895 3V13.8421C48.895 14.3944 49.3427 14.8421 49.895 14.8421H60.7371Z" fill="#89455E"/>
<path fill-rule="evenodd" clip-rule="evenodd" d="M17.6313 21.421C17.6313 20.8687 18.0791 20.421 18.6313 20.421H46.2629C46.8152 20.421 47.2629 20.8687 47.2629 21.421C47.2629 21.9733 46.8152 22.421 46.2629 22.421H18.6313C18.0791 22.421 17.6313 21.9733 17.6313 21.421Z" fill="white"/>
<path fill-rule="evenodd" clip-rule="evenodd" d="M17.6309 31.9474C17.6309 31.3951 18.0786 30.9474 18.6309 30.9474H41.249C41.8013 30.9474 42.249 31.3951 42.249 31.9474C42.249 32.4997 41.8013 32.9474 41.249 32.9474H18.6309C18.0786 32.9474 17.6309 32.4997 17.6309 31.9474Z" fill="white"/>
<path fill-rule="evenodd" clip-rule="evenodd" d="M17.6309 42.4736C17.6309 41.9213 18.0786 41.4736 18.6309 41.4736H32.453C33.0053 41.4736 33.453 41.9213 33.453 42.4736C33.453 43.0259 33.0053 43.4736 32.453 43.4736H18.6309C18.0786 43.4736 17.6309 43.0259 17.6309 42.4736Z" fill="white"/>
<path fill-rule="evenodd" clip-rule="evenodd" d="M17.6309 53C17.6309 52.4477 18.0786 52 18.6309 52H27.473C28.0253 52 28.473 52.4477 28.473 53C28.473 53.5523 28.0253 54 27.473 54H18.6309C18.0786 54 17.6309 53.5523 17.6309 53Z" fill="white"/>
<path d="M71.2626 62.2105C71.2626 70.9308 64.1934 78 55.4731 78C46.7528 78 39.6836 70.9308 39.6836 62.2105C39.6836 53.4902 46.7528 46.421 55.4731 46.421C64.1934 46.421 71.2626 53.4902 71.2626 62.2105Z" fill="#89455E"/>
<path fill-rule="evenodd" clip-rule="evenodd" d="M55.4731 47.421C47.3051 47.421 40.6836 54.0425 40.6836 62.2105C40.6836 70.3785 47.3051 77 55.4731 77C63.6411 77 70.2626 70.3785 70.2626 62.2105C70.2626 54.0425 63.6411 47.421 55.4731 47.421ZM38.6836 62.2105C38.6836 52.9379 46.2005 45.421 55.4731 45.421C64.7457 45.421 72.2626 52.9379 72.2626 62.2105C72.2626 71.4831 64.7457 79 55.4731 79C46.2005 79 38.6836 71.4831 38.6836 62.2105Z" fill="#E6DBDF"/>
<path fill-rule="evenodd" clip-rule="evenodd" d="M62.76 54.9236C63.1506 55.3142 63.1506 55.9473 62.76 56.3378L49.6021 69.4957C49.2116 69.8863 48.5784 69.8863 48.1879 69.4957C47.7974 69.1052 47.7974 68.4721 48.1879 68.0815L61.3458 54.9236C61.7363 54.5331 62.3695 54.5331 62.76 54.9236Z" fill="white"/>
<path fill-rule="evenodd" clip-rule="evenodd" d="M48.1879 54.9236C48.5784 54.5331 49.2116 54.5331 49.6021 54.9236L62.76 68.0815C63.1506 68.4721 63.1506 69.1052 62.76 69.4957C62.3695 69.8863 61.7363 69.8863 61.3458 69.4957L48.1879 56.3378C47.7974 55.9473 47.7974 55.3142 48.1879 54.9236Z" fill="white"/>
</svg>
