<svg width="26" height="18" viewBox="0 0 26 18" fill="none" xmlns="http://www.w3.org/2000/svg">
<path d="M24.8058 0H5.68351C5.08014 0 4.5696 0.427286 4.43036 1.04448L1.27425 17.1389C1.22784 17.4712 1.45991 17.7561 1.73839 17.7561H23.3206C23.7383 17.7561 24.1096 17.4238 24.156 16.9965L25.9661 1.47176C26.1518 0.664667 25.5484 0 24.8058 0Z" fill="#C1A6B0"/>
<path opacity="0.61" d="M20.9179 3.16992H13.8687C13.4485 3.16992 13.075 3.40903 12.8416 3.74377L12.048 5.03494C12.048 5.08276 12.0013 5.08276 11.9546 5.08276H0.937222C0.377015 5.08276 -0.0431407 5.56097 0.00354326 6.087L1.03059 17.038C1.07727 17.4205 1.40406 17.7553 1.77753 17.7553H23.5322C23.859 17.7553 24.1391 17.4205 24.0925 17.0858L22.1317 4.22198C22.0384 3.64813 21.5248 3.16992 20.9179 3.16992Z" fill="#89455E"/>
</svg>
