<svg width="48" height="48" viewBox="0 0 48 48" fill="none" xmlns="http://www.w3.org/2000/svg">
<path fill-rule="evenodd" clip-rule="evenodd" d="M8.85238 6.05233C9.84633 5.05839 11.1944 4.5 12.6 4.5H27.8001C28.1979 4.5 28.5794 4.65804 28.8607 4.93934L40.2607 16.3393C40.542 16.6206 40.7001 17.0022 40.7001 17.4V40.2C40.7001 41.6056 40.1417 42.9537 39.1477 43.9477C38.1538 44.9416 36.8057 45.5 35.4001 45.5H12.6C11.1944 45.5 9.84633 44.9416 8.85238 43.9477C7.85844 42.9537 7.30005 41.6056 7.30005 40.2V9.8C7.30005 8.39435 7.85844 7.04628 8.85238 6.05233ZM12.6 7.5C11.9901 7.5 11.405 7.74232 10.9737 8.17365C10.5424 8.60499 10.3 9.19 10.3 9.8V40.2C10.3 40.81 10.5424 41.395 10.9737 41.8263C11.405 42.2577 11.9901 42.5 12.6 42.5H35.4001C36.01 42.5 36.5951 42.2577 37.0264 41.8263C37.4577 41.395 37.7001 40.81 37.7001 40.2V18.0213L27.1787 7.5H12.6Z" fill="black"/>
<path fill-rule="evenodd" clip-rule="evenodd" d="M27.7998 4.5C28.6282 4.5 29.2998 5.17157 29.2998 6V15.9H39.1998C40.0282 15.9 40.6998 16.5716 40.6998 17.4C40.6998 18.2284 40.0282 18.9 39.1998 18.9H27.7998C26.9714 18.9 26.2998 18.2284 26.2998 17.4V6C26.2998 5.17157 26.9714 4.5 27.7998 4.5Z" fill="black"/>
</svg>
