<svg width="24" height="24" viewBox="0 0 24 24" fill="none" xmlns="http://www.w3.org/2000/svg">
<path fill-rule="evenodd" clip-rule="evenodd" d="M1.25 4C1.25 2.48122 2.48122 1.25 4 1.25H20C21.5188 1.25 22.75 2.48122 22.75 4V7.71429V20C22.75 21.5188 21.5188 22.75 20 22.75H4C2.48122 22.75 1.25 21.5188 1.25 20V7.71429V4ZM4 2.75C3.30965 2.75 2.75 3.30965 2.75 4V7.71429V20C2.75 20.6904 3.30964 21.25 4 21.25H20C20.6904 21.25 21.25 20.6904 21.25 20V7.71429V4C21.25 3.30964 20.6904 2.75 20 2.75H4Z" fill="#C1A6B0"/>
<path fill-rule="evenodd" clip-rule="evenodd" d="M4.91722 14.2507C5.55797 13.61 6.42701 13.25 7.33317 13.25H11.9998C12.906 13.25 13.775 13.61 14.4158 14.2507C15.0565 14.8915 15.4165 15.7605 15.4165 16.6667V18C15.4165 18.4142 15.0807 18.75 14.6665 18.75C14.2523 18.75 13.9165 18.4142 13.9165 18V16.6667C13.9165 16.1583 13.7146 15.6708 13.3551 15.3114C12.9957 14.9519 12.5082 14.75 11.9998 14.75H7.33317C6.82484 14.75 6.33733 14.9519 5.97788 15.3114C5.61844 15.6708 5.4165 16.1583 5.4165 16.6667V18C5.4165 18.4142 5.08072 18.75 4.6665 18.75C4.25229 18.75 3.9165 18.4142 3.9165 18V16.6667C3.9165 15.7605 4.27647 14.8915 4.91722 14.2507Z" fill="#C1A6B0"/>
<path fill-rule="evenodd" clip-rule="evenodd" d="M9.66667 6.75C8.60812 6.75 7.75 7.60812 7.75 8.66667C7.75 9.72521 8.60812 10.5833 9.66667 10.5833C10.7252 10.5833 11.5833 9.72521 11.5833 8.66667C11.5833 7.60812 10.7252 6.75 9.66667 6.75ZM6.25 8.66667C6.25 6.77969 7.77969 5.25 9.66667 5.25C11.5536 5.25 13.0833 6.77969 13.0833 8.66667C13.0833 10.5536 11.5536 12.0833 9.66667 12.0833C7.77969 12.0833 6.25 10.5536 6.25 8.66667Z" fill="#C1A6B0"/>
<path fill-rule="evenodd" clip-rule="evenodd" d="M16.5686 4.75C15.5704 4.75 14.75 5.54558 14.75 6.56856C14.75 6.98278 14.4142 7.31856 14 7.31856C13.5858 7.31856 13.25 6.98278 13.25 6.56856C13.25 4.70191 14.7573 3.25 16.5686 3.25C18.3875 3.25 19.8871 4.74967 19.8871 6.56856C19.8871 8.12994 18.782 9.45609 17.3186 9.80029V11.4247C17.3186 11.839 16.9828 12.1747 16.5686 12.1747C16.1543 12.1747 15.8186 11.839 15.8186 11.4247V9.13712C15.8186 8.72291 16.1543 8.38712 16.5686 8.38712C17.559 8.38712 18.3871 7.55903 18.3871 6.56856C18.3871 5.57809 17.559 4.75 16.5686 4.75Z" fill="#C1A6B0"/>
<path d="M16.5672 14.4213C16.7445 14.4213 16.8882 14.2776 16.8882 14.1002C16.8882 13.9229 16.7445 13.7792 16.5672 13.7792C16.3898 13.7792 16.2461 13.9229 16.2461 14.1002C16.2461 14.2776 16.3898 14.4213 16.5672 14.4213Z" fill="#C1A6B0"/>
<path fill-rule="evenodd" clip-rule="evenodd" d="M16.5672 14.5292C16.8041 14.5292 16.9961 14.3371 16.9961 14.1002C16.9961 13.8634 16.8041 13.6713 16.5672 13.6713C16.3303 13.6713 16.1382 13.8634 16.1382 14.1002C16.1382 14.3371 16.3303 14.5292 16.5672 14.5292ZM15.4961 14.1002C15.4961 13.5087 15.9756 13.0292 16.5672 13.0292C17.1587 13.0292 17.6382 13.5087 17.6382 14.1002C17.6382 14.6918 17.1587 15.1713 16.5672 15.1713C15.9756 15.1713 15.4961 14.6918 15.4961 14.1002Z" fill="#C1A6B0"/>
</svg>
