<svg width="24" height="24" viewBox="0 0 24 24" fill="none" xmlns="http://www.w3.org/2000/svg">
<path fill-rule="evenodd" clip-rule="evenodd" d="M1.25 4C1.25 2.48122 2.48122 1.25 4 1.25H20C21.5188 1.25 22.75 2.48122 22.75 4V7.71429V20C22.75 21.5188 21.5188 22.75 20 22.75H4C2.48122 22.75 1.25 21.5188 1.25 20V7.71429V4ZM4 2.75C3.30965 2.75 2.75 3.30965 2.75 4V7.71429V20C2.75 20.6904 3.30964 21.25 4 21.25H20C20.6904 21.25 21.25 20.6904 21.25 20V7.71429V4C21.25 3.30964 20.6904 2.75 20 2.75H4Z" fill="#C1A6B0"/>
<path fill-rule="evenodd" clip-rule="evenodd" d="M4.91722 14.2507C5.55797 13.61 6.42701 13.25 7.33317 13.25H11.9998C12.906 13.25 13.775 13.61 14.4158 14.2507C15.0565 14.8915 15.4165 15.7605 15.4165 16.6667V18C15.4165 18.4142 15.0807 18.75 14.6665 18.75C14.2523 18.75 13.9165 18.4142 13.9165 18V16.6667C13.9165 16.1583 13.7146 15.6708 13.3551 15.3114C12.9957 14.9519 12.5082 14.75 11.9998 14.75H7.33317C6.82484 14.75 6.33733 14.9519 5.97788 15.3114C5.61844 15.6708 5.4165 16.1583 5.4165 16.6667V18C5.4165 18.4142 5.08072 18.75 4.6665 18.75C4.25229 18.75 3.9165 18.4142 3.9165 18V16.6667C3.9165 15.7605 4.27647 14.8915 4.91722 14.2507Z" fill="#C1A6B0"/>
<path fill-rule="evenodd" clip-rule="evenodd" d="M9.66667 6.75C8.60812 6.75 7.75 7.60812 7.75 8.66667C7.75 9.72521 8.60812 10.5833 9.66667 10.5833C10.7252 10.5833 11.5833 9.72521 11.5833 8.66667C11.5833 7.60812 10.7252 6.75 9.66667 6.75ZM6.25 8.66667C6.25 6.77969 7.77969 5.25 9.66667 5.25C11.5536 5.25 13.0833 6.77969 13.0833 8.66667C13.0833 10.5536 11.5536 12.0833 9.66667 12.0833C7.77969 12.0833 6.25 10.5536 6.25 8.66667Z" fill="#C1A6B0"/>
<path fill-rule="evenodd" clip-rule="evenodd" d="M19.8643 9.46967C20.1572 9.76256 20.1572 10.2374 19.8643 10.5303L17.1976 13.197C16.9048 13.4899 16.4299 13.4899 16.137 13.197L14.8037 11.8637C14.5108 11.5708 14.5108 11.0959 14.8037 10.803C15.0965 10.5101 15.5714 10.5101 15.8643 10.803L16.6673 11.606L18.8037 9.46967C19.0965 9.17678 19.5714 9.17678 19.8643 9.46967Z" fill="#C1A6B0"/>
</svg>
