<svg width="40" height="40" viewBox="0 0 40 40" fill="none" xmlns="http://www.w3.org/2000/svg">
<path d="M7.00026 7.5H32.6669C34.3336 7.5 35.6669 8.83333 35.6669 10.6667V29.5C35.6669 31.1667 34.3336 32.6667 32.6669 32.6667H7.00026C5.33359 32.6667 4.00026 31.3333 4.00026 29.5V10.6667C4.00026 8.83333 5.33359 7.5 7.00026 7.5Z" stroke="#89455E" stroke-width="2" stroke-linecap="round" stroke-linejoin="round"/>
<path d="M35.6664 17.5H28.1664C25.9997 17.5 24.3331 19.1667 24.3331 21.3333C24.3331 23.5 25.9997 25.1667 28.1664 25.1667H35.6664" stroke="#89455E" stroke-width="2" stroke-linecap="round" stroke-linejoin="round"/>
<path d="M28.3336 22.166C28.8859 22.166 29.3336 21.7183 29.3336 21.166C29.3336 20.6137 28.8859 20.166 28.3336 20.166C27.7813 20.166 27.3336 20.6137 27.3336 21.166C27.3336 21.7183 27.7813 22.166 28.3336 22.166Z" stroke="#89455E" stroke-width="2" stroke-linecap="round" stroke-linejoin="round"/>
<path d="M10 7.49924L19.6667 4.16591C20.8333 3.83257 22.1667 3.83257 22.6667 4.33257L26.6667 7.49924" stroke="#89455E" stroke-width="2"/>
</svg>
