<svg width="32" height="32" viewBox="0 0 32 32" fill="none" xmlns="http://www.w3.org/2000/svg">
<path d="M2 6C2 3.79086 3.79086 2 6 2H26C28.2091 2 30 3.79086 30 6V26C30 28.2091 28.2091 30 26 30H6C3.79086 30 2 28.2091 2 26V6Z" fill="#E6DBDF"/>
<path fill-rule="evenodd" clip-rule="evenodd" d="M21.3765 10.6232C21.6693 10.9161 21.6693 11.391 21.3765 11.6839L12.9645 20.0959H16.8077C17.2219 20.0959 17.5577 20.4317 17.5577 20.8459C17.5577 21.2601 17.2219 21.5959 16.8077 21.5959H11.1538C10.7396 21.5959 10.4038 21.2601 10.4038 20.8459V15.192C10.4038 14.7778 10.7396 14.442 11.1538 14.442C11.568 14.442 11.9038 14.7778 11.9038 15.192V19.0352L20.3158 10.6232C20.6087 10.3303 21.0836 10.3303 21.3765 10.6232Z" fill="#89455E"/>
</svg>
